G04 Layer_Physical_Order=2*
G04 Layer_Color=32768*
%FSLAX25Y25*%
%MOIN*%
G70*
G01*
G75*
%ADD55C,0.02000*%
%ADD105C,0.07439*%
%ADD106C,0.08400*%
G04:AMPARAMS|DCode=107|XSize=108mil|YSize=108mil|CornerRadius=0mil|HoleSize=0mil|Usage=FLASHONLY|Rotation=0.000|XOffset=0mil|YOffset=0mil|HoleType=Round|Shape=Relief|Width=8mil|Gap=12mil|Entries=4|*
%AMTHD107*
7,0,0,0.10800,0.08400,0.00800,45*
%
%ADD107THD107*%
%ADD108C,0.05943*%
G04:AMPARAMS|DCode=109|XSize=83.433mil|YSize=83.433mil|CornerRadius=0mil|HoleSize=0mil|Usage=FLASHONLY|Rotation=0.000|XOffset=0mil|YOffset=0mil|HoleType=Round|Shape=Relief|Width=8mil|Gap=12mil|Entries=4|*
%AMTHD109*
7,0,0,0.08343,0.05943,0.00800,45*
%
%ADD109THD109*%
%ADD110C,0.06400*%
G04:AMPARAMS|DCode=111|XSize=88mil|YSize=88mil|CornerRadius=0mil|HoleSize=0mil|Usage=FLASHONLY|Rotation=0.000|XOffset=0mil|YOffset=0mil|HoleType=Round|Shape=Relief|Width=8mil|Gap=12mil|Entries=4|*
%AMTHD111*
7,0,0,0.08800,0.06400,0.00800,45*
%
%ADD111THD111*%
%ADD112C,0.07900*%
%ADD113C,0.14211*%
%ADD114C,0.03900*%
%ADD115C,0.08700*%
%ADD116C,0.03400*%
G54D55*
X0Y0D02*
Y279500D01*
X550678D01*
X0Y0D02*
X550678D01*
Y279500D01*
G54D105*
X45138Y214828D02*
D03*
X35138D02*
D03*
X45138Y224828D02*
D03*
X35138D02*
D03*
X45138Y234828D02*
D03*
X35138D02*
D03*
X45138Y244828D02*
D03*
X35138D02*
D03*
X45138Y254828D02*
D03*
X35138D02*
D03*
X45138Y264828D02*
D03*
X35138D02*
D03*
X45138Y274828D02*
D03*
X35138D02*
D03*
X100276Y4828D02*
D03*
X90276D02*
D03*
X100276Y14828D02*
D03*
X90276D02*
D03*
X100276Y24828D02*
D03*
X90276D02*
D03*
X100276Y34828D02*
D03*
X90276D02*
D03*
X100276Y44828D02*
D03*
X90276D02*
D03*
X100276Y54828D02*
D03*
X90276D02*
D03*
X100276Y64828D02*
D03*
X90276D02*
D03*
X100295Y74828D02*
D03*
X90295D02*
D03*
X100295Y84828D02*
D03*
X90295D02*
D03*
X100295Y94828D02*
D03*
X90295D02*
D03*
X100295Y104828D02*
D03*
X90295D02*
D03*
X100295Y114828D02*
D03*
X90295D02*
D03*
X100295Y124828D02*
D03*
X90295D02*
D03*
X100295Y134828D02*
D03*
X90295D02*
D03*
X100295Y144828D02*
D03*
X90295D02*
D03*
X100295Y154828D02*
D03*
X90295D02*
D03*
X100295Y164828D02*
D03*
X90295D02*
D03*
X100295Y174828D02*
D03*
X90295D02*
D03*
X100295Y184828D02*
D03*
X90295D02*
D03*
X100295Y194828D02*
D03*
X90295D02*
D03*
X100295Y204828D02*
D03*
X90295D02*
D03*
X100295Y214828D02*
D03*
X90295D02*
D03*
X100295Y224828D02*
D03*
X90295D02*
D03*
X100295Y234828D02*
D03*
X90295D02*
D03*
X100295Y244828D02*
D03*
X90295D02*
D03*
X100295Y254828D02*
D03*
X90295D02*
D03*
X100295Y264828D02*
D03*
X90295D02*
D03*
X100295Y274828D02*
D03*
X90295D02*
D03*
X45138Y4828D02*
D03*
X35138D02*
D03*
X45138Y14828D02*
D03*
X35138D02*
D03*
X45138Y24828D02*
D03*
X35138D02*
D03*
X45138Y34828D02*
D03*
X35138D02*
D03*
X45138Y44828D02*
D03*
X35138D02*
D03*
X45138Y54828D02*
D03*
X35138D02*
D03*
X45138Y64828D02*
D03*
X35138D02*
D03*
G54D106*
X502578Y221050D02*
D03*
Y188550D02*
D03*
Y123550D02*
D03*
Y58550D02*
D03*
G54D107*
Y156050D02*
D03*
Y91050D02*
D03*
G54D108*
X390546Y259171D02*
D03*
X400547D02*
D03*
X390546Y249171D02*
D03*
Y239171D02*
D03*
X400547D02*
D03*
Y229171D02*
D03*
X390546Y219171D02*
D03*
X400547D02*
D03*
X356278Y228500D02*
D03*
Y218500D02*
D03*
X346278Y228500D02*
D03*
Y218500D02*
D03*
X336278Y228500D02*
D03*
Y218500D02*
D03*
X326278Y228500D02*
D03*
Y218500D02*
D03*
X316278D02*
D03*
X356278Y266000D02*
D03*
Y256000D02*
D03*
X346278Y266000D02*
D03*
Y256000D02*
D03*
X336278Y266000D02*
D03*
Y256000D02*
D03*
X326278Y266000D02*
D03*
Y256000D02*
D03*
X316278D02*
D03*
G54D109*
X400547Y249171D02*
D03*
X390546Y229171D02*
D03*
X316278Y228500D02*
D03*
Y266000D02*
D03*
G54D110*
X185303Y11825D02*
D03*
X195303D02*
D03*
X205303D02*
D03*
X215303D02*
D03*
X266484D02*
D03*
X256484D02*
D03*
X246484D02*
D03*
X236484D02*
D03*
X287665Y39384D02*
D03*
X297665D02*
D03*
X307665D02*
D03*
X317665D02*
D03*
Y11825D02*
D03*
X307665D02*
D03*
X297665D02*
D03*
X287665D02*
D03*
X338886Y11865D02*
D03*
X348886D02*
D03*
X358886D02*
D03*
X368886D02*
D03*
X280498Y259868D02*
D03*
X270498D02*
D03*
X250498D02*
D03*
X218703Y259825D02*
D03*
X186603D02*
D03*
X398178Y142300D02*
D03*
Y132300D02*
D03*
Y122300D02*
D03*
X398278Y183700D02*
D03*
Y173700D02*
D03*
Y163700D02*
D03*
X373917Y173765D02*
D03*
Y111561D02*
D03*
X540945Y42151D02*
D03*
X500378Y254200D02*
D03*
X373917Y142663D02*
D03*
X196603Y235725D02*
D03*
G54D111*
X260498Y259868D02*
D03*
X228703Y259825D02*
D03*
X196603D02*
D03*
X373917Y183765D02*
D03*
Y121561D02*
D03*
X500378Y264200D02*
D03*
X373917Y152663D02*
D03*
X186603Y235725D02*
D03*
G54D112*
X419978Y95900D02*
D03*
X399978D02*
D03*
G54D113*
X531004Y19710D02*
D03*
Y259868D02*
D03*
X156988D02*
D03*
Y19710D02*
D03*
G54D114*
X531004Y9710D02*
D03*
Y29710D02*
D03*
X541004Y19710D02*
D03*
X521004D02*
D03*
X524004Y26710D02*
D03*
X538004D02*
D03*
Y12710D02*
D03*
X524004D02*
D03*
X531004Y249868D02*
D03*
Y269868D02*
D03*
X541004Y259868D02*
D03*
X521004D02*
D03*
X524004Y266868D02*
D03*
X538004D02*
D03*
Y252868D02*
D03*
X524004D02*
D03*
X156988Y249868D02*
D03*
Y269868D02*
D03*
X166988Y259868D02*
D03*
X146988D02*
D03*
X149988Y266868D02*
D03*
X163988D02*
D03*
Y252868D02*
D03*
X149988D02*
D03*
X156988Y9710D02*
D03*
Y29710D02*
D03*
X166988Y19710D02*
D03*
X146988D02*
D03*
X149988Y26710D02*
D03*
X163988D02*
D03*
Y12710D02*
D03*
X149988D02*
D03*
X50295Y69390D02*
D03*
X29921D02*
D03*
X483703Y24025D02*
D03*
X477203Y58625D02*
D03*
X425103Y144225D02*
D03*
X435003Y125225D02*
D03*
X411403Y155025D02*
D03*
X452278Y45100D02*
D03*
X437578Y196300D02*
D03*
X437378Y182000D02*
D03*
X502578Y230800D02*
D03*
X342078Y114900D02*
D03*
X362978Y149500D02*
D03*
X358078Y136800D02*
D03*
X359178Y128000D02*
D03*
X355778Y164800D02*
D03*
X362678Y177800D02*
D03*
X342403Y126425D02*
D03*
X354478Y114000D02*
D03*
X442678Y227700D02*
D03*
X378378Y98800D02*
D03*
X394178Y66400D02*
D03*
X397978Y66300D02*
D03*
X493578Y221000D02*
D03*
X502578Y211200D02*
D03*
X399778Y39500D02*
D03*
X390578Y39472D02*
D03*
Y34200D02*
D03*
X399778D02*
D03*
X390578Y29000D02*
D03*
X399778D02*
D03*
X434578Y14200D02*
D03*
X430078Y8400D02*
D03*
X425278D02*
D03*
X434578Y18500D02*
D03*
Y10000D02*
D03*
X437478Y189200D02*
D03*
X351578Y102700D02*
D03*
X418878Y223400D02*
D03*
X463778Y168300D02*
D03*
X465278Y159000D02*
D03*
X470878Y156400D02*
D03*
X484378Y156500D02*
D03*
X477678Y175500D02*
D03*
X491578Y168400D02*
D03*
X502678Y179100D02*
D03*
Y198200D02*
D03*
X512278Y188300D02*
D03*
X518978Y185300D02*
D03*
X518878Y177500D02*
D03*
X509278Y166800D02*
D03*
X494378Y179600D02*
D03*
X510578Y179700D02*
D03*
X463678Y115300D02*
D03*
X470978Y105100D02*
D03*
X473278Y125500D02*
D03*
X484178D02*
D03*
X492578Y115500D02*
D03*
X484178Y104900D02*
D03*
X516478Y106800D02*
D03*
X516278Y128800D02*
D03*
X511778Y123600D02*
D03*
X502678Y132500D02*
D03*
X493378Y123300D02*
D03*
X502578Y113500D02*
D03*
X518478Y117900D02*
D03*
X479778Y131600D02*
D03*
X500978Y105100D02*
D03*
X441678Y77400D02*
D03*
X447478Y58900D02*
D03*
X454678Y57400D02*
D03*
X463978Y91400D02*
D03*
X462878Y85400D02*
D03*
X463878Y79400D02*
D03*
X459978Y75600D02*
D03*
X455078Y77300D02*
D03*
X490678Y89200D02*
D03*
X490278Y79700D02*
D03*
X489778Y85400D02*
D03*
X499778Y79800D02*
D03*
X516478Y63500D02*
D03*
X502678Y68100D02*
D03*
X502878Y49000D02*
D03*
X494278Y54100D02*
D03*
X512078Y58500D02*
D03*
X497578Y39800D02*
D03*
X497578Y27700D02*
D03*
X512603Y35225D02*
D03*
X441678Y23500D02*
D03*
X438878Y201600D02*
D03*
X458878D02*
D03*
X468878Y199700D02*
D03*
X465678Y207500D02*
D03*
X478478Y211600D02*
D03*
X477778Y201500D02*
D03*
X478878Y191600D02*
D03*
X468878D02*
D03*
Y181600D02*
D03*
X487603Y209125D02*
D03*
X394178Y71500D02*
D03*
Y76500D02*
D03*
X414078Y126200D02*
D03*
X482878Y251400D02*
D03*
X341503Y186325D02*
D03*
X422903Y223425D02*
D03*
X413678Y84000D02*
D03*
X412778Y93100D02*
D03*
X397978Y71500D02*
D03*
X397678Y76100D02*
D03*
X448878Y201600D02*
D03*
X458778Y207900D02*
D03*
X450878Y209300D02*
D03*
X440503Y223425D02*
D03*
X434503D02*
D03*
X428603D02*
D03*
X474978Y260000D02*
D03*
X464678Y14100D02*
D03*
X476978Y74600D02*
D03*
X483478Y56900D02*
D03*
X470778Y57300D02*
D03*
X473978Y37600D02*
D03*
X470478Y47800D02*
D03*
X494578Y22600D02*
D03*
X500378Y22700D02*
D03*
X470278Y23500D02*
D03*
X492003Y17825D02*
D03*
X476778Y222100D02*
D03*
X472978D02*
D03*
X478603Y125025D02*
D03*
X477503Y157225D02*
D03*
X24705Y69390D02*
D03*
X55610D02*
D03*
X201476Y117224D02*
D03*
X204331Y114567D02*
D03*
G54D115*
X454773Y67139D02*
D03*
X441373D02*
D03*
Y14139D02*
D03*
X454773D02*
D03*
X470878Y168400D02*
D03*
X484278D02*
D03*
Y115400D02*
D03*
X470878D02*
D03*
X483778Y67100D02*
D03*
X470378D02*
D03*
Y14100D02*
D03*
X483778D02*
D03*
G54D116*
X52933Y59626D02*
D03*
X190256Y60236D02*
D03*
X235433Y58465D02*
D03*
X329626Y58661D02*
D03*
X313378Y177100D02*
D03*
X314878Y135700D02*
D03*
X208903Y111925D02*
D03*
X179003Y110825D02*
D03*
X424828Y120450D02*
D03*
X415803Y151925D02*
D03*
X417803Y151825D02*
D03*
X383478Y101800D02*
D03*
X367903Y201425D02*
D03*
X478703Y101625D02*
D03*
X486403Y98325D02*
D03*
X335403Y160025D02*
D03*
X340078Y160800D02*
D03*
X431603Y172925D02*
D03*
X426803D02*
D03*
X252803Y273925D02*
D03*
X238978Y256200D02*
D03*
X201878Y241600D02*
D03*
X220478Y244700D02*
D03*
X518878Y196000D02*
D03*
X488878Y45800D02*
D03*
X326403Y154625D02*
D03*
X295478Y56200D02*
D03*
X366178Y191300D02*
D03*
X335303Y165125D02*
D03*
X425178Y275300D02*
D03*
X487878Y272000D02*
D03*
X381978Y218500D02*
D03*
X285178Y144700D02*
D03*
X345278Y197000D02*
D03*
X293303Y131225D02*
D03*
X455491Y182877D02*
D03*
X459491D02*
D03*
Y186877D02*
D03*
X455491D02*
D03*
Y190877D02*
D03*
X459491D02*
D03*
Y194877D02*
D03*
X455491D02*
D03*
X447491D02*
D03*
X443491D02*
D03*
Y190877D02*
D03*
X447491D02*
D03*
Y186877D02*
D03*
X443491D02*
D03*
Y182877D02*
D03*
X447491D02*
D03*
X451491D02*
D03*
Y186877D02*
D03*
Y194877D02*
D03*
Y190877D02*
D03*
X410959Y50768D02*
D03*
X406959D02*
D03*
X414959D02*
D03*
X418959D02*
D03*
Y46768D02*
D03*
Y42768D02*
D03*
X414959D02*
D03*
Y46768D02*
D03*
X410959D02*
D03*
Y42768D02*
D03*
X406959D02*
D03*
Y46768D02*
D03*
Y54768D02*
D03*
Y58768D02*
D03*
X410959D02*
D03*
Y54768D02*
D03*
X414959D02*
D03*
Y58768D02*
D03*
X418959D02*
D03*
Y54768D02*
D03*
X314903Y132625D02*
D03*
X166678Y232000D02*
D03*
X359403Y237025D02*
D03*
X356003D02*
D03*
X367778Y207900D02*
D03*
X340278Y153400D02*
D03*
X310003Y215125D02*
D03*
X253803Y28825D02*
D03*
X173978Y50500D02*
D03*
X361178Y46800D02*
D03*
X215478Y87400D02*
D03*
X428878Y156200D02*
D03*
X413503Y142425D02*
D03*
X358278Y111800D02*
D03*
X342078Y106700D02*
D03*
X319757Y143800D02*
D03*
X284778Y114600D02*
D03*
X278261Y157100D02*
D03*
X275161Y151600D02*
D03*
X281361D02*
D03*
X281903Y144725D02*
D03*
X325957Y143800D02*
D03*
X337178Y153500D02*
D03*
X338278Y125600D02*
D03*
X281361Y157100D02*
D03*
X278261Y151600D02*
D03*
X306603Y128225D02*
D03*
X306628Y133250D02*
D03*
X296578Y131300D02*
D03*
X288678Y128200D02*
D03*
X367778Y211200D02*
D03*
X337078Y190925D02*
D03*
X298103Y208625D02*
D03*
X309978Y105100D02*
D03*
X292978Y56200D02*
D03*
X352678Y86200D02*
D03*
X351878Y83900D02*
D03*
X356378Y45000D02*
D03*
X299478Y104100D02*
D03*
X175678Y95600D02*
D03*
X150078Y109100D02*
D03*
X158578Y109800D02*
D03*
X161178Y107600D02*
D03*
X198078Y84100D02*
D03*
X190178Y90300D02*
D03*
X224678Y95000D02*
D03*
X215478Y89800D02*
D03*
X190403Y96125D02*
D03*
X193303Y95125D02*
D03*
X170978Y93100D02*
D03*
X195803Y93425D02*
D03*
X200578Y77600D02*
D03*
X232878Y98400D02*
D03*
X240478Y98300D02*
D03*
X236678Y98400D02*
D03*
X330178Y99000D02*
D03*
X231678Y49700D02*
D03*
X231278Y54400D02*
D03*
X258578Y102300D02*
D03*
X273478Y88200D02*
D03*
X276778Y82300D02*
D03*
X356778Y88000D02*
D03*
X347078Y106700D02*
D03*
X254978Y86000D02*
D03*
X256278Y84000D02*
D03*
X154478Y84300D02*
D03*
X331178Y23200D02*
D03*
X317407Y72117D02*
D03*
X335778Y33300D02*
D03*
X352778Y34900D02*
D03*
X166278Y87200D02*
D03*
X164078D02*
D03*
X154478Y82100D02*
D03*
X144878Y45300D02*
D03*
X147078D02*
D03*
X216378Y46800D02*
D03*
X143578Y61700D02*
D03*
X170178Y90800D02*
D03*
X176478Y51200D02*
D03*
X235678Y52500D02*
D03*
X209978Y86000D02*
D03*
X190378Y51100D02*
D03*
Y54100D02*
D03*
Y57100D02*
D03*
X320078Y108600D02*
D03*
X316778Y105400D02*
D03*
X313178Y105100D02*
D03*
X265578Y44300D02*
D03*
X359778D02*
D03*
X374978Y83200D02*
D03*
X367778Y87600D02*
D03*
X299297Y84715D02*
D03*
X316620Y84715D02*
D03*
X327078Y103800D02*
D03*
X336978Y99100D02*
D03*
X303578Y105100D02*
D03*
X180603Y89625D02*
D03*
X287878Y69100D02*
D03*
X245278Y81000D02*
D03*
X240278Y80100D02*
D03*
X231878Y86900D02*
D03*
X271205Y88200D02*
D03*
X229378Y106772D02*
D03*
X356378Y42800D02*
D03*
X333178Y33300D02*
D03*
X355278Y34900D02*
D03*
X369478Y40100D02*
D03*
X372078D02*
D03*
X322678Y92900D02*
D03*
X307678Y59700D02*
D03*
X305378D02*
D03*
X170578Y47900D02*
D03*
X173878Y46300D02*
D03*
X185203Y43925D02*
D03*
X179803D02*
D03*
X196678Y45300D02*
D03*
X199778Y45200D02*
D03*
X242678Y45300D02*
D03*
X245178D02*
D03*
X265578Y46800D02*
D03*
X216378Y44200D02*
D03*
X356878Y90400D02*
D03*
X185178Y84900D02*
D03*
X200578Y80100D02*
D03*
X280478Y93800D02*
D03*
X323278Y198200D02*
D03*
X317803Y198225D02*
D03*
X265903Y203925D02*
D03*
X329378Y198300D02*
D03*
X256403Y204125D02*
D03*
X261203Y212225D02*
D03*
X217978Y99500D02*
D03*
X221178D02*
D03*
X166278Y102600D02*
D03*
Y105200D02*
D03*
X268778Y104300D02*
D03*
X271778D02*
D03*
X214103Y226225D02*
D03*
X210503Y246025D02*
D03*
X348403Y150125D02*
D03*
X296203Y89825D02*
D03*
X400803Y201025D02*
D03*
X418503Y203525D02*
D03*
X423403Y203725D02*
D03*
X425303Y207225D02*
D03*
X415778Y70300D02*
D03*
X198403Y217575D02*
D03*
X478178Y264600D02*
D03*
X171725Y31325D02*
D03*
X174403D02*
D03*
X182903Y27725D02*
D03*
Y30325D02*
D03*
X192403Y30525D02*
D03*
Y27925D02*
D03*
X199803Y28400D02*
D03*
Y26000D02*
D03*
X212303Y27825D02*
D03*
X212203Y25225D02*
D03*
X228703Y41925D02*
D03*
X230103Y32725D02*
D03*
Y30125D02*
D03*
X253778Y31400D02*
D03*
X268803Y30925D02*
D03*
X271503D02*
D03*
X329168Y194510D02*
D03*
X323288D02*
D03*
X317768Y194410D02*
D03*
X373878Y205400D02*
D03*
X362678Y237000D02*
D03*
X438303Y140525D02*
D03*
X282103Y271625D02*
D03*
X211278Y84000D02*
D03*
X225603Y86525D02*
D03*
X341478Y80900D02*
D03*
Y78400D02*
D03*
X210503Y100825D02*
D03*
X52953Y9843D02*
D03*
X27343Y9764D02*
D03*
X52953Y19685D02*
D03*
X27343Y20059D02*
D03*
X52933Y29842D02*
D03*
X27343Y29902D02*
D03*
Y39882D02*
D03*
X52933Y39843D02*
D03*
X27343Y59724D02*
D03*
M02*
