G04 Layer_Physical_Order=5*
G04 Layer_Color=6736896*
%FSLAX25Y25*%
%MOIN*%
G70*
G01*
G75*
%ADD11C,0.00800*%
%ADD54C,0.00600*%
%ADD55C,0.02000*%
%ADD57C,0.01000*%
%ADD59C,0.03000*%
%ADD62C,0.04000*%
%ADD66C,0.02400*%
%ADD67C,0.01200*%
%ADD68C,0.02200*%
%ADD72C,0.03500*%
%ADD89O,0.13000X0.13600*%
%ADD91O,0.11811X0.05905*%
%ADD92C,0.05905*%
%ADD93O,0.06000X0.12000*%
%ADD94R,0.06000X0.12000*%
%ADD95R,0.05905X0.05905*%
%ADD96O,0.12000X0.06000*%
%ADD98C,0.08000*%
%ADD100R,0.12000X0.06000*%
%ADD101C,0.03000*%
%ADD102C,0.02200*%
%ADD103C,0.02900*%
%ADD104C,0.03200*%
G36*
X383092Y221914D02*
X383057Y221195D01*
X382449Y220752D01*
X381978Y220845D01*
X381081Y220667D01*
X380320Y220158D01*
X379811Y219397D01*
X379633Y218500D01*
X379811Y217603D01*
X380320Y216842D01*
X381081Y216333D01*
X381978Y216155D01*
X382875Y216333D01*
X383275Y216600D01*
X383596Y216119D01*
X386361Y213355D01*
X386214Y212821D01*
X386096Y212655D01*
X369572D01*
X369436Y212858D01*
X368675Y213367D01*
X368207Y213460D01*
Y233000D01*
X368091Y233585D01*
X367759Y234081D01*
X364993Y236848D01*
X365023Y237000D01*
X364969Y237271D01*
X365544Y237971D01*
X367035D01*
X383092Y221914D01*
D02*
G37*
G36*
X475833Y264600D02*
X476011Y263703D01*
X476428Y263080D01*
X476048Y262479D01*
X475683Y262631D01*
X474978Y262723D01*
X474273Y262631D01*
X473616Y262358D01*
X473052Y261926D01*
X472619Y261362D01*
X472347Y260705D01*
X472273Y260142D01*
X442536Y230405D01*
X441973Y230330D01*
X441316Y230058D01*
X440752Y229626D01*
X440319Y229062D01*
X440048Y228405D01*
X439955Y227700D01*
X440048Y226995D01*
X440126Y226805D01*
X439803Y226065D01*
X439733Y226029D01*
X439142Y225784D01*
X438578Y225351D01*
X438145Y224787D01*
X437873Y224130D01*
X437856Y224005D01*
X437150D01*
X437134Y224130D01*
X436862Y224787D01*
X436429Y225351D01*
X435865Y225784D01*
X435208Y226056D01*
X434503Y226149D01*
X433798Y226056D01*
X433142Y225784D01*
X432578Y225351D01*
X432145Y224787D01*
X431918Y224239D01*
X431553Y224181D01*
X431189Y224239D01*
X430962Y224787D01*
X430529Y225351D01*
X429965Y225784D01*
X429308Y226056D01*
X428603Y226149D01*
X428007Y226070D01*
X427899Y226113D01*
X427634Y226793D01*
X465711Y264871D01*
X475173D01*
X475833Y264600D01*
D02*
G37*
G36*
X270190Y115024D02*
X270606Y114775D01*
X270706Y114274D01*
X271037Y113778D01*
X278197Y106619D01*
X278693Y106287D01*
X279278Y106171D01*
X297273D01*
X297628Y105471D01*
X297311Y104997D01*
X297133Y104100D01*
X297246Y103529D01*
X296783Y102829D01*
X274339D01*
X273970Y103529D01*
X274123Y104300D01*
X273944Y105197D01*
X273436Y105958D01*
X272675Y106467D01*
X271778Y106645D01*
X270881Y106467D01*
X270278Y106064D01*
X269675Y106467D01*
X268778Y106645D01*
X267881Y106467D01*
X267120Y105958D01*
X266611Y105197D01*
X266433Y104300D01*
X266586Y103529D01*
X266217Y102829D01*
X260818D01*
X260745Y103197D01*
X260236Y103958D01*
X259475Y104467D01*
X258578Y104645D01*
X257681Y104467D01*
X256920Y103958D01*
X256411Y103197D01*
X256233Y102300D01*
X256364Y101639D01*
X255943Y100939D01*
X245023D01*
X241534Y104428D01*
X241038Y104759D01*
X240453Y104876D01*
X231719D01*
X231345Y105576D01*
X231544Y105874D01*
X231604Y106171D01*
X260378D01*
X260963Y106287D01*
X261459Y106619D01*
X269960Y115120D01*
X270190Y115024D01*
D02*
G37*
G36*
X549658Y32810D02*
Y1020D01*
X517792D01*
X517524Y1666D01*
X526286Y10428D01*
X526799Y11096D01*
X527122Y11875D01*
X527232Y12710D01*
X527208Y12889D01*
X527855Y13336D01*
X528272Y13114D01*
X529611Y12708D01*
X531004Y12570D01*
X532397Y12708D01*
X533736Y13114D01*
X534971Y13774D01*
X536053Y14661D01*
X536941Y15743D01*
X537600Y16978D01*
X538007Y18317D01*
X538144Y19710D01*
X538007Y21103D01*
X537600Y22443D01*
X537378Y22859D01*
X537826Y23506D01*
X538004Y23483D01*
X538839Y23593D01*
X539618Y23915D01*
X540286Y24428D01*
X548958Y33100D01*
X549658Y32810D01*
D02*
G37*
G36*
X353757Y236526D02*
X353837Y236128D01*
X354345Y235367D01*
X355106Y234859D01*
X356003Y234680D01*
X356322Y234744D01*
X358045Y233021D01*
X357648Y232427D01*
X357362Y232546D01*
X356278Y232689D01*
X355194Y232546D01*
X354184Y232127D01*
X353316Y231462D01*
X352650Y230594D01*
X352232Y229584D01*
X352089Y228500D01*
X352232Y227416D01*
X352650Y226406D01*
X353316Y225538D01*
X354184Y224873D01*
X355194Y224454D01*
X356278Y224311D01*
X357362Y224454D01*
X358372Y224873D01*
X359240Y225538D01*
X359905Y226406D01*
X360324Y227416D01*
X360467Y228500D01*
X360324Y229584D01*
X360205Y229870D01*
X360799Y230267D01*
X362274Y228792D01*
Y215259D01*
X359470Y212455D01*
X357303D01*
X356718Y212338D01*
X356222Y212007D01*
X344197Y199981D01*
X343865Y199485D01*
X343749Y198900D01*
Y198744D01*
X343620Y198658D01*
X343111Y197897D01*
X342933Y197000D01*
X343111Y196103D01*
X343620Y195342D01*
X343723Y195273D01*
X343791Y194576D01*
X340068Y190853D01*
X339378Y191153D01*
X339245Y191823D01*
X338736Y192583D01*
X337975Y193092D01*
X337078Y193270D01*
X336180Y193092D01*
X335420Y192583D01*
X334911Y191823D01*
X334737Y190947D01*
X333122Y189332D01*
X332790Y188836D01*
X332674Y188250D01*
Y182259D01*
X323197Y172781D01*
X322865Y172285D01*
X322749Y171700D01*
Y153700D01*
X322865Y153115D01*
X323197Y152619D01*
X324696Y151119D01*
X325193Y150787D01*
X325778Y150671D01*
X330145D01*
X334449Y146367D01*
Y120350D01*
X334565Y119765D01*
X334896Y119269D01*
X337422Y116744D01*
X337918Y116412D01*
X338503Y116296D01*
X338833D01*
X339142Y115834D01*
X339194Y115596D01*
X339103Y114900D01*
Y111500D01*
X339204Y110730D01*
X339501Y110012D01*
X339974Y109396D01*
X340318Y109132D01*
X340412Y108420D01*
X340356Y108263D01*
X339911Y107597D01*
X339733Y106700D01*
X339911Y105803D01*
X340420Y105042D01*
X341180Y104533D01*
X342078Y104355D01*
X342975Y104533D01*
X343736Y105042D01*
X343822Y105171D01*
X345334D01*
X345420Y105042D01*
X346181Y104533D01*
X347078Y104355D01*
X347975Y104533D01*
X348102Y104618D01*
X348802Y104244D01*
Y102032D01*
X342145Y95376D01*
X336406D01*
X336116Y96075D01*
X336826Y96785D01*
X336978Y96755D01*
X337875Y96934D01*
X338636Y97442D01*
X339144Y98203D01*
X339323Y99100D01*
X339144Y99997D01*
X338636Y100758D01*
X337875Y101267D01*
X336978Y101445D01*
X336826Y101415D01*
X335709Y102531D01*
X335213Y102863D01*
X334628Y102979D01*
X333261D01*
X332707Y103533D01*
Y144850D01*
X332591Y145436D01*
X332259Y145932D01*
X329610Y148581D01*
X329114Y148913D01*
X328528Y149029D01*
X324512D01*
X321307Y152234D01*
Y180567D01*
X355195Y214454D01*
X356278Y214311D01*
X357362Y214454D01*
X358372Y214873D01*
X359240Y215538D01*
X359905Y216406D01*
X360324Y217416D01*
X360467Y218500D01*
X360324Y219584D01*
X359905Y220594D01*
X359240Y221462D01*
X358372Y222127D01*
X357362Y222546D01*
X356278Y222689D01*
X355194Y222546D01*
X354184Y222127D01*
X353507Y221608D01*
X352807Y221874D01*
Y223500D01*
X352691Y224085D01*
X352359Y224581D01*
X350090Y226851D01*
X350324Y227416D01*
X350466Y228500D01*
X350324Y229584D01*
X349905Y230594D01*
X349240Y231462D01*
X348372Y232127D01*
X347362Y232546D01*
X346278Y232689D01*
X345194Y232546D01*
X344184Y232127D01*
X343316Y231462D01*
X342651Y230594D01*
X342232Y229584D01*
X342089Y228500D01*
X342232Y227416D01*
X342651Y226406D01*
X343316Y225538D01*
X344184Y224873D01*
X345194Y224454D01*
X346278Y224311D01*
X347362Y224454D01*
X347927Y224688D01*
X349749Y222867D01*
Y221874D01*
X349049Y221608D01*
X348372Y222127D01*
X347362Y222546D01*
X346278Y222689D01*
X345194Y222546D01*
X344184Y222127D01*
X343507Y221608D01*
X342807Y221874D01*
Y223500D01*
X342691Y224085D01*
X342359Y224581D01*
X340090Y226851D01*
X340324Y227416D01*
X340466Y228500D01*
X340324Y229584D01*
X339905Y230594D01*
X339240Y231462D01*
X338372Y232127D01*
X337362Y232546D01*
X336278Y232689D01*
X335194Y232546D01*
X334184Y232127D01*
X333316Y231462D01*
X332650Y230594D01*
X332232Y229584D01*
X332089Y228500D01*
X332232Y227416D01*
X332650Y226406D01*
X333316Y225538D01*
X334184Y224873D01*
X335194Y224454D01*
X336278Y224311D01*
X337362Y224454D01*
X337927Y224688D01*
X339749Y222867D01*
Y221874D01*
X339049Y221608D01*
X338372Y222127D01*
X337362Y222546D01*
X336278Y222689D01*
X335194Y222546D01*
X334184Y222127D01*
X333407Y221532D01*
X332707Y221701D01*
Y223479D01*
X332591Y224064D01*
X332259Y224560D01*
X330054Y226765D01*
X330324Y227416D01*
X330467Y228500D01*
X330324Y229584D01*
X329905Y230594D01*
X329240Y231462D01*
X328372Y232127D01*
X327362Y232546D01*
X326668Y232637D01*
X326417Y233376D01*
X327037Y233996D01*
X349603D01*
X350188Y234112D01*
X350685Y234444D01*
X352998Y236757D01*
X353757Y236526D01*
D02*
G37*
G36*
X345086Y208671D02*
X331965Y195550D01*
X331133Y195708D01*
X331061Y195817D01*
X331036Y196642D01*
X331544Y197403D01*
X331644Y197903D01*
X343111Y209371D01*
X344796D01*
X345086Y208671D01*
D02*
G37*
G36*
X329649Y114493D02*
Y105353D01*
X328949Y105140D01*
X328736Y105458D01*
X327975Y105967D01*
X327078Y106145D01*
X326507Y106032D01*
X325807Y106495D01*
Y111566D01*
X329002Y114761D01*
X329649Y114493D01*
D02*
G37*
G36*
X364049Y209593D02*
Y206900D01*
X364165Y206315D01*
X364496Y205819D01*
X365765Y204550D01*
X364522Y203307D01*
X364190Y202811D01*
X364074Y202225D01*
Y199925D01*
X364190Y199340D01*
X364522Y198844D01*
X366874Y196492D01*
Y194058D01*
X366333Y193614D01*
X366178Y193645D01*
X365281Y193467D01*
X364520Y192958D01*
X364434Y192829D01*
X362678D01*
X362093Y192713D01*
X361596Y192381D01*
X353672Y184457D01*
X353340Y183960D01*
X353224Y183375D01*
Y172186D01*
X343107Y162069D01*
X342407Y162359D01*
Y183200D01*
X342301Y183733D01*
X342865Y183967D01*
X343429Y184399D01*
X343862Y184964D01*
X344134Y185620D01*
X344227Y186325D01*
X344134Y187030D01*
X343862Y187687D01*
X343429Y188251D01*
X343063Y188532D01*
X342888Y189347D01*
X363402Y209861D01*
X364049Y209593D01*
D02*
G37*
G36*
X335080Y251862D02*
X335315Y251200D01*
X332345Y248229D01*
X321278D01*
X320693Y248113D01*
X320197Y247781D01*
X311832Y239418D01*
X311133Y239707D01*
Y246692D01*
X314037Y249596D01*
X331403D01*
X331988Y249712D01*
X332485Y250044D01*
X334465Y252024D01*
X335080Y251862D01*
D02*
G37*
G36*
X260857Y87158D02*
X260567Y86458D01*
X257365D01*
X257175Y86745D01*
X257144Y86897D01*
X256636Y87658D01*
X255875Y88166D01*
X254978Y88345D01*
X254081Y88166D01*
X253320Y87658D01*
X252811Y86897D01*
X252633Y86000D01*
X252811Y85103D01*
X253320Y84342D01*
X253437Y84263D01*
X253713Y83847D01*
X253337Y83147D01*
X246205D01*
X246175Y83166D01*
X245278Y83345D01*
X244380Y83166D01*
X243620Y82658D01*
X243111Y81897D01*
X243014Y81406D01*
X242270Y81258D01*
X241936Y81758D01*
X241175Y82266D01*
X240278Y82445D01*
X239381Y82266D01*
X238620Y81758D01*
X238111Y80997D01*
X237933Y80100D01*
X237963Y79948D01*
X235954Y77939D01*
X235307Y78207D01*
Y85000D01*
X235191Y85585D01*
X234859Y86081D01*
X234193Y86748D01*
X234223Y86900D01*
X234197Y87029D01*
X234641Y87571D01*
X241978D01*
X242563Y87687D01*
X243059Y88019D01*
X243411Y88371D01*
X250825D01*
X251411Y88487D01*
X251907Y88819D01*
X252359Y89271D01*
X258745D01*
X260857Y87158D01*
D02*
G37*
G36*
X203840Y105119D02*
X204336Y104788D01*
X204921Y104671D01*
X206318D01*
X206586Y104025D01*
X199760Y97199D01*
X196598D01*
X182829Y110968D01*
Y111713D01*
X182712Y112298D01*
X182381Y112794D01*
X180520Y114655D01*
X180788Y115301D01*
X193658D01*
X203840Y105119D01*
D02*
G37*
G36*
X549658Y246768D02*
X548958Y246478D01*
X541825Y253611D01*
X541515Y254360D01*
X541002Y255028D01*
X540334Y255541D01*
X539555Y255864D01*
X538720Y255974D01*
X537884Y255864D01*
X537666Y255773D01*
X537167Y256324D01*
X537600Y257135D01*
X538007Y258475D01*
X538144Y259868D01*
X538007Y261261D01*
X537600Y262600D01*
X536941Y263834D01*
X536053Y264916D01*
X534971Y265804D01*
X533736Y266464D01*
X532397Y266870D01*
X531004Y267008D01*
X529611Y266870D01*
X528272Y266464D01*
X527037Y265804D01*
X525955Y264916D01*
X525067Y263834D01*
X524408Y262600D01*
X524001Y261261D01*
X523864Y259868D01*
X524001Y258475D01*
X524408Y257135D01*
X525067Y255901D01*
X525955Y254819D01*
X527037Y253931D01*
X528272Y253271D01*
X529611Y252865D01*
X531004Y252728D01*
X532397Y252865D01*
X533736Y253271D01*
X534971Y253931D01*
X534999Y253954D01*
X535509Y253639D01*
X535597Y253539D01*
X535492Y252746D01*
Y252152D01*
X535602Y251317D01*
X535924Y250538D01*
X536437Y249870D01*
X543886Y242421D01*
Y91100D01*
Y47289D01*
X543186Y46851D01*
X542302Y47217D01*
X540945Y47396D01*
X539587Y47217D01*
X538322Y46693D01*
X537236Y45860D01*
X536403Y44774D01*
X535879Y43509D01*
X535700Y42151D01*
X535879Y40794D01*
X536403Y39529D01*
X537236Y38443D01*
X538322Y37609D01*
X539587Y37085D01*
X540945Y36906D01*
X542302Y37085D01*
X543186Y37451D01*
X543199Y37445D01*
X543590Y36861D01*
X535722Y28993D01*
X535209Y28324D01*
X534886Y27546D01*
X534776Y26710D01*
X534800Y26532D01*
X534153Y26084D01*
X533736Y26307D01*
X532397Y26713D01*
X531004Y26850D01*
X529611Y26713D01*
X528272Y26307D01*
X527037Y25647D01*
X525955Y24759D01*
X525067Y23677D01*
X524408Y22443D01*
X524001Y21103D01*
X523864Y19710D01*
X524001Y18317D01*
X524408Y16978D01*
X524630Y16561D01*
X524182Y15914D01*
X524004Y15938D01*
X523169Y15828D01*
X522390Y15505D01*
X521722Y14992D01*
X512682Y5953D01*
X487146D01*
X486856Y6653D01*
X489128Y8925D01*
Y15987D01*
X489828Y16225D01*
X490077Y15900D01*
X490641Y15467D01*
X491298Y15195D01*
X492003Y15102D01*
X492708Y15195D01*
X493365Y15467D01*
X493929Y15900D01*
X494362Y16464D01*
X494634Y17120D01*
X494727Y17825D01*
X494634Y18530D01*
X494362Y19187D01*
X494351Y19200D01*
X494469Y19553D01*
X494702Y19893D01*
X495283Y19970D01*
X495940Y20242D01*
X496504Y20674D01*
X496936Y21238D01*
X497120Y21681D01*
X497834Y21734D01*
X497858Y21727D01*
X498020Y21338D01*
X498452Y20774D01*
X499016Y20342D01*
X499673Y20069D01*
X500378Y19977D01*
X501083Y20069D01*
X501740Y20342D01*
X502304Y20774D01*
X502736Y21338D01*
X503009Y21995D01*
X503101Y22700D01*
X503009Y23405D01*
X502736Y24062D01*
X502304Y24626D01*
X501740Y25058D01*
X501083Y25330D01*
X500378Y25423D01*
X500087Y25385D01*
X499708Y26041D01*
X499936Y26338D01*
X500209Y26995D01*
X500301Y27700D01*
X500209Y28405D01*
X499936Y29062D01*
X499504Y29626D01*
X498940Y30058D01*
X498283Y30331D01*
X497578Y30423D01*
X496873Y30331D01*
X496216Y30058D01*
X495652Y29626D01*
X495220Y29062D01*
X494947Y28405D01*
X494855Y27700D01*
X494947Y26995D01*
X495220Y26338D01*
X495584Y25864D01*
X495441Y25466D01*
X495214Y25240D01*
X494578Y25323D01*
X493873Y25231D01*
X493216Y24958D01*
X492652Y24526D01*
X492219Y23962D01*
X491948Y23305D01*
X491855Y22600D01*
X491948Y21895D01*
X492219Y21238D01*
X492230Y21225D01*
X492112Y20872D01*
X491879Y20532D01*
X491298Y20456D01*
X490641Y20184D01*
X490077Y19751D01*
X489787Y19373D01*
X489106Y19376D01*
X488983Y19420D01*
X486453Y21950D01*
X486396D01*
X486051Y22650D01*
X486062Y22664D01*
X486334Y23320D01*
X486426Y24025D01*
X486334Y24730D01*
X486062Y25387D01*
X485629Y25951D01*
X485065Y26384D01*
X484408Y26656D01*
X483703Y26748D01*
X482998Y26656D01*
X482341Y26384D01*
X481777Y25951D01*
X481345Y25387D01*
X481073Y24730D01*
X480980Y24025D01*
X481073Y23320D01*
X481345Y22664D01*
X481355Y22650D01*
X481103Y21950D01*
X478428Y19275D01*
Y8925D01*
X480700Y6653D01*
X480410Y5953D01*
X473746D01*
X473456Y6653D01*
X475728Y8925D01*
Y19275D01*
X473053Y21950D01*
X472848Y22650D01*
X472908Y22795D01*
X473001Y23500D01*
X472908Y24205D01*
X472636Y24862D01*
X472204Y25426D01*
X471640Y25858D01*
X470983Y26131D01*
X470278Y26223D01*
X469573Y26131D01*
X468916Y25858D01*
X468352Y25426D01*
X467919Y24862D01*
X467648Y24205D01*
X467555Y23500D01*
X467648Y22795D01*
X467708Y22650D01*
X467703Y21950D01*
X465028Y19275D01*
Y17130D01*
X464678Y16823D01*
X463973Y16730D01*
X463316Y16458D01*
X462752Y16026D01*
X462320Y15462D01*
X462047Y14805D01*
X461955Y14100D01*
X462047Y13395D01*
X462320Y12738D01*
X462752Y12174D01*
X463316Y11742D01*
X463973Y11469D01*
X464678Y11377D01*
X465028Y11070D01*
Y8925D01*
X467300Y6653D01*
X467010Y5953D01*
X458102D01*
X457812Y6653D01*
X460123Y8964D01*
Y19314D01*
X457448Y21989D01*
X452098D01*
X449423Y19314D01*
Y8964D01*
X451735Y6653D01*
X451445Y5953D01*
X444702D01*
X444412Y6653D01*
X446723Y8964D01*
Y19314D01*
X444048Y21989D01*
X444233Y22613D01*
X444309Y22795D01*
X444401Y23500D01*
X444309Y24205D01*
X444036Y24862D01*
X443604Y25426D01*
X443040Y25858D01*
X442383Y26131D01*
X441678Y26223D01*
X440973Y26131D01*
X440316Y25858D01*
X439752Y25426D01*
X439320Y24862D01*
X439047Y24205D01*
X438955Y23500D01*
X439047Y22795D01*
X439091Y22689D01*
X438698Y21989D01*
X437096Y20387D01*
X436504Y20426D01*
X435940Y20858D01*
X435283Y21131D01*
X434578Y21223D01*
X433873Y21131D01*
X433216Y20858D01*
X432652Y20426D01*
X432220Y19862D01*
X431948Y19205D01*
X431855Y18500D01*
X431948Y17795D01*
X432220Y17138D01*
X432652Y16574D01*
Y16126D01*
X432220Y15562D01*
X431948Y14905D01*
X431855Y14200D01*
X431948Y13495D01*
X432220Y12838D01*
X432395Y12610D01*
X432587Y12100D01*
X432395Y11590D01*
X432220Y11362D01*
X432119Y11119D01*
X431494Y10787D01*
X431272Y10828D01*
X430783Y11030D01*
X430078Y11123D01*
X429373Y11030D01*
X428716Y10758D01*
X428152Y10326D01*
X428119Y10282D01*
X427237D01*
X427204Y10326D01*
X426640Y10758D01*
X425983Y11030D01*
X425278Y11123D01*
X424573Y11030D01*
X423916Y10758D01*
X423352Y10326D01*
X422920Y9762D01*
X422647Y9105D01*
X422555Y8400D01*
X422647Y7695D01*
X422920Y7038D01*
X423215Y6653D01*
X423003Y6066D01*
X422907Y5953D01*
X373086D01*
Y19065D01*
X364686D01*
Y5953D01*
X362737D01*
X362427Y6581D01*
X362555Y6746D01*
X362978Y7768D01*
X363122Y8865D01*
Y14865D01*
X362978Y15961D01*
X362555Y16983D01*
X361881Y17860D01*
X361004Y18533D01*
X359982Y18957D01*
X358886Y19101D01*
X357789Y18957D01*
X356768Y18533D01*
X355890Y17860D01*
X355217Y16983D01*
X354794Y15961D01*
X354650Y14865D01*
Y8865D01*
X354794Y7768D01*
X355217Y6746D01*
X355344Y6581D01*
X355035Y5953D01*
X352737D01*
X352427Y6581D01*
X352554Y6746D01*
X352978Y7768D01*
X353122Y8865D01*
Y14865D01*
X352978Y15961D01*
X352554Y16983D01*
X351881Y17860D01*
X351004Y18533D01*
X349982Y18957D01*
X348886Y19101D01*
X347789Y18957D01*
X346768Y18533D01*
X345890Y17860D01*
X345217Y16983D01*
X344794Y15961D01*
X344650Y14865D01*
Y8865D01*
X344794Y7768D01*
X345217Y6746D01*
X345344Y6581D01*
X345035Y5953D01*
X342737D01*
X342427Y6581D01*
X342554Y6746D01*
X342978Y7768D01*
X343122Y8865D01*
Y14865D01*
X342978Y15961D01*
X342554Y16983D01*
X341881Y17860D01*
X341004Y18533D01*
X339982Y18957D01*
X338886Y19101D01*
X337789Y18957D01*
X336768Y18533D01*
X335890Y17860D01*
X335217Y16983D01*
X334794Y15961D01*
X334650Y14865D01*
Y8865D01*
X334794Y7768D01*
X335217Y6746D01*
X335344Y6581D01*
X335035Y5953D01*
X321865D01*
Y19025D01*
X320125D01*
Y27400D01*
X320105Y27503D01*
Y32184D01*
X321865D01*
Y46584D01*
X313465D01*
Y32184D01*
X315211D01*
Y27420D01*
X315231Y27318D01*
Y19025D01*
X313465D01*
Y5953D01*
X311547D01*
X311237Y6581D01*
X311334Y6707D01*
X311757Y7729D01*
X311902Y8825D01*
Y14825D01*
X311757Y15922D01*
X311334Y16943D01*
X310661Y17821D01*
X310125Y18232D01*
Y27500D01*
X310104Y27603D01*
Y32962D01*
X310661Y33389D01*
X311334Y34266D01*
X311757Y35288D01*
X311902Y36384D01*
Y42384D01*
X311757Y43481D01*
X311334Y44502D01*
X310661Y45380D01*
X309784Y46053D01*
X308762Y46476D01*
X307665Y46621D01*
X306569Y46476D01*
X305547Y46053D01*
X304670Y45380D01*
X303997Y44502D01*
X303573Y43481D01*
X303429Y42384D01*
Y36384D01*
X303573Y35288D01*
X303997Y34266D01*
X304670Y33389D01*
X305210Y32974D01*
Y27520D01*
X305231Y27418D01*
Y18251D01*
X304670Y17821D01*
X303997Y16943D01*
X303573Y15922D01*
X303429Y14825D01*
Y8825D01*
X303573Y7729D01*
X303997Y6707D01*
X304094Y6581D01*
X303784Y5953D01*
X301547D01*
X301237Y6581D01*
X301334Y6707D01*
X301757Y7729D01*
X301902Y8825D01*
Y14825D01*
X301757Y15922D01*
X301334Y16943D01*
X300661Y17821D01*
X300104Y18248D01*
Y32962D01*
X300661Y33389D01*
X301334Y34266D01*
X301757Y35288D01*
X301902Y36384D01*
Y42384D01*
X301757Y43481D01*
X301334Y44502D01*
X300661Y45380D01*
X299783Y46053D01*
X298762Y46476D01*
X297665Y46621D01*
X296569Y46476D01*
X295547Y46053D01*
X294670Y45380D01*
X293997Y44502D01*
X293573Y43481D01*
X293429Y42384D01*
Y36384D01*
X293573Y35288D01*
X293997Y34266D01*
X294670Y33389D01*
X295211Y32974D01*
Y18236D01*
X294670Y17821D01*
X293997Y16943D01*
X293573Y15922D01*
X293429Y14825D01*
Y8825D01*
X293573Y7729D01*
X293997Y6707D01*
X294094Y6581D01*
X293784Y5953D01*
X291547D01*
X291237Y6581D01*
X291334Y6707D01*
X291757Y7729D01*
X291902Y8825D01*
Y14825D01*
X291757Y15922D01*
X291334Y16943D01*
X290661Y17821D01*
X290105Y18248D01*
Y32962D01*
X290661Y33389D01*
X291334Y34266D01*
X291757Y35288D01*
X291902Y36384D01*
Y42384D01*
X291757Y43481D01*
X291334Y44502D01*
X290661Y45380D01*
X289784Y46053D01*
X288762Y46476D01*
X287665Y46621D01*
X286569Y46476D01*
X285547Y46053D01*
X284670Y45380D01*
X283997Y44502D01*
X283574Y43481D01*
X283429Y42384D01*
Y36384D01*
X283574Y35288D01*
X283997Y34266D01*
X284670Y33389D01*
X285210Y32974D01*
Y18236D01*
X284670Y17821D01*
X283997Y16943D01*
X283574Y15922D01*
X283429Y14825D01*
Y8825D01*
X283574Y7729D01*
X283997Y6707D01*
X284094Y6581D01*
X283784Y5953D01*
X270684D01*
Y19025D01*
X262284D01*
Y5953D01*
X260366D01*
X260056Y6581D01*
X260153Y6707D01*
X260576Y7729D01*
X260720Y8825D01*
Y14825D01*
X260576Y15922D01*
X260153Y16943D01*
X259480Y17821D01*
X258602Y18494D01*
X257581Y18917D01*
X256484Y19061D01*
X255388Y18917D01*
X254366Y18494D01*
X253489Y17821D01*
X252816Y16943D01*
X252392Y15922D01*
X252248Y14825D01*
Y8825D01*
X252392Y7729D01*
X252816Y6707D01*
X252913Y6581D01*
X252603Y5953D01*
X250365D01*
X250056Y6581D01*
X250153Y6707D01*
X250576Y7729D01*
X250721Y8825D01*
Y14825D01*
X250576Y15922D01*
X250153Y16943D01*
X249480Y17821D01*
X248602Y18494D01*
X247581Y18917D01*
X246484Y19061D01*
X245388Y18917D01*
X244366Y18494D01*
X243489Y17821D01*
X242816Y16943D01*
X242392Y15922D01*
X242248Y14825D01*
Y8825D01*
X242392Y7729D01*
X242816Y6707D01*
X242913Y6581D01*
X242603Y5953D01*
X240366D01*
X240056Y6581D01*
X240153Y6707D01*
X240576Y7729D01*
X240721Y8825D01*
Y14825D01*
X240576Y15922D01*
X240153Y16943D01*
X239480Y17821D01*
X238602Y18494D01*
X237581Y18917D01*
X236484Y19061D01*
X235388Y18917D01*
X234366Y18494D01*
X233489Y17821D01*
X232816Y16943D01*
X232392Y15922D01*
X232248Y14825D01*
Y8825D01*
X232392Y7729D01*
X232816Y6707D01*
X232913Y6581D01*
X232603Y5953D01*
X219503D01*
Y19025D01*
X211103D01*
Y5953D01*
X209184D01*
X208875Y6581D01*
X208972Y6707D01*
X209395Y7729D01*
X209539Y8825D01*
Y14825D01*
X209395Y15922D01*
X208972Y16943D01*
X208299Y17821D01*
X207421Y18494D01*
X206400Y18917D01*
X205303Y19061D01*
X204207Y18917D01*
X203185Y18494D01*
X202308Y17821D01*
X201635Y16943D01*
X201211Y15922D01*
X201067Y14825D01*
Y8825D01*
X201211Y7729D01*
X201635Y6707D01*
X201731Y6581D01*
X201422Y5953D01*
X199184D01*
X198875Y6581D01*
X198972Y6707D01*
X199395Y7729D01*
X199539Y8825D01*
Y14825D01*
X199395Y15922D01*
X198972Y16943D01*
X198299Y17821D01*
X197421Y18494D01*
X196400Y18917D01*
X195303Y19061D01*
X194207Y18917D01*
X193185Y18494D01*
X192308Y17821D01*
X191635Y16943D01*
X191211Y15922D01*
X191067Y14825D01*
Y8825D01*
X191211Y7729D01*
X191635Y6707D01*
X191732Y6581D01*
X191422Y5953D01*
X189184D01*
X188875Y6581D01*
X188972Y6707D01*
X189395Y7729D01*
X189539Y8825D01*
Y14825D01*
X189395Y15922D01*
X188972Y16943D01*
X188299Y17821D01*
X187421Y18494D01*
X186400Y18917D01*
X185303Y19061D01*
X184207Y18917D01*
X183185Y18494D01*
X182308Y17821D01*
X181634Y16943D01*
X181211Y15922D01*
X181067Y14825D01*
Y8825D01*
X181211Y7729D01*
X181634Y6707D01*
X181731Y6581D01*
X181422Y5953D01*
X175310D01*
X166270Y14992D01*
X165602Y15505D01*
X164824Y15828D01*
X163988Y15938D01*
X163810Y15914D01*
X163362Y16561D01*
X163585Y16978D01*
X163991Y18317D01*
X164128Y19710D01*
X163991Y21103D01*
X163585Y22443D01*
X162925Y23677D01*
X162037Y24759D01*
X160955Y25647D01*
X159721Y26307D01*
X158381Y26713D01*
X156988Y26850D01*
X155595Y26713D01*
X154256Y26307D01*
X153022Y25647D01*
X151939Y24759D01*
X151052Y23677D01*
X150392Y22443D01*
X149986Y21103D01*
X149848Y19710D01*
X149986Y18317D01*
X150392Y16978D01*
X151052Y15743D01*
X151939Y14661D01*
X153022Y13774D01*
X154256Y13114D01*
X155595Y12708D01*
X156988Y12570D01*
X158381Y12708D01*
X159721Y13114D01*
X160137Y13336D01*
X160784Y12889D01*
X160761Y12710D01*
X160871Y11875D01*
X161193Y11096D01*
X161706Y10428D01*
X170468Y1666D01*
X170200Y1020D01*
X138296D01*
Y33529D01*
X138519Y33863D01*
X138636Y34449D01*
Y95495D01*
X149926Y106785D01*
X150078Y106755D01*
X150975Y106933D01*
X151736Y107442D01*
X152244Y108203D01*
X152423Y109100D01*
X152393Y109248D01*
X152838Y109790D01*
X156235D01*
X156411Y108903D01*
X156920Y108142D01*
X157680Y107633D01*
X158578Y107455D01*
X158851Y107509D01*
X159011Y106703D01*
X159520Y105942D01*
X160281Y105433D01*
X161178Y105255D01*
X162075Y105433D01*
X162836Y105942D01*
X162892Y106026D01*
X163564Y106044D01*
X163997Y105523D01*
X163933Y105200D01*
X164111Y104303D01*
X164380Y103900D01*
X164111Y103497D01*
X163933Y102600D01*
X164111Y101703D01*
X164620Y100942D01*
X165381Y100434D01*
X166278Y100255D01*
X167175Y100434D01*
X167936Y100942D01*
X168445Y101703D01*
X168623Y102600D01*
X168445Y103497D01*
X168175Y103900D01*
X168445Y104303D01*
X168623Y105200D01*
X168558Y105529D01*
X169002Y106071D01*
X173195D01*
X187822Y91444D01*
X188067Y91280D01*
X188011Y91197D01*
X187833Y90300D01*
X187898Y89976D01*
X187678Y89589D01*
X187333Y89253D01*
X186730Y89174D01*
X186012Y88877D01*
X185396Y88404D01*
X185195Y88142D01*
X185133Y88100D01*
X184432Y88393D01*
Y90525D01*
X184316Y91110D01*
X183985Y91607D01*
X178910Y96681D01*
X178414Y97013D01*
X177828Y97129D01*
X177422D01*
X177336Y97258D01*
X176575Y97767D01*
X175678Y97945D01*
X174780Y97767D01*
X174020Y97258D01*
X173511Y96497D01*
X173333Y95600D01*
X173459Y94967D01*
X172799Y94694D01*
X172708Y94830D01*
X171914Y95361D01*
X170978Y95547D01*
X170042Y95361D01*
X169248Y94830D01*
X168448Y94030D01*
X167917Y93236D01*
X167731Y92300D01*
Y90800D01*
X167821Y90347D01*
X167284Y89647D01*
X164078D01*
X163142Y89461D01*
X162348Y88930D01*
X161817Y88136D01*
X161631Y87200D01*
X161663Y87038D01*
X161219Y86497D01*
X155510D01*
X155414Y86561D01*
X154478Y86747D01*
X153542Y86561D01*
X152748Y86030D01*
X152217Y85236D01*
X152031Y84300D01*
Y82100D01*
X152217Y81164D01*
X152748Y80370D01*
X153542Y79839D01*
X154478Y79653D01*
X155414Y79839D01*
X156208Y80370D01*
X156739Y81164D01*
X156826Y81603D01*
X167583D01*
X167834Y81653D01*
X173464D01*
X179281Y75836D01*
Y72709D01*
X178048Y71475D01*
X177517Y70682D01*
X177331Y69745D01*
Y53927D01*
X176790Y53483D01*
X176478Y53545D01*
X175581Y53367D01*
X174820Y52858D01*
X174713Y52699D01*
X173978Y52845D01*
X173081Y52666D01*
X172320Y52158D01*
X171811Y51397D01*
X171633Y50500D01*
X171424Y50245D01*
X170578D01*
X169681Y50067D01*
X168920Y49558D01*
X168411Y48797D01*
X168233Y47900D01*
X168411Y47003D01*
X168920Y46242D01*
X169681Y45733D01*
X170578Y45555D01*
X171307D01*
X171857Y45004D01*
X172131Y44595D01*
Y40700D01*
X172317Y39764D01*
X172848Y38970D01*
X176431Y35386D01*
Y33851D01*
X175731Y33477D01*
X175418Y33686D01*
X174481Y33872D01*
X170666D01*
X161208Y43330D01*
X160414Y43861D01*
X159478Y44047D01*
X149892D01*
X149378Y44561D01*
X149525Y45300D01*
X149339Y46236D01*
X148808Y47030D01*
X148014Y47561D01*
X147078Y47747D01*
X144878D01*
X143941Y47561D01*
X143148Y47030D01*
X142617Y46236D01*
X142431Y45300D01*
X142617Y44364D01*
X143148Y43570D01*
X143941Y43039D01*
X144202Y42987D01*
X144548Y42470D01*
X147148Y39870D01*
X147942Y39339D01*
X148878Y39153D01*
X158464D01*
X167922Y29695D01*
X168716Y29164D01*
X169653Y28978D01*
X174481D01*
X175418Y29164D01*
X175731Y29374D01*
X175969Y29323D01*
X176431Y29000D01*
Y28150D01*
X176617Y27214D01*
X177148Y26420D01*
X177373Y26195D01*
X178167Y25664D01*
X179103Y25478D01*
X179616Y25580D01*
X181974D01*
X182006Y25559D01*
X182903Y25380D01*
X183801Y25559D01*
X184561Y26067D01*
X185070Y26828D01*
X185248Y27725D01*
X185148Y28228D01*
Y29822D01*
X185248Y30325D01*
X185070Y31223D01*
X184984Y31351D01*
X184970Y31423D01*
X184461Y32183D01*
X183701Y32692D01*
X182803Y32870D01*
X181325D01*
Y35428D01*
X181972Y35696D01*
X186431Y31237D01*
Y28650D01*
X186617Y27714D01*
X187148Y26920D01*
X187873Y26195D01*
X188667Y25664D01*
X189603Y25478D01*
X190116Y25580D01*
X192403D01*
X193301Y25759D01*
X194061Y26267D01*
X194570Y27028D01*
X194748Y27925D01*
Y29930D01*
X195448Y30220D01*
X195798Y29870D01*
X196592Y29339D01*
X197256Y29207D01*
Y26000D01*
X197442Y25064D01*
X197973Y24270D01*
X198767Y23739D01*
X199703Y23553D01*
X200640Y23739D01*
X201433Y24270D01*
X201964Y25064D01*
X202150Y26000D01*
Y30775D01*
X201964Y31711D01*
X201433Y32505D01*
X200608Y33330D01*
X199814Y33861D01*
X198878Y34047D01*
X198542D01*
X186934Y45656D01*
X186934Y45656D01*
X185425Y47164D01*
Y52776D01*
X186072Y53043D01*
X188037Y51078D01*
X188211Y50203D01*
X188720Y49442D01*
X189480Y48933D01*
X190378Y48755D01*
X191275Y48933D01*
X192036Y49442D01*
X192544Y50203D01*
X192723Y51100D01*
X192544Y51997D01*
X192142Y52600D01*
X192544Y53203D01*
X192723Y54100D01*
X192544Y54997D01*
X192142Y55600D01*
X192544Y56203D01*
X192723Y57100D01*
X192544Y57997D01*
X192036Y58758D01*
X192035Y58759D01*
X192422Y59339D01*
X192601Y60236D01*
X192422Y61134D01*
X191914Y61894D01*
X191153Y62403D01*
X190256Y62581D01*
X190063Y62543D01*
X189522Y62987D01*
Y66000D01*
X191759Y68238D01*
X192091Y68734D01*
X192207Y69320D01*
Y72866D01*
X197586Y78245D01*
X198233Y77978D01*
Y77600D01*
X198411Y76703D01*
X198920Y75942D01*
X199680Y75433D01*
X200578Y75255D01*
X201475Y75433D01*
X202236Y75942D01*
X202745Y76703D01*
X202923Y77600D01*
Y77653D01*
X218564D01*
X224181Y72036D01*
Y68964D01*
X222898Y67680D01*
X222367Y66886D01*
X222181Y65950D01*
Y45950D01*
X222367Y45014D01*
X222898Y44220D01*
X226256Y40861D01*
Y39739D01*
X225573Y39055D01*
X225042Y38262D01*
X224856Y37325D01*
Y34825D01*
X225042Y33889D01*
X225573Y33095D01*
X227656Y31012D01*
Y30125D01*
X227842Y29189D01*
X228373Y28395D01*
X229167Y27864D01*
X230103Y27678D01*
X231040Y27864D01*
X231834Y28395D01*
X232364Y29189D01*
X232550Y30125D01*
Y32025D01*
X232430Y32631D01*
X232448Y32725D01*
X232270Y33623D01*
X231761Y34383D01*
X231001Y34892D01*
X230622Y34967D01*
X229911Y35678D01*
Y36472D01*
X230434Y36995D01*
X230964Y37789D01*
X231150Y38725D01*
Y40327D01*
X231850Y40701D01*
X232242Y40439D01*
X233178Y40253D01*
X238764D01*
X244248Y34770D01*
X245041Y34239D01*
X245978Y34053D01*
X252169D01*
X252381Y33353D01*
X252048Y33130D01*
X251517Y32336D01*
X251331Y31400D01*
Y29050D01*
X251366Y28874D01*
X251356Y28825D01*
X251542Y27889D01*
X252073Y27095D01*
X252867Y26564D01*
X253803Y26378D01*
X254306Y26478D01*
X255903D01*
X256840Y26664D01*
X257633Y27195D01*
X258164Y27989D01*
X258350Y28925D01*
Y31325D01*
Y34575D01*
X258164Y35511D01*
X257633Y36305D01*
X256832Y37106D01*
X257100Y37753D01*
X258715D01*
X267033Y29435D01*
X267145Y29267D01*
X267906Y28759D01*
X268803Y28580D01*
X269296Y28678D01*
X271010D01*
X271503Y28580D01*
X272401Y28759D01*
X273161Y29267D01*
X273670Y30028D01*
X273675Y30056D01*
X273764Y30189D01*
X273950Y31125D01*
X273764Y32062D01*
X273234Y32855D01*
X272440Y33386D01*
X271503Y33572D01*
X269817D01*
X261459Y41930D01*
X260665Y42461D01*
X259728Y42647D01*
X251292D01*
X246908Y47030D01*
X246114Y47561D01*
X245178Y47747D01*
X242978D01*
X242041Y47561D01*
X241951Y47501D01*
X241780Y47467D01*
X241020Y46958D01*
X240511Y46197D01*
X240419Y45733D01*
X239820Y45185D01*
X239650Y45147D01*
X234192D01*
X232483Y46856D01*
X232707Y47621D01*
X233336Y48042D01*
X233844Y48803D01*
X234023Y49700D01*
X233955Y50043D01*
X234585Y50464D01*
X234781Y50333D01*
X235678Y50155D01*
X236575Y50333D01*
X237336Y50842D01*
X237844Y51603D01*
X238023Y52500D01*
X237844Y53397D01*
X237336Y54158D01*
X236575Y54667D01*
X236372Y54707D01*
Y56004D01*
X236314Y56295D01*
X236331Y56298D01*
X237091Y56806D01*
X237600Y57567D01*
X237778Y58465D01*
X237600Y59362D01*
X237091Y60123D01*
X236331Y60631D01*
X235433Y60810D01*
X235141Y60752D01*
X234600Y61196D01*
Y62162D01*
X236759Y64321D01*
X237091Y64817D01*
X237207Y65402D01*
Y74866D01*
X240126Y77785D01*
X240278Y77755D01*
X241175Y77934D01*
X241936Y78442D01*
X242444Y79203D01*
X242506Y79514D01*
X242515Y79517D01*
X243235Y79588D01*
X243648Y78970D01*
X244442Y78439D01*
X245378Y78253D01*
X262964D01*
X269181Y72036D01*
Y66750D01*
X269367Y65814D01*
X269898Y65020D01*
X280398Y54520D01*
X281191Y53989D01*
X282128Y53803D01*
X292978D01*
X293914Y53989D01*
X294281Y54234D01*
X294581Y54033D01*
X295478Y53855D01*
X296375Y54033D01*
X297136Y54542D01*
X297644Y55303D01*
X297823Y56200D01*
X297773Y56453D01*
X298347Y57153D01*
X307578D01*
X308514Y57339D01*
X309308Y57870D01*
X309839Y58664D01*
X310025Y59600D01*
X310014Y59655D01*
X310023Y59700D01*
X309844Y60597D01*
X309336Y61358D01*
X308575Y61866D01*
X307678Y62045D01*
X307633Y62036D01*
X307578Y62047D01*
X296133D01*
X295196Y61861D01*
X295101Y61797D01*
X285142D01*
X277225Y69714D01*
Y74700D01*
X277039Y75636D01*
X276508Y76430D01*
X269508Y83430D01*
X269508Y83430D01*
X267197Y85741D01*
X266404Y86272D01*
X266403Y86272D01*
X266213Y86641D01*
X266172Y87031D01*
X267913Y88772D01*
X268273Y88745D01*
X268861Y88200D01*
X269039Y87303D01*
X269547Y86542D01*
X270308Y86033D01*
X271205Y85855D01*
X272103Y86033D01*
X272342Y86193D01*
X272581Y86033D01*
X273478Y85855D01*
X274375Y86033D01*
X275136Y86542D01*
X275644Y87303D01*
X275823Y88200D01*
X275749Y88571D01*
X276307Y89271D01*
X289670D01*
X295307Y83634D01*
X295803Y83302D01*
X296388Y83186D01*
X297553D01*
X297639Y83057D01*
X298399Y82548D01*
X299297Y82370D01*
X300194Y82548D01*
X300955Y83057D01*
X301463Y83817D01*
X301642Y84715D01*
X301463Y85612D01*
X300955Y86373D01*
X300194Y86882D01*
X299297Y87060D01*
X298399Y86882D01*
X297639Y86373D01*
X296915Y86352D01*
X296450Y86816D01*
X296681Y87575D01*
X297101Y87659D01*
X297861Y88167D01*
X298370Y88928D01*
X298548Y89825D01*
X298489Y90124D01*
X299063Y90825D01*
X321546D01*
X322074Y90296D01*
X322389Y90055D01*
X322151Y89355D01*
X322092D01*
X321507Y89238D01*
X321011Y88907D01*
X318459Y86355D01*
X318278Y86373D01*
X317517Y86882D01*
X316620Y87060D01*
X315722Y86882D01*
X314962Y86373D01*
X314453Y85612D01*
X314275Y84715D01*
X314453Y83817D01*
X314962Y83057D01*
X315722Y82548D01*
X316620Y82370D01*
X317517Y82548D01*
X318278Y83057D01*
X318364Y83186D01*
X318982D01*
X319567Y83302D01*
X320063Y83634D01*
X322726Y86296D01*
X346703D01*
X347288Y86412D01*
X347785Y86744D01*
X353812Y92771D01*
X355026D01*
X355238Y92071D01*
X355220Y92058D01*
X354711Y91297D01*
X354533Y90400D01*
X354711Y89503D01*
X354864Y89275D01*
X354611Y88897D01*
X354566Y88667D01*
X353788Y88345D01*
X353614Y88461D01*
X352678Y88647D01*
X351742Y88461D01*
X350948Y87930D01*
X350417Y87136D01*
X350231Y86200D01*
Y85714D01*
X350148Y85630D01*
X349617Y84836D01*
X349431Y83900D01*
X349473Y83688D01*
X349029Y83147D01*
X342405D01*
X342375Y83166D01*
X341478Y83345D01*
X340581Y83166D01*
X339820Y82658D01*
X339311Y81897D01*
X339277Y81726D01*
X339217Y81636D01*
X339031Y80700D01*
X339133Y80187D01*
Y78400D01*
X339311Y77503D01*
X339820Y76742D01*
X340581Y76234D01*
X341478Y76055D01*
X342375Y76234D01*
X343136Y76742D01*
X343644Y77503D01*
X343794Y78253D01*
X359364D01*
X365581Y72036D01*
Y68964D01*
X364298Y67680D01*
X363767Y66886D01*
X363581Y65950D01*
Y48604D01*
X362881Y48391D01*
X362836Y48458D01*
X362075Y48967D01*
X361178Y49145D01*
X360280Y48967D01*
X359520Y48458D01*
X359011Y47697D01*
X358849Y46881D01*
X358605Y46757D01*
X358148Y46671D01*
X358108Y46730D01*
X357314Y47261D01*
X356378Y47447D01*
X355441Y47261D01*
X354648Y46730D01*
X354117Y45936D01*
X353931Y45000D01*
Y43814D01*
X349364Y39247D01*
X344078D01*
X343142Y39061D01*
X342348Y38530D01*
X339664Y35847D01*
X337078D01*
X336565Y35745D01*
X335778D01*
X335275Y35645D01*
X333178D01*
X332280Y35467D01*
X331520Y34958D01*
X331011Y34197D01*
X330833Y33300D01*
X331011Y32403D01*
X331520Y31642D01*
X332280Y31133D01*
X333178Y30955D01*
X335778D01*
X336281Y31055D01*
X336565D01*
X337078Y30953D01*
X340678D01*
X341614Y31139D01*
X342408Y31670D01*
X345092Y34353D01*
X350378D01*
X350535Y34384D01*
X350611Y34003D01*
X351120Y33242D01*
X351881Y32733D01*
X352778Y32555D01*
X354678D01*
X354978Y32615D01*
X355278Y32555D01*
X356175Y32733D01*
X356936Y33242D01*
X357445Y34003D01*
X357495Y34257D01*
X366331Y43092D01*
X367031Y42802D01*
Y40000D01*
X367217Y39064D01*
X367748Y38270D01*
X368542Y37739D01*
X369478Y37553D01*
X369981Y37653D01*
X372078D01*
X373014Y37839D01*
X373808Y38370D01*
X374339Y39164D01*
X374525Y40100D01*
X374339Y41036D01*
X373808Y41830D01*
X373014Y42361D01*
X372078Y42547D01*
X371925D01*
Y63786D01*
X372908Y64770D01*
X373439Y65564D01*
X373625Y66500D01*
Y74700D01*
X373439Y75636D01*
X372908Y76430D01*
X362908Y86430D01*
X362114Y86961D01*
X361178Y87147D01*
X359505D01*
X359061Y87688D01*
X359123Y88000D01*
X358945Y88897D01*
X358792Y89125D01*
X359045Y89503D01*
X359223Y90400D01*
X359045Y91297D01*
X358536Y92058D01*
X358518Y92071D01*
X358730Y92771D01*
X364945D01*
X367246Y90469D01*
X367043Y89799D01*
X366880Y89767D01*
X366120Y89258D01*
X365611Y88497D01*
X365433Y87600D01*
X365611Y86703D01*
X366120Y85942D01*
X366880Y85434D01*
X367778Y85255D01*
X368675Y85434D01*
X369436Y85942D01*
X369945Y86703D01*
X369977Y86865D01*
X370647Y87068D01*
X373134Y84581D01*
X372811Y84097D01*
X372633Y83200D01*
X372811Y82303D01*
X373320Y81542D01*
X374080Y81033D01*
X374978Y80855D01*
X375875Y81033D01*
X376636Y81542D01*
X377145Y82303D01*
X377323Y83200D01*
X377145Y84097D01*
X376636Y84858D01*
X376497Y84951D01*
X376391Y85485D01*
X376059Y85981D01*
X366659Y95381D01*
X366163Y95713D01*
X365578Y95829D01*
X353178D01*
X352593Y95713D01*
X352097Y95381D01*
X346070Y89355D01*
X345405D01*
X345167Y90055D01*
X345482Y90296D01*
X353882Y98696D01*
X354355Y99312D01*
X354652Y100030D01*
X354753Y100800D01*
Y106847D01*
X355400Y107115D01*
X360596Y101919D01*
X361093Y101587D01*
X361678Y101471D01*
X376273D01*
X376511Y100771D01*
X376452Y100726D01*
X376020Y100162D01*
X375747Y99505D01*
X375655Y98800D01*
X375747Y98095D01*
X376020Y97438D01*
X376452Y96874D01*
X377016Y96442D01*
X377673Y96170D01*
X378378Y96077D01*
X379083Y96170D01*
X379740Y96442D01*
X380304Y96874D01*
X380736Y97438D01*
X381009Y98095D01*
X381101Y98800D01*
X381009Y99505D01*
X380736Y100162D01*
X380304Y100726D01*
X380245Y100771D01*
X380483Y101471D01*
X381198D01*
X381311Y100903D01*
X381820Y100142D01*
X382580Y99634D01*
X383478Y99455D01*
X384375Y99634D01*
X385136Y100142D01*
X385645Y100903D01*
X385823Y101800D01*
X385645Y102697D01*
X385136Y103458D01*
X384375Y103967D01*
X383478Y104145D01*
X383313Y104112D01*
X382863Y104413D01*
X382278Y104529D01*
X362312D01*
X358055Y108785D01*
X358189Y109188D01*
X358360Y109471D01*
X359175Y109633D01*
X359936Y110142D01*
X360444Y110903D01*
X360623Y111800D01*
X360444Y112697D01*
X359936Y113458D01*
X359807Y113544D01*
Y115000D01*
X359691Y115585D01*
X359359Y116081D01*
X350559Y124881D01*
X350063Y125213D01*
X349478Y125329D01*
X345555D01*
X345074Y126029D01*
X345127Y126425D01*
X345034Y127130D01*
X344762Y127787D01*
X344329Y128351D01*
X343765Y128784D01*
X343108Y129056D01*
X342403Y129148D01*
X341698Y129056D01*
X341041Y128784D01*
X340477Y128351D01*
X340045Y127787D01*
X339426Y127599D01*
X339175Y127767D01*
X338278Y127945D01*
X338049Y127899D01*
X337507Y128343D01*
Y147000D01*
X337502Y147029D01*
X337946Y147571D01*
X342178D01*
X342763Y147687D01*
X343259Y148019D01*
X345407Y150166D01*
X346108Y149877D01*
X346237Y149228D01*
X346745Y148467D01*
X347506Y147959D01*
X348403Y147780D01*
X349301Y147959D01*
X350061Y148467D01*
X350570Y149228D01*
X350748Y150125D01*
X350570Y151023D01*
X350061Y151783D01*
X349301Y152292D01*
X348652Y152421D01*
X348362Y153121D01*
X349337Y154096D01*
X359703D01*
X360288Y154212D01*
X360785Y154544D01*
X362937Y156696D01*
X367795D01*
X368033Y155996D01*
X367779Y155801D01*
X367074Y154882D01*
X366631Y153812D01*
X366532Y153063D01*
X381303D01*
X381204Y153812D01*
X380761Y154882D01*
X380055Y155801D01*
X379802Y155996D01*
X380039Y156696D01*
X390670D01*
X400129Y147236D01*
X399839Y146536D01*
X395178D01*
X394081Y146392D01*
X393060Y145969D01*
X392182Y145296D01*
X391509Y144418D01*
X391086Y143396D01*
X390942Y142300D01*
X391086Y141204D01*
X391509Y140182D01*
X392182Y139304D01*
X393060Y138631D01*
X394081Y138208D01*
X395178Y138064D01*
X401178D01*
X402274Y138208D01*
X403296Y138631D01*
X404173Y139304D01*
X404597Y139857D01*
X413178D01*
X414036Y140028D01*
X414374Y140253D01*
X414401Y140259D01*
X415161Y140767D01*
X415670Y141528D01*
X415848Y142425D01*
X415670Y143323D01*
X415161Y144083D01*
X414401Y144592D01*
X413503Y144770D01*
X412606Y144592D01*
X412234Y144343D01*
X404878D01*
X404847Y144418D01*
X404173Y145296D01*
X403652Y145696D01*
X403889Y146396D01*
X422483D01*
X422828Y145696D01*
X422745Y145587D01*
X422473Y144930D01*
X422380Y144225D01*
X422473Y143520D01*
X422745Y142864D01*
X423177Y142299D01*
X423741Y141867D01*
X424398Y141595D01*
X425103Y141502D01*
X425808Y141595D01*
X426465Y141867D01*
X427029Y142299D01*
X427462Y142864D01*
X427734Y143520D01*
X427826Y144225D01*
X427734Y144930D01*
X427462Y145587D01*
X427378Y145696D01*
X427723Y146396D01*
X430270D01*
X435988Y140677D01*
X435958Y140525D01*
X436137Y139628D01*
X436645Y138867D01*
X437406Y138359D01*
X438303Y138180D01*
X439201Y138359D01*
X439961Y138867D01*
X440221Y139255D01*
X441081Y139385D01*
X447674Y132792D01*
Y110325D01*
X447790Y109740D01*
X448122Y109244D01*
X462722Y94644D01*
X462799Y94592D01*
X462721Y93802D01*
X462616Y93758D01*
X462052Y93326D01*
X461620Y92762D01*
X461347Y92105D01*
X461255Y91400D01*
X461347Y90695D01*
X461620Y90038D01*
X462052Y89474D01*
X462616Y89042D01*
X463029Y88871D01*
X463273Y88770D01*
X463164Y88086D01*
X462878Y88123D01*
X462173Y88030D01*
X461516Y87758D01*
X460952Y87326D01*
X460520Y86762D01*
X460248Y86105D01*
X460155Y85400D01*
X460248Y84695D01*
X460520Y84038D01*
X460952Y83474D01*
X461516Y83042D01*
X462173Y82770D01*
X462878Y82677D01*
X463035Y82697D01*
X463173Y82030D01*
X463033Y81973D01*
X462516Y81758D01*
X461952Y81326D01*
X461519Y80762D01*
X461247Y80105D01*
X461155Y79400D01*
X461239Y78758D01*
X461093Y78568D01*
X460683Y78231D01*
X459978Y78323D01*
X459273Y78231D01*
X458616Y77959D01*
X458439Y77822D01*
X458029Y77925D01*
X457665Y78111D01*
X457436Y78662D01*
X457004Y79226D01*
X456440Y79659D01*
X455783Y79931D01*
X455078Y80023D01*
X454373Y79931D01*
X453716Y79659D01*
X453152Y79226D01*
X452719Y78662D01*
X452448Y78005D01*
X452355Y77300D01*
X452448Y76595D01*
X452719Y75938D01*
X452911Y75689D01*
X452565Y74989D01*
X452098D01*
X449423Y72314D01*
Y61964D01*
X452098Y59289D01*
X452248Y58589D01*
X452047Y58105D01*
X451955Y57400D01*
X452047Y56695D01*
X452319Y56038D01*
X452752Y55474D01*
X453316Y55041D01*
X453973Y54769D01*
X454678Y54677D01*
X455383Y54769D01*
X456040Y55041D01*
X456604Y55474D01*
X457036Y56038D01*
X457308Y56695D01*
X457401Y57400D01*
X457308Y58105D01*
X457108Y58589D01*
X457423Y59289D01*
X457448D01*
X460123Y61964D01*
Y72314D01*
X460484Y72943D01*
X460683Y72970D01*
X461340Y73242D01*
X461904Y73674D01*
X462336Y74238D01*
X462608Y74895D01*
X462701Y75600D01*
X462617Y76242D01*
X462763Y76432D01*
X463173Y76770D01*
X463878Y76677D01*
X464583Y76770D01*
X465240Y77042D01*
X465804Y77474D01*
X466236Y78038D01*
X466508Y78695D01*
X466601Y79400D01*
X466508Y80105D01*
X466236Y80762D01*
X465804Y81326D01*
X465240Y81758D01*
X464583Y82030D01*
X463878Y82123D01*
X463721Y82103D01*
X463583Y82770D01*
X463723Y82827D01*
X464240Y83042D01*
X464804Y83474D01*
X465236Y84038D01*
X465509Y84695D01*
X465601Y85400D01*
X465509Y86105D01*
X465236Y86762D01*
X464804Y87326D01*
X464240Y87758D01*
X463827Y87929D01*
X463583Y88030D01*
X463692Y88714D01*
X463978Y88677D01*
X464683Y88770D01*
X465340Y89042D01*
X465904Y89474D01*
X466336Y90038D01*
X466608Y90695D01*
X466701Y91400D01*
X466608Y92105D01*
X466336Y92762D01*
X465904Y93326D01*
X465682Y93496D01*
X465919Y94196D01*
X483803D01*
X484388Y94312D01*
X484885Y94644D01*
X486251Y96010D01*
X486403Y95980D01*
X487107Y96120D01*
X487685Y95761D01*
X487785Y95658D01*
X487828Y95245D01*
X484005Y91423D01*
X483608Y90828D01*
X483468Y90125D01*
Y78425D01*
X483608Y77723D01*
X484005Y77127D01*
X485536Y75597D01*
X485268Y74950D01*
X481103D01*
X480355Y74202D01*
X479692Y74529D01*
X479701Y74600D01*
X479608Y75305D01*
X479336Y75962D01*
X478904Y76526D01*
X478340Y76959D01*
X477683Y77231D01*
X476978Y77323D01*
X476273Y77231D01*
X475616Y76959D01*
X475052Y76526D01*
X474619Y75962D01*
X474347Y75305D01*
X474271Y74722D01*
X473937Y74522D01*
X473571Y74432D01*
X473053Y74950D01*
X467703D01*
X465028Y72275D01*
Y61925D01*
X467703Y59250D01*
X467989D01*
X468219Y58935D01*
X468373Y58550D01*
X468148Y58005D01*
X468055Y57300D01*
X468148Y56595D01*
X468420Y55938D01*
X468852Y55374D01*
X469416Y54941D01*
X470073Y54669D01*
X470778Y54577D01*
X471483Y54669D01*
X472140Y54941D01*
X472704Y55374D01*
X473136Y55938D01*
X473409Y56595D01*
X473501Y57300D01*
X473409Y58005D01*
X473164Y58596D01*
X473053Y59250D01*
X473296Y59493D01*
X474532Y60729D01*
X475059Y60266D01*
X474845Y59987D01*
X474573Y59330D01*
X474480Y58625D01*
X474573Y57920D01*
X474845Y57263D01*
X475278Y56700D01*
X475842Y56267D01*
X476498Y55995D01*
X477203Y55902D01*
X477908Y55995D01*
X478565Y56267D01*
X479129Y56700D01*
X479562Y57263D01*
X479834Y57920D01*
X479926Y58625D01*
X479834Y59330D01*
X479693Y59670D01*
X480286Y60067D01*
X481103Y59250D01*
X481341Y58550D01*
X481119Y58262D01*
X480848Y57605D01*
X480755Y56900D01*
X480848Y56195D01*
X481119Y55538D01*
X481552Y54974D01*
X482116Y54541D01*
X482773Y54269D01*
X483478Y54177D01*
X484183Y54269D01*
X484840Y54541D01*
X485404Y54974D01*
X485836Y55538D01*
X486108Y56195D01*
X486201Y56900D01*
X486108Y57605D01*
X485836Y58262D01*
X485769Y58349D01*
X486055Y59043D01*
X486467Y59133D01*
X486921Y58792D01*
X487043Y58682D01*
Y47193D01*
X486711Y46697D01*
X486533Y45800D01*
X486711Y44903D01*
X487220Y44142D01*
X487981Y43633D01*
X488878Y43455D01*
X489775Y43633D01*
X490536Y44142D01*
X491045Y44903D01*
X491223Y45800D01*
X491045Y46697D01*
X490713Y47193D01*
Y57940D01*
X492276Y59502D01*
X492673Y60098D01*
X492813Y60800D01*
Y72750D01*
X492673Y73453D01*
X492276Y74048D01*
X490019Y76305D01*
X490221Y76828D01*
X490330Y76984D01*
X490983Y77069D01*
X491640Y77342D01*
X492204Y77774D01*
X492636Y78338D01*
X492908Y78995D01*
X493001Y79700D01*
X492908Y80405D01*
X492636Y81062D01*
X492204Y81626D01*
X491640Y82059D01*
X491117Y82275D01*
X491037Y82699D01*
X491084Y83019D01*
X491140Y83042D01*
X491704Y83474D01*
X492136Y84038D01*
X492409Y84695D01*
X492501Y85400D01*
X492409Y86105D01*
X492136Y86762D01*
X492062Y86859D01*
X492604Y87274D01*
X493036Y87838D01*
X493308Y88495D01*
X493401Y89200D01*
X493308Y89905D01*
X493036Y90562D01*
X492604Y91126D01*
X492040Y91558D01*
X491383Y91830D01*
X490686Y91922D01*
X490667Y91946D01*
X490361Y92588D01*
X491126Y93353D01*
X491524Y93948D01*
X491664Y94651D01*
Y99249D01*
X491524Y99952D01*
X491126Y100547D01*
X486886Y104787D01*
X486901Y104900D01*
X486808Y105605D01*
X486536Y106262D01*
X486104Y106826D01*
X486072Y106850D01*
X486309Y107550D01*
X486953D01*
X489628Y110225D01*
Y113815D01*
X489724Y113868D01*
X490328Y113997D01*
X490652Y113574D01*
X491216Y113142D01*
X491873Y112870D01*
X492578Y112777D01*
X493283Y112870D01*
X493940Y113142D01*
X494504Y113574D01*
X494936Y114138D01*
X495209Y114795D01*
X495301Y115500D01*
X495209Y116205D01*
X494936Y116862D01*
X494504Y117426D01*
X493940Y117858D01*
X493283Y118131D01*
X492578Y118223D01*
X491873Y118131D01*
X491216Y117858D01*
X490652Y117426D01*
X490328Y117003D01*
X489724Y117132D01*
X489628Y117185D01*
Y120575D01*
X486953Y123250D01*
X486737D01*
X486392Y123950D01*
X486536Y124138D01*
X486808Y124795D01*
X486901Y125500D01*
X486808Y126205D01*
X486536Y126862D01*
X486104Y127426D01*
X485540Y127858D01*
X484883Y128130D01*
X484178Y128223D01*
X483473Y128130D01*
X482816Y127858D01*
X482252Y127426D01*
X481819Y126862D01*
X481671Y126503D01*
X481249Y126434D01*
X480901Y126466D01*
X480529Y126951D01*
X479965Y127384D01*
X479308Y127656D01*
X478603Y127749D01*
X477898Y127656D01*
X477242Y127384D01*
X476678Y126951D01*
X476469Y126680D01*
X475676Y126765D01*
X475636Y126862D01*
X475204Y127426D01*
X474640Y127858D01*
X473983Y128130D01*
X473278Y128223D01*
X472573Y128130D01*
X471916Y127858D01*
X471352Y127426D01*
X470920Y126862D01*
X470647Y126205D01*
X470555Y125500D01*
X470647Y124795D01*
X470920Y124138D01*
X471064Y123950D01*
X470719Y123250D01*
X468203D01*
X465528Y120575D01*
Y118085D01*
X464828Y117746D01*
X464383Y117930D01*
X463678Y118023D01*
X462973Y117930D01*
X462316Y117658D01*
X461752Y117226D01*
X461319Y116662D01*
X461048Y116005D01*
X460955Y115300D01*
X461048Y114595D01*
X461319Y113938D01*
X461752Y113374D01*
X462316Y112942D01*
X462973Y112670D01*
X463678Y112577D01*
X464383Y112670D01*
X464828Y112854D01*
X465528Y112515D01*
Y110225D01*
X468203Y107550D01*
X468608D01*
X468710Y107430D01*
X468918Y106850D01*
X468619Y106462D01*
X468348Y105805D01*
X468255Y105100D01*
X468348Y104395D01*
X468619Y103738D01*
X469052Y103174D01*
X469616Y102742D01*
X470273Y102470D01*
X470978Y102377D01*
X471683Y102470D01*
X472340Y102742D01*
X472904Y103174D01*
X473336Y103738D01*
X473608Y104395D01*
X473701Y105100D01*
X473608Y105805D01*
X473336Y106462D01*
X473038Y106850D01*
X473246Y107430D01*
X473348Y107550D01*
X473553D01*
X476228Y110225D01*
Y120575D01*
X474484Y122319D01*
X474640Y123141D01*
X474646Y123147D01*
X475204Y123574D01*
X475412Y123846D01*
X476205Y123760D01*
X476245Y123664D01*
X476678Y123100D01*
X477242Y122667D01*
X477898Y122395D01*
X478603Y122302D01*
X479308Y122395D01*
X479965Y122667D01*
X480244Y122881D01*
X480707Y122353D01*
X478928Y120575D01*
Y110225D01*
X481603Y107550D01*
X482046D01*
X482284Y106850D01*
X482252Y106826D01*
X481819Y106262D01*
X481547Y105605D01*
X481455Y104900D01*
X481547Y104195D01*
X481819Y103538D01*
X482252Y102974D01*
X482816Y102542D01*
X483473Y102269D01*
X484178Y102177D01*
X484291Y102192D01*
X485360Y101122D01*
X485203Y100289D01*
X484745Y99983D01*
X484237Y99223D01*
X484058Y98325D01*
X484088Y98173D01*
X483170Y97255D01*
X464437D01*
X450733Y110959D01*
Y133425D01*
X450616Y134011D01*
X450285Y134507D01*
X434285Y150507D01*
X433788Y150838D01*
X433203Y150955D01*
X420527D01*
X420083Y151496D01*
X420148Y151825D01*
X419970Y152723D01*
X419461Y153483D01*
X418701Y153992D01*
X417803Y154170D01*
X416906Y153992D01*
X416878Y153973D01*
X416701Y154092D01*
X415803Y154270D01*
X414906Y154092D01*
X414617Y153899D01*
X414114Y154262D01*
X414038Y154354D01*
X414126Y155025D01*
X414034Y155730D01*
X413762Y156387D01*
X413329Y156951D01*
X412765Y157384D01*
X412108Y157656D01*
X411403Y157748D01*
X410698Y157656D01*
X410042Y157384D01*
X409478Y156951D01*
X409045Y156387D01*
X408773Y155730D01*
X408680Y155025D01*
X408773Y154320D01*
X409045Y153664D01*
X409478Y153100D01*
X410042Y152667D01*
X410698Y152395D01*
X411403Y152302D01*
X412108Y152395D01*
X412765Y152667D01*
X412915Y152782D01*
X413550Y152387D01*
X413458Y151925D01*
X413512Y151655D01*
X412937Y150955D01*
X403037D01*
X395192Y158800D01*
X395517Y159464D01*
X401278D01*
X402374Y159608D01*
X403396Y160031D01*
X404273Y160705D01*
X404947Y161582D01*
X405370Y162604D01*
X405514Y163700D01*
X405370Y164796D01*
X404947Y165818D01*
X404273Y166695D01*
X403396Y167369D01*
X402374Y167792D01*
X401278Y167936D01*
X395278D01*
X394181Y167792D01*
X393160Y167369D01*
X392283Y166695D01*
X391609Y165818D01*
X391186Y164796D01*
X391042Y163700D01*
X391186Y162604D01*
X391455Y161955D01*
X391022Y161255D01*
X361403D01*
X360818Y161138D01*
X360322Y160807D01*
X358170Y158655D01*
X348685D01*
X348395Y159355D01*
X352608Y163567D01*
X353410Y163440D01*
X353441Y163410D01*
X353852Y162874D01*
X354416Y162442D01*
X355073Y162170D01*
X355778Y162077D01*
X356483Y162170D01*
X357140Y162442D01*
X357704Y162874D01*
X358136Y163438D01*
X358408Y164095D01*
X358501Y164800D01*
X358408Y165505D01*
X358136Y166162D01*
X357704Y166726D01*
X357168Y167137D01*
X357138Y167167D01*
X357011Y167970D01*
X359485Y170444D01*
X359816Y170940D01*
X359932Y171525D01*
Y175793D01*
X360632Y176030D01*
X360752Y175874D01*
X361316Y175442D01*
X361973Y175170D01*
X362678Y175077D01*
X363383Y175170D01*
X364040Y175442D01*
X364604Y175874D01*
X365036Y176438D01*
X365308Y177095D01*
X365401Y177800D01*
X365308Y178505D01*
X365036Y179162D01*
X364604Y179726D01*
X364040Y180158D01*
X363383Y180430D01*
X362678Y180523D01*
X361973Y180430D01*
X361316Y180158D01*
X360752Y179726D01*
X360632Y179570D01*
X359932Y179807D01*
Y182492D01*
X363637Y186196D01*
X366404D01*
X366872Y185496D01*
X366631Y184914D01*
X366532Y184165D01*
X373517D01*
Y188203D01*
X372090D01*
X371758Y188903D01*
X371916Y189140D01*
X372032Y189725D01*
Y198825D01*
X372030Y198836D01*
X372095Y198994D01*
X372613Y199496D01*
X399059D01*
X399145Y199367D01*
X399906Y198859D01*
X400803Y198680D01*
X401701Y198859D01*
X402461Y199367D01*
X402970Y200128D01*
X403148Y201025D01*
X402970Y201923D01*
X402461Y202683D01*
X401701Y203192D01*
X400803Y203370D01*
X399906Y203192D01*
X399145Y202683D01*
X399059Y202555D01*
X375030D01*
X374797Y203202D01*
X374807Y203255D01*
X375536Y203742D01*
X376045Y204503D01*
X376223Y205400D01*
X376045Y206297D01*
X375536Y207058D01*
X375031Y207396D01*
X375243Y208096D01*
X411770D01*
X416188Y203677D01*
X416158Y203525D01*
X416337Y202628D01*
X416845Y201867D01*
X417606Y201359D01*
X418503Y201180D01*
X419401Y201359D01*
X420161Y201867D01*
X420629Y202567D01*
X420984Y202621D01*
X421380Y202613D01*
X421745Y202067D01*
X422506Y201559D01*
X423403Y201380D01*
X424301Y201559D01*
X425061Y202067D01*
X425570Y202828D01*
X425748Y203725D01*
X425647Y204235D01*
X426073Y205033D01*
X426201Y205059D01*
X426961Y205567D01*
X427470Y206328D01*
X427648Y207225D01*
X427470Y208123D01*
X426961Y208883D01*
X426201Y209392D01*
X425303Y209570D01*
X424406Y209392D01*
X423645Y208883D01*
X423137Y208123D01*
X422974Y207307D01*
X422692Y207137D01*
X422289Y207003D01*
X417221Y212071D01*
X417367Y212604D01*
X417486Y212771D01*
X419778D01*
X420363Y212887D01*
X420859Y213219D01*
X426859Y219219D01*
X427191Y219715D01*
X427304Y220283D01*
X427336Y220429D01*
X427648Y220637D01*
X428007Y220780D01*
X428603Y220702D01*
X429308Y220795D01*
X429965Y221067D01*
X430529Y221499D01*
X430962Y222063D01*
X431189Y222612D01*
X431553Y222670D01*
X431918Y222612D01*
X432145Y222063D01*
X432578Y221499D01*
X433142Y221067D01*
X433798Y220795D01*
X434503Y220702D01*
X435208Y220795D01*
X435865Y221067D01*
X436429Y221499D01*
X436862Y222063D01*
X437134Y222720D01*
X437150Y222846D01*
X437856D01*
X437873Y222720D01*
X438145Y222063D01*
X438578Y221499D01*
X439142Y221067D01*
X439798Y220795D01*
X440503Y220702D01*
X441208Y220795D01*
X441865Y221067D01*
X442429Y221499D01*
X442862Y222063D01*
X443134Y222720D01*
X443226Y223425D01*
X443134Y224130D01*
X443055Y224320D01*
X443379Y225060D01*
X443448Y225097D01*
X444040Y225342D01*
X444604Y225774D01*
X445036Y226338D01*
X445194Y226718D01*
X475960Y257484D01*
X476340Y257642D01*
X476904Y258074D01*
X477336Y258638D01*
X477608Y259295D01*
X477701Y260000D01*
X477608Y260705D01*
X477336Y261362D01*
X476973Y261835D01*
X477144Y262167D01*
X477191Y262230D01*
X477367Y262416D01*
X478178Y262255D01*
X479075Y262433D01*
X479836Y262942D01*
X480344Y263703D01*
X480523Y264600D01*
X480344Y265497D01*
X479836Y266258D01*
X479075Y266767D01*
X478178Y266945D01*
X478026Y266915D01*
X477459Y267481D01*
X476963Y267813D01*
X476378Y267929D01*
X465078D01*
X464493Y267813D01*
X463997Y267481D01*
X424696Y228181D01*
X424365Y227685D01*
X424249Y227100D01*
Y226420D01*
X423760Y226094D01*
X423549Y226063D01*
X422903Y226149D01*
X422198Y226056D01*
X421542Y225784D01*
X421411Y225684D01*
X420908Y225387D01*
X420345Y225677D01*
X420240Y225758D01*
X419583Y226030D01*
X418878Y226123D01*
X418173Y226030D01*
X417516Y225758D01*
X416952Y225326D01*
X416519Y224762D01*
X416248Y224105D01*
X416155Y223400D01*
X416248Y222695D01*
X416519Y222038D01*
X416952Y221474D01*
X417516Y221042D01*
X418173Y220770D01*
X418878Y220677D01*
X419583Y220770D01*
X420240Y221042D01*
X420370Y221142D01*
X420873Y221438D01*
X421436Y221148D01*
X421542Y221067D01*
X422198Y220795D01*
X422903Y220702D01*
X423046Y220721D01*
X423373Y220058D01*
X419144Y215829D01*
X410005D01*
X409660Y216529D01*
X410079Y217077D01*
X410498Y218087D01*
X410641Y219171D01*
X410498Y220255D01*
X410079Y221265D01*
X409414Y222133D01*
X408546Y222798D01*
X407536Y223217D01*
X406452Y223359D01*
X400547D01*
X399462Y223217D01*
X398452Y222798D01*
X397585Y222133D01*
X396919Y221265D01*
X396501Y220255D01*
X396358Y219171D01*
X396501Y218087D01*
X396919Y217077D01*
X397339Y216529D01*
X396994Y215829D01*
X394099D01*
X393754Y216529D01*
X394174Y217077D01*
X394592Y218087D01*
X394735Y219171D01*
X394592Y220255D01*
X394174Y221265D01*
X393508Y222133D01*
X392641Y222798D01*
X391631Y223217D01*
X390546Y223359D01*
X389462Y223217D01*
X388897Y222983D01*
X380224Y231657D01*
X380135Y231716D01*
X378994Y232857D01*
X378935Y232946D01*
X369199Y242681D01*
X368703Y243013D01*
X368117Y243129D01*
X355678D01*
X355093Y243013D01*
X354596Y242681D01*
X348970Y237055D01*
X326403D01*
X325818Y236938D01*
X325322Y236607D01*
X320322Y231607D01*
X320294Y231566D01*
X319434Y231538D01*
X319382Y231604D01*
X318473Y232302D01*
X317414Y232741D01*
X317023Y232792D01*
X316772Y233531D01*
X324737Y241496D01*
X343703D01*
X344288Y241612D01*
X344785Y241944D01*
X347359Y244519D01*
X347691Y245015D01*
X347807Y245600D01*
Y252139D01*
X348372Y252373D01*
X349240Y253038D01*
X349905Y253906D01*
X350324Y254916D01*
X350466Y256000D01*
X350324Y257084D01*
X349905Y258094D01*
X349849Y258168D01*
X350158Y258796D01*
X352397D01*
X352707Y258168D01*
X352650Y258094D01*
X352232Y257084D01*
X352089Y256000D01*
X352232Y254916D01*
X352650Y253906D01*
X353316Y253038D01*
X354184Y252373D01*
X355194Y251954D01*
X356278Y251811D01*
X357362Y251954D01*
X358372Y252373D01*
X359240Y253038D01*
X359905Y253906D01*
X360324Y254916D01*
X360467Y256000D01*
X360324Y257084D01*
X359905Y258094D01*
X359849Y258168D01*
X360158Y258796D01*
X368970D01*
X385522Y242244D01*
X386018Y241912D01*
X386465Y241823D01*
X386691Y241545D01*
X386849Y241096D01*
X386501Y240255D01*
X386358Y239171D01*
X386501Y238087D01*
X386919Y237077D01*
X387585Y236209D01*
X388452Y235543D01*
X389462Y235125D01*
X390546Y234982D01*
X391631Y235125D01*
X392574Y235516D01*
X393090Y235329D01*
X393274Y235238D01*
Y234514D01*
X393390Y233929D01*
X393722Y233433D01*
X396618Y230537D01*
X396501Y230255D01*
X396358Y229171D01*
X396501Y228087D01*
X396919Y227077D01*
X397585Y226209D01*
X398452Y225543D01*
X399462Y225125D01*
X400547Y224982D01*
X406452D01*
X407536Y225125D01*
X408546Y225543D01*
X409414Y226209D01*
X410079Y227077D01*
X410498Y228087D01*
X410641Y229171D01*
X410498Y230255D01*
X410079Y231265D01*
X409414Y232133D01*
X408546Y232798D01*
X407536Y233217D01*
X406452Y233360D01*
X400547D01*
X399462Y233217D01*
X398615Y232866D01*
X396333Y235148D01*
Y236749D01*
X396388Y236780D01*
X397032Y236929D01*
X397585Y236209D01*
X398452Y235543D01*
X399462Y235125D01*
X400547Y234982D01*
X406452D01*
X407536Y235125D01*
X408546Y235543D01*
X409414Y236209D01*
X410079Y237077D01*
X410498Y238087D01*
X410641Y239171D01*
X410498Y240255D01*
X410079Y241265D01*
X409414Y242133D01*
X408546Y242798D01*
X407536Y243217D01*
X406452Y243359D01*
X400547D01*
X399462Y243217D01*
X398615Y242866D01*
X395374Y246107D01*
X394877Y246438D01*
X394607Y246492D01*
X394421Y246744D01*
X394255Y247130D01*
X394248Y247255D01*
X394592Y248087D01*
X394735Y249171D01*
X394592Y250255D01*
X394174Y251265D01*
X393508Y252133D01*
X392641Y252798D01*
X391631Y253217D01*
X390546Y253360D01*
X389462Y253217D01*
X388452Y252798D01*
X387585Y252133D01*
X386919Y251265D01*
X386501Y250255D01*
X386358Y249171D01*
X386411Y248771D01*
X385748Y248444D01*
X371285Y262907D01*
X370788Y263238D01*
X370203Y263355D01*
X360269D01*
X359967Y264055D01*
X360324Y264916D01*
X360467Y266000D01*
X360324Y267084D01*
X359905Y268094D01*
X359240Y268962D01*
X358372Y269627D01*
X357362Y270046D01*
X356278Y270189D01*
X355194Y270046D01*
X354184Y269627D01*
X353316Y268962D01*
X352650Y268094D01*
X352232Y267084D01*
X352089Y266000D01*
X352232Y264916D01*
X352589Y264055D01*
X352287Y263355D01*
X350269D01*
X349967Y264055D01*
X350324Y264916D01*
X350466Y266000D01*
X350324Y267084D01*
X349905Y268094D01*
X349240Y268962D01*
X348372Y269627D01*
X347362Y270046D01*
X346278Y270189D01*
X345194Y270046D01*
X344184Y269627D01*
X343316Y268962D01*
X342651Y268094D01*
X342232Y267084D01*
X342089Y266000D01*
X342232Y264916D01*
X342651Y263906D01*
X342691Y263853D01*
X342496Y262957D01*
X342422Y262907D01*
X339522Y260007D01*
X339354Y259756D01*
X338530Y259506D01*
X338372Y259627D01*
X337362Y260046D01*
X336278Y260189D01*
X335194Y260046D01*
X334184Y259627D01*
X333316Y258962D01*
X332650Y258094D01*
X332232Y257084D01*
X332089Y256000D01*
X332232Y254916D01*
X332466Y254351D01*
X330770Y252655D01*
X329828D01*
X329483Y253355D01*
X329905Y253906D01*
X330324Y254916D01*
X330467Y256000D01*
X330324Y257084D01*
X329905Y258094D01*
X329240Y258962D01*
X328372Y259627D01*
X327362Y260046D01*
X326278Y260189D01*
X325194Y260046D01*
X324665Y259827D01*
X322285Y262207D01*
X321788Y262538D01*
X321203Y262655D01*
X320080D01*
X319735Y263355D01*
X320080Y263805D01*
X320519Y264864D01*
X320616Y265600D01*
X316278D01*
Y266400D01*
X320616D01*
X320519Y267136D01*
X320186Y267940D01*
X320550Y268640D01*
X321475D01*
X322466Y267649D01*
X322232Y267084D01*
X322089Y266000D01*
X322232Y264916D01*
X322651Y263906D01*
X323316Y263038D01*
X324184Y262373D01*
X325194Y261954D01*
X326278Y261811D01*
X327362Y261954D01*
X328372Y262373D01*
X329240Y263038D01*
X329905Y263906D01*
X330324Y264916D01*
X330467Y266000D01*
X330324Y267084D01*
X329905Y268094D01*
X329240Y268962D01*
X328372Y269627D01*
X327362Y270046D01*
X326278Y270189D01*
X325194Y270046D01*
X324629Y269812D01*
X323190Y271251D01*
X322693Y271583D01*
X322108Y271699D01*
X314448D01*
X313862Y271583D01*
X313366Y271251D01*
X308622Y266507D01*
X308290Y266010D01*
X308174Y265425D01*
Y252059D01*
X305722Y249607D01*
X305390Y249111D01*
X305274Y248525D01*
Y241059D01*
X300622Y236407D01*
X300290Y235911D01*
X300174Y235325D01*
Y227559D01*
X294770Y222155D01*
X287803D01*
X287218Y222038D01*
X286722Y221707D01*
X283270Y218255D01*
X280803D01*
X280218Y218138D01*
X279722Y217807D01*
X277970Y216055D01*
X260403D01*
X259818Y215938D01*
X259322Y215607D01*
X255322Y211607D01*
X254990Y211110D01*
X254874Y210525D01*
Y205870D01*
X254745Y205783D01*
X254237Y205023D01*
X254058Y204125D01*
X254237Y203228D01*
X254745Y202467D01*
X255506Y201959D01*
X256403Y201780D01*
X257301Y201959D01*
X258061Y202467D01*
X258570Y203228D01*
X258748Y204125D01*
X258570Y205023D01*
X258061Y205783D01*
X257932Y205870D01*
Y209892D01*
X258780Y210739D01*
X259476Y210670D01*
X259545Y210567D01*
X260306Y210059D01*
X261203Y209880D01*
X262101Y210059D01*
X262861Y210567D01*
X263014Y210796D01*
X275796D01*
X276064Y210149D01*
X273245Y207329D01*
X267778D01*
X267193Y207213D01*
X266697Y206881D01*
X266055Y206240D01*
X265903Y206270D01*
X265006Y206092D01*
X264245Y205583D01*
X263737Y204823D01*
X263558Y203925D01*
X263737Y203028D01*
X264245Y202267D01*
X265006Y201759D01*
X265903Y201580D01*
X266801Y201759D01*
X267561Y202267D01*
X268070Y203028D01*
X268248Y203925D01*
X268866Y204271D01*
X273878D01*
X274463Y204387D01*
X274959Y204719D01*
X282537Y212296D01*
X285803D01*
X285825Y212300D01*
X286170Y211655D01*
X283422Y208907D01*
X283090Y208411D01*
X282974Y207825D01*
Y180675D01*
X283090Y180089D01*
X283422Y179593D01*
X287438Y175577D01*
Y152555D01*
X281945Y147062D01*
X281903Y147070D01*
X281006Y146892D01*
X280245Y146383D01*
X279737Y145623D01*
X279558Y144725D01*
X279737Y143828D01*
X280245Y143067D01*
X281006Y142559D01*
X281903Y142380D01*
X282801Y142559D01*
X283522Y143041D01*
X284280Y142533D01*
X285178Y142355D01*
X286075Y142533D01*
X286836Y143042D01*
X287345Y143803D01*
X287523Y144700D01*
X287493Y144852D01*
X291659Y149019D01*
X291991Y149515D01*
X292107Y150100D01*
Y177000D01*
X291991Y177585D01*
X291659Y178081D01*
X287483Y182258D01*
Y206242D01*
X293037Y211796D01*
X297487D01*
X297869Y211096D01*
X297742Y210898D01*
X297206Y210792D01*
X296445Y210283D01*
X295937Y209523D01*
X295758Y208625D01*
X295937Y207728D01*
X296445Y206967D01*
X297206Y206459D01*
X298103Y206280D01*
X299001Y206459D01*
X299761Y206967D01*
X300270Y207728D01*
X300448Y208625D01*
X300418Y208777D01*
X302827Y211186D01*
X303474Y210918D01*
Y191559D01*
X296696Y184781D01*
X296365Y184285D01*
X296249Y183700D01*
Y141033D01*
X285397Y130181D01*
X285065Y129685D01*
X284949Y129100D01*
Y126700D01*
X285065Y126115D01*
X285397Y125619D01*
X290096Y120919D01*
X290593Y120587D01*
X291178Y120471D01*
X304445D01*
X308349Y116567D01*
Y115633D01*
X307944Y115229D01*
X286998D01*
X286945Y115497D01*
X286436Y116258D01*
X285675Y116767D01*
X284778Y116945D01*
X283880Y116767D01*
X283120Y116258D01*
X282611Y115497D01*
X282433Y114600D01*
X282498Y114270D01*
X282433Y114191D01*
X281810Y113930D01*
X278173Y117567D01*
Y146233D01*
X281223Y149282D01*
X281361Y149255D01*
X282258Y149433D01*
X283019Y149942D01*
X283527Y150703D01*
X283706Y151600D01*
X283527Y152497D01*
X283019Y153258D01*
X282258Y153767D01*
X281925Y153833D01*
X281578Y154615D01*
X281703Y154823D01*
X282258Y154933D01*
X283019Y155442D01*
X283527Y156203D01*
X283706Y157100D01*
X283527Y157997D01*
X283019Y158758D01*
X282258Y159267D01*
X281361Y159445D01*
X280463Y159267D01*
X279811Y158830D01*
X279158Y159267D01*
X278261Y159445D01*
X277363Y159267D01*
X276603Y158758D01*
X276516Y158629D01*
X275078D01*
X274493Y158513D01*
X273996Y158181D01*
X269537Y153722D01*
X269206Y153226D01*
X269089Y152641D01*
Y118574D01*
X259745Y109229D01*
X230306D01*
X229721Y109113D01*
X229647Y109063D01*
X229378Y109117D01*
X228481Y108938D01*
X227720Y108430D01*
X227581Y108222D01*
X226884Y108153D01*
X224999Y110038D01*
X224503Y110370D01*
X223917Y110486D01*
X211486D01*
X211101Y111186D01*
X211248Y111925D01*
X211070Y112823D01*
X210561Y113583D01*
X209801Y114092D01*
X208903Y114270D01*
X208006Y114092D01*
X207668Y113866D01*
X207015Y114272D01*
X207054Y114567D01*
X206961Y115272D01*
X206689Y115929D01*
X206256Y116493D01*
X205692Y116925D01*
X205036Y117197D01*
X204331Y117290D01*
X204193Y117272D01*
X204107Y117929D01*
X203835Y118586D01*
X203402Y119150D01*
X202838Y119583D01*
X202181Y119855D01*
X201476Y119948D01*
X200771Y119855D01*
X200115Y119583D01*
X199551Y119150D01*
X199253Y118762D01*
X198446Y118579D01*
X196357Y120668D01*
X195861Y121000D01*
X195276Y121116D01*
X146161D01*
X145576Y121000D01*
X145080Y120668D01*
X138943Y114531D01*
X138296Y114799D01*
Y278481D01*
X549658D01*
Y246768D01*
D02*
G37*
G36*
X344184Y252373D02*
X344749Y252139D01*
Y246234D01*
X343070Y244555D01*
X336010D01*
X335742Y245201D01*
X343085Y252544D01*
X343097Y252562D01*
X343788Y252676D01*
X344184Y252373D01*
D02*
G37*
G36*
X224206Y89009D02*
X224138Y88312D01*
X223945Y88183D01*
X223437Y87423D01*
X223258Y86525D01*
X223437Y85628D01*
X223710Y85218D01*
X223166Y84772D01*
X222208Y85730D01*
X221414Y86261D01*
X220478Y86447D01*
X218347D01*
X217773Y87147D01*
X217823Y87400D01*
X217645Y88297D01*
X217442Y88600D01*
X217645Y88903D01*
X217823Y89800D01*
X217797Y89929D01*
X218241Y90471D01*
X222744D01*
X224206Y89009D01*
D02*
G37*
%LPC*%
G36*
X538004Y14698D02*
X537243Y14547D01*
X536598Y14116D01*
X536167Y13471D01*
X536016Y12710D01*
X536167Y11949D01*
X536598Y11304D01*
X537243Y10873D01*
X538004Y10722D01*
X538765Y10873D01*
X539410Y11304D01*
X539841Y11949D01*
X539992Y12710D01*
X539841Y13471D01*
X539410Y14116D01*
X538765Y14547D01*
X538004Y14698D01*
D02*
G37*
G36*
X531004Y11698D02*
X530243Y11547D01*
X529598Y11116D01*
X529167Y10471D01*
X529016Y9710D01*
X529167Y8949D01*
X529598Y8304D01*
X530243Y7873D01*
X531004Y7722D01*
X531765Y7873D01*
X532410Y8304D01*
X532841Y8949D01*
X532992Y9710D01*
X532841Y10471D01*
X532410Y11116D01*
X531765Y11547D01*
X531004Y11698D01*
D02*
G37*
G36*
X541004Y21698D02*
X540243Y21547D01*
X539598Y21116D01*
X539167Y20471D01*
X539016Y19710D01*
X539167Y18949D01*
X539598Y18304D01*
X540243Y17873D01*
X541004Y17722D01*
X541765Y17873D01*
X542410Y18304D01*
X542841Y18949D01*
X542992Y19710D01*
X542841Y20471D01*
X542410Y21116D01*
X541765Y21547D01*
X541004Y21698D01*
D02*
G37*
G36*
X381303Y121161D02*
X374317D01*
Y117123D01*
X376917D01*
X378066Y117274D01*
X379136Y117717D01*
X380055Y118422D01*
X380761Y119342D01*
X381204Y120412D01*
X381303Y121161D01*
D02*
G37*
G36*
X373517D02*
X366532D01*
X366631Y120412D01*
X367074Y119342D01*
X367779Y118422D01*
X368698Y117717D01*
X369769Y117274D01*
X370917Y117123D01*
X373517D01*
Y121161D01*
D02*
G37*
G36*
X401178Y126536D02*
X395178D01*
X394081Y126392D01*
X393060Y125969D01*
X392182Y125295D01*
X391509Y124418D01*
X391086Y123396D01*
X390942Y122300D01*
X391086Y121204D01*
X391509Y120182D01*
X392182Y119305D01*
X393060Y118631D01*
X394081Y118208D01*
X395178Y118064D01*
X401178D01*
X402274Y118208D01*
X403296Y118631D01*
X404173Y119305D01*
X404847Y120182D01*
X405270Y121204D01*
X405414Y122300D01*
X405270Y123396D01*
X404847Y124418D01*
X404173Y125295D01*
X403296Y125969D01*
X402274Y126392D01*
X401178Y126536D01*
D02*
G37*
G36*
X373517Y125999D02*
X370917D01*
X369769Y125847D01*
X368698Y125404D01*
X367779Y124699D01*
X367074Y123780D01*
X366631Y122709D01*
X366532Y121961D01*
X373517D01*
Y125999D01*
D02*
G37*
G36*
X518478Y120623D02*
X517773Y120530D01*
X517116Y120258D01*
X516552Y119826D01*
X516119Y119262D01*
X515847Y118605D01*
X515755Y117900D01*
X515847Y117195D01*
X516119Y116538D01*
X516552Y115974D01*
X517116Y115542D01*
X517773Y115269D01*
X518478Y115177D01*
X519183Y115269D01*
X519840Y115542D01*
X520404Y115974D01*
X520836Y116538D01*
X521108Y117195D01*
X521201Y117900D01*
X521108Y118605D01*
X520836Y119262D01*
X520404Y119826D01*
X519840Y120258D01*
X519183Y120530D01*
X518478Y120623D01*
D02*
G37*
G36*
X478703Y103970D02*
X477806Y103792D01*
X477045Y103283D01*
X476537Y102523D01*
X476358Y101625D01*
X476537Y100728D01*
X477045Y99967D01*
X477806Y99459D01*
X478703Y99280D01*
X479601Y99459D01*
X480361Y99967D01*
X480870Y100728D01*
X481048Y101625D01*
X480870Y102523D01*
X480361Y103283D01*
X479601Y103792D01*
X478703Y103970D01*
D02*
G37*
G36*
X419978Y105396D02*
X418588Y105213D01*
X417292Y104676D01*
X416180Y103823D01*
X415327Y102710D01*
X414790Y101415D01*
X414607Y100025D01*
Y95906D01*
X413907Y95555D01*
X413483Y95731D01*
X412778Y95823D01*
X412073Y95731D01*
X411416Y95459D01*
X410852Y95026D01*
X410420Y94462D01*
X410147Y93805D01*
X410055Y93100D01*
X410147Y92395D01*
X410420Y91738D01*
X410852Y91174D01*
X411416Y90741D01*
X412073Y90469D01*
X412778Y90377D01*
X413483Y90469D01*
X414042Y90701D01*
X414779Y90467D01*
X414790Y90385D01*
X415327Y89090D01*
X416180Y87977D01*
X417292Y87124D01*
X418588Y86587D01*
X419978Y86404D01*
X421368Y86587D01*
X422663Y87124D01*
X423776Y87977D01*
X424629Y89090D01*
X425166Y90385D01*
X425349Y91775D01*
Y100025D01*
X425166Y101415D01*
X424629Y102710D01*
X423776Y103823D01*
X422663Y104676D01*
X421368Y105213D01*
X419978Y105396D01*
D02*
G37*
G36*
X500978Y107823D02*
X500273Y107730D01*
X499616Y107458D01*
X499052Y107026D01*
X498620Y106462D01*
X498348Y105805D01*
X498255Y105100D01*
X498348Y104395D01*
X498620Y103738D01*
X499052Y103174D01*
X499616Y102742D01*
X500273Y102470D01*
X500978Y102377D01*
X501683Y102470D01*
X502340Y102742D01*
X502904Y103174D01*
X503336Y103738D01*
X503609Y104395D01*
X503701Y105100D01*
X503609Y105805D01*
X503336Y106462D01*
X502904Y107026D01*
X502340Y107458D01*
X501683Y107730D01*
X500978Y107823D01*
D02*
G37*
G36*
X376917Y115797D02*
X370917D01*
X369821Y115653D01*
X368799Y115229D01*
X367922Y114556D01*
X367249Y113679D01*
X366825Y112657D01*
X366681Y111561D01*
X366825Y110464D01*
X367249Y109442D01*
X367922Y108565D01*
X368799Y107892D01*
X369821Y107469D01*
X370917Y107324D01*
X376917D01*
X378014Y107469D01*
X379035Y107892D01*
X379913Y108565D01*
X380586Y109442D01*
X381009Y110464D01*
X381154Y111561D01*
X381009Y112657D01*
X380586Y113679D01*
X379913Y114556D01*
X379035Y115229D01*
X378014Y115653D01*
X376917Y115797D01*
D02*
G37*
G36*
X516478Y109523D02*
X515773Y109431D01*
X515116Y109158D01*
X514552Y108726D01*
X514119Y108162D01*
X513847Y107505D01*
X513755Y106800D01*
X513847Y106095D01*
X514119Y105438D01*
X514552Y104874D01*
X515116Y104442D01*
X515773Y104169D01*
X516478Y104077D01*
X517183Y104169D01*
X517840Y104442D01*
X518404Y104874D01*
X518836Y105438D01*
X519108Y106095D01*
X519201Y106800D01*
X519108Y107505D01*
X518836Y108162D01*
X518404Y108726D01*
X517840Y109158D01*
X517183Y109431D01*
X516478Y109523D01*
D02*
G37*
G36*
X376917Y125999D02*
X374317D01*
Y121961D01*
X381303D01*
X381204Y122709D01*
X380761Y123780D01*
X380055Y124699D01*
X379136Y125404D01*
X378066Y125847D01*
X376917Y125999D01*
D02*
G37*
G36*
X381303Y152263D02*
X374317D01*
Y148225D01*
X376917D01*
X378066Y148376D01*
X379136Y148820D01*
X380055Y149525D01*
X380761Y150444D01*
X381204Y151514D01*
X381303Y152263D01*
D02*
G37*
G36*
X470878Y159123D02*
X470173Y159030D01*
X469516Y158758D01*
X468952Y158326D01*
X468519Y157762D01*
X468248Y157105D01*
X468155Y156400D01*
X468248Y155695D01*
X468519Y155038D01*
X468952Y154474D01*
X469516Y154042D01*
X470173Y153770D01*
X470878Y153677D01*
X471583Y153770D01*
X472240Y154042D01*
X472804Y154474D01*
X473236Y155038D01*
X473509Y155695D01*
X473601Y156400D01*
X473509Y157105D01*
X473236Y157762D01*
X472804Y158326D01*
X472240Y158758D01*
X471583Y159030D01*
X470878Y159123D01*
D02*
G37*
G36*
X510506Y155650D02*
X502978D01*
Y147851D01*
X504127Y147964D01*
X505616Y148416D01*
X506988Y149150D01*
X508191Y150137D01*
X509178Y151340D01*
X509912Y152712D01*
X510364Y154201D01*
X510506Y155650D01*
D02*
G37*
G36*
X373517Y152263D02*
X366532D01*
X366631Y151514D01*
X367074Y150444D01*
X367779Y149525D01*
X368698Y148820D01*
X369769Y148376D01*
X370917Y148225D01*
X373517D01*
Y152263D01*
D02*
G37*
G36*
X484378Y159223D02*
X483673Y159131D01*
X483016Y158858D01*
X482452Y158426D01*
X482020Y157862D01*
X481747Y157205D01*
X481655Y156500D01*
X481747Y155795D01*
X482020Y155138D01*
X482452Y154574D01*
X483016Y154142D01*
X483673Y153869D01*
X484378Y153777D01*
X485083Y153869D01*
X485740Y154142D01*
X486304Y154574D01*
X486736Y155138D01*
X487008Y155795D01*
X487101Y156500D01*
X487008Y157205D01*
X486736Y157862D01*
X486304Y158426D01*
X485740Y158858D01*
X485083Y159131D01*
X484378Y159223D01*
D02*
G37*
G36*
X502178Y164249D02*
X501029Y164136D01*
X499540Y163684D01*
X498168Y162950D01*
X496965Y161963D01*
X495978Y160760D01*
X495244Y159388D01*
X494792Y157899D01*
X494650Y156450D01*
X502178D01*
Y164249D01*
D02*
G37*
G36*
X502978D02*
Y156450D01*
X510506D01*
X510364Y157899D01*
X509912Y159388D01*
X509178Y160760D01*
X508191Y161963D01*
X506988Y162950D01*
X505616Y163684D01*
X504127Y164136D01*
X502978Y164249D01*
D02*
G37*
G36*
X428878Y158545D02*
X427981Y158367D01*
X427220Y157858D01*
X426711Y157097D01*
X426533Y156200D01*
X426711Y155303D01*
X427220Y154542D01*
X427981Y154033D01*
X428878Y153855D01*
X429775Y154033D01*
X430536Y154542D01*
X431044Y155303D01*
X431223Y156200D01*
X431044Y157097D01*
X430536Y157858D01*
X429775Y158367D01*
X428878Y158545D01*
D02*
G37*
G36*
X477503Y159949D02*
X476798Y159856D01*
X476142Y159584D01*
X475577Y159151D01*
X475145Y158587D01*
X474873Y157930D01*
X474780Y157225D01*
X474873Y156520D01*
X475145Y155864D01*
X475577Y155299D01*
X476142Y154867D01*
X476798Y154595D01*
X477503Y154502D01*
X478208Y154595D01*
X478865Y154867D01*
X479429Y155299D01*
X479862Y155864D01*
X480134Y156520D01*
X480227Y157225D01*
X480134Y157930D01*
X479862Y158587D01*
X479429Y159151D01*
X478865Y159584D01*
X478208Y159856D01*
X477503Y159949D01*
D02*
G37*
G36*
X502178Y155650D02*
X494650D01*
X494792Y154201D01*
X495244Y152712D01*
X495978Y151340D01*
X496965Y150137D01*
X498168Y149150D01*
X499540Y148416D01*
X501029Y147964D01*
X502178Y147851D01*
Y155650D01*
D02*
G37*
G36*
X359178Y130723D02*
X358473Y130631D01*
X357816Y130358D01*
X357252Y129926D01*
X356820Y129362D01*
X356547Y128705D01*
X356455Y128000D01*
X356547Y127295D01*
X356820Y126638D01*
X357252Y126074D01*
X357816Y125642D01*
X358473Y125370D01*
X359178Y125277D01*
X359883Y125370D01*
X360540Y125642D01*
X361104Y126074D01*
X361536Y126638D01*
X361808Y127295D01*
X361901Y128000D01*
X361808Y128705D01*
X361536Y129362D01*
X361104Y129926D01*
X360540Y130358D01*
X359883Y130631D01*
X359178Y130723D01*
D02*
G37*
G36*
X502678Y135223D02*
X501973Y135131D01*
X501316Y134858D01*
X500752Y134426D01*
X500319Y133862D01*
X500047Y133205D01*
X499955Y132500D01*
X500047Y131795D01*
X500093Y131685D01*
X499794Y131052D01*
X499617Y130998D01*
X498279Y130283D01*
X497107Y129321D01*
X496145Y128149D01*
X495430Y126811D01*
X495214Y126099D01*
X494392Y125802D01*
X494083Y125931D01*
X493378Y126023D01*
X492673Y125931D01*
X492016Y125658D01*
X491452Y125226D01*
X491019Y124662D01*
X490747Y124005D01*
X490655Y123300D01*
X490747Y122595D01*
X491019Y121938D01*
X491452Y121374D01*
X492016Y120942D01*
X492673Y120669D01*
X493378Y120577D01*
X494083Y120669D01*
X494527Y120853D01*
X495330Y120617D01*
X495430Y120289D01*
X496145Y118951D01*
X497107Y117779D01*
X498279Y116817D01*
X499617Y116102D01*
X500215Y115920D01*
X500422Y115126D01*
X500219Y114862D01*
X499948Y114205D01*
X499855Y113500D01*
X499948Y112795D01*
X500219Y112138D01*
X500652Y111574D01*
X501216Y111142D01*
X501873Y110870D01*
X502578Y110777D01*
X503283Y110870D01*
X503940Y111142D01*
X504504Y111574D01*
X504936Y112138D01*
X505208Y112795D01*
X505301Y113500D01*
X505208Y114205D01*
X504936Y114862D01*
X504734Y115126D01*
X504941Y115920D01*
X505539Y116102D01*
X506877Y116817D01*
X508049Y117779D01*
X509011Y118951D01*
X509726Y120289D01*
X509896Y120848D01*
X510710Y121120D01*
X511073Y120969D01*
X511778Y120877D01*
X512483Y120969D01*
X513140Y121242D01*
X513704Y121674D01*
X514136Y122238D01*
X514408Y122895D01*
X514501Y123600D01*
X514408Y124305D01*
X514136Y124962D01*
X513704Y125526D01*
X513140Y125958D01*
X512483Y126231D01*
X511778Y126323D01*
X511073Y126231D01*
X510683Y126069D01*
X509872Y126329D01*
X509726Y126811D01*
X509011Y128149D01*
X508049Y129321D01*
X506877Y130283D01*
X505539Y130998D01*
X505240Y131630D01*
X505308Y131795D01*
X505401Y132500D01*
X505308Y133205D01*
X505036Y133862D01*
X504604Y134426D01*
X504040Y134858D01*
X503383Y135131D01*
X502678Y135223D01*
D02*
G37*
G36*
X435003Y127948D02*
X434298Y127856D01*
X433641Y127584D01*
X433077Y127151D01*
X432645Y126587D01*
X432373Y125930D01*
X432280Y125225D01*
X432373Y124520D01*
X432645Y123864D01*
X433077Y123300D01*
X433641Y122867D01*
X434298Y122595D01*
X435003Y122502D01*
X435708Y122595D01*
X436365Y122867D01*
X436929Y123300D01*
X437362Y123864D01*
X437634Y124520D01*
X437726Y125225D01*
X437634Y125930D01*
X437362Y126587D01*
X436929Y127151D01*
X436365Y127584D01*
X435708Y127856D01*
X435003Y127948D01*
D02*
G37*
G36*
X401178Y136536D02*
X395178D01*
X394081Y136392D01*
X393060Y135969D01*
X392182Y135295D01*
X391509Y134418D01*
X391086Y133396D01*
X390942Y132300D01*
X391086Y131204D01*
X391509Y130182D01*
X392182Y129305D01*
X393060Y128631D01*
X394081Y128208D01*
X395178Y128064D01*
X401178D01*
X402274Y128208D01*
X402655Y128366D01*
X411724Y119297D01*
X412254Y118943D01*
X412878Y118819D01*
X412878Y118819D01*
X423152D01*
X423170Y118792D01*
X423931Y118284D01*
X424828Y118105D01*
X425726Y118284D01*
X426487Y118792D01*
X426995Y119553D01*
X427173Y120450D01*
X426995Y121348D01*
X426487Y122109D01*
X425726Y122617D01*
X424828Y122795D01*
X423931Y122617D01*
X423170Y122109D01*
X423152Y122082D01*
X413554D01*
X412371Y123265D01*
X412716Y123842D01*
X413373Y123570D01*
X414078Y123477D01*
X414783Y123570D01*
X415440Y123842D01*
X416004Y124274D01*
X416436Y124838D01*
X416709Y125495D01*
X416801Y126200D01*
X416709Y126905D01*
X416436Y127562D01*
X416004Y128126D01*
X415440Y128558D01*
X414783Y128831D01*
X414078Y128923D01*
X413373Y128831D01*
X412716Y128558D01*
X412152Y128126D01*
X411720Y127562D01*
X411447Y126905D01*
X411355Y126200D01*
X411447Y125495D01*
X411720Y124838D01*
X411142Y124493D01*
X405024Y130611D01*
X405270Y131204D01*
X405414Y132300D01*
X405270Y133396D01*
X404847Y134418D01*
X404173Y135295D01*
X403296Y135969D01*
X402274Y136392D01*
X401178Y136536D01*
D02*
G37*
G36*
X516278Y131523D02*
X515573Y131430D01*
X514916Y131158D01*
X514352Y130726D01*
X513919Y130162D01*
X513648Y129505D01*
X513555Y128800D01*
X513648Y128095D01*
X513919Y127438D01*
X514352Y126874D01*
X514916Y126442D01*
X515573Y126170D01*
X516278Y126077D01*
X516983Y126170D01*
X517640Y126442D01*
X518204Y126874D01*
X518636Y127438D01*
X518909Y128095D01*
X519001Y128800D01*
X518909Y129505D01*
X518636Y130162D01*
X518204Y130726D01*
X517640Y131158D01*
X516983Y131430D01*
X516278Y131523D01*
D02*
G37*
G36*
X376917Y146899D02*
X370917D01*
X369821Y146755D01*
X368799Y146332D01*
X367922Y145659D01*
X367249Y144781D01*
X366825Y143759D01*
X366681Y142663D01*
X366825Y141567D01*
X367249Y140545D01*
X367922Y139667D01*
X368799Y138994D01*
X369821Y138571D01*
X370917Y138427D01*
X376917D01*
X378014Y138571D01*
X379035Y138994D01*
X379913Y139667D01*
X380586Y140545D01*
X381009Y141567D01*
X381154Y142663D01*
X381009Y143759D01*
X380586Y144781D01*
X379913Y145659D01*
X379035Y146332D01*
X378014Y146755D01*
X376917Y146899D01*
D02*
G37*
G36*
X362978Y152223D02*
X362273Y152130D01*
X361616Y151858D01*
X361052Y151426D01*
X360619Y150862D01*
X360347Y150205D01*
X360255Y149500D01*
X360347Y148795D01*
X360619Y148138D01*
X361052Y147574D01*
X361616Y147142D01*
X362273Y146870D01*
X362978Y146777D01*
X363683Y146870D01*
X364340Y147142D01*
X364904Y147574D01*
X365336Y148138D01*
X365609Y148795D01*
X365701Y149500D01*
X365609Y150205D01*
X365336Y150862D01*
X364904Y151426D01*
X364340Y151858D01*
X363683Y152130D01*
X362978Y152223D01*
D02*
G37*
G36*
X479778Y134323D02*
X479073Y134230D01*
X478416Y133958D01*
X477852Y133526D01*
X477420Y132962D01*
X477147Y132305D01*
X477055Y131600D01*
X477147Y130895D01*
X477420Y130238D01*
X477852Y129674D01*
X478416Y129242D01*
X479073Y128970D01*
X479778Y128877D01*
X480483Y128970D01*
X481140Y129242D01*
X481704Y129674D01*
X482136Y130238D01*
X482409Y130895D01*
X482501Y131600D01*
X482409Y132305D01*
X482136Y132962D01*
X481704Y133526D01*
X481140Y133958D01*
X480483Y134230D01*
X479778Y134323D01*
D02*
G37*
G36*
X358078Y139523D02*
X357373Y139430D01*
X356716Y139158D01*
X356152Y138726D01*
X355719Y138162D01*
X355447Y137505D01*
X355355Y136800D01*
X355447Y136095D01*
X355719Y135438D01*
X356152Y134874D01*
X356716Y134442D01*
X357373Y134169D01*
X358078Y134077D01*
X358783Y134169D01*
X359440Y134442D01*
X360004Y134874D01*
X360436Y135438D01*
X360708Y136095D01*
X360801Y136800D01*
X360708Y137505D01*
X360436Y138162D01*
X360004Y138726D01*
X359440Y139158D01*
X358783Y139430D01*
X358078Y139523D01*
D02*
G37*
G36*
X524004Y28698D02*
X523243Y28547D01*
X522598Y28116D01*
X522167Y27471D01*
X522016Y26710D01*
X522167Y25949D01*
X522598Y25304D01*
X523243Y24873D01*
X524004Y24722D01*
X524765Y24873D01*
X525410Y25304D01*
X525841Y25949D01*
X525992Y26710D01*
X525841Y27471D01*
X525410Y28116D01*
X524765Y28547D01*
X524004Y28698D01*
D02*
G37*
G36*
X390578Y42196D02*
X389873Y42103D01*
X389216Y41831D01*
X388652Y41398D01*
X388219Y40834D01*
X387947Y40177D01*
X387855Y39472D01*
X387947Y38768D01*
X388219Y38111D01*
X388652Y37547D01*
X389045Y37245D01*
X389106Y37001D01*
Y36672D01*
X389045Y36427D01*
X388652Y36126D01*
X388219Y35562D01*
X387947Y34905D01*
X387855Y34200D01*
X387947Y33495D01*
X388219Y32838D01*
X388652Y32274D01*
X388984Y32020D01*
X389036Y31871D01*
Y31329D01*
X388984Y31180D01*
X388652Y30926D01*
X388219Y30362D01*
X387947Y29705D01*
X387855Y29000D01*
X387947Y28295D01*
X388219Y27638D01*
X388652Y27074D01*
X389216Y26642D01*
X389873Y26370D01*
X390578Y26277D01*
X391283Y26370D01*
X391940Y26642D01*
X392504Y27074D01*
X392936Y27638D01*
X393209Y28295D01*
X393301Y29000D01*
X393209Y29705D01*
X392936Y30362D01*
X392504Y30926D01*
X392172Y31180D01*
X392120Y31329D01*
Y31871D01*
X392172Y32020D01*
X392504Y32274D01*
X392936Y32838D01*
X393209Y33495D01*
X393301Y34200D01*
X393209Y34905D01*
X392936Y35562D01*
X392504Y36126D01*
X392111Y36427D01*
X392050Y36672D01*
Y37001D01*
X392111Y37245D01*
X392504Y37547D01*
X392936Y38111D01*
X393209Y38768D01*
X393301Y39472D01*
X393209Y40177D01*
X392936Y40834D01*
X392504Y41398D01*
X391940Y41831D01*
X391283Y42103D01*
X390578Y42196D01*
D02*
G37*
G36*
X149988Y28698D02*
X149227Y28547D01*
X148582Y28116D01*
X148151Y27471D01*
X148000Y26710D01*
X148151Y25949D01*
X148582Y25304D01*
X149227Y24873D01*
X149988Y24722D01*
X150749Y24873D01*
X151394Y25304D01*
X151825Y25949D01*
X151976Y26710D01*
X151825Y27471D01*
X151394Y28116D01*
X150749Y28547D01*
X149988Y28698D01*
D02*
G37*
G36*
X163988D02*
X163227Y28547D01*
X162582Y28116D01*
X162151Y27471D01*
X162000Y26710D01*
X162151Y25949D01*
X162582Y25304D01*
X163227Y24873D01*
X163988Y24722D01*
X164749Y24873D01*
X165394Y25304D01*
X165825Y25949D01*
X165976Y26710D01*
X165825Y27471D01*
X165394Y28116D01*
X164749Y28547D01*
X163988Y28698D01*
D02*
G37*
G36*
X156988Y31698D02*
X156227Y31547D01*
X155582Y31116D01*
X155151Y30471D01*
X155000Y29710D01*
X155151Y28949D01*
X155582Y28304D01*
X156227Y27873D01*
X156988Y27722D01*
X157749Y27873D01*
X158394Y28304D01*
X158825Y28949D01*
X158976Y29710D01*
X158825Y30471D01*
X158394Y31116D01*
X157749Y31547D01*
X156988Y31698D01*
D02*
G37*
G36*
X473978Y40323D02*
X473273Y40231D01*
X472616Y39958D01*
X472052Y39526D01*
X471620Y38962D01*
X471348Y38305D01*
X471255Y37600D01*
X471348Y36895D01*
X471620Y36238D01*
X472052Y35674D01*
X472616Y35242D01*
X473273Y34969D01*
X473978Y34877D01*
X474683Y34969D01*
X475340Y35242D01*
X475904Y35674D01*
X476336Y36238D01*
X476609Y36895D01*
X476701Y37600D01*
X476609Y38305D01*
X476336Y38962D01*
X475904Y39526D01*
X475340Y39958D01*
X474683Y40231D01*
X473978Y40323D01*
D02*
G37*
G36*
X497578Y42523D02*
X496873Y42430D01*
X496216Y42158D01*
X495652Y41726D01*
X495220Y41162D01*
X494947Y40505D01*
X494855Y39800D01*
X494947Y39095D01*
X495220Y38438D01*
X495652Y37874D01*
X496216Y37442D01*
X496873Y37170D01*
X497578Y37077D01*
X498283Y37170D01*
X498940Y37442D01*
X499504Y37874D01*
X499936Y38438D01*
X500209Y39095D01*
X500301Y39800D01*
X500209Y40505D01*
X499936Y41162D01*
X499504Y41726D01*
X498940Y42158D01*
X498283Y42430D01*
X497578Y42523D01*
D02*
G37*
G36*
X531004Y31698D02*
X530243Y31547D01*
X529598Y31116D01*
X529167Y30471D01*
X529016Y29710D01*
X529167Y28949D01*
X529598Y28304D01*
X530243Y27873D01*
X531004Y27722D01*
X531765Y27873D01*
X532410Y28304D01*
X532841Y28949D01*
X532992Y29710D01*
X532841Y30471D01*
X532410Y31116D01*
X531765Y31547D01*
X531004Y31698D01*
D02*
G37*
G36*
X512603Y37949D02*
X511898Y37856D01*
X511241Y37584D01*
X510677Y37151D01*
X510245Y36587D01*
X509973Y35930D01*
X509880Y35225D01*
X509973Y34520D01*
X510245Y33863D01*
X510677Y33299D01*
X511241Y32867D01*
X511898Y32595D01*
X512603Y32502D01*
X513308Y32595D01*
X513965Y32867D01*
X514529Y33299D01*
X514962Y33863D01*
X515234Y34520D01*
X515326Y35225D01*
X515234Y35930D01*
X514962Y36587D01*
X514529Y37151D01*
X513965Y37584D01*
X513308Y37856D01*
X512603Y37949D01*
D02*
G37*
G36*
X199678Y47747D02*
X199165Y47645D01*
X196678D01*
X195781Y47467D01*
X195020Y46958D01*
X194511Y46197D01*
X194333Y45300D01*
X194511Y44403D01*
X195020Y43642D01*
X195781Y43133D01*
X196678Y42955D01*
X197331D01*
Y41000D01*
X197517Y40064D01*
X198048Y39270D01*
X206608Y30709D01*
X206617Y30664D01*
X207148Y29870D01*
X209756Y27261D01*
Y25225D01*
X209942Y24289D01*
X210473Y23495D01*
X211267Y22964D01*
X212203Y22778D01*
X213140Y22964D01*
X213933Y23495D01*
X214464Y24289D01*
X214650Y25225D01*
Y28275D01*
X214464Y29211D01*
X213933Y30005D01*
X211298Y32641D01*
X211289Y32686D01*
X210758Y33480D01*
X202225Y42014D01*
Y45200D01*
X202039Y46136D01*
X201508Y46930D01*
X201408Y47030D01*
X200614Y47561D01*
X199678Y47747D01*
D02*
G37*
G36*
X149988Y14698D02*
X149227Y14547D01*
X148582Y14116D01*
X148151Y13471D01*
X148000Y12710D01*
X148151Y11949D01*
X148582Y11304D01*
X149227Y10873D01*
X149988Y10722D01*
X150749Y10873D01*
X151394Y11304D01*
X151825Y11949D01*
X151976Y12710D01*
X151825Y13471D01*
X151394Y14116D01*
X150749Y14547D01*
X149988Y14698D01*
D02*
G37*
G36*
X156988Y11698D02*
X156227Y11547D01*
X155582Y11116D01*
X155151Y10471D01*
X155000Y9710D01*
X155151Y8949D01*
X155582Y8304D01*
X156227Y7873D01*
X156988Y7722D01*
X157749Y7873D01*
X158394Y8304D01*
X158825Y8949D01*
X158976Y9710D01*
X158825Y10471D01*
X158394Y11116D01*
X157749Y11547D01*
X156988Y11698D01*
D02*
G37*
G36*
X146988Y21698D02*
X146227Y21547D01*
X145582Y21116D01*
X145151Y20471D01*
X145000Y19710D01*
X145151Y18949D01*
X145582Y18304D01*
X146227Y17873D01*
X146988Y17722D01*
X147749Y17873D01*
X148394Y18304D01*
X148825Y18949D01*
X148976Y19710D01*
X148825Y20471D01*
X148394Y21116D01*
X147749Y21547D01*
X146988Y21698D01*
D02*
G37*
G36*
X331178Y25545D02*
X330280Y25367D01*
X329520Y24858D01*
X329011Y24097D01*
X328833Y23200D01*
X329011Y22303D01*
X329520Y21542D01*
X330280Y21033D01*
X331178Y20855D01*
X332075Y21033D01*
X332836Y21542D01*
X333345Y22303D01*
X333523Y23200D01*
X333345Y24097D01*
X332836Y24858D01*
X332075Y25367D01*
X331178Y25545D01*
D02*
G37*
G36*
X166988Y21698D02*
X166227Y21547D01*
X165582Y21116D01*
X165151Y20471D01*
X165000Y19710D01*
X165151Y18949D01*
X165582Y18304D01*
X166227Y17873D01*
X166988Y17722D01*
X167749Y17873D01*
X168394Y18304D01*
X168825Y18949D01*
X168976Y19710D01*
X168825Y20471D01*
X168394Y21116D01*
X167749Y21547D01*
X166988Y21698D01*
D02*
G37*
G36*
X521004D02*
X520243Y21547D01*
X519598Y21116D01*
X519167Y20471D01*
X519016Y19710D01*
X519167Y18949D01*
X519598Y18304D01*
X520243Y17873D01*
X521004Y17722D01*
X521765Y17873D01*
X522410Y18304D01*
X522841Y18949D01*
X522992Y19710D01*
X522841Y20471D01*
X522410Y21116D01*
X521765Y21547D01*
X521004Y21698D01*
D02*
G37*
G36*
X216378Y49145D02*
X215480Y48967D01*
X214720Y48458D01*
X214211Y47697D01*
X214033Y46800D01*
X214211Y45903D01*
X214480Y45500D01*
X214211Y45097D01*
X214033Y44200D01*
X214211Y43303D01*
X214720Y42542D01*
X215480Y42033D01*
X216378Y41855D01*
X217275Y42033D01*
X218036Y42542D01*
X218545Y43303D01*
X218723Y44200D01*
X218545Y45097D01*
X218275Y45500D01*
X218545Y45903D01*
X218723Y46800D01*
X218545Y47697D01*
X218036Y48458D01*
X217275Y48967D01*
X216378Y49145D01*
D02*
G37*
G36*
X276778Y84645D02*
X275881Y84466D01*
X275120Y83958D01*
X274611Y83197D01*
X274433Y82300D01*
X274611Y81403D01*
X275120Y80642D01*
X275881Y80133D01*
X276778Y79955D01*
X277675Y80133D01*
X278436Y80642D01*
X278944Y81403D01*
X279123Y82300D01*
X278944Y83197D01*
X278436Y83958D01*
X277675Y84466D01*
X276778Y84645D01*
D02*
G37*
G36*
X413678Y86723D02*
X412973Y86630D01*
X412316Y86358D01*
X411752Y85926D01*
X411319Y85362D01*
X411048Y84705D01*
X410955Y84000D01*
X411048Y83295D01*
X411319Y82638D01*
X411752Y82074D01*
X412316Y81642D01*
X412973Y81370D01*
X413678Y81277D01*
X414383Y81370D01*
X415040Y81642D01*
X415604Y82074D01*
X416036Y82638D01*
X416308Y83295D01*
X416401Y84000D01*
X416308Y84705D01*
X416036Y85362D01*
X415604Y85926D01*
X415040Y86358D01*
X414383Y86630D01*
X413678Y86723D01*
D02*
G37*
G36*
X415778Y72645D02*
X414881Y72466D01*
X414120Y71958D01*
X413611Y71197D01*
X413433Y70300D01*
X413611Y69403D01*
X414120Y68642D01*
X414881Y68133D01*
X415778Y67955D01*
X416675Y68133D01*
X417436Y68642D01*
X417944Y69403D01*
X418123Y70300D01*
X417944Y71197D01*
X417436Y71958D01*
X416675Y72466D01*
X415778Y72645D01*
D02*
G37*
G36*
X317407Y74462D02*
X316510Y74283D01*
X315749Y73775D01*
X315241Y73014D01*
X315062Y72117D01*
X315092Y71965D01*
X313757Y70629D01*
X289622D01*
X289536Y70758D01*
X288775Y71267D01*
X287878Y71445D01*
X286981Y71267D01*
X286220Y70758D01*
X285711Y69997D01*
X285533Y69100D01*
X285711Y68203D01*
X286220Y67442D01*
X286981Y66934D01*
X287878Y66755D01*
X288775Y66934D01*
X289536Y67442D01*
X289622Y67571D01*
X314390D01*
X314976Y67687D01*
X315472Y68019D01*
X317255Y69802D01*
X317407Y69771D01*
X318304Y69950D01*
X319065Y70458D01*
X319574Y71219D01*
X319752Y72117D01*
X319574Y73014D01*
X319065Y73775D01*
X318304Y74283D01*
X317407Y74462D01*
D02*
G37*
G36*
X502178Y90650D02*
X494650D01*
X494792Y89201D01*
X495244Y87712D01*
X495978Y86340D01*
X496965Y85137D01*
X498168Y84150D01*
X499540Y83416D01*
X500445Y83141D01*
X500297Y82455D01*
X500115Y82479D01*
X499778Y82523D01*
X499073Y82430D01*
X498416Y82158D01*
X497852Y81726D01*
X497420Y81162D01*
X497148Y80505D01*
X497055Y79800D01*
X497148Y79095D01*
X497420Y78438D01*
X497852Y77874D01*
X498416Y77442D01*
X499073Y77170D01*
X499778Y77077D01*
X500483Y77170D01*
X501140Y77442D01*
X501704Y77874D01*
X502136Y78438D01*
X502409Y79095D01*
X502501Y79800D01*
X502409Y80505D01*
X502136Y81162D01*
X501704Y81726D01*
X501140Y82158D01*
X500771Y82311D01*
X501003Y82960D01*
X501029Y82964D01*
X501121Y82955D01*
X502178Y82851D01*
Y90650D01*
D02*
G37*
G36*
Y99249D02*
X501029Y99136D01*
X499540Y98684D01*
X498168Y97950D01*
X496965Y96963D01*
X495978Y95760D01*
X495244Y94388D01*
X494792Y92899D01*
X494650Y91450D01*
X502178D01*
Y99249D01*
D02*
G37*
G36*
X502978D02*
Y91450D01*
X510506D01*
X510364Y92899D01*
X509912Y94388D01*
X509178Y95760D01*
X508191Y96963D01*
X506988Y97950D01*
X505616Y98684D01*
X504127Y99136D01*
X502978Y99249D01*
D02*
G37*
G36*
X510506Y90650D02*
X502978D01*
Y82851D01*
X504127Y82964D01*
X505616Y83416D01*
X506988Y84150D01*
X508191Y85137D01*
X509178Y86340D01*
X509912Y87712D01*
X510364Y89201D01*
X510506Y90650D01*
D02*
G37*
G36*
X399978Y105396D02*
X398588Y105213D01*
X397292Y104676D01*
X396180Y103823D01*
X395327Y102710D01*
X394790Y101415D01*
X394607Y100025D01*
Y91775D01*
X394790Y90385D01*
X395327Y89090D01*
X396180Y87977D01*
X397292Y87124D01*
X398588Y86587D01*
X399978Y86404D01*
X401368Y86587D01*
X402663Y87124D01*
X403776Y87977D01*
X404629Y89090D01*
X405166Y90385D01*
X405349Y91775D01*
Y100025D01*
X405166Y101415D01*
X404629Y102710D01*
X403776Y103823D01*
X402663Y104676D01*
X401368Y105213D01*
X399978Y105396D01*
D02*
G37*
G36*
X394178Y79223D02*
X393473Y79131D01*
X392816Y78859D01*
X392252Y78426D01*
X391820Y77862D01*
X391547Y77205D01*
X391455Y76500D01*
X391547Y75795D01*
X391820Y75138D01*
X392252Y74574D01*
X392443Y74428D01*
Y73572D01*
X392252Y73426D01*
X391820Y72862D01*
X391547Y72205D01*
X391455Y71500D01*
X391547Y70795D01*
X391820Y70138D01*
X392252Y69574D01*
X392516Y69372D01*
X392540Y69323D01*
Y68577D01*
X392516Y68528D01*
X392252Y68326D01*
X391820Y67762D01*
X391547Y67105D01*
X391455Y66400D01*
X391547Y65695D01*
X391820Y65038D01*
X392252Y64474D01*
X392816Y64042D01*
X393473Y63770D01*
X394178Y63677D01*
X394883Y63770D01*
X395540Y64042D01*
X396023Y64412D01*
X396052Y64374D01*
X396616Y63942D01*
X397273Y63670D01*
X397978Y63577D01*
X398683Y63670D01*
X399340Y63942D01*
X399904Y64374D01*
X400336Y64938D01*
X400608Y65595D01*
X400701Y66300D01*
X400608Y67005D01*
X400336Y67662D01*
X399904Y68226D01*
X399572Y68480D01*
X399520Y68629D01*
Y69171D01*
X399572Y69320D01*
X399904Y69574D01*
X400336Y70138D01*
X400608Y70795D01*
X400701Y71500D01*
X400608Y72205D01*
X400336Y72862D01*
X399904Y73426D01*
X399841Y73474D01*
X399604Y74174D01*
X400036Y74738D01*
X400309Y75395D01*
X400401Y76100D01*
X400309Y76805D01*
X400036Y77462D01*
X399604Y78026D01*
X399040Y78458D01*
X398383Y78730D01*
X397678Y78823D01*
X396973Y78730D01*
X396316Y78458D01*
X396167Y78344D01*
X396104Y78426D01*
X395540Y78859D01*
X394883Y79131D01*
X394178Y79223D01*
D02*
G37*
G36*
X470478Y50523D02*
X469773Y50431D01*
X469116Y50158D01*
X468552Y49726D01*
X468119Y49162D01*
X467847Y48505D01*
X467755Y47800D01*
X467847Y47095D01*
X468119Y46438D01*
X468552Y45874D01*
X469116Y45442D01*
X469773Y45169D01*
X470478Y45077D01*
X471183Y45169D01*
X471840Y45442D01*
X472404Y45874D01*
X472836Y46438D01*
X473108Y47095D01*
X473201Y47800D01*
X473108Y48505D01*
X472836Y49162D01*
X472404Y49726D01*
X471840Y50158D01*
X471183Y50431D01*
X470478Y50523D01*
D02*
G37*
G36*
X502678Y70823D02*
X501973Y70731D01*
X501316Y70459D01*
X500752Y70026D01*
X500319Y69462D01*
X500047Y68805D01*
X499955Y68100D01*
X500047Y67395D01*
X500244Y66920D01*
X500022Y66121D01*
X499617Y65998D01*
X498279Y65283D01*
X497107Y64321D01*
X496145Y63149D01*
X495430Y61811D01*
X494989Y60360D01*
X494841Y58850D01*
Y58250D01*
X494920Y57445D01*
X494278Y56823D01*
X493573Y56731D01*
X492916Y56458D01*
X492352Y56026D01*
X491920Y55462D01*
X491647Y54805D01*
X491555Y54100D01*
X491647Y53395D01*
X491920Y52738D01*
X492352Y52174D01*
X492916Y51741D01*
X493573Y51469D01*
X494278Y51377D01*
X494983Y51469D01*
X495640Y51741D01*
X496204Y52174D01*
X496442Y52485D01*
X496628Y52568D01*
X497173Y52626D01*
X497334Y52593D01*
X498279Y51817D01*
X499617Y51102D01*
X500176Y50932D01*
X500422Y50126D01*
X500247Y49705D01*
X500155Y49000D01*
X500247Y48295D01*
X500520Y47638D01*
X500952Y47074D01*
X501516Y46642D01*
X502173Y46369D01*
X502878Y46277D01*
X503583Y46369D01*
X504240Y46642D01*
X504804Y47074D01*
X505236Y47638D01*
X505509Y48295D01*
X505601Y49000D01*
X505509Y49705D01*
X505267Y50288D01*
X505254Y50546D01*
X505411Y51033D01*
X505547Y51106D01*
X506877Y51817D01*
X508049Y52779D01*
X509011Y53951D01*
X509726Y55289D01*
X509906Y55881D01*
X510716Y56142D01*
X511373Y55870D01*
X512078Y55777D01*
X512783Y55870D01*
X513440Y56142D01*
X514004Y56574D01*
X514436Y57138D01*
X514709Y57795D01*
X514801Y58500D01*
X514709Y59205D01*
X514436Y59862D01*
X514004Y60426D01*
X513440Y60859D01*
X512783Y61130D01*
X512078Y61223D01*
X511373Y61130D01*
X510743Y60870D01*
X510711Y60860D01*
X509931Y61138D01*
X509726Y61811D01*
X509011Y63149D01*
X508049Y64321D01*
X506877Y65283D01*
X505539Y65998D01*
X505246Y66087D01*
X505214Y66186D01*
X505089Y66866D01*
X505308Y67395D01*
X505401Y68100D01*
X505308Y68805D01*
X505036Y69462D01*
X504604Y70026D01*
X504040Y70459D01*
X503383Y70731D01*
X502678Y70823D01*
D02*
G37*
G36*
X265578Y49145D02*
X264681Y48967D01*
X263920Y48458D01*
X263411Y47697D01*
X263233Y46800D01*
X263411Y45903D01*
X263647Y45550D01*
X263411Y45197D01*
X263233Y44300D01*
X263411Y43403D01*
X263920Y42642D01*
X264681Y42133D01*
X265578Y41955D01*
X266475Y42133D01*
X267236Y42642D01*
X267744Y43403D01*
X267923Y44300D01*
X267744Y45197D01*
X267509Y45550D01*
X267744Y45903D01*
X267923Y46800D01*
X267744Y47697D01*
X267236Y48458D01*
X266475Y48967D01*
X265578Y49145D01*
D02*
G37*
G36*
X452278Y47823D02*
X451573Y47730D01*
X450916Y47458D01*
X450352Y47026D01*
X449920Y46462D01*
X449648Y45805D01*
X449555Y45100D01*
X449648Y44395D01*
X449920Y43738D01*
X450352Y43174D01*
X450916Y42742D01*
X451573Y42469D01*
X452278Y42377D01*
X452983Y42469D01*
X453640Y42742D01*
X454204Y43174D01*
X454636Y43738D01*
X454909Y44395D01*
X455001Y45100D01*
X454909Y45805D01*
X454636Y46462D01*
X454204Y47026D01*
X453640Y47458D01*
X452983Y47730D01*
X452278Y47823D01*
D02*
G37*
G36*
X441678Y80123D02*
X440973Y80031D01*
X440316Y79759D01*
X439752Y79326D01*
X439320Y78762D01*
X439047Y78105D01*
X438955Y77400D01*
X439047Y76695D01*
X439320Y76038D01*
X439587Y75689D01*
X439309Y75014D01*
X439286Y74989D01*
X438698D01*
X436023Y72314D01*
Y61964D01*
X438698Y59289D01*
X444048D01*
X444108Y59349D01*
X444771Y59022D01*
X444755Y58900D01*
X444847Y58195D01*
X445119Y57538D01*
X445552Y56974D01*
X446116Y56542D01*
X446773Y56270D01*
X447478Y56177D01*
X448183Y56270D01*
X448840Y56542D01*
X449404Y56974D01*
X449836Y57538D01*
X450108Y58195D01*
X450201Y58900D01*
X450108Y59605D01*
X449836Y60262D01*
X449404Y60826D01*
X448840Y61259D01*
X448183Y61531D01*
X447478Y61623D01*
X447271Y61596D01*
X446723Y62230D01*
Y72314D01*
X444062Y74975D01*
X444047Y74992D01*
X443769Y75689D01*
X444036Y76038D01*
X444309Y76695D01*
X444401Y77400D01*
X444309Y78105D01*
X444036Y78762D01*
X443604Y79326D01*
X443040Y79759D01*
X442383Y80031D01*
X441678Y80123D01*
D02*
G37*
G36*
X516478Y66223D02*
X515773Y66131D01*
X515116Y65859D01*
X514552Y65426D01*
X514119Y64862D01*
X513847Y64205D01*
X513755Y63500D01*
X513847Y62795D01*
X514119Y62138D01*
X514552Y61574D01*
X515116Y61142D01*
X515773Y60869D01*
X516478Y60777D01*
X517183Y60869D01*
X517840Y61142D01*
X518404Y61574D01*
X518836Y62138D01*
X519108Y62795D01*
X519201Y63500D01*
X519108Y64205D01*
X518836Y64862D01*
X518404Y65426D01*
X517840Y65859D01*
X517183Y66131D01*
X516478Y66223D01*
D02*
G37*
G36*
X418959Y61113D02*
X418062Y60934D01*
X418046Y60923D01*
X415872D01*
X415857Y60934D01*
X414959Y61113D01*
X414062Y60934D01*
X414046Y60923D01*
X411872D01*
X411857Y60934D01*
X410959Y61113D01*
X410062Y60934D01*
X410046Y60923D01*
X407872D01*
X407857Y60934D01*
X406959Y61113D01*
X406062Y60934D01*
X406046Y60923D01*
X403078D01*
X402610Y60830D01*
X402213Y60565D01*
X401948Y60168D01*
X401854Y59700D01*
Y53477D01*
X401870Y53398D01*
X401865Y53317D01*
X401867Y53300D01*
X401865Y53283D01*
X401870Y53202D01*
X401854Y53123D01*
Y42192D01*
X401154Y41847D01*
X401140Y41858D01*
X400483Y42131D01*
X399778Y42223D01*
X399073Y42131D01*
X398416Y41858D01*
X397852Y41426D01*
X397420Y40862D01*
X397147Y40205D01*
X397055Y39500D01*
X397147Y38795D01*
X397420Y38138D01*
X397852Y37574D01*
X398269Y37255D01*
X398333Y36952D01*
Y36748D01*
X398269Y36445D01*
X397852Y36126D01*
X397420Y35562D01*
X397147Y34905D01*
X397055Y34200D01*
X397147Y33495D01*
X397420Y32838D01*
X397852Y32274D01*
X398184Y32020D01*
X398236Y31871D01*
Y31329D01*
X398184Y31180D01*
X397852Y30926D01*
X397420Y30362D01*
X397147Y29705D01*
X397055Y29000D01*
X397147Y28295D01*
X397420Y27638D01*
X397852Y27074D01*
X398416Y26642D01*
X399073Y26370D01*
X399778Y26277D01*
X400483Y26370D01*
X401140Y26642D01*
X401704Y27074D01*
X402136Y27638D01*
X402409Y28295D01*
X402501Y29000D01*
X402409Y29705D01*
X402136Y30362D01*
X401704Y30926D01*
X401372Y31180D01*
X401320Y31329D01*
Y31871D01*
X401372Y32020D01*
X401704Y32274D01*
X402136Y32838D01*
X402409Y33495D01*
X402501Y34200D01*
X402409Y34905D01*
X402136Y35562D01*
X401704Y36126D01*
X401287Y36445D01*
X401223Y36748D01*
Y36952D01*
X401287Y37255D01*
X401704Y37574D01*
X402136Y38138D01*
X402409Y38795D01*
X402473Y39283D01*
X403010Y39819D01*
X403158Y39876D01*
X420078D01*
X420546Y39970D01*
X420943Y40235D01*
X421208Y40632D01*
X421302Y41100D01*
Y42754D01*
X421304Y42768D01*
X421302Y42781D01*
Y46754D01*
X421304Y46768D01*
X421302Y46781D01*
Y50754D01*
X421304Y50768D01*
X421302Y50781D01*
Y54754D01*
X421304Y54768D01*
X421302Y54781D01*
Y58754D01*
X421304Y58768D01*
X421302Y58781D01*
Y59700D01*
X421208Y60168D01*
X420943Y60565D01*
X420546Y60830D01*
X420078Y60923D01*
X419873D01*
X419857Y60934D01*
X418959Y61113D01*
D02*
G37*
G36*
X329626Y61006D02*
X328729Y60828D01*
X327968Y60320D01*
X327459Y59559D01*
X327281Y58661D01*
X327459Y57764D01*
X327968Y57003D01*
X328729Y56495D01*
X329626Y56316D01*
X330523Y56495D01*
X331284Y57003D01*
X331792Y57764D01*
X331971Y58661D01*
X331792Y59559D01*
X331284Y60320D01*
X330523Y60828D01*
X329626Y61006D01*
D02*
G37*
G36*
X143578Y64045D02*
X142681Y63867D01*
X141920Y63358D01*
X141411Y62597D01*
X141233Y61700D01*
X141411Y60803D01*
X141920Y60042D01*
X142681Y59534D01*
X143578Y59355D01*
X144475Y59534D01*
X145236Y60042D01*
X145745Y60803D01*
X145923Y61700D01*
X145745Y62597D01*
X145236Y63358D01*
X144475Y63867D01*
X143578Y64045D01*
D02*
G37*
G36*
X394699Y263324D02*
X386394D01*
Y255018D01*
X394699D01*
Y263324D01*
D02*
G37*
G36*
X146988Y261856D02*
X146227Y261705D01*
X145582Y261274D01*
X145151Y260629D01*
X145000Y259868D01*
X145151Y259107D01*
X145582Y258462D01*
X146227Y258031D01*
X146988Y257879D01*
X147749Y258031D01*
X148394Y258462D01*
X148825Y259107D01*
X148976Y259868D01*
X148825Y260629D01*
X148394Y261274D01*
X147749Y261705D01*
X146988Y261856D01*
D02*
G37*
G36*
X218703Y267061D02*
X217607Y266917D01*
X216585Y266494D01*
X215708Y265821D01*
X215035Y264943D01*
X214611Y263922D01*
X214467Y262825D01*
Y256825D01*
X214611Y255729D01*
X215035Y254707D01*
X215708Y253830D01*
X216585Y253156D01*
X217607Y252733D01*
X218703Y252589D01*
X219800Y252733D01*
X220777Y253138D01*
X223396Y250519D01*
X223893Y250187D01*
X224478Y250071D01*
X234378D01*
X234963Y250187D01*
X235459Y250519D01*
X238826Y253885D01*
X238978Y253855D01*
X239875Y254033D01*
X240636Y254542D01*
X241144Y255303D01*
X241323Y256200D01*
X241144Y257097D01*
X240636Y257858D01*
X239875Y258367D01*
X238978Y258545D01*
X238081Y258367D01*
X237320Y257858D01*
X236811Y257097D01*
X236633Y256200D01*
X236663Y256048D01*
X233803Y253188D01*
X233103Y253271D01*
Y259425D01*
X228703D01*
X224303D01*
Y254852D01*
X223656Y254584D01*
X222712Y255529D01*
X222795Y255729D01*
X222939Y256825D01*
Y262825D01*
X222795Y263922D01*
X222372Y264943D01*
X221699Y265821D01*
X220821Y266494D01*
X219800Y266917D01*
X218703Y267061D01*
D02*
G37*
G36*
X406452Y263359D02*
X400547D01*
X399462Y263217D01*
X398452Y262798D01*
X397585Y262133D01*
X396919Y261265D01*
X396501Y260255D01*
X396358Y259171D01*
X396501Y258087D01*
X396919Y257077D01*
X397585Y256209D01*
X398452Y255543D01*
X399462Y255125D01*
X400547Y254982D01*
X406452D01*
X407536Y255125D01*
X408546Y255543D01*
X409414Y256209D01*
X410079Y257077D01*
X410498Y258087D01*
X410641Y259171D01*
X410498Y260255D01*
X410079Y261265D01*
X409414Y262133D01*
X408546Y262798D01*
X407536Y263217D01*
X406452Y263359D01*
D02*
G37*
G36*
X166988Y261856D02*
X166227Y261705D01*
X165582Y261274D01*
X165151Y260629D01*
X165000Y259868D01*
X165151Y259107D01*
X165582Y258462D01*
X166227Y258031D01*
X166988Y257879D01*
X167749Y258031D01*
X168394Y258462D01*
X168825Y259107D01*
X168976Y259868D01*
X168825Y260629D01*
X168394Y261274D01*
X167749Y261705D01*
X166988Y261856D01*
D02*
G37*
G36*
X499978Y263800D02*
X492978D01*
Y259800D01*
X499978D01*
Y263800D01*
D02*
G37*
G36*
X507778D02*
X500778D01*
Y259800D01*
X507778D01*
Y263800D01*
D02*
G37*
G36*
X521004Y261856D02*
X520243Y261705D01*
X519598Y261274D01*
X519167Y260629D01*
X519016Y259868D01*
X519167Y259107D01*
X519598Y258462D01*
X520243Y258031D01*
X521004Y257879D01*
X521765Y258031D01*
X522410Y258462D01*
X522841Y259107D01*
X522992Y259868D01*
X522841Y260629D01*
X522410Y261274D01*
X521765Y261705D01*
X521004Y261856D01*
D02*
G37*
G36*
X541004D02*
X540243Y261705D01*
X539598Y261274D01*
X539167Y260629D01*
X539016Y259868D01*
X539167Y259107D01*
X539598Y258462D01*
X540243Y258031D01*
X541004Y257879D01*
X541765Y258031D01*
X542410Y258462D01*
X542841Y259107D01*
X542992Y259868D01*
X542841Y260629D01*
X542410Y261274D01*
X541765Y261705D01*
X541004Y261856D01*
D02*
G37*
G36*
X163988Y254856D02*
X163227Y254705D01*
X162582Y254274D01*
X162151Y253628D01*
X162000Y252868D01*
X162151Y252107D01*
X162582Y251462D01*
X163227Y251031D01*
X163988Y250880D01*
X164749Y251031D01*
X165394Y251462D01*
X165825Y252107D01*
X165976Y252868D01*
X165825Y253628D01*
X165394Y254274D01*
X164749Y254705D01*
X163988Y254856D01*
D02*
G37*
G36*
X524004D02*
X523243Y254705D01*
X522598Y254274D01*
X522167Y253628D01*
X522016Y252868D01*
X522167Y252107D01*
X522598Y251462D01*
X523243Y251031D01*
X524004Y250880D01*
X524765Y251031D01*
X525410Y251462D01*
X525841Y252107D01*
X525992Y252868D01*
X525841Y253628D01*
X525410Y254274D01*
X524765Y254705D01*
X524004Y254856D01*
D02*
G37*
G36*
X503378Y258436D02*
X497378D01*
X496281Y258292D01*
X495260Y257869D01*
X494382Y257195D01*
X493709Y256318D01*
X493286Y255296D01*
X493142Y254200D01*
X493286Y253104D01*
X493709Y252082D01*
X494382Y251204D01*
X495260Y250531D01*
X496281Y250108D01*
X497378Y249964D01*
X503378D01*
X504474Y250108D01*
X505496Y250531D01*
X506373Y251204D01*
X507047Y252082D01*
X507470Y253104D01*
X507614Y254200D01*
X507470Y255296D01*
X507047Y256318D01*
X506373Y257195D01*
X505496Y257869D01*
X504474Y258292D01*
X503378Y258436D01*
D02*
G37*
G36*
X149988Y254856D02*
X149227Y254705D01*
X148582Y254274D01*
X148151Y253628D01*
X148000Y252868D01*
X148151Y252107D01*
X148582Y251462D01*
X149227Y251031D01*
X149988Y250880D01*
X150749Y251031D01*
X151394Y251462D01*
X151825Y252107D01*
X151976Y252868D01*
X151825Y253628D01*
X151394Y254274D01*
X150749Y254705D01*
X149988Y254856D01*
D02*
G37*
G36*
X201003Y259425D02*
X197003D01*
Y252425D01*
X201003D01*
Y259425D01*
D02*
G37*
G36*
X250498Y267104D02*
X249402Y266960D01*
X248380Y266536D01*
X247503Y265863D01*
X246830Y264986D01*
X246407Y263964D01*
X246262Y262868D01*
Y256868D01*
X246407Y255771D01*
X246830Y254750D01*
X247503Y253872D01*
X248380Y253199D01*
X249402Y252776D01*
X250498Y252631D01*
X251595Y252776D01*
X252617Y253199D01*
X253494Y253872D01*
X254167Y254750D01*
X254590Y255771D01*
X254735Y256868D01*
Y262868D01*
X254590Y263964D01*
X254167Y264986D01*
X253494Y265863D01*
X252617Y266536D01*
X251595Y266960D01*
X250498Y267104D01*
D02*
G37*
G36*
X156988Y267008D02*
X155595Y266870D01*
X154256Y266464D01*
X153022Y265804D01*
X151939Y264916D01*
X151052Y263834D01*
X150392Y262600D01*
X149986Y261261D01*
X149848Y259868D01*
X149986Y258475D01*
X150392Y257135D01*
X151052Y255901D01*
X151939Y254819D01*
X153022Y253931D01*
X154256Y253271D01*
X155595Y252865D01*
X156988Y252728D01*
X158381Y252865D01*
X159721Y253271D01*
X160955Y253931D01*
X162037Y254819D01*
X162925Y255901D01*
X163585Y257135D01*
X163991Y258475D01*
X164128Y259868D01*
X163991Y261261D01*
X163585Y262600D01*
X162925Y263834D01*
X162037Y264916D01*
X160955Y265804D01*
X159721Y266464D01*
X158381Y266870D01*
X156988Y267008D01*
D02*
G37*
G36*
X260099Y259468D02*
X256061D01*
Y256868D01*
X256212Y255719D01*
X256655Y254649D01*
X257360Y253730D01*
X258279Y253024D01*
X259350Y252581D01*
X260099Y252482D01*
Y259468D01*
D02*
G37*
G36*
X264936D02*
X260898D01*
Y252482D01*
X261647Y252581D01*
X262717Y253024D01*
X263636Y253730D01*
X264342Y254649D01*
X264785Y255719D01*
X264936Y256868D01*
Y259468D01*
D02*
G37*
G36*
X196203Y267225D02*
X192203D01*
Y260225D01*
X196203D01*
Y267225D01*
D02*
G37*
G36*
X538004Y268856D02*
X537243Y268705D01*
X536598Y268274D01*
X536167Y267629D01*
X536016Y266868D01*
X536167Y266107D01*
X536598Y265462D01*
X537243Y265031D01*
X538004Y264879D01*
X538765Y265031D01*
X539410Y265462D01*
X539841Y266107D01*
X539992Y266868D01*
X539841Y267629D01*
X539410Y268274D01*
X538765Y268705D01*
X538004Y268856D01*
D02*
G37*
G36*
X156988Y271856D02*
X156227Y271705D01*
X155582Y271274D01*
X155151Y270628D01*
X155000Y269868D01*
X155151Y269107D01*
X155582Y268462D01*
X156227Y268031D01*
X156988Y267880D01*
X157749Y268031D01*
X158394Y268462D01*
X158825Y269107D01*
X158976Y269868D01*
X158825Y270628D01*
X158394Y271274D01*
X157749Y271705D01*
X156988Y271856D01*
D02*
G37*
G36*
X163988Y268856D02*
X163227Y268705D01*
X162582Y268274D01*
X162151Y267629D01*
X162000Y266868D01*
X162151Y266107D01*
X162582Y265462D01*
X163227Y265031D01*
X163988Y264879D01*
X164749Y265031D01*
X165394Y265462D01*
X165825Y266107D01*
X165976Y266868D01*
X165825Y267629D01*
X165394Y268274D01*
X164749Y268705D01*
X163988Y268856D01*
D02*
G37*
G36*
X524004D02*
X523243Y268705D01*
X522598Y268274D01*
X522167Y267629D01*
X522016Y266868D01*
X522167Y266107D01*
X522598Y265462D01*
X523243Y265031D01*
X524004Y264879D01*
X524765Y265031D01*
X525410Y265462D01*
X525841Y266107D01*
X525992Y266868D01*
X525841Y267629D01*
X525410Y268274D01*
X524765Y268705D01*
X524004Y268856D01*
D02*
G37*
G36*
X531004Y271856D02*
X530243Y271705D01*
X529598Y271274D01*
X529167Y270628D01*
X529016Y269868D01*
X529167Y269107D01*
X529598Y268462D01*
X530243Y268031D01*
X531004Y267880D01*
X531765Y268031D01*
X532410Y268462D01*
X532841Y269107D01*
X532992Y269868D01*
X532841Y270628D01*
X532410Y271274D01*
X531765Y271705D01*
X531004Y271856D01*
D02*
G37*
G36*
X252803Y276270D02*
X251906Y276092D01*
X251145Y275583D01*
X250637Y274823D01*
X250458Y273925D01*
X250637Y273028D01*
X251145Y272267D01*
X251906Y271759D01*
X252803Y271580D01*
X253701Y271759D01*
X254461Y272267D01*
X254970Y273028D01*
X255148Y273925D01*
X254970Y274823D01*
X254461Y275583D01*
X253701Y276092D01*
X252803Y276270D01*
D02*
G37*
G36*
X425178Y277645D02*
X424281Y277467D01*
X423520Y276958D01*
X423011Y276197D01*
X422833Y275300D01*
X423011Y274403D01*
X423520Y273642D01*
X424281Y273133D01*
X425178Y272955D01*
X426075Y273133D01*
X426836Y273642D01*
X427345Y274403D01*
X427523Y275300D01*
X427345Y276197D01*
X426836Y276958D01*
X426075Y277467D01*
X425178Y277645D01*
D02*
G37*
G36*
X282103Y273970D02*
X281206Y273792D01*
X280445Y273283D01*
X280359Y273155D01*
X279303D01*
X278718Y273038D01*
X278222Y272707D01*
X272217Y266702D01*
X271595Y266960D01*
X270498Y267104D01*
X269402Y266960D01*
X268380Y266536D01*
X267503Y265863D01*
X266830Y264986D01*
X266406Y263964D01*
X266262Y262868D01*
Y256868D01*
X266406Y255771D01*
X266830Y254750D01*
X267503Y253872D01*
X268380Y253199D01*
X269402Y252776D01*
X270498Y252631D01*
X271595Y252776D01*
X272617Y253199D01*
X273494Y253872D01*
X274167Y254750D01*
X274590Y255771D01*
X274735Y256868D01*
Y262868D01*
X274590Y263964D01*
X274360Y264520D01*
X275652Y265811D01*
X276298Y265543D01*
Y252668D01*
X284698D01*
Y267068D01*
X277823D01*
X277555Y267714D01*
X279739Y269898D01*
X280445Y269967D01*
X281206Y269459D01*
X282103Y269280D01*
X283001Y269459D01*
X283761Y269967D01*
X284270Y270728D01*
X284448Y271625D01*
X284270Y272523D01*
X283761Y273283D01*
X283001Y273792D01*
X282103Y273970D01*
D02*
G37*
G36*
X487878Y274345D02*
X486980Y274167D01*
X486220Y273658D01*
X485711Y272897D01*
X485533Y272000D01*
X485711Y271103D01*
X486220Y270342D01*
X486980Y269833D01*
X487878Y269655D01*
X488775Y269833D01*
X489536Y270342D01*
X490044Y271103D01*
X490223Y272000D01*
X490044Y272897D01*
X489536Y273658D01*
X488775Y274167D01*
X487878Y274345D01*
D02*
G37*
G36*
X233103Y267225D02*
X229103D01*
Y260225D01*
X233103D01*
Y267225D01*
D02*
G37*
G36*
X260099Y267253D02*
X259350Y267155D01*
X258279Y266711D01*
X257360Y266006D01*
X256655Y265087D01*
X256212Y264016D01*
X256061Y262868D01*
Y260268D01*
X260099D01*
Y267253D01*
D02*
G37*
G36*
X228303Y267225D02*
X224303D01*
Y260225D01*
X228303D01*
Y267225D01*
D02*
G37*
G36*
X201003D02*
X197003D01*
Y260225D01*
X201003D01*
Y267225D01*
D02*
G37*
G36*
X260898Y267253D02*
Y260268D01*
X264936D01*
Y262868D01*
X264785Y264016D01*
X264342Y265087D01*
X263636Y266006D01*
X262717Y266711D01*
X261647Y267155D01*
X260898Y267253D01*
D02*
G37*
G36*
X507778Y268600D02*
X500778D01*
Y264600D01*
X507778D01*
Y268600D01*
D02*
G37*
G36*
X149988Y268856D02*
X149227Y268705D01*
X148582Y268274D01*
X148151Y267629D01*
X148000Y266868D01*
X148151Y266107D01*
X148582Y265462D01*
X149227Y265031D01*
X149988Y264879D01*
X150749Y265031D01*
X151394Y265462D01*
X151825Y266107D01*
X151976Y266868D01*
X151825Y267629D01*
X151394Y268274D01*
X150749Y268705D01*
X149988Y268856D01*
D02*
G37*
G36*
X336278Y270189D02*
X335194Y270046D01*
X334184Y269627D01*
X333316Y268962D01*
X332650Y268094D01*
X332232Y267084D01*
X332089Y266000D01*
X332232Y264916D01*
X332650Y263906D01*
X333316Y263038D01*
X334184Y262373D01*
X335194Y261954D01*
X336278Y261811D01*
X337362Y261954D01*
X338372Y262373D01*
X339240Y263038D01*
X339905Y263906D01*
X340324Y264916D01*
X340466Y266000D01*
X340324Y267084D01*
X339905Y268094D01*
X339240Y268962D01*
X338372Y269627D01*
X337362Y270046D01*
X336278Y270189D01*
D02*
G37*
G36*
X499978Y268600D02*
X492978D01*
Y264600D01*
X499978D01*
Y268600D01*
D02*
G37*
G36*
X406452Y253561D02*
X403899D01*
Y249571D01*
X410790D01*
X410693Y250307D01*
X410254Y251366D01*
X409556Y252275D01*
X408647Y252973D01*
X407588Y253412D01*
X406452Y253561D01*
D02*
G37*
G36*
X502678Y200923D02*
X501973Y200831D01*
X501316Y200558D01*
X500752Y200126D01*
X500319Y199562D01*
X500047Y198905D01*
X499955Y198200D01*
X500047Y197495D01*
X500281Y196931D01*
X500270Y196613D01*
X500121Y196151D01*
X499617Y195998D01*
X498279Y195283D01*
X497107Y194321D01*
X496145Y193149D01*
X495430Y191811D01*
X494989Y190359D01*
X494841Y188850D01*
Y188250D01*
X494989Y186741D01*
X495430Y185289D01*
X496145Y183951D01*
X497107Y182779D01*
X498279Y181817D01*
X499617Y181102D01*
X499945Y181002D01*
X500207Y180191D01*
X500047Y179805D01*
X499955Y179100D01*
X500047Y178395D01*
X500319Y177738D01*
X500752Y177174D01*
X501316Y176742D01*
X501973Y176470D01*
X502678Y176377D01*
X503383Y176470D01*
X504040Y176742D01*
X504604Y177174D01*
X505036Y177738D01*
X505308Y178395D01*
X505401Y179100D01*
X505308Y179805D01*
X505126Y180245D01*
X505364Y181049D01*
X505539Y181102D01*
X506877Y181817D01*
X508049Y182779D01*
X509011Y183951D01*
X509726Y185289D01*
X509901Y185863D01*
X510705Y186104D01*
X510916Y185942D01*
X511573Y185670D01*
X512278Y185577D01*
X512983Y185670D01*
X513640Y185942D01*
X514204Y186374D01*
X514636Y186938D01*
X514909Y187595D01*
X515001Y188300D01*
X514909Y189005D01*
X514636Y189662D01*
X514204Y190226D01*
X513640Y190658D01*
X512983Y190930D01*
X512278Y191023D01*
X511573Y190930D01*
X510916Y190658D01*
X510828Y190591D01*
X510017Y190851D01*
X509726Y191811D01*
X509011Y193149D01*
X508049Y194321D01*
X506877Y195283D01*
X505539Y195998D01*
X505197Y196102D01*
X505010Y196684D01*
X505053Y196877D01*
X505308Y197495D01*
X505401Y198200D01*
X505308Y198905D01*
X505036Y199562D01*
X504604Y200126D01*
X504040Y200558D01*
X503383Y200831D01*
X502678Y200923D01*
D02*
G37*
G36*
X518878Y198345D02*
X517980Y198167D01*
X517220Y197658D01*
X516711Y196897D01*
X516533Y196000D01*
X516711Y195103D01*
X517220Y194342D01*
X517980Y193833D01*
X518878Y193655D01*
X519775Y193833D01*
X520536Y194342D01*
X521044Y195103D01*
X521223Y196000D01*
X521044Y196897D01*
X520536Y197658D01*
X519775Y198167D01*
X518878Y198345D01*
D02*
G37*
G36*
X518978Y188023D02*
X518273Y187931D01*
X517616Y187658D01*
X517052Y187226D01*
X516619Y186662D01*
X516348Y186005D01*
X516255Y185300D01*
X516348Y184595D01*
X516619Y183938D01*
X517052Y183374D01*
X517616Y182942D01*
X518273Y182669D01*
X518978Y182577D01*
X519683Y182669D01*
X520340Y182942D01*
X520904Y183374D01*
X521336Y183938D01*
X521608Y184595D01*
X521701Y185300D01*
X521608Y186005D01*
X521336Y186662D01*
X520904Y187226D01*
X520340Y187658D01*
X519683Y187931D01*
X518978Y188023D01*
D02*
G37*
G36*
X376917Y188203D02*
X374317D01*
Y184165D01*
X381303D01*
X381204Y184914D01*
X380761Y185984D01*
X380055Y186903D01*
X379136Y187609D01*
X378066Y188052D01*
X376917Y188203D01*
D02*
G37*
G36*
X486228Y214323D02*
X479839D01*
X479371Y214230D01*
X479277Y214191D01*
X479183Y214230D01*
X478478Y214323D01*
X477780Y214231D01*
X477317Y214323D01*
X462866D01*
X462709Y214292D01*
X462549Y214282D01*
X462477Y214246D01*
X462398Y214230D01*
X462292Y214160D01*
X461813Y213962D01*
X461428Y213911D01*
X461042Y213962D01*
X460564Y214160D01*
X460458Y214230D01*
X460379Y214246D01*
X460307Y214282D01*
X460147Y214292D01*
X459990Y214323D01*
X447916D01*
X447759Y214292D01*
X447599Y214282D01*
X447527Y214246D01*
X447448Y214230D01*
X447342Y214160D01*
X446863Y213962D01*
X446478Y213911D01*
X446093Y213962D01*
X445614Y214160D01*
X445508Y214230D01*
X445429Y214246D01*
X445357Y214282D01*
X445197Y214292D01*
X445040Y214323D01*
X438678D01*
X438210Y214230D01*
X437813Y213965D01*
X434013Y210165D01*
X433748Y209768D01*
X433654Y209300D01*
Y200886D01*
X431400Y198632D01*
X431397Y198628D01*
X431393Y198625D01*
X431265Y198429D01*
X431135Y198235D01*
X431134Y198230D01*
X431131Y198226D01*
X431087Y197996D01*
X431042Y197767D01*
X431043Y197762D01*
X431042Y197757D01*
X431054Y196195D01*
Y182400D01*
X431148Y181932D01*
X431413Y181535D01*
X433813Y179135D01*
X434210Y178870D01*
X434678Y178777D01*
X439575D01*
X439629Y178787D01*
X439680Y178790D01*
X439732Y178787D01*
X439785Y178777D01*
X440114D01*
X440381Y178599D01*
X440381Y178598D01*
X440381Y178598D01*
X440425Y178580D01*
X440733Y178344D01*
X440970Y178035D01*
X440988Y177991D01*
X440988Y177991D01*
X441254Y177594D01*
X441254Y177594D01*
X447713Y171135D01*
X448110Y170870D01*
X448578Y170776D01*
X450673D01*
X450673Y170776D01*
X450993Y170840D01*
X451491Y170906D01*
X451990Y170840D01*
X452310Y170776D01*
X455397D01*
X455397Y170776D01*
X455718Y170840D01*
X456216Y170906D01*
X456714Y170840D01*
X457034Y170776D01*
X459678D01*
X460146Y170870D01*
X460543Y171135D01*
X468185Y178777D01*
X476703D01*
X476843Y178077D01*
X476316Y177858D01*
X475752Y177426D01*
X475319Y176862D01*
X475047Y176205D01*
X474994Y175799D01*
X474279Y175524D01*
X473553Y176250D01*
X468203D01*
X465528Y173575D01*
Y171185D01*
X464828Y170788D01*
X464483Y170931D01*
X463778Y171023D01*
X463073Y170931D01*
X462416Y170658D01*
X461852Y170226D01*
X461419Y169662D01*
X461147Y169005D01*
X461055Y168300D01*
X461147Y167595D01*
X461419Y166938D01*
X461852Y166374D01*
X462416Y165942D01*
X463073Y165670D01*
X463778Y165577D01*
X464483Y165670D01*
X464828Y165813D01*
X465528Y165415D01*
Y163225D01*
X466635Y162118D01*
X466238Y161525D01*
X465983Y161630D01*
X465278Y161723D01*
X464573Y161630D01*
X463916Y161358D01*
X463352Y160926D01*
X462920Y160362D01*
X462647Y159705D01*
X462555Y159000D01*
X462647Y158295D01*
X462920Y157638D01*
X463352Y157074D01*
X463916Y156642D01*
X464573Y156369D01*
X465278Y156277D01*
X465983Y156369D01*
X466640Y156642D01*
X467204Y157074D01*
X467636Y157638D01*
X467908Y158295D01*
X468001Y159000D01*
X467908Y159705D01*
X467775Y160027D01*
X468316Y160550D01*
X473553D01*
X476228Y163225D01*
Y172421D01*
X476928Y172888D01*
X476973Y172870D01*
X477678Y172777D01*
X478228Y172849D01*
X478928Y172438D01*
Y163225D01*
X481603Y160550D01*
X486953D01*
X489628Y163225D01*
Y165611D01*
X489943Y165841D01*
X490328Y165995D01*
X490873Y165770D01*
X491578Y165677D01*
X492283Y165770D01*
X492940Y166042D01*
X493504Y166474D01*
X493936Y167038D01*
X494208Y167695D01*
X494301Y168400D01*
X494208Y169105D01*
X493936Y169762D01*
X493504Y170326D01*
X492940Y170758D01*
X492283Y171030D01*
X491578Y171123D01*
X490873Y171030D01*
X490328Y170805D01*
X489943Y170959D01*
X489628Y171189D01*
Y173575D01*
X486953Y176250D01*
X481603D01*
X481078Y175725D01*
X480339Y175976D01*
X480308Y176205D01*
X480036Y176862D01*
X479604Y177426D01*
X479040Y177858D01*
X478513Y178077D01*
X478652Y178777D01*
X488478D01*
X488946Y178870D01*
X489343Y179135D01*
X491327Y181119D01*
X491920Y180722D01*
X491748Y180305D01*
X491655Y179600D01*
X491748Y178895D01*
X492020Y178238D01*
X492452Y177674D01*
X493016Y177242D01*
X493673Y176970D01*
X494378Y176877D01*
X495083Y176970D01*
X495740Y177242D01*
X496304Y177674D01*
X496736Y178238D01*
X497009Y178895D01*
X497101Y179600D01*
X497009Y180305D01*
X496736Y180962D01*
X496304Y181526D01*
X495740Y181958D01*
X495083Y182230D01*
X494378Y182323D01*
X493673Y182230D01*
X493132Y182007D01*
X492833Y182234D01*
X492638Y182527D01*
X492708Y182632D01*
X492802Y183100D01*
Y207750D01*
X492708Y208219D01*
X492443Y208615D01*
X487093Y213965D01*
X486697Y214230D01*
X486228Y214323D01*
D02*
G37*
G36*
X214103Y228570D02*
X213206Y228392D01*
X212445Y227883D01*
X211937Y227123D01*
X211758Y226225D01*
X211937Y225328D01*
X212445Y224567D01*
X213206Y224059D01*
X214103Y223880D01*
X215001Y224059D01*
X215761Y224567D01*
X216270Y225328D01*
X216448Y226225D01*
X216270Y227123D01*
X215761Y227883D01*
X215001Y228392D01*
X214103Y228570D01*
D02*
G37*
G36*
X476778Y224823D02*
X476073Y224730D01*
X475416Y224458D01*
X474878Y224045D01*
X474340Y224458D01*
X473683Y224730D01*
X472978Y224823D01*
X472273Y224730D01*
X471616Y224458D01*
X471052Y224026D01*
X470619Y223462D01*
X470347Y222805D01*
X470255Y222100D01*
X470347Y221395D01*
X470619Y220738D01*
X471052Y220174D01*
X471616Y219742D01*
X472273Y219469D01*
X472978Y219377D01*
X473683Y219469D01*
X474340Y219742D01*
X474878Y220155D01*
X475416Y219742D01*
X476073Y219469D01*
X476778Y219377D01*
X477483Y219469D01*
X478140Y219742D01*
X478704Y220174D01*
X479136Y220738D01*
X479409Y221395D01*
X479501Y222100D01*
X479409Y222805D01*
X479136Y223462D01*
X478704Y224026D01*
X478140Y224458D01*
X477483Y224730D01*
X476778Y224823D01*
D02*
G37*
G36*
X198403Y219920D02*
X197506Y219741D01*
X196745Y219233D01*
X196237Y218472D01*
X196058Y217575D01*
X196237Y216677D01*
X196745Y215917D01*
X197506Y215408D01*
X198403Y215230D01*
X199301Y215408D01*
X200061Y215917D01*
X200570Y216677D01*
X200748Y217575D01*
X200570Y218472D01*
X200061Y219233D01*
X199301Y219741D01*
X198403Y219920D01*
D02*
G37*
G36*
X502578Y233523D02*
X501873Y233431D01*
X501216Y233158D01*
X500652Y232726D01*
X500219Y232162D01*
X499948Y231505D01*
X499855Y230800D01*
X499948Y230095D01*
X500219Y229438D01*
X500236Y229417D01*
X499975Y228607D01*
X499617Y228498D01*
X498279Y227783D01*
X497107Y226821D01*
X496145Y225649D01*
X495430Y224311D01*
X495307Y223906D01*
X494468Y223554D01*
X494283Y223630D01*
X493578Y223723D01*
X492873Y223630D01*
X492216Y223358D01*
X491652Y222926D01*
X491220Y222362D01*
X490947Y221705D01*
X490855Y221000D01*
X490947Y220295D01*
X491220Y219638D01*
X491652Y219074D01*
X492216Y218642D01*
X492873Y218370D01*
X493578Y218277D01*
X494283Y218370D01*
X494495Y218458D01*
X495330Y218117D01*
X495430Y217789D01*
X496145Y216451D01*
X497107Y215279D01*
X498279Y214317D01*
X499617Y213602D01*
X500037Y213474D01*
X500298Y212664D01*
X500219Y212562D01*
X499948Y211905D01*
X499855Y211200D01*
X499948Y210495D01*
X500219Y209838D01*
X500652Y209274D01*
X501216Y208842D01*
X501873Y208570D01*
X502578Y208477D01*
X503283Y208570D01*
X503940Y208842D01*
X504504Y209274D01*
X504936Y209838D01*
X505208Y210495D01*
X505301Y211200D01*
X505208Y211905D01*
X504936Y212562D01*
X504858Y212664D01*
X505119Y213474D01*
X505539Y213602D01*
X506877Y214317D01*
X508049Y215279D01*
X509011Y216451D01*
X509726Y217789D01*
X510167Y219240D01*
X510315Y220750D01*
Y221350D01*
X510167Y222860D01*
X509726Y224311D01*
X509011Y225649D01*
X508049Y226821D01*
X506877Y227783D01*
X505539Y228498D01*
X505181Y228607D01*
X504920Y229417D01*
X504936Y229438D01*
X505208Y230095D01*
X505301Y230800D01*
X505208Y231505D01*
X504936Y232162D01*
X504504Y232726D01*
X503940Y233158D01*
X503283Y233431D01*
X502578Y233523D01*
D02*
G37*
G36*
X376917Y178002D02*
X370917D01*
X369821Y177857D01*
X368799Y177434D01*
X367922Y176761D01*
X367249Y175883D01*
X366825Y174862D01*
X366681Y173765D01*
X366825Y172669D01*
X367249Y171647D01*
X367922Y170770D01*
X368799Y170097D01*
X369821Y169673D01*
X370917Y169529D01*
X376917D01*
X378014Y169673D01*
X379035Y170097D01*
X379913Y170770D01*
X380586Y171647D01*
X381009Y172669D01*
X381154Y173765D01*
X381009Y174862D01*
X380586Y175883D01*
X379913Y176761D01*
X379035Y177434D01*
X378014Y177857D01*
X376917Y178002D01*
D02*
G37*
G36*
X431603Y175270D02*
X430706Y175092D01*
X429945Y174583D01*
X429592Y174055D01*
X429564Y174045D01*
X428843D01*
X428814Y174055D01*
X428461Y174583D01*
X427701Y175092D01*
X426803Y175270D01*
X425906Y175092D01*
X425145Y174583D01*
X424637Y173823D01*
X424458Y172925D01*
X424637Y172028D01*
X425145Y171267D01*
X425906Y170759D01*
X426803Y170580D01*
X427701Y170759D01*
X428461Y171267D01*
X428814Y171795D01*
X428843Y171806D01*
X429564D01*
X429592Y171795D01*
X429945Y171267D01*
X430706Y170759D01*
X431603Y170580D01*
X432501Y170759D01*
X433261Y171267D01*
X433770Y172028D01*
X433948Y172925D01*
X433770Y173823D01*
X433261Y174583D01*
X432501Y175092D01*
X431603Y175270D01*
D02*
G37*
G36*
X509278Y169523D02*
X508573Y169430D01*
X507916Y169158D01*
X507352Y168726D01*
X506919Y168162D01*
X506647Y167505D01*
X506555Y166800D01*
X506647Y166095D01*
X506919Y165438D01*
X507352Y164874D01*
X507916Y164442D01*
X508573Y164170D01*
X509278Y164077D01*
X509983Y164170D01*
X510640Y164442D01*
X511204Y164874D01*
X511636Y165438D01*
X511908Y166095D01*
X512001Y166800D01*
X511908Y167505D01*
X511636Y168162D01*
X511204Y168726D01*
X510640Y169158D01*
X509983Y169430D01*
X509278Y169523D01*
D02*
G37*
G36*
X401278Y177936D02*
X395278D01*
X394181Y177792D01*
X393160Y177369D01*
X392283Y176696D01*
X391609Y175818D01*
X391186Y174796D01*
X391042Y173700D01*
X391186Y172604D01*
X391609Y171582D01*
X392283Y170704D01*
X393160Y170031D01*
X394181Y169608D01*
X395278Y169464D01*
X401278D01*
X402374Y169608D01*
X403396Y170031D01*
X404273Y170704D01*
X404947Y171582D01*
X405370Y172604D01*
X405514Y173700D01*
X405370Y174796D01*
X404947Y175818D01*
X404273Y176696D01*
X403396Y177369D01*
X402374Y177792D01*
X401278Y177936D01*
D02*
G37*
G36*
X518878Y180223D02*
X518173Y180131D01*
X517516Y179858D01*
X516952Y179426D01*
X516519Y178862D01*
X516248Y178205D01*
X516155Y177500D01*
X516248Y176795D01*
X516519Y176138D01*
X516952Y175574D01*
X517516Y175142D01*
X518173Y174870D01*
X518878Y174777D01*
X519583Y174870D01*
X520240Y175142D01*
X520804Y175574D01*
X521236Y176138D01*
X521509Y176795D01*
X521601Y177500D01*
X521509Y178205D01*
X521236Y178862D01*
X520804Y179426D01*
X520240Y179858D01*
X519583Y180131D01*
X518878Y180223D01*
D02*
G37*
G36*
X381303Y183365D02*
X374317D01*
Y179327D01*
X376917D01*
X378066Y179479D01*
X379136Y179922D01*
X380055Y180627D01*
X380761Y181546D01*
X381204Y182617D01*
X381303Y183365D01*
D02*
G37*
G36*
X401278Y187936D02*
X395278D01*
X394181Y187792D01*
X393160Y187369D01*
X392283Y186696D01*
X391609Y185818D01*
X391186Y184796D01*
X391042Y183700D01*
X391186Y182604D01*
X391609Y181582D01*
X392283Y180704D01*
X393160Y180031D01*
X394181Y179608D01*
X395278Y179464D01*
X401278D01*
X402374Y179608D01*
X403396Y180031D01*
X404273Y180704D01*
X404947Y181582D01*
X405370Y182604D01*
X405514Y183700D01*
X405370Y184796D01*
X404947Y185818D01*
X404273Y186696D01*
X403396Y187369D01*
X402374Y187792D01*
X401278Y187936D01*
D02*
G37*
G36*
X510578Y182423D02*
X509873Y182331D01*
X509216Y182058D01*
X508652Y181626D01*
X508219Y181062D01*
X507947Y180405D01*
X507855Y179700D01*
X507947Y178995D01*
X508219Y178338D01*
X508652Y177774D01*
X509216Y177342D01*
X509873Y177069D01*
X510578Y176977D01*
X511283Y177069D01*
X511940Y177342D01*
X512504Y177774D01*
X512936Y178338D01*
X513208Y178995D01*
X513301Y179700D01*
X513208Y180405D01*
X512936Y181062D01*
X512504Y181626D01*
X511940Y182058D01*
X511283Y182331D01*
X510578Y182423D01*
D02*
G37*
G36*
X373517Y183365D02*
X366532D01*
X366631Y182617D01*
X367074Y181546D01*
X367779Y180627D01*
X368698Y179922D01*
X369769Y179479D01*
X370917Y179327D01*
X373517D01*
Y183365D01*
D02*
G37*
G36*
X394884Y228771D02*
X390946D01*
Y224833D01*
X391683Y224930D01*
X392742Y225369D01*
X393651Y226066D01*
X394349Y226976D01*
X394787Y228035D01*
X394884Y228771D01*
D02*
G37*
G36*
X210503Y248370D02*
X209606Y248192D01*
X208845Y247683D01*
X208337Y246923D01*
X208158Y246025D01*
X208337Y245128D01*
X208845Y244367D01*
X209606Y243859D01*
X210503Y243680D01*
X211401Y243859D01*
X212161Y244367D01*
X212670Y245128D01*
X212848Y246025D01*
X212670Y246923D01*
X212161Y247683D01*
X211401Y248192D01*
X210503Y248370D01*
D02*
G37*
G36*
X403099Y248771D02*
X396209D01*
X396306Y248035D01*
X396744Y246976D01*
X397442Y246066D01*
X398351Y245369D01*
X399410Y244930D01*
X400547Y244781D01*
X403099D01*
Y248771D01*
D02*
G37*
G36*
X186603Y267061D02*
X185507Y266917D01*
X184485Y266494D01*
X183608Y265821D01*
X182934Y264943D01*
X182511Y263922D01*
X182367Y262825D01*
Y256825D01*
X182511Y255729D01*
X182934Y254707D01*
X183608Y253830D01*
X184485Y253156D01*
X185507Y252733D01*
X186603Y252589D01*
X187419Y252696D01*
X196466Y243649D01*
X196215Y242910D01*
X195507Y242817D01*
X194485Y242394D01*
X193608Y241721D01*
X192935Y240843D01*
X192511Y239822D01*
X192367Y238725D01*
Y232725D01*
X192511Y231629D01*
X192935Y230607D01*
X193608Y229730D01*
X194485Y229057D01*
X195507Y228633D01*
X196603Y228489D01*
X197700Y228633D01*
X198721Y229057D01*
X199599Y229730D01*
X200272Y230607D01*
X200695Y231629D01*
X200839Y232725D01*
Y238725D01*
X200836Y238752D01*
X201465Y239337D01*
X201878Y239255D01*
X202775Y239433D01*
X203536Y239942D01*
X204045Y240703D01*
X204223Y241600D01*
X204045Y242497D01*
X203536Y243258D01*
X202775Y243767D01*
X201878Y243945D01*
X200980Y243767D01*
X200797Y243644D01*
X192716Y251725D01*
X193006Y252425D01*
X196203D01*
Y259425D01*
X192203D01*
Y253228D01*
X191503Y252938D01*
X190038Y254403D01*
X190272Y254707D01*
X190695Y255729D01*
X190839Y256825D01*
Y262825D01*
X190695Y263922D01*
X190272Y264943D01*
X189599Y265821D01*
X188721Y266494D01*
X187700Y266917D01*
X186603Y267061D01*
D02*
G37*
G36*
X220478Y247045D02*
X219581Y246867D01*
X218820Y246358D01*
X218311Y245597D01*
X218133Y244700D01*
X218311Y243803D01*
X218820Y243042D01*
X219581Y242533D01*
X220478Y242355D01*
X221375Y242533D01*
X222136Y243042D01*
X222644Y243803D01*
X222823Y244700D01*
X222644Y245597D01*
X222136Y246358D01*
X221375Y246867D01*
X220478Y247045D01*
D02*
G37*
G36*
X410790Y248771D02*
X403899D01*
Y244781D01*
X406452D01*
X407588Y244930D01*
X408647Y245369D01*
X409556Y246066D01*
X410254Y246976D01*
X410693Y248035D01*
X410790Y248771D01*
D02*
G37*
G36*
X482878Y254123D02*
X482173Y254030D01*
X481516Y253758D01*
X480952Y253326D01*
X480519Y252762D01*
X480247Y252105D01*
X480155Y251400D01*
X480247Y250695D01*
X480519Y250038D01*
X480952Y249474D01*
X481516Y249042D01*
X482173Y248769D01*
X482878Y248677D01*
X483583Y248769D01*
X484240Y249042D01*
X484804Y249474D01*
X485236Y250038D01*
X485508Y250695D01*
X485601Y251400D01*
X485508Y252105D01*
X485236Y252762D01*
X484804Y253326D01*
X484240Y253758D01*
X483583Y254030D01*
X482878Y254123D01*
D02*
G37*
G36*
X403099Y253561D02*
X400547D01*
X399410Y253412D01*
X398351Y252973D01*
X397442Y252275D01*
X396744Y251366D01*
X396306Y250307D01*
X396209Y249571D01*
X403099D01*
Y253561D01*
D02*
G37*
G36*
X156988Y251856D02*
X156227Y251705D01*
X155582Y251274D01*
X155151Y250628D01*
X155000Y249868D01*
X155151Y249107D01*
X155582Y248462D01*
X156227Y248031D01*
X156988Y247880D01*
X157749Y248031D01*
X158394Y248462D01*
X158825Y249107D01*
X158976Y249868D01*
X158825Y250628D01*
X158394Y251274D01*
X157749Y251705D01*
X156988Y251856D01*
D02*
G37*
G36*
X531004D02*
X530243Y251705D01*
X529598Y251274D01*
X529167Y250628D01*
X529016Y249868D01*
X529167Y249107D01*
X529598Y248462D01*
X530243Y248031D01*
X531004Y247880D01*
X531765Y248031D01*
X532410Y248462D01*
X532841Y249107D01*
X532992Y249868D01*
X532841Y250628D01*
X532410Y251274D01*
X531765Y251705D01*
X531004Y251856D01*
D02*
G37*
G36*
X191003Y243125D02*
X187003D01*
Y236125D01*
X191003D01*
Y243125D01*
D02*
G37*
G36*
Y235325D02*
X187003D01*
Y228325D01*
X191003D01*
Y235325D01*
D02*
G37*
G36*
X390146Y233508D02*
X389410Y233412D01*
X388351Y232973D01*
X387442Y232275D01*
X386744Y231366D01*
X386306Y230307D01*
X386209Y229571D01*
X390146D01*
Y233508D01*
D02*
G37*
G36*
Y228771D02*
X386209D01*
X386306Y228035D01*
X386744Y226976D01*
X387442Y226066D01*
X388351Y225369D01*
X389410Y224930D01*
X390146Y224833D01*
Y228771D01*
D02*
G37*
G36*
X186203Y235325D02*
X182203D01*
Y228325D01*
X186203D01*
Y235325D01*
D02*
G37*
G36*
X166678Y234345D02*
X165780Y234167D01*
X165020Y233658D01*
X164511Y232897D01*
X164333Y232000D01*
X164511Y231103D01*
X165020Y230342D01*
X165780Y229833D01*
X166678Y229655D01*
X167575Y229833D01*
X168336Y230342D01*
X168844Y231103D01*
X169023Y232000D01*
X168844Y232897D01*
X168336Y233658D01*
X167575Y234167D01*
X166678Y234345D01*
D02*
G37*
G36*
X186203Y243125D02*
X182203D01*
Y236125D01*
X186203D01*
Y243125D01*
D02*
G37*
G36*
X390946Y233508D02*
Y229571D01*
X394884D01*
X394787Y230307D01*
X394349Y231366D01*
X393651Y232275D01*
X392742Y232973D01*
X391683Y233412D01*
X390946Y233508D01*
D02*
G37*
%LPD*%
G36*
X420078Y41100D02*
X403078D01*
Y53123D01*
X403101Y53300D01*
X403078Y53477D01*
Y59700D01*
X420078D01*
Y41100D01*
D02*
G37*
G36*
X491578Y207750D02*
Y183100D01*
X488478Y180000D01*
X467678Y180000D01*
X459678Y172000D01*
X457034D01*
X456921Y172047D01*
X456216Y172140D01*
X455511Y172047D01*
X455397Y172000D01*
X452310D01*
X452196Y172047D01*
X451491Y172140D01*
X450786Y172047D01*
X450673Y172000D01*
X448578D01*
X442119Y178459D01*
X442039Y178652D01*
X441606Y179216D01*
X441042Y179649D01*
X440849Y179729D01*
X440578Y180000D01*
X439785D01*
X439680Y180014D01*
X439575Y180000D01*
X434678D01*
X432278Y182400D01*
Y196200D01*
X432265Y197767D01*
X434878Y200379D01*
Y209300D01*
X438678Y213100D01*
X445040D01*
X445116Y213042D01*
X445773Y212770D01*
X446478Y212677D01*
X447183Y212770D01*
X447840Y213042D01*
X447916Y213100D01*
X459990D01*
X460066Y213042D01*
X460723Y212770D01*
X461428Y212677D01*
X462133Y212770D01*
X462790Y213042D01*
X462866Y213100D01*
X477317D01*
X477873Y212870D01*
X478578Y212777D01*
X479283Y212870D01*
X479839Y213100D01*
X486228D01*
X491578Y207750D01*
D02*
G37*
G54D11*
X398178Y132300D02*
X401028D01*
X412878Y120450D01*
X424828D01*
G54D54*
X79921Y9843D02*
X80905Y8858D01*
X52953Y9843D02*
X79921D01*
X77362Y15650D02*
X82776Y10236D01*
X27362Y9744D02*
X45768D01*
X51673Y15650D01*
X77362D01*
X56791Y18898D02*
X117815D01*
X52953Y19685D02*
X56004D01*
X56791Y18898D01*
X71653Y23819D02*
X75197Y20276D01*
X27421Y19980D02*
X47146D01*
X50984Y23819D01*
X71653D01*
X72618Y29842D02*
X73524Y28937D01*
X52933Y29842D02*
X72618D01*
X27520Y29724D02*
X45965D01*
X72342Y33268D02*
X75295Y30315D01*
X45965Y29724D02*
X49508Y33268D01*
X72342D01*
X53347Y40256D02*
X122736D01*
X52933Y39843D02*
X53347Y40256D01*
X27362Y39862D02*
X46063D01*
X51083Y34843D02*
X84449D01*
X46063Y39862D02*
X51083Y34843D01*
X27343Y9764D02*
X27362Y9744D01*
X27343Y20059D02*
X27421Y19980D01*
X27343Y29902D02*
X27520Y29724D01*
X27343Y39882D02*
X27362Y39862D01*
X190678Y69320D02*
Y73500D01*
X190378Y57000D02*
Y57100D01*
X187992Y66634D02*
X190678Y69320D01*
X187992Y59486D02*
Y66634D01*
Y59486D02*
X190378Y57100D01*
X189078Y69590D02*
Y75100D01*
X186614Y57564D02*
X190078Y54100D01*
X186614Y67126D02*
X189078Y69590D01*
X186614Y57564D02*
Y67126D01*
X185236Y56042D02*
X190078Y51200D01*
X187478Y69860D02*
Y79450D01*
X185236Y67618D02*
X187478Y69860D01*
X185236Y56042D02*
Y67618D01*
X235678Y65402D02*
Y75500D01*
X233071Y62795D02*
X235678Y65402D01*
X233071Y57776D02*
Y62795D01*
Y57776D02*
X234842Y56004D01*
Y53335D02*
Y56004D01*
Y53335D02*
X235678Y52500D01*
X233778Y65372D02*
Y85000D01*
X231693Y63287D02*
X233778Y65372D01*
X231693Y57284D02*
Y63287D01*
Y57284D02*
X233465Y55512D01*
Y53387D02*
Y55512D01*
X231778Y51700D02*
X233465Y53387D01*
X232078Y65551D02*
Y83300D01*
X230315Y63788D02*
X232078Y65551D01*
X230315Y55363D02*
Y63788D01*
Y55363D02*
X231278Y54400D01*
X314878Y135700D02*
Y158900D01*
X312878Y160900D02*
X314878Y158900D01*
X312878Y160900D02*
Y176600D01*
X313378Y177100D01*
X282078Y144700D02*
Y145032D01*
X313278Y105400D02*
Y106650D01*
X309228Y110700D02*
X313278Y106650D01*
X280678Y110700D02*
X309228D01*
X359203Y237025D02*
X365203Y231025D01*
X333839Y229454D02*
X335535Y227758D01*
X308128Y125950D02*
X314903Y132725D01*
X425778Y220300D02*
Y227100D01*
X330778Y154700D02*
X336378Y149100D01*
X430903Y147925D02*
X438303Y140525D01*
X401603Y147925D02*
X430903D01*
X391303Y158225D02*
X401603Y147925D01*
X362303Y158225D02*
X391303D01*
X359703Y155625D02*
X362303Y158225D01*
X348703Y155625D02*
X359703D01*
X342178Y149100D02*
X348703Y155625D01*
X336378Y149100D02*
X342178D01*
X433203Y149425D02*
X449203Y133425D01*
X334603Y152784D02*
X336803Y150584D01*
X402403Y149425D02*
X433203D01*
X392103Y159725D02*
X402403Y149425D01*
X361403Y159725D02*
X392103D01*
X358803Y157125D02*
X361403Y159725D01*
X347803Y157125D02*
X358803D01*
X341262Y150584D02*
X347803Y157125D01*
X336803Y150584D02*
X341262D01*
X382278Y103000D02*
X383478Y101800D01*
X483803Y95725D02*
X486403Y98325D01*
X463803Y95725D02*
X483803D01*
X449203Y110325D02*
X463803Y95725D01*
X449203Y110325D02*
Y133425D01*
X334603Y152784D02*
Y154725D01*
X335403Y155525D01*
Y160025D01*
X326478Y154700D02*
X330778D01*
X354753Y183375D02*
X362678Y191300D01*
X354753Y171552D02*
Y183375D01*
X341426Y158225D02*
X354753Y171552D01*
X338903Y158225D02*
X341426D01*
X337703Y159425D02*
X338903Y158225D01*
X337703Y159425D02*
Y162725D01*
X335303Y165125D02*
X337703Y162725D01*
X356603Y171564D02*
Y183325D01*
X337178Y153500D02*
X339680Y156002D01*
X341041D02*
X356603Y171564D01*
X339680Y156002D02*
X341041D01*
X368403Y190325D02*
Y197125D01*
X365603Y199925D02*
X368403Y197125D01*
X365603Y199925D02*
Y202225D01*
X367103Y203725D02*
X369603D01*
X365603Y202225D02*
X367103Y203725D01*
X367203Y189125D02*
X368403Y190325D01*
X362403Y189125D02*
X367203D01*
X356603Y183325D02*
X362403Y189125D01*
X340278Y153400D02*
X358403Y171525D01*
X367903Y201425D02*
X370503Y198825D01*
Y189725D02*
Y198825D01*
X368503Y187725D02*
X370503Y189725D01*
X363003Y187725D02*
X368503D01*
X358403Y183125D02*
X363003Y187725D01*
X358403Y171525D02*
Y183125D01*
X372303Y201025D02*
X400803D01*
X369603Y203725D02*
X372303Y201025D01*
X476378Y266400D02*
X478178Y264600D01*
X465078Y266400D02*
X476378D01*
X425778Y227100D02*
X465078Y266400D01*
X384678Y217200D02*
X387578Y214300D01*
X384678Y217200D02*
Y222491D01*
X367669Y239500D02*
X384678Y222491D01*
X358478Y239500D02*
X367669D01*
X356003Y237025D02*
X358478Y239500D01*
X356003Y237025D02*
X356203D01*
X419778Y214300D02*
X425778Y220300D01*
X387578Y214300D02*
X419778D01*
X340078Y160800D02*
X340878Y161600D01*
X224478Y251600D02*
X234378D01*
X238978Y256200D01*
X200678Y241600D02*
X201878D01*
X362678Y237000D02*
X366678Y233000D01*
Y213200D02*
Y233000D01*
X365578Y212100D02*
X366678Y213200D01*
X365578Y206900D02*
Y212100D01*
Y206900D02*
X366978Y205500D01*
X373778D01*
X373878Y205400D01*
X305628Y125950D02*
X308128D01*
X335978Y120350D02*
Y147000D01*
X338278Y125600D02*
X340078Y123800D01*
X349478D01*
X286478Y126700D02*
Y129100D01*
Y126700D02*
X291178Y122000D01*
X305078D01*
X309878Y117200D01*
X288678Y128200D02*
X292878Y124000D01*
X307078D01*
X312978Y118100D01*
X309878Y115000D02*
Y117200D01*
X308578Y113700D02*
X309878Y115000D01*
X285678Y113700D02*
X308578D01*
X284778Y114600D02*
X285678Y113700D01*
X316388Y194410D02*
X317768D01*
X305461Y183483D02*
X316388Y194410D01*
X323288Y193210D02*
Y194510D01*
X319078Y189000D02*
X323288Y193210D01*
X341248Y216170D02*
X341278D01*
X323278Y198200D02*
X341248Y216170D01*
X329878Y198300D02*
X342478Y210900D01*
X345378D01*
X390146Y219171D02*
Y219571D01*
X334203Y188250D02*
X337078Y191125D01*
X230278Y89100D02*
X241978D01*
X228278Y87100D02*
X230278Y89100D01*
X264778Y87800D02*
X267778Y90800D01*
X262378Y87800D02*
X264778D01*
X368117Y241600D02*
X377853Y231864D01*
X355678Y241600D02*
X368117D01*
X349603Y235525D02*
X355678Y241600D01*
X291503Y214825D02*
X297803D01*
X284503Y207825D02*
X291503Y214825D01*
X284503Y180675D02*
Y207825D01*
X292403Y213325D02*
X298403D01*
X285953Y206875D02*
X292403Y213325D01*
X285953Y181625D02*
Y206875D01*
X296003Y219225D02*
X303103Y226325D01*
X295403Y220625D02*
X301703Y226925D01*
X361678Y103000D02*
X382278D01*
X367803Y211125D02*
X416003D01*
X423403Y203725D01*
X369603Y209625D02*
X412403D01*
X418503Y203525D01*
X379142Y230575D02*
X390146Y219571D01*
X379113Y230575D02*
X379142D01*
X377853Y231835D02*
X379113Y230575D01*
X377853Y231835D02*
Y231864D01*
X400728Y201100D02*
X400803Y201025D01*
X392503Y243325D02*
X394803Y241025D01*
X386603Y243325D02*
X392503D01*
X394803Y234514D02*
Y241025D01*
Y234514D02*
X400146Y229171D01*
X173828Y107600D02*
X188903Y92525D01*
X161178Y107600D02*
X173828D01*
X177828Y95600D02*
X182903Y90525D01*
X175678Y95600D02*
X177828D01*
X346028Y115300D02*
X349378D01*
X343503Y117825D02*
X346028Y115300D01*
X338503Y117825D02*
X343503D01*
X335978Y120350D02*
X338503Y117825D01*
X290303Y90800D02*
X296388Y84715D01*
X311203Y259325D02*
X313003Y261125D01*
X311203Y250925D02*
Y259325D01*
X326278Y256000D02*
Y256050D01*
X321203Y261125D02*
X326278Y256050D01*
X313003Y261125D02*
X321203D01*
X308203Y247925D02*
X311203Y250925D01*
X308203Y239825D02*
Y247925D01*
X303103Y234725D02*
X308203Y239825D01*
X309603Y239225D02*
Y247325D01*
X304503Y234125D02*
X309603Y239225D01*
X314448Y270170D02*
X322108D01*
X309703Y265425D02*
X314448Y270170D01*
X235678Y75500D02*
X240278Y80100D01*
X270619Y117941D02*
Y152641D01*
X260378Y107700D02*
X270619Y117941D01*
X231878Y86900D02*
X233778Y85000D01*
X231778Y49700D02*
Y51700D01*
X243878Y73700D02*
Y74300D01*
X241978Y89100D02*
X242778Y89900D01*
X190078Y51200D02*
X190378D01*
X190078Y54100D02*
X190378D01*
X288967Y151922D02*
Y176211D01*
X358278Y111800D02*
Y115000D01*
X349478Y123800D02*
X358278Y115000D01*
X341278Y216170D02*
Y223500D01*
X332628Y101450D02*
X334628D01*
X322108Y270170D02*
X326278Y266000D01*
X351278Y216800D02*
Y223500D01*
X345378Y210900D02*
X351278Y216800D01*
X346278Y228500D02*
X351278Y223500D01*
X336278Y228500D02*
X341278Y223500D01*
X326278Y228379D02*
Y228500D01*
Y228379D02*
X331178Y223479D01*
X296388Y84715D02*
X299297D01*
X334428Y96650D02*
X334478Y96600D01*
X314390Y69100D02*
X317407Y72117D01*
X334628Y101450D02*
X336978Y99100D01*
X316620Y84715D02*
X318982D01*
X374978Y83200D02*
Y84900D01*
X340178Y74400D02*
X340278Y74300D01*
X319178Y102900D02*
X322578Y106300D01*
X316878Y108600D02*
X320078D01*
X317578Y43253D02*
X317657Y43332D01*
X365578Y94300D02*
X374978Y84900D01*
X334478Y96600D02*
X336978Y99100D01*
X231778Y49700D02*
X232278D01*
X232878Y98400D02*
Y98600D01*
X200178Y93500D02*
X210078Y103400D01*
X158578Y109800D02*
X158678Y109900D01*
X302078Y102900D02*
X319178D01*
X240478Y98300D02*
X242128Y96650D01*
X319978Y101300D02*
X324278Y105600D01*
X300878Y104100D02*
X302078Y102900D01*
X299478Y104100D02*
X300878D01*
X331178Y102900D02*
X332628Y101450D01*
X309778Y105400D02*
Y105647D01*
X279278Y107700D02*
X301378D01*
X303678Y105400D01*
X272119Y114859D02*
X279278Y107700D01*
X279978Y109200D02*
X306225D01*
X309778Y105647D01*
X273619Y115559D02*
X279978Y109200D01*
X275119Y116259D02*
X280678Y110700D01*
X281378Y112200D02*
X309978D01*
X276644Y116934D02*
X281378Y112200D01*
X309978D02*
X316778Y105400D01*
X296578Y134200D02*
X305461Y143083D01*
X296578Y131300D02*
Y134200D01*
X305461Y143083D02*
Y183483D01*
X306603Y128225D02*
X306803D01*
X319757Y143879D02*
X321878Y146000D01*
X319757Y143800D02*
Y143879D01*
X324278Y112200D02*
X329678Y117600D01*
X324278Y105600D02*
Y112200D01*
X322578Y112700D02*
X328178Y118300D01*
X322578Y106300D02*
Y112700D01*
X306961Y182383D02*
X313578Y189000D01*
X319078D01*
X286478Y129100D02*
X297778Y140400D01*
X273619Y150058D02*
X275161Y151600D01*
X273619Y115559D02*
Y150058D01*
X270619Y152641D02*
X275078Y157100D01*
X278261D01*
X272119Y151941D02*
X275078Y154900D01*
X279178D01*
X281361Y157083D01*
Y157100D01*
X272119Y114859D02*
Y151941D01*
X275119Y148341D02*
X278261Y151483D01*
Y151600D01*
X275119Y116259D02*
Y148341D01*
X276644Y146866D02*
X281361Y151583D01*
Y151600D01*
X276644Y116934D02*
Y146866D01*
X349378Y115300D02*
X361678Y103000D01*
X342078Y106700D02*
X347078D01*
X353178Y94300D02*
X365578D01*
X210078Y103400D02*
X221878D01*
X242778Y89900D02*
X250825D01*
X236678Y98400D02*
Y98500D01*
X230478Y94800D02*
X236978D01*
X240478Y98300D01*
X221878Y103400D02*
X230478Y94800D01*
X250825Y89900D02*
X251725Y90800D01*
X259378D01*
X262378Y87800D01*
X189078Y75100D02*
X198078Y84100D01*
X193078Y90300D02*
X194078Y91300D01*
X199978D01*
X267778Y90800D02*
X290303D01*
X192803Y92525D02*
X193003Y92725D01*
X188903Y92525D02*
X192803D01*
X190178Y90300D02*
X193078D01*
X189578Y90700D02*
X190178D01*
X182903Y84025D02*
Y90525D01*
Y84025D02*
X187478Y79450D01*
X190678Y73500D02*
X209178Y92000D01*
X223378D01*
X318982Y84715D02*
X322092Y87825D01*
X346703D01*
X353178Y94300D01*
X287878Y69100D02*
X314390D01*
X306803Y240425D02*
Y248525D01*
X309703Y251425D01*
Y265425D01*
X310178Y218500D02*
X316278D01*
X298103Y208625D02*
X312003Y222525D01*
Y230925D01*
X298403Y213325D02*
X309003Y223925D01*
Y232325D01*
X297803Y214825D02*
X307503Y224525D01*
Y232925D01*
Y232975D01*
X296603Y217825D02*
X304503Y225725D01*
Y234125D01*
X303103Y226325D02*
Y234725D01*
X301703Y226925D02*
Y235325D01*
X306803Y240425D01*
X284503Y180675D02*
X288967Y176211D01*
X285953Y181625D02*
X290578Y177000D01*
X313403Y251125D02*
X331403D01*
X309603Y247325D02*
X313403Y251125D01*
X331403D02*
X336278Y256000D01*
X321878Y146000D02*
X327844D01*
X328178Y118300D02*
Y141579D01*
X325957Y143800D02*
X328178Y141579D01*
X329678Y117600D02*
Y144166D01*
X327844Y146000D02*
X329678Y144166D01*
X331178Y102900D02*
Y144850D01*
X334203Y181625D02*
Y188250D01*
X367803Y207825D02*
X369603Y209625D01*
X357303Y210925D02*
X360103D01*
X363803Y214625D01*
X332978Y246700D02*
X340603Y254325D01*
Y258925D01*
X343503Y261825D01*
X312003Y230925D02*
X324103Y243025D01*
X343703D01*
X346278Y245600D01*
Y256000D01*
X309003Y232325D02*
X321903Y245225D01*
X333603D01*
X342003Y253625D01*
Y258125D01*
X344203Y260325D01*
X307503Y232925D02*
X321278Y246700D01*
X332978D01*
X363803Y214625D02*
Y229425D01*
X356203Y237025D02*
X363803Y229425D01*
X317903Y198225D02*
X331178Y211500D01*
Y223479D01*
X310678Y179800D02*
X316378Y185500D01*
X310678Y132100D02*
Y179800D01*
X308478Y181800D02*
X314178Y187500D01*
X319678D01*
X356278Y217700D02*
Y218500D01*
X319678Y187500D02*
X325978Y193800D01*
Y197900D01*
X346278Y218200D01*
Y218500D01*
X370868Y111561D02*
X373917D01*
X304328Y127250D02*
Y129050D01*
Y127250D02*
X305628Y125950D01*
X306928Y130450D02*
X308803Y132325D01*
X305728Y130450D02*
X306928D01*
X304328Y129050D02*
X305728Y130450D01*
X306628Y133250D02*
X306961Y133583D01*
Y182383D01*
X308478Y134450D02*
Y181800D01*
Y134450D02*
X308803Y134125D01*
Y132325D02*
Y134125D01*
X306803Y128225D02*
X310678Y132100D01*
X293303Y131225D02*
Y133325D01*
X303403Y143425D01*
X297778Y140400D02*
Y183700D01*
X305003Y190925D01*
Y213325D01*
X310178Y218500D01*
X303403Y143425D02*
Y185425D01*
X307103Y189125D01*
Y197625D01*
X310703Y201225D01*
X317903D01*
X323303Y206625D01*
Y214025D01*
X321403Y215925D02*
X323303Y214025D01*
X321403Y215925D02*
Y230525D01*
X326403Y235525D01*
X349603D01*
X370203Y261825D02*
X387003Y245025D01*
X394292D01*
X400146Y239171D01*
X369603Y260325D02*
X386603Y243325D01*
X261303Y212225D02*
X261403Y212325D01*
X270498Y259868D02*
Y262821D01*
X219303Y256775D02*
X224478Y251600D01*
X219303Y256775D02*
Y259825D01*
X365203Y213825D02*
Y231025D01*
X345278Y197000D02*
Y198900D01*
X357303Y210925D01*
X312978Y112500D02*
Y118100D01*
Y112500D02*
X316878Y108600D01*
X285178Y144700D02*
X290578Y150100D01*
Y177000D01*
X282078Y145032D02*
X288967Y151922D01*
X185503Y256775D02*
X200678Y241600D01*
X185503Y256775D02*
Y259825D01*
X338878Y185200D02*
Y187500D01*
X365203Y213825D01*
X338878Y185200D02*
X340878Y183200D01*
X362678Y191300D02*
X366178D01*
X228278Y87100D02*
X232078Y83300D01*
X256403Y204125D02*
Y210525D01*
X260403Y214525D01*
X265903Y203925D02*
X267778Y205800D01*
X273878D01*
X261403Y212325D02*
X278403D01*
X260403Y214525D02*
X278603D01*
X340878Y161600D02*
Y183200D01*
X328528Y147500D02*
X331178Y144850D01*
X320158Y185500D02*
X329168Y194510D01*
X316378Y185500D02*
X320158D01*
X330778Y152200D02*
X335978Y147000D01*
X325778Y152200D02*
X330778D01*
X324278Y153700D02*
X325778Y152200D01*
X324278Y153700D02*
Y171700D01*
X334203Y181625D01*
X319778Y151600D02*
X323878Y147500D01*
X319778Y151600D02*
Y181200D01*
X323878Y147500D02*
X328528D01*
X319778Y181200D02*
X356278Y217700D01*
X344203Y260325D02*
X369603D01*
X343503Y261825D02*
X370203D01*
X270498Y262821D02*
X279303Y271625D01*
X282103D01*
X281903Y213825D02*
X285803D01*
X289803Y217825D01*
X273878Y205800D02*
X281903Y213825D01*
X289803Y217825D02*
X296603D01*
X284903Y215325D02*
X288803Y219225D01*
X296003D01*
X283903Y216725D02*
X287803Y220625D01*
X295403D01*
X278403Y212325D02*
X281403Y215325D01*
X284903D01*
X278603Y214525D02*
X280803Y216725D01*
X283903D01*
X193003Y92725D02*
X195103D01*
X195803Y93425D01*
Y93500D02*
X200178D01*
X223378Y92000D02*
X228278Y87100D01*
X258578Y102300D02*
X259578Y101300D01*
X319978D01*
X242128Y96650D02*
X334428D01*
X209503Y100825D02*
X210503D01*
X199978Y91300D02*
X209503Y100825D01*
X137106Y96128D02*
X150078Y109100D01*
X137106Y34449D02*
Y96128D01*
X80905Y8858D02*
X111516D01*
X137106Y34449D01*
X157059Y111319D02*
X158578Y109800D01*
X149114Y111319D02*
X157059D01*
X135728Y97933D02*
X149114Y111319D01*
X135728Y34941D02*
Y97933D01*
X111024Y10236D02*
X135728Y34941D01*
X82776Y10236D02*
X111024D01*
X228864Y98400D02*
X232878D01*
X222441Y104823D02*
X228864Y98400D01*
X209547Y104823D02*
X222441D01*
X170669Y112697D02*
X187241Y96125D01*
X148622Y112697D02*
X170669D01*
X134350Y98425D02*
X148622Y112697D01*
X134350Y35433D02*
Y98425D01*
X187241Y96125D02*
X190403D01*
X117815Y18898D02*
X134350Y35433D01*
X193303Y95125D02*
Y96362D01*
X191339Y98327D02*
X193303Y96362D01*
X186909Y98327D02*
X191339D01*
X171161Y114075D02*
X186909Y98327D01*
X148130Y114075D02*
X171161D01*
X132972Y98917D02*
X148130Y114075D01*
X132972Y35925D02*
Y98917D01*
X117323Y20276D02*
X132972Y35925D01*
X75197Y20276D02*
X117323D01*
X200394Y95669D02*
X209547Y104823D01*
X195965Y95669D02*
X200394D01*
X181299Y110335D02*
X195965Y95669D01*
X181299Y110335D02*
Y111713D01*
X177559Y115453D02*
X181299Y111713D01*
X147638Y115453D02*
X177559D01*
X131595Y99410D02*
X147638Y115453D01*
X131595Y36417D02*
Y99410D01*
X124114Y28937D02*
X131595Y36417D01*
X73524Y28937D02*
X124114D01*
X234487Y100591D02*
X236678Y98400D01*
X228543Y100591D02*
X234487D01*
X222933Y106201D02*
X228543Y100591D01*
X204921Y106201D02*
X222933D01*
X194291Y116831D02*
X204921Y106201D01*
X147146Y116831D02*
X194291D01*
X130217Y99902D02*
X147146Y116831D01*
X130217Y36909D02*
Y99902D01*
X123622Y30315D02*
X130217Y36909D01*
X75295Y30315D02*
X123622D01*
X229378Y106772D02*
X230306Y107700D01*
X260378D01*
X329209Y98032D02*
X330178Y99000D01*
X243898Y98032D02*
X329209D01*
X239961Y101969D02*
X243898Y98032D01*
X229035Y101969D02*
X239961D01*
X223425Y107579D02*
X229035Y101969D01*
X205413Y107579D02*
X223425D01*
X194783Y118209D02*
X205413Y107579D01*
X146653Y118209D02*
X194783D01*
X128839Y100394D02*
X146653Y118209D01*
X128839Y44390D02*
Y100394D01*
X123327Y38878D02*
X128839Y44390D01*
X84449Y34843D02*
X88484Y38878D01*
X123327D01*
X322687Y99410D02*
X327078Y103800D01*
X244390Y99410D02*
X322687D01*
X240453Y103347D02*
X244390Y99410D01*
X229528Y103347D02*
X240453D01*
X223917Y108957D02*
X229528Y103347D01*
X205906Y108957D02*
X223917D01*
X195276Y119587D02*
X205906Y108957D01*
X146161Y119587D02*
X195276D01*
X127461Y100886D02*
X146161Y119587D01*
X127461Y44980D02*
Y100886D01*
X122736Y40256D02*
X127461Y44980D01*
G54D55*
X398178Y142100D02*
X413178D01*
X413503Y142425D01*
X443003Y227700D02*
X474978Y259675D01*
Y260000D01*
X254978Y86000D02*
X256294Y84011D01*
X256347Y83931D01*
X464178Y41700D02*
X464278Y41600D01*
X547013Y91000D02*
X547113Y91100D01*
G54D57*
X373877Y173725D02*
X373917Y173765D01*
X348878Y11873D02*
X348886Y11865D01*
X358878Y11873D02*
X358886Y11865D01*
G54D59*
X398178Y142100D02*
X398678Y141600D01*
G54D62*
X547113Y41364D02*
Y91100D01*
X173973Y2725D02*
X514019D01*
X163988Y12710D02*
X173973Y2725D01*
X538720Y252152D02*
Y252746D01*
X538004Y26710D02*
X547113Y35820D01*
X514019Y2725D02*
X524004Y12710D01*
X547113Y35820D02*
Y41364D01*
X546326Y42151D02*
X547113Y41364D01*
X540945Y42151D02*
X546326D01*
X538720Y252152D02*
X547113Y243758D01*
Y91100D02*
Y243758D01*
G54D66*
X317657Y27420D02*
Y43332D01*
Y27420D02*
X317678Y27400D01*
X307658Y27520D02*
Y43332D01*
Y27520D02*
X307678Y27500D01*
X340678Y33400D02*
X344078Y36800D01*
X337078Y33400D02*
X340678D01*
X342578Y35300D01*
X212203Y25225D02*
Y28275D01*
X199703Y26000D02*
Y30775D01*
X255903Y31325D02*
Y34575D01*
X287657Y15773D02*
Y43332D01*
X268803Y31125D02*
X271503D01*
X259728Y40200D02*
X268803Y31125D01*
X250278Y40200D02*
X259728D01*
X253778Y29050D02*
X253903Y28925D01*
X253778Y29050D02*
Y31400D01*
X255903Y28925D02*
Y31325D01*
X255828Y31400D02*
X255903Y31325D01*
X253778Y31400D02*
X255828D01*
X253978Y36500D02*
X255903Y34575D01*
X253803Y28825D02*
X253903Y28925D01*
X255903D01*
X227303Y34825D02*
X230103Y32025D01*
X224628Y45950D02*
X228678Y41900D01*
X230103Y30125D02*
Y32025D01*
X227303Y34825D02*
Y37325D01*
X228703Y38725D01*
Y41925D01*
X199778Y41000D02*
X209028Y31750D01*
X208878Y31600D02*
X212203Y28275D01*
X198878Y31600D02*
X199703Y30775D01*
X188878Y28650D02*
X189603Y27925D01*
X197528Y31600D02*
X198878D01*
X182978Y46150D02*
Y68500D01*
Y46150D02*
X185203Y43925D01*
X197528Y31600D01*
X182978Y46150D02*
Y48525D01*
X178878Y28150D02*
X179103Y27925D01*
X178878Y28150D02*
Y29225D01*
Y31600D01*
Y36400D01*
X169653Y31425D02*
X174481D01*
X159478Y41600D02*
X169653Y31425D01*
X265467Y84011D02*
X274778Y74700D01*
X256294Y84011D02*
X265467D01*
X267778Y81700D01*
X209978Y86000D02*
X211294Y84011D01*
X211301Y84000D01*
X154478Y82100D02*
Y84300D01*
X242978Y45300D02*
X245178D01*
X356378Y42800D02*
Y45000D01*
X199778Y41000D02*
Y45200D01*
X200578Y80100D02*
X219578D01*
X239778Y42700D02*
X245978Y36500D01*
X233178Y42700D02*
X239778D01*
X228078Y47800D02*
X233178Y42700D01*
X208878Y31600D02*
X209028Y31750D01*
X245978Y36500D02*
X253978D01*
X245178Y45300D02*
X250278Y40200D01*
X199678Y45300D02*
X199778Y45200D01*
X174578Y40700D02*
X178878Y36400D01*
X271628Y66750D02*
X282128Y56250D01*
X274778Y68700D02*
X284128Y59350D01*
X295883D01*
X296133Y59600D01*
X361178Y84700D02*
X371178Y74700D01*
X366028Y46250D02*
Y65950D01*
Y45950D02*
Y46250D01*
X344078Y36800D02*
X350378D01*
X356378Y42800D01*
X271628Y66750D02*
Y73050D01*
X274778Y68700D02*
Y74700D01*
X368028Y67950D02*
Y73050D01*
X366028Y65950D02*
X368028Y67950D01*
X371178Y66500D02*
Y74700D01*
X369478Y64800D02*
X371178Y66500D01*
X360378Y80700D02*
X368028Y73050D01*
X263978Y80700D02*
X271628Y73050D01*
X184878Y70400D02*
Y78084D01*
X182978Y68500D02*
X184878Y70400D01*
X181728Y81234D02*
X184878Y78084D01*
X181728Y81234D02*
Y81250D01*
X179778Y69745D02*
X181728Y71695D01*
Y76850D01*
X174478Y84100D02*
X181728Y76850D01*
X167633Y84100D02*
X174478D01*
X167583Y84050D02*
X167633Y84100D01*
X154728Y84050D02*
X167583D01*
X154478Y84300D02*
X154728Y84050D01*
X175778Y87200D02*
X181728Y81250D01*
X226628Y67950D02*
Y73050D01*
X224628Y65950D02*
X226628Y67950D01*
X224628Y45950D02*
Y65950D01*
X229778Y66500D02*
Y74700D01*
X228078Y64800D02*
X229778Y66500D01*
X228078Y47800D02*
Y64800D01*
X146278Y44500D02*
X147078Y45300D01*
X166278Y87200D02*
X175778D01*
X164078D02*
X166278D01*
X219578Y80100D02*
X226628Y73050D01*
X170178Y90800D02*
Y92300D01*
X170978Y93100D01*
X351878Y83900D02*
X352678Y84700D01*
Y86200D01*
X220478Y84000D02*
X229778Y74700D01*
X211301Y84000D02*
X220478D01*
X245378Y80700D02*
X263978D01*
X174578Y40700D02*
Y45600D01*
X173878Y46300D02*
X174578Y45600D01*
X144878Y45300D02*
X147078D01*
X307678Y15794D02*
Y27500D01*
X307658Y15773D02*
X307678Y15794D01*
X317678D02*
Y27400D01*
X317657Y15773D02*
X317678Y15794D01*
X341478Y80700D02*
X360378D01*
X352678Y84700D02*
X361178D01*
X148878Y41600D02*
X159478D01*
X146278Y44200D02*
X148878Y41600D01*
X146278Y44200D02*
Y44500D01*
X297657Y15773D02*
Y43332D01*
X296133Y59600D02*
X307578D01*
X354978Y35200D02*
X366028Y46250D01*
X369478Y40100D02*
X372078D01*
X369478Y40000D02*
Y40100D01*
Y64800D01*
X211278Y84000D02*
X211301D01*
X282128Y56250D02*
X292978D01*
X179778Y41350D02*
Y69745D01*
Y41350D02*
X188878Y32250D01*
Y28650D02*
Y32250D01*
G54D67*
X490978Y60800D02*
Y72750D01*
X485303Y78425D02*
X490978Y72750D01*
X485303Y78425D02*
Y90125D01*
X489829Y94651D01*
X484178Y104900D02*
X489829Y99249D01*
Y94651D02*
Y99249D01*
X488878Y45800D02*
Y58700D01*
X442378Y227600D02*
X442903D01*
X488878Y58700D02*
X490978Y60800D01*
X442678Y227700D02*
X443003D01*
G54D68*
X189453Y29225D02*
X192403D01*
X178878D02*
X182803D01*
X192403D02*
Y30525D01*
Y27925D02*
Y29225D01*
X188878Y28650D02*
X189453Y29225D01*
X189603Y27925D02*
X192403D01*
X189953Y30525D02*
X192403D01*
X188878Y31600D02*
X189953Y30525D01*
X182803Y29225D02*
Y30525D01*
Y27925D02*
Y29225D01*
X179953Y30525D02*
X182803D01*
X178878Y31600D02*
X179953Y30525D01*
X179103Y27925D02*
X182803D01*
X196678Y45300D02*
X199678D01*
X200578Y77600D02*
Y80100D01*
X172278Y47900D02*
X173878Y46300D01*
X170578Y47900D02*
X172278D01*
X185178Y84900D02*
X186578Y86300D01*
X333178Y33300D02*
X335778D01*
Y33400D02*
X337078D01*
X352778Y34900D02*
X354678D01*
X354978Y35200D01*
X341478Y80700D02*
Y81000D01*
Y78400D02*
Y80700D01*
G54D72*
X280478Y93800D02*
X322778D01*
X324178Y92400D01*
X343378D01*
X224678Y95000D02*
X226078D01*
X207678D02*
X224678D01*
X342078Y111500D02*
Y114900D01*
Y111500D02*
X349078D01*
X351778Y108800D01*
X343378Y92400D02*
X351778Y100800D01*
Y108800D01*
X229178Y91900D02*
X240778D01*
X242678Y93800D01*
X193078Y86300D02*
X195278Y88500D01*
X226078Y95000D02*
X229178Y91900D01*
X187500Y86300D02*
X193078D01*
X201178Y88500D02*
X207678Y95000D01*
X195278Y88500D02*
X201178D01*
X242678Y93800D02*
X280478D01*
G54D89*
X502578Y156050D02*
D03*
Y91050D02*
D03*
G54D91*
X403499Y249171D02*
D03*
Y239171D02*
D03*
Y229171D02*
D03*
G54D92*
X390546D02*
D03*
Y219171D02*
D03*
X356278Y218500D02*
D03*
X346278Y228500D02*
D03*
Y218500D02*
D03*
X336278Y228500D02*
D03*
X326278D02*
D03*
X346278Y256000D02*
D03*
X336278D02*
D03*
X326278Y266000D02*
D03*
Y256000D02*
D03*
X316278Y266000D02*
D03*
G54D93*
X287665Y39384D02*
D03*
X297665D02*
D03*
X307665D02*
D03*
Y11825D02*
D03*
X297665D02*
D03*
X287665D02*
D03*
X348886Y11865D02*
D03*
X358886D02*
D03*
X270498Y259868D02*
D03*
X260498D02*
D03*
X218703Y259825D02*
D03*
X186603D02*
D03*
G54D94*
X317665Y39384D02*
D03*
Y11825D02*
D03*
X228703Y259825D02*
D03*
X196603D02*
D03*
X186603Y235725D02*
D03*
G54D95*
X316278Y218500D02*
D03*
G54D96*
X398178Y142300D02*
D03*
Y132300D02*
D03*
X373917Y173765D02*
D03*
Y183765D02*
D03*
Y111561D02*
D03*
Y121561D02*
D03*
Y152663D02*
D03*
G54D98*
X540945Y42151D02*
D03*
G54D100*
X500378Y264200D02*
D03*
G54D101*
X428278Y134000D02*
D03*
X386678Y85200D02*
D03*
X351378Y159800D02*
D03*
X444011Y167054D02*
D03*
X488403Y227925D02*
D03*
X240378Y244900D02*
D03*
X437578Y196300D02*
D03*
X437378Y182000D02*
D03*
X473678Y263700D02*
D03*
X466378Y255600D02*
D03*
Y263000D02*
D03*
Y259300D02*
D03*
X342078Y114900D02*
D03*
X284778Y274300D02*
D03*
X429378Y184300D02*
D03*
X421678Y185400D02*
D03*
X359178Y132600D02*
D03*
X447778Y146100D02*
D03*
X442778D02*
D03*
X462378Y231500D02*
D03*
X458578Y225400D02*
D03*
Y229900D02*
D03*
X442678Y227700D02*
D03*
X439680Y177291D02*
D03*
X387478Y109700D02*
D03*
X538878Y205700D02*
D03*
X540303Y176825D02*
D03*
X453978Y51100D02*
D03*
X400378Y53300D02*
D03*
X493278Y92300D02*
D03*
X502678Y99800D02*
D03*
X512278Y91200D02*
D03*
X511678Y156000D02*
D03*
X502578Y146800D02*
D03*
X493478Y156100D02*
D03*
X459678Y115646D02*
D03*
X393878Y56100D02*
D03*
X384678D02*
D03*
Y51000D02*
D03*
X393878D02*
D03*
X384678Y45800D02*
D03*
X393878D02*
D03*
X399778Y19000D02*
D03*
X390578D02*
D03*
Y13800D02*
D03*
X399778Y13900D02*
D03*
X390578Y8700D02*
D03*
X399778D02*
D03*
X464178Y41700D02*
D03*
X431578Y53200D02*
D03*
X437478Y189200D02*
D03*
X452878Y146100D02*
D03*
X348003Y168525D02*
D03*
X478978Y260200D02*
D03*
X431578Y43200D02*
D03*
Y48200D02*
D03*
X451491Y169416D02*
D03*
X453854Y167054D02*
D03*
X456216Y169416D02*
D03*
X449129Y167054D02*
D03*
X439680Y173354D02*
D03*
Y169416D02*
D03*
X446373D02*
D03*
X417503Y28074D02*
D03*
X461428Y215400D02*
D03*
X478578Y215500D02*
D03*
X474578Y246400D02*
D03*
X456078Y248100D02*
D03*
X351578Y102700D02*
D03*
X417778Y8700D02*
D03*
X484178Y104900D02*
D03*
X417503Y23874D02*
D03*
X407378Y26500D02*
D03*
X383378Y59700D02*
D03*
X438878Y201600D02*
D03*
X458878D02*
D03*
X468878Y199700D02*
D03*
X465678Y207500D02*
D03*
X478478Y211600D02*
D03*
X477778Y201500D02*
D03*
X478878Y191600D02*
D03*
X468878D02*
D03*
Y181600D02*
D03*
X487603Y209125D02*
D03*
X422778Y34400D02*
D03*
X407287Y13515D02*
D03*
X417978Y12200D02*
D03*
X441578Y111700D02*
D03*
X414278Y130800D02*
D03*
X452978Y84800D02*
D03*
X443778D02*
D03*
X452978Y90000D02*
D03*
X443778D02*
D03*
Y95100D02*
D03*
X452978D02*
D03*
X328503Y184925D02*
D03*
X385178Y95700D02*
D03*
X448878Y201600D02*
D03*
X458778Y207900D02*
D03*
X450878Y209300D02*
D03*
X446478Y215400D02*
D03*
X474978Y260000D02*
D03*
X362678Y182300D02*
D03*
X502978Y11800D02*
D03*
X456103Y149525D02*
D03*
X439603Y150325D02*
D03*
X455903Y146125D02*
D03*
X462378Y228200D02*
D03*
Y224900D02*
D03*
G54D102*
X313378Y177100D02*
D03*
X314878Y135700D02*
D03*
X215503Y213525D02*
D03*
X467346Y239258D02*
D03*
X463410D02*
D03*
Y243195D02*
D03*
X467346D02*
D03*
X471283D02*
D03*
Y239258D02*
D03*
Y235320D02*
D03*
X467346D02*
D03*
X463410D02*
D03*
X424828Y120450D02*
D03*
X415803Y151925D02*
D03*
X417803Y151825D02*
D03*
X383478Y101800D02*
D03*
X367903Y201425D02*
D03*
X486403Y98325D02*
D03*
X335403Y160025D02*
D03*
X340078Y160800D02*
D03*
X243603Y274425D02*
D03*
X238978Y256200D02*
D03*
X201878Y241600D02*
D03*
X488878Y45800D02*
D03*
X326403Y154625D02*
D03*
X335003Y50325D02*
D03*
X325201Y58277D02*
D03*
X318878Y55900D02*
D03*
X299178Y65000D02*
D03*
X366178Y191300D02*
D03*
X335303Y165125D02*
D03*
X428878Y275400D02*
D03*
X487378Y268300D02*
D03*
X285178Y144700D02*
D03*
X351856Y195378D02*
D03*
X345278Y197000D02*
D03*
X293303Y131225D02*
D03*
X282003Y35525D02*
D03*
X455491Y182877D02*
D03*
X459491D02*
D03*
Y186877D02*
D03*
X455491D02*
D03*
Y190877D02*
D03*
X459491D02*
D03*
Y194877D02*
D03*
X455491D02*
D03*
X447491D02*
D03*
X443491D02*
D03*
Y190877D02*
D03*
X447491D02*
D03*
Y186877D02*
D03*
X443491D02*
D03*
Y182877D02*
D03*
X447491D02*
D03*
X451491D02*
D03*
Y186877D02*
D03*
Y194877D02*
D03*
Y190877D02*
D03*
X410959Y50768D02*
D03*
X406959D02*
D03*
X414959D02*
D03*
X418959D02*
D03*
Y46768D02*
D03*
Y42768D02*
D03*
X414959D02*
D03*
Y46768D02*
D03*
X410959D02*
D03*
Y42768D02*
D03*
X406959D02*
D03*
Y46768D02*
D03*
Y54768D02*
D03*
Y58768D02*
D03*
X410959D02*
D03*
Y54768D02*
D03*
X414959D02*
D03*
Y58768D02*
D03*
X418959D02*
D03*
Y54768D02*
D03*
X314903Y132625D02*
D03*
X359403Y237025D02*
D03*
X356003D02*
D03*
X367778Y207900D02*
D03*
X340278Y153400D02*
D03*
X339678Y76000D02*
D03*
X253803Y28825D02*
D03*
X361678Y50400D02*
D03*
X198916Y73500D02*
D03*
X198116Y75700D02*
D03*
X175478Y54100D02*
D03*
X154003Y51935D02*
D03*
X153378Y79300D02*
D03*
X154003Y54235D02*
D03*
X220378Y89800D02*
D03*
X413503Y142425D02*
D03*
X358278Y111800D02*
D03*
X342078Y106700D02*
D03*
X319757Y143800D02*
D03*
X284778Y114600D02*
D03*
X278261Y157100D02*
D03*
X275161Y151600D02*
D03*
X281361D02*
D03*
X281903Y144725D02*
D03*
X325957Y143800D02*
D03*
X337178Y153500D02*
D03*
X338278Y125600D02*
D03*
X281361Y157100D02*
D03*
X278261Y151600D02*
D03*
X306603Y128225D02*
D03*
X306628Y133250D02*
D03*
X296578Y131300D02*
D03*
X288678Y128200D02*
D03*
X367778Y211200D02*
D03*
X337078Y190925D02*
D03*
X298103Y208625D02*
D03*
X309978Y105100D02*
D03*
X292978Y56200D02*
D03*
X375378Y31400D02*
D03*
X361178Y37100D02*
D03*
X378578Y91300D02*
D03*
X281478Y85300D02*
D03*
X280078Y69600D02*
D03*
X372978Y45100D02*
D03*
X337478Y50400D02*
D03*
X324778Y75000D02*
D03*
X324678Y63800D02*
D03*
X327578Y111900D02*
D03*
X361978Y87900D02*
D03*
X352678Y86200D02*
D03*
X351878Y83900D02*
D03*
X346978Y101200D02*
D03*
X340978Y96000D02*
D03*
X329778Y40100D02*
D03*
Y37600D02*
D03*
X356378Y45000D02*
D03*
X299478Y104100D02*
D03*
X175678Y95600D02*
D03*
X153478Y101400D02*
D03*
X150078Y109100D02*
D03*
X158578Y109800D02*
D03*
X161178Y107600D02*
D03*
X198078Y84100D02*
D03*
X190178Y90300D02*
D03*
X199378Y99900D02*
D03*
X202378Y105600D02*
D03*
Y103000D02*
D03*
X224678Y95000D02*
D03*
X190403Y96125D02*
D03*
X193303Y95125D02*
D03*
X170978Y93100D02*
D03*
X195803Y93425D02*
D03*
X200578Y77600D02*
D03*
X232878Y98400D02*
D03*
X240478Y98300D02*
D03*
X236678Y98400D02*
D03*
X330178Y99000D02*
D03*
X231678Y49700D02*
D03*
X231278Y54400D02*
D03*
X258578Y102300D02*
D03*
X268578Y86500D02*
D03*
X361978Y90400D02*
D03*
X347078Y106700D02*
D03*
X254978Y86000D02*
D03*
X256278Y84000D02*
D03*
X172878Y54100D02*
D03*
X154178Y77100D02*
D03*
X154478Y84300D02*
D03*
X306876Y89833D02*
D03*
X318588Y79597D02*
D03*
X306876Y78908D02*
D03*
X299395Y79597D02*
D03*
X317407Y72117D02*
D03*
X300403Y89825D02*
D03*
X335778Y33300D02*
D03*
X352778Y34900D02*
D03*
X166278Y87200D02*
D03*
X164078D02*
D03*
X154478Y82100D02*
D03*
X144878Y45300D02*
D03*
X147078D02*
D03*
X198778Y50400D02*
D03*
X176387Y66209D02*
D03*
X170178Y90800D02*
D03*
X220378Y87400D02*
D03*
X243678Y50600D02*
D03*
X235678Y52500D02*
D03*
X221478Y62700D02*
D03*
X209978Y86000D02*
D03*
X223478Y69150D02*
D03*
X178578Y72900D02*
D03*
X190378Y51100D02*
D03*
Y54100D02*
D03*
Y57100D02*
D03*
X268178Y69350D02*
D03*
X362678Y62609D02*
D03*
X364578Y69250D02*
D03*
X340125Y73653D02*
D03*
X340078Y50400D02*
D03*
X320078Y108600D02*
D03*
X316778Y105400D02*
D03*
X313178Y105100D02*
D03*
X359016Y50400D02*
D03*
X317478Y67400D02*
D03*
X374978Y83200D02*
D03*
X299297Y84715D02*
D03*
X316620Y84715D02*
D03*
X318503Y89547D02*
D03*
X327078Y103800D02*
D03*
X336978Y99100D02*
D03*
X303578Y105100D02*
D03*
X287878Y69100D02*
D03*
X245278Y81000D02*
D03*
X240278Y80100D02*
D03*
X231878Y86900D02*
D03*
X252978Y88600D02*
D03*
X249778Y103900D02*
D03*
X247778Y102000D02*
D03*
X229378Y106772D02*
D03*
X356378Y42800D02*
D03*
X333178Y33300D02*
D03*
X355278Y34900D02*
D03*
X369478Y40100D02*
D03*
X372078D02*
D03*
X347678Y26700D02*
D03*
X322678Y92900D02*
D03*
X354378Y98100D02*
D03*
X307678Y59700D02*
D03*
X305378D02*
D03*
X273978Y41400D02*
D03*
X272178Y38100D02*
D03*
X230378Y36000D02*
D03*
X262978Y26500D02*
D03*
X221603Y49125D02*
D03*
X259178Y36500D02*
D03*
X170578Y47900D02*
D03*
X173878Y46300D02*
D03*
X151178Y37800D02*
D03*
X153978D02*
D03*
X190603Y44025D02*
D03*
X192103Y41525D02*
D03*
X199978Y36100D02*
D03*
X185203Y43925D02*
D03*
X175078Y34500D02*
D03*
X169378Y36300D02*
D03*
X179803Y43925D02*
D03*
X196678Y45300D02*
D03*
X199778Y45200D02*
D03*
X242678Y45300D02*
D03*
X245178D02*
D03*
X185178Y84900D02*
D03*
X200578Y80100D02*
D03*
X280478Y93800D02*
D03*
X144878Y52900D02*
D03*
X323278Y198200D02*
D03*
X317803Y198225D02*
D03*
X265903Y203925D02*
D03*
X329378Y198300D02*
D03*
X256403Y204125D02*
D03*
X261203Y212225D02*
D03*
X153478Y98600D02*
D03*
X217578Y50600D02*
D03*
X219778D02*
D03*
X186003Y50825D02*
D03*
X243078Y76000D02*
D03*
X243878Y73700D02*
D03*
X243678Y48400D02*
D03*
X264978Y50400D02*
D03*
X262616D02*
D03*
X290678Y104600D02*
D03*
X293378D02*
D03*
X234578Y48800D02*
D03*
X233078Y36000D02*
D03*
X266478Y62800D02*
D03*
X269378Y84400D02*
D03*
X219303Y230725D02*
D03*
X166503Y3125D02*
D03*
X139803Y2525D02*
D03*
X147103Y37425D02*
D03*
X173503Y15425D02*
D03*
X173603Y22025D02*
D03*
X222003Y9325D02*
D03*
X231403Y9625D02*
D03*
X157903Y45125D02*
D03*
X144903Y56425D02*
D03*
X159403Y37025D02*
D03*
X221103Y16925D02*
D03*
X179003Y17825D02*
D03*
X179203Y8325D02*
D03*
X267003Y53425D02*
D03*
X270903Y49225D02*
D03*
X275303Y38625D02*
D03*
X272903Y8425D02*
D03*
X272803Y18325D02*
D03*
X282003Y18425D02*
D03*
X200403Y8025D02*
D03*
X302703Y8225D02*
D03*
X275103Y51425D02*
D03*
X293203Y28225D02*
D03*
X323803Y28725D02*
D03*
X323903Y19625D02*
D03*
X323603Y8625D02*
D03*
X333203Y16425D02*
D03*
X333303Y8725D02*
D03*
X354003Y8425D02*
D03*
X339603Y42025D02*
D03*
Y36825D02*
D03*
X374803Y20525D02*
D03*
X375103Y8425D02*
D03*
X383503Y14125D02*
D03*
X383303Y26325D02*
D03*
X466003Y53925D02*
D03*
X462703Y34025D02*
D03*
X545403Y27725D02*
D03*
X520903Y42325D02*
D03*
X520503Y71825D02*
D03*
X542803Y60825D02*
D03*
X542103Y84025D02*
D03*
X476403Y80625D02*
D03*
X522803Y106325D02*
D03*
X523003Y125825D02*
D03*
X542603Y117125D02*
D03*
X542903Y136025D02*
D03*
X543003Y156525D02*
D03*
X527803Y151325D02*
D03*
X513903Y137425D02*
D03*
X518103Y164425D02*
D03*
X527903Y172025D02*
D03*
X518503Y149525D02*
D03*
X522203Y197325D02*
D03*
X512503Y220525D02*
D03*
X510003Y271925D02*
D03*
X528903Y212025D02*
D03*
X519303Y245625D02*
D03*
X528903Y224925D02*
D03*
X542903Y225025D02*
D03*
X542703Y242225D02*
D03*
X507203Y235525D02*
D03*
X497203Y238725D02*
D03*
X543703Y273625D02*
D03*
X481903Y257025D02*
D03*
X457203Y254725D02*
D03*
X459703Y266225D02*
D03*
X442503Y266525D02*
D03*
X430003Y265525D02*
D03*
X441803Y233025D02*
D03*
X381103Y193825D02*
D03*
X410203Y192025D02*
D03*
X359303Y191225D02*
D03*
X379703Y165925D02*
D03*
X383503Y166025D02*
D03*
X379903Y133125D02*
D03*
X383403D02*
D03*
X365003Y139925D02*
D03*
X360403Y117225D02*
D03*
X380003Y232725D02*
D03*
X375303Y250125D02*
D03*
X380003Y257925D02*
D03*
X370203Y256625D02*
D03*
X367303Y236625D02*
D03*
X367578Y243900D02*
D03*
X361503Y257425D02*
D03*
X355903Y249325D02*
D03*
X349403Y243425D02*
D03*
X341303Y247925D02*
D03*
X330003Y248925D02*
D03*
X330803Y253625D02*
D03*
X341203Y269925D02*
D03*
X310403Y269825D02*
D03*
X307203Y260225D02*
D03*
X301903Y253925D02*
D03*
X302703Y246525D02*
D03*
X313003Y245125D02*
D03*
X324503Y239225D02*
D03*
X265703Y274725D02*
D03*
X243103Y265925D02*
D03*
X226603Y272325D02*
D03*
X213803Y263125D02*
D03*
X209403Y274725D02*
D03*
X182503Y274625D02*
D03*
X140503Y256725D02*
D03*
X165603Y245225D02*
D03*
X182003Y248325D02*
D03*
X171403Y226525D02*
D03*
X369703Y100725D02*
D03*
X384003Y116225D02*
D03*
X187778Y217900D02*
D03*
X240503Y49725D02*
D03*
X400803Y201025D02*
D03*
X418503Y203525D02*
D03*
X423403Y203725D02*
D03*
X430203Y215825D02*
D03*
X287203Y267425D02*
D03*
X478178Y264600D02*
D03*
X251403Y7925D02*
D03*
X171725Y31325D02*
D03*
X174403D02*
D03*
X182903Y27725D02*
D03*
Y30325D02*
D03*
X192403Y30525D02*
D03*
Y27925D02*
D03*
X199803Y28400D02*
D03*
Y26000D02*
D03*
X213903Y31025D02*
D03*
X212303Y27825D02*
D03*
X212203Y25225D02*
D03*
X228703Y41925D02*
D03*
X226203Y31325D02*
D03*
X230103Y32725D02*
D03*
Y30125D02*
D03*
X253778Y31400D02*
D03*
X268803Y30925D02*
D03*
X271503D02*
D03*
X331778Y196400D02*
D03*
X329168Y194510D02*
D03*
X323288D02*
D03*
X317768Y194410D02*
D03*
X373878Y205400D02*
D03*
X362678Y237000D02*
D03*
X504978Y27000D02*
D03*
X507978Y30200D02*
D03*
X477103Y23825D02*
D03*
X361503Y264625D02*
D03*
X438303Y140525D02*
D03*
X282103Y271625D02*
D03*
X159309Y72102D02*
D03*
X167971Y59109D02*
D03*
X163640D02*
D03*
X159309D02*
D03*
X167971Y63440D02*
D03*
X163640D02*
D03*
X159309D02*
D03*
X167971Y67771D02*
D03*
X163640D02*
D03*
X159309D02*
D03*
X167971Y72102D02*
D03*
X163640D02*
D03*
X208378Y68502D02*
D03*
X212709D02*
D03*
X204047Y64171D02*
D03*
X208378D02*
D03*
X212709D02*
D03*
X204047Y59840D02*
D03*
X208378D02*
D03*
X212709D02*
D03*
X204047Y55510D02*
D03*
X208378D02*
D03*
X212709D02*
D03*
X204047Y68502D02*
D03*
X249047D02*
D03*
X257709Y55510D02*
D03*
X253378D02*
D03*
X249047D02*
D03*
X257709Y59840D02*
D03*
X253378D02*
D03*
X249047D02*
D03*
X257709Y64171D02*
D03*
X253378D02*
D03*
X249047D02*
D03*
X257709Y68502D02*
D03*
X253378D02*
D03*
X349778D02*
D03*
X354109D02*
D03*
X345447Y64171D02*
D03*
X349778D02*
D03*
X354109D02*
D03*
X345447Y59840D02*
D03*
X349778D02*
D03*
X354109D02*
D03*
X345447Y55510D02*
D03*
X349778D02*
D03*
X354109D02*
D03*
X345447Y68502D02*
D03*
X183003Y33425D02*
D03*
X165703Y99625D02*
D03*
X198778Y48200D02*
D03*
X211278Y84000D02*
D03*
X341478Y80900D02*
D03*
Y78400D02*
D03*
X210503Y100825D02*
D03*
X538903Y34125D02*
D03*
X52953Y9843D02*
D03*
X27343Y9764D02*
D03*
X52953Y19685D02*
D03*
X27343Y20059D02*
D03*
X52933Y29842D02*
D03*
X27343Y29902D02*
D03*
Y39882D02*
D03*
X52933Y39843D02*
D03*
G54D103*
X434703Y43225D02*
D03*
Y48225D02*
D03*
Y53125D02*
D03*
X441678Y161200D02*
D03*
G54D104*
X423605Y174670D02*
D03*
X466328Y98850D02*
D03*
X474378Y88900D02*
D03*
X478878D02*
D03*
M02*
