G04 Layer_Physical_Order=3*
G04 Layer_Color=16440176*
%FSLAX25Y25*%
%MOIN*%
G70*
G01*
G75*
%ADD55C,0.02000*%
%ADD58C,0.07500*%
%ADD59C,0.03000*%
%ADD61C,0.03200*%
%ADD76C,0.05000*%
%ADD89O,0.13000X0.13600*%
%ADD91O,0.11811X0.05905*%
%ADD92C,0.05905*%
%ADD93O,0.06000X0.12000*%
%ADD94R,0.06000X0.12000*%
%ADD96O,0.12000X0.06000*%
%ADD97O,0.08250X0.16500*%
%ADD100R,0.12000X0.06000*%
%ADD101C,0.03000*%
%ADD102C,0.02200*%
%ADD103C,0.02900*%
%ADD104C,0.03200*%
%ADD117C,0.06000*%
%ADD118C,0.10000*%
G36*
X549658Y1020D02*
X138296D01*
Y59457D01*
X143065D01*
X143578Y59355D01*
X144090Y59457D01*
X150757D01*
X156583Y53630D01*
X157311Y53144D01*
X158169Y52973D01*
X169291D01*
X170150Y53144D01*
X170877Y53630D01*
X175240Y57993D01*
X187659D01*
X188103Y57452D01*
X188033Y57100D01*
X188211Y56203D01*
X188614Y55600D01*
X188211Y54997D01*
X188033Y54100D01*
X188211Y53203D01*
X188614Y52600D01*
X188211Y51997D01*
X188033Y51100D01*
X188211Y50203D01*
X188720Y49442D01*
X189480Y48933D01*
X190378Y48755D01*
X191275Y48933D01*
X192036Y49442D01*
X192544Y50203D01*
X192723Y51100D01*
X192544Y51997D01*
X192142Y52600D01*
X192544Y53203D01*
X192723Y54100D01*
X192544Y54997D01*
X192142Y55600D01*
X192544Y56203D01*
X192723Y57100D01*
X192653Y57452D01*
X193097Y57993D01*
X194150D01*
X201071Y51071D01*
X201799Y50585D01*
X202658Y50414D01*
X214961D01*
X215819Y50585D01*
X216547Y51071D01*
X221697Y56221D01*
X228887D01*
X229261Y55522D01*
X229111Y55297D01*
X228933Y54400D01*
X229111Y53503D01*
X229620Y52742D01*
X230225Y52337D01*
X230319Y51771D01*
X230289Y51538D01*
X230020Y51358D01*
X229511Y50597D01*
X229333Y49700D01*
X229511Y48803D01*
X230020Y48042D01*
X230781Y47533D01*
X231678Y47355D01*
X232575Y47533D01*
X233336Y48042D01*
X233844Y48803D01*
X234023Y49700D01*
X233955Y50043D01*
X234585Y50464D01*
X234781Y50333D01*
X235678Y50155D01*
X236575Y50333D01*
X237336Y50842D01*
X237844Y51603D01*
X238023Y52500D01*
X237844Y53397D01*
X237336Y54158D01*
X236575Y54667D01*
X235678Y54845D01*
X234781Y54667D01*
X234294Y54342D01*
X234215Y54348D01*
X233573Y54653D01*
X233444Y55297D01*
X233295Y55522D01*
X233669Y56221D01*
X234921D01*
X235433Y56120D01*
X235946Y56221D01*
X240311D01*
X246052Y50481D01*
X246779Y49995D01*
X247638Y49824D01*
X259842D01*
X260701Y49995D01*
X261429Y50481D01*
X268547Y57599D01*
X290369D01*
X290772Y56899D01*
X290633Y56200D01*
X290811Y55303D01*
X291320Y54542D01*
X292080Y54033D01*
X292978Y53855D01*
X293875Y54033D01*
X294228Y54269D01*
X294581Y54033D01*
X295478Y53855D01*
X296375Y54033D01*
X297136Y54542D01*
X297644Y55303D01*
X297823Y56200D01*
X297684Y56899D01*
X298087Y57599D01*
X299410D01*
X300268Y57770D01*
X300996Y58256D01*
X302357Y59618D01*
X303099Y59369D01*
X303211Y58803D01*
X303720Y58042D01*
X304481Y57534D01*
X305378Y57355D01*
X306275Y57534D01*
X306528Y57702D01*
X306781Y57534D01*
X307678Y57355D01*
X308575Y57534D01*
X309336Y58042D01*
X309844Y58803D01*
X310023Y59700D01*
X309981Y59913D01*
X310425Y60454D01*
X315508D01*
X322331Y53630D01*
X323059Y53144D01*
X323917Y52973D01*
X326181D01*
X327040Y53144D01*
X327767Y53630D01*
X330850Y56713D01*
X331284Y57003D01*
X331792Y57764D01*
X331971Y58661D01*
X331792Y59559D01*
X331284Y60320D01*
X330523Y60828D01*
X329626Y61006D01*
X328729Y60828D01*
X327968Y60320D01*
X327677Y59885D01*
X325252Y57460D01*
X324846D01*
X318023Y64283D01*
X317295Y64769D01*
X316437Y64940D01*
X302264D01*
X301405Y64769D01*
X300678Y64283D01*
X298480Y62086D01*
X267618D01*
X266760Y61915D01*
X266032Y61429D01*
X258913Y54310D01*
X248567D01*
X242826Y60051D01*
X242099Y60537D01*
X241240Y60708D01*
X235946D01*
X235433Y60810D01*
X234921Y60708D01*
X220768D01*
X219909Y60537D01*
X219182Y60051D01*
X214032Y54901D01*
X203587D01*
X196665Y61822D01*
X195937Y62309D01*
X195079Y62479D01*
X190769D01*
X190256Y62581D01*
X189743Y62479D01*
X174311D01*
X173453Y62309D01*
X172725Y61822D01*
X168362Y57460D01*
X159098D01*
X153272Y63286D01*
X152544Y63772D01*
X151686Y63943D01*
X144090D01*
X143578Y64045D01*
X143065Y63943D01*
X138296D01*
Y114501D01*
X200545D01*
X202405Y112641D01*
X202969Y112208D01*
X203626Y111936D01*
X204331Y111844D01*
X205036Y111936D01*
X205692Y112208D01*
X205938Y112397D01*
X206573Y112002D01*
X206558Y111925D01*
X206737Y111028D01*
X207245Y110267D01*
X208006Y109759D01*
X208903Y109580D01*
X209801Y109759D01*
X210561Y110267D01*
X211070Y111028D01*
X211248Y111925D01*
X211070Y112823D01*
X210561Y113583D01*
X209801Y114092D01*
X208903Y114270D01*
X208006Y114092D01*
X207668Y113866D01*
X207015Y114272D01*
X207054Y114567D01*
X206961Y115272D01*
X206689Y115929D01*
X206256Y116493D01*
X204576Y118173D01*
X204844Y118820D01*
X352235D01*
Y115512D01*
X352119Y115362D01*
X351847Y114705D01*
X351755Y114000D01*
X351847Y113295D01*
X352119Y112638D01*
X352552Y112074D01*
X353116Y111642D01*
X353773Y111370D01*
X354478Y111277D01*
X355183Y111370D01*
X355295Y111416D01*
X356094Y110989D01*
X356111Y110903D01*
X356620Y110142D01*
X357381Y109633D01*
X358278Y109455D01*
X359175Y109633D01*
X359936Y110142D01*
X360444Y110903D01*
X360623Y111800D01*
X360444Y112697D01*
X359936Y113458D01*
X359175Y113967D01*
X358278Y114145D01*
X357889Y114068D01*
X357126Y114574D01*
X357125Y114575D01*
X357108Y114705D01*
X356836Y115362D01*
X356721Y115512D01*
Y121063D01*
Y125757D01*
X357666D01*
X357816Y125642D01*
X358473Y125370D01*
X359178Y125277D01*
X359883Y125370D01*
X360540Y125642D01*
X361104Y126074D01*
X361536Y126638D01*
X361808Y127295D01*
X361901Y128000D01*
X361808Y128705D01*
X361536Y129362D01*
X361104Y129926D01*
X360540Y130358D01*
X359883Y130631D01*
X359178Y130723D01*
X358473Y130631D01*
X357816Y130358D01*
X357666Y130243D01*
X356721D01*
Y133810D01*
X357226Y134147D01*
X357421Y134163D01*
X358078Y134077D01*
X358783Y134169D01*
X359440Y134442D01*
X360004Y134874D01*
X360436Y135438D01*
X360708Y136095D01*
X360801Y136800D01*
X360708Y137505D01*
X360436Y138162D01*
X360004Y138726D01*
X359440Y139158D01*
X358783Y139430D01*
X358078Y139523D01*
X357421Y139437D01*
X357226Y139453D01*
X356721Y139790D01*
Y147257D01*
X361466D01*
X361616Y147142D01*
X362273Y146870D01*
X362978Y146777D01*
X363683Y146870D01*
X364340Y147142D01*
X364904Y147574D01*
X365336Y148138D01*
X365609Y148795D01*
X365701Y149500D01*
X365609Y150205D01*
X365336Y150862D01*
X364904Y151426D01*
X364340Y151858D01*
X363683Y152130D01*
X362978Y152223D01*
X362273Y152130D01*
X361616Y151858D01*
X361466Y151743D01*
X356721D01*
Y156009D01*
X357364Y156652D01*
X357850Y157380D01*
X358021Y158239D01*
Y163288D01*
X358136Y163438D01*
X358408Y164095D01*
X358501Y164800D01*
X358408Y165505D01*
X358136Y166162D01*
X358021Y166312D01*
Y169971D01*
X363195Y175145D01*
X363383Y175170D01*
X364040Y175442D01*
X364604Y175874D01*
X365036Y176438D01*
X365308Y177095D01*
X365401Y177800D01*
X365308Y178505D01*
X365036Y179162D01*
X364604Y179726D01*
X364040Y180158D01*
X363383Y180430D01*
X362678Y180523D01*
X361973Y180430D01*
X361316Y180158D01*
X360752Y179726D01*
X360319Y179162D01*
X360047Y178505D01*
X360023Y178317D01*
X354192Y172486D01*
X353706Y171758D01*
X353535Y170900D01*
Y166312D01*
X353419Y166162D01*
X353147Y165505D01*
X353055Y164800D01*
X353147Y164095D01*
X353419Y163438D01*
X353535Y163288D01*
Y159168D01*
X352892Y158525D01*
X352406Y157797D01*
X352235Y156939D01*
Y149803D01*
Y137106D01*
Y127953D01*
Y123306D01*
X343758D01*
X343618Y124006D01*
X343765Y124067D01*
X344329Y124499D01*
X344762Y125064D01*
X345034Y125720D01*
X345127Y126425D01*
X345034Y127130D01*
X344762Y127787D01*
X344329Y128351D01*
X343765Y128784D01*
X343108Y129056D01*
X342403Y129148D01*
X341698Y129056D01*
X341041Y128784D01*
X340477Y128351D01*
X340045Y127787D01*
X339426Y127599D01*
X339175Y127767D01*
X338278Y127945D01*
X337381Y127767D01*
X336620Y127258D01*
X336111Y126497D01*
X335933Y125600D01*
X336111Y124703D01*
X336577Y124006D01*
X336503Y123701D01*
X336311Y123306D01*
X138296D01*
Y278481D01*
X549658D01*
Y1020D01*
D02*
G37*
%LPC*%
G36*
X280478Y96145D02*
X279580Y95967D01*
X278820Y95458D01*
X278311Y94697D01*
X278133Y93800D01*
X278311Y92903D01*
X278820Y92142D01*
X279580Y91633D01*
X280478Y91455D01*
X281375Y91633D01*
X282136Y92142D01*
X282645Y92903D01*
X282823Y93800D01*
X282645Y94697D01*
X282136Y95458D01*
X281375Y95967D01*
X280478Y96145D01*
D02*
G37*
G36*
X224678Y97345D02*
X223780Y97167D01*
X223020Y96658D01*
X222511Y95897D01*
X222333Y95000D01*
X222511Y94103D01*
X223020Y93342D01*
X223780Y92834D01*
X224678Y92655D01*
X225575Y92834D01*
X226336Y93342D01*
X226845Y94103D01*
X227023Y95000D01*
X226845Y95897D01*
X226336Y96658D01*
X225575Y97167D01*
X224678Y97345D01*
D02*
G37*
G36*
X486403Y100670D02*
X485506Y100492D01*
X484745Y99983D01*
X484237Y99223D01*
X484058Y98325D01*
X484237Y97428D01*
X484745Y96667D01*
X485506Y96159D01*
X486403Y95980D01*
X487301Y96159D01*
X488061Y96667D01*
X488570Y97428D01*
X488748Y98325D01*
X488570Y99223D01*
X488061Y99983D01*
X487301Y100492D01*
X486403Y100670D01*
D02*
G37*
G36*
X175678Y97945D02*
X174780Y97767D01*
X174020Y97258D01*
X173511Y96497D01*
X173333Y95600D01*
X173455Y94985D01*
X173511Y94703D01*
X172928Y94322D01*
X172636Y94758D01*
X171875Y95266D01*
X170978Y95445D01*
X170080Y95266D01*
X169320Y94758D01*
X168811Y93997D01*
X168633Y93100D01*
X168732Y92600D01*
X168520Y92458D01*
X168011Y91697D01*
X167833Y90800D01*
X168011Y89903D01*
X168224Y89585D01*
X168316Y89446D01*
X167812Y88941D01*
X167647Y89052D01*
X167175Y89367D01*
X166278Y89545D01*
X165381Y89367D01*
X165178Y89231D01*
X164975Y89367D01*
X164078Y89545D01*
X163180Y89367D01*
X162420Y88858D01*
X161911Y88097D01*
X161733Y87200D01*
X161911Y86303D01*
X162420Y85542D01*
X163180Y85034D01*
X164078Y84855D01*
X164975Y85034D01*
X165178Y85169D01*
X165381Y85034D01*
X166278Y84855D01*
X167175Y85034D01*
X167936Y85542D01*
X168445Y86303D01*
X168623Y87200D01*
X168445Y88097D01*
X168232Y88415D01*
X168139Y88554D01*
X168644Y89059D01*
X168809Y88949D01*
X169281Y88634D01*
X170178Y88455D01*
X171075Y88634D01*
X171836Y89142D01*
X172345Y89903D01*
X172523Y90800D01*
X172424Y91300D01*
X172636Y91442D01*
X173144Y92203D01*
X173323Y93100D01*
X173201Y93715D01*
X173144Y93997D01*
X173728Y94378D01*
X174020Y93942D01*
X174780Y93433D01*
X175678Y93255D01*
X176575Y93433D01*
X177336Y93942D01*
X177845Y94703D01*
X178023Y95600D01*
X177845Y96497D01*
X177336Y97258D01*
X176575Y97767D01*
X175678Y97945D01*
D02*
G37*
G36*
X502978Y99249D02*
Y91450D01*
X510506D01*
X510364Y92899D01*
X509912Y94388D01*
X509178Y95760D01*
X508191Y96963D01*
X506988Y97950D01*
X505616Y98684D01*
X504127Y99136D01*
X502978Y99249D01*
D02*
G37*
G36*
X273478Y90545D02*
X272581Y90367D01*
X272342Y90207D01*
X272103Y90367D01*
X271205Y90545D01*
X270308Y90367D01*
X269547Y89858D01*
X269039Y89097D01*
X268861Y88200D01*
X269039Y87303D01*
X269547Y86542D01*
X270308Y86033D01*
X271205Y85855D01*
X272103Y86033D01*
X272342Y86193D01*
X272581Y86033D01*
X273478Y85855D01*
X274375Y86033D01*
X275136Y86542D01*
X275644Y87303D01*
X275823Y88200D01*
X275644Y89097D01*
X275136Y89858D01*
X274375Y90367D01*
X273478Y90545D01*
D02*
G37*
G36*
X463978Y94123D02*
X463273Y94030D01*
X462616Y93758D01*
X462052Y93326D01*
X461620Y92762D01*
X461347Y92105D01*
X461255Y91400D01*
X461347Y90695D01*
X461620Y90038D01*
X462052Y89474D01*
X462616Y89042D01*
X463029Y88871D01*
X463273Y88770D01*
X463164Y88086D01*
X462878Y88123D01*
X462173Y88030D01*
X461516Y87758D01*
X460952Y87326D01*
X460520Y86762D01*
X460248Y86105D01*
X460155Y85400D01*
X460248Y84695D01*
X460520Y84038D01*
X460952Y83474D01*
X461516Y83042D01*
X462173Y82770D01*
X462878Y82677D01*
X463035Y82697D01*
X463173Y82030D01*
X463033Y81973D01*
X462516Y81758D01*
X461952Y81326D01*
X461519Y80762D01*
X461247Y80105D01*
X461155Y79400D01*
X461239Y78758D01*
X461093Y78568D01*
X460683Y78231D01*
X459978Y78323D01*
X459273Y78231D01*
X458616Y77959D01*
X458439Y77822D01*
X458029Y77925D01*
X457665Y78111D01*
X457436Y78662D01*
X457004Y79226D01*
X456440Y79659D01*
X455783Y79931D01*
X455078Y80023D01*
X454373Y79931D01*
X453716Y79659D01*
X453152Y79226D01*
X452719Y78662D01*
X452448Y78005D01*
X452355Y77300D01*
X452448Y76595D01*
X452719Y75938D01*
X452911Y75689D01*
X452565Y74989D01*
X452098D01*
X449423Y72314D01*
Y61964D01*
X452098Y59289D01*
X452248Y58589D01*
X452047Y58105D01*
X451955Y57400D01*
X452047Y56695D01*
X452319Y56038D01*
X452752Y55474D01*
X453316Y55041D01*
X453973Y54769D01*
X454678Y54677D01*
X455383Y54769D01*
X456040Y55041D01*
X456604Y55474D01*
X457036Y56038D01*
X457308Y56695D01*
X457401Y57400D01*
X457308Y58105D01*
X457108Y58589D01*
X457423Y59289D01*
X457448D01*
X460123Y61964D01*
Y72314D01*
X460484Y72943D01*
X460683Y72970D01*
X461340Y73242D01*
X461904Y73674D01*
X462336Y74238D01*
X462608Y74895D01*
X462701Y75600D01*
X462617Y76242D01*
X462763Y76432D01*
X463173Y76770D01*
X463878Y76677D01*
X464583Y76770D01*
X465240Y77042D01*
X465804Y77474D01*
X466236Y78038D01*
X466508Y78695D01*
X466601Y79400D01*
X466508Y80105D01*
X466236Y80762D01*
X465804Y81326D01*
X465240Y81758D01*
X464583Y82030D01*
X463878Y82123D01*
X463721Y82103D01*
X463583Y82770D01*
X463723Y82827D01*
X464240Y83042D01*
X464804Y83474D01*
X465236Y84038D01*
X465509Y84695D01*
X465601Y85400D01*
X465509Y86105D01*
X465236Y86762D01*
X464804Y87326D01*
X464240Y87758D01*
X463827Y87929D01*
X463583Y88030D01*
X463692Y88714D01*
X463978Y88677D01*
X464683Y88770D01*
X465340Y89042D01*
X465904Y89474D01*
X466336Y90038D01*
X466608Y90695D01*
X466701Y91400D01*
X466608Y92105D01*
X466336Y92762D01*
X465904Y93326D01*
X465340Y93758D01*
X464683Y94030D01*
X463978Y94123D01*
D02*
G37*
G36*
X322678Y95245D02*
X321780Y95066D01*
X321020Y94558D01*
X320511Y93797D01*
X320333Y92900D01*
X320511Y92003D01*
X321020Y91242D01*
X321780Y90733D01*
X322678Y90555D01*
X323575Y90733D01*
X324336Y91242D01*
X324845Y92003D01*
X325023Y92900D01*
X324845Y93797D01*
X324336Y94558D01*
X323575Y95066D01*
X322678Y95245D01*
D02*
G37*
G36*
X502178Y99249D02*
X501029Y99136D01*
X499540Y98684D01*
X498168Y97950D01*
X496965Y96963D01*
X495978Y95760D01*
X495244Y94388D01*
X494792Y92899D01*
X494650Y91450D01*
X502178D01*
Y99249D01*
D02*
G37*
G36*
X190403Y98470D02*
X189506Y98292D01*
X188745Y97783D01*
X188237Y97023D01*
X188058Y96125D01*
X188237Y95228D01*
X188745Y94467D01*
X189506Y93959D01*
X190403Y93780D01*
X191301Y93959D01*
X191312Y93966D01*
X191645Y93467D01*
X192406Y92959D01*
X193303Y92780D01*
X193576Y92834D01*
X193637Y92528D01*
X194145Y91767D01*
X194906Y91259D01*
X195803Y91080D01*
X196701Y91259D01*
X197461Y91767D01*
X197970Y92528D01*
X198148Y93425D01*
X197970Y94323D01*
X197461Y95083D01*
X196701Y95592D01*
X195803Y95770D01*
X195531Y95716D01*
X195470Y96023D01*
X194961Y96783D01*
X194201Y97292D01*
X193303Y97470D01*
X192406Y97292D01*
X192395Y97284D01*
X192061Y97783D01*
X191301Y98292D01*
X190403Y98470D01*
D02*
G37*
G36*
X258578Y104645D02*
X257681Y104467D01*
X256920Y103958D01*
X256411Y103197D01*
X256233Y102300D01*
X256411Y101403D01*
X256920Y100642D01*
X257681Y100134D01*
X258578Y99955D01*
X259475Y100134D01*
X260236Y100642D01*
X260745Y101403D01*
X260923Y102300D01*
X260745Y103197D01*
X260236Y103958D01*
X259475Y104467D01*
X258578Y104645D01*
D02*
G37*
G36*
X383478Y104145D02*
X382580Y103967D01*
X381820Y103458D01*
X381311Y102697D01*
X381133Y101800D01*
X381311Y100903D01*
X381820Y100142D01*
X382580Y99634D01*
X383478Y99455D01*
X384375Y99634D01*
X385136Y100142D01*
X385645Y100903D01*
X385823Y101800D01*
X385645Y102697D01*
X385136Y103458D01*
X384375Y103967D01*
X383478Y104145D01*
D02*
G37*
G36*
X351578Y105423D02*
X350873Y105331D01*
X350216Y105058D01*
X349652Y104626D01*
X349219Y104062D01*
X348947Y103405D01*
X348855Y102700D01*
X348947Y101995D01*
X349219Y101338D01*
X349652Y100774D01*
X350216Y100341D01*
X350873Y100069D01*
X351578Y99977D01*
X352283Y100069D01*
X352940Y100341D01*
X353504Y100774D01*
X353936Y101338D01*
X354208Y101995D01*
X354301Y102700D01*
X354208Y103405D01*
X353936Y104062D01*
X353504Y104626D01*
X352940Y105058D01*
X352283Y105331D01*
X351578Y105423D01*
D02*
G37*
G36*
X166278Y107545D02*
X165381Y107367D01*
X164620Y106858D01*
X164111Y106097D01*
X163933Y105200D01*
X164111Y104303D01*
X164380Y103900D01*
X164111Y103497D01*
X163933Y102600D01*
X164111Y101703D01*
X164620Y100942D01*
X165381Y100434D01*
X166278Y100255D01*
X167175Y100434D01*
X167936Y100942D01*
X168445Y101703D01*
X168623Y102600D01*
X168445Y103497D01*
X168175Y103900D01*
X168445Y104303D01*
X168623Y105200D01*
X168445Y106097D01*
X167936Y106858D01*
X167175Y107367D01*
X166278Y107545D01*
D02*
G37*
G36*
X236678Y100745D02*
X235781Y100566D01*
X235020Y100058D01*
X234536D01*
X233775Y100566D01*
X232878Y100745D01*
X231980Y100566D01*
X231220Y100058D01*
X230711Y99297D01*
X230533Y98400D01*
X230711Y97503D01*
X231220Y96742D01*
X231980Y96233D01*
X232878Y96055D01*
X233775Y96233D01*
X234536Y96742D01*
X235020D01*
X235781Y96233D01*
X236678Y96055D01*
X237575Y96233D01*
X238042Y96545D01*
X238820Y96642D01*
X239580Y96134D01*
X240478Y95955D01*
X241375Y96134D01*
X242136Y96642D01*
X242645Y97403D01*
X242823Y98300D01*
X242645Y99197D01*
X242136Y99958D01*
X241375Y100467D01*
X240478Y100645D01*
X239580Y100467D01*
X239114Y100155D01*
X238336Y100058D01*
X237575Y100566D01*
X236678Y100745D01*
D02*
G37*
G36*
X330178Y101345D02*
X329280Y101166D01*
X328520Y100658D01*
X328011Y99897D01*
X327833Y99000D01*
X328011Y98103D01*
X328520Y97342D01*
X329280Y96833D01*
X330178Y96655D01*
X331075Y96833D01*
X331836Y97342D01*
X332345Y98103D01*
X332523Y99000D01*
X332345Y99897D01*
X331836Y100658D01*
X331075Y101166D01*
X330178Y101345D01*
D02*
G37*
G36*
X378378Y101523D02*
X377673Y101430D01*
X377016Y101158D01*
X376452Y100726D01*
X376020Y100162D01*
X375747Y99505D01*
X375655Y98800D01*
X375747Y98095D01*
X376020Y97438D01*
X376452Y96874D01*
X377016Y96442D01*
X377673Y96170D01*
X378378Y96077D01*
X379083Y96170D01*
X379740Y96442D01*
X380304Y96874D01*
X380736Y97438D01*
X381009Y98095D01*
X381101Y98800D01*
X381009Y99505D01*
X380736Y100162D01*
X380304Y100726D01*
X379740Y101158D01*
X379083Y101430D01*
X378378Y101523D01*
D02*
G37*
G36*
X336978Y101445D02*
X336081Y101267D01*
X335320Y100758D01*
X334811Y99997D01*
X334633Y99100D01*
X334811Y98203D01*
X335320Y97442D01*
X336081Y96934D01*
X336978Y96755D01*
X337875Y96934D01*
X338636Y97442D01*
X339144Y98203D01*
X339323Y99100D01*
X339144Y99997D01*
X338636Y100758D01*
X337875Y101267D01*
X336978Y101445D01*
D02*
G37*
G36*
X478703Y103970D02*
X477806Y103792D01*
X477045Y103283D01*
X476537Y102523D01*
X476358Y101625D01*
X476537Y100728D01*
X477045Y99967D01*
X477806Y99459D01*
X478703Y99280D01*
X479601Y99459D01*
X480361Y99967D01*
X480870Y100728D01*
X481048Y101625D01*
X480870Y102523D01*
X480361Y103283D01*
X479601Y103792D01*
X478703Y103970D01*
D02*
G37*
G36*
X210503Y103170D02*
X209606Y102992D01*
X208845Y102483D01*
X208337Y101723D01*
X208158Y100825D01*
X208337Y99928D01*
X208845Y99167D01*
X209606Y98659D01*
X210503Y98480D01*
X211401Y98659D01*
X212161Y99167D01*
X212670Y99928D01*
X212848Y100825D01*
X212670Y101723D01*
X212161Y102483D01*
X211401Y102992D01*
X210503Y103170D01*
D02*
G37*
G36*
X316620Y87060D02*
X315722Y86882D01*
X314962Y86373D01*
X314453Y85612D01*
X314275Y84715D01*
X314453Y83817D01*
X314962Y83057D01*
X315722Y82548D01*
X316620Y82370D01*
X317517Y82548D01*
X318278Y83057D01*
X318786Y83817D01*
X318965Y84715D01*
X318786Y85612D01*
X318278Y86373D01*
X317517Y86882D01*
X316620Y87060D01*
D02*
G37*
G36*
X254978Y88345D02*
X254081Y88166D01*
X253320Y87658D01*
X252811Y86897D01*
X252633Y86000D01*
X252811Y85103D01*
X253320Y84342D01*
X253948Y83922D01*
X254111Y83103D01*
X254620Y82342D01*
X255381Y81833D01*
X256278Y81655D01*
X257175Y81833D01*
X257936Y82342D01*
X258444Y83103D01*
X258623Y84000D01*
X258444Y84897D01*
X257936Y85658D01*
X257307Y86078D01*
X257144Y86897D01*
X256636Y87658D01*
X255875Y88166D01*
X254978Y88345D01*
D02*
G37*
G36*
X299297Y87060D02*
X298399Y86882D01*
X297639Y86373D01*
X297130Y85612D01*
X296952Y84715D01*
X297130Y83817D01*
X297639Y83057D01*
X298399Y82548D01*
X299297Y82370D01*
X300194Y82548D01*
X300955Y83057D01*
X301463Y83817D01*
X301642Y84715D01*
X301463Y85612D01*
X300955Y86373D01*
X300194Y86882D01*
X299297Y87060D01*
D02*
G37*
G36*
X502178Y90650D02*
X494650D01*
X494792Y89201D01*
X495244Y87712D01*
X495978Y86340D01*
X496965Y85137D01*
X498168Y84150D01*
X499540Y83416D01*
X500445Y83141D01*
X500297Y82455D01*
X500115Y82479D01*
X499778Y82523D01*
X499073Y82430D01*
X498416Y82158D01*
X497852Y81726D01*
X497420Y81162D01*
X497148Y80505D01*
X497055Y79800D01*
X497148Y79095D01*
X497420Y78438D01*
X497852Y77874D01*
X498416Y77442D01*
X499073Y77170D01*
X499778Y77077D01*
X500483Y77170D01*
X501140Y77442D01*
X501704Y77874D01*
X502136Y78438D01*
X502409Y79095D01*
X502501Y79800D01*
X502409Y80505D01*
X502136Y81162D01*
X501704Y81726D01*
X501140Y82158D01*
X500771Y82311D01*
X501003Y82960D01*
X501029Y82964D01*
X501121Y82955D01*
X502178Y82851D01*
Y90650D01*
D02*
G37*
G36*
X185178Y87245D02*
X184281Y87067D01*
X183520Y86558D01*
X183011Y85797D01*
X182833Y84900D01*
X183011Y84003D01*
X183520Y83242D01*
X184281Y82734D01*
X185178Y82555D01*
X186075Y82734D01*
X186836Y83242D01*
X187345Y84003D01*
X187523Y84900D01*
X187345Y85797D01*
X186836Y86558D01*
X186075Y87067D01*
X185178Y87245D01*
D02*
G37*
G36*
X276778Y84645D02*
X275881Y84466D01*
X275120Y83958D01*
X274611Y83197D01*
X274433Y82300D01*
X274611Y81403D01*
X275120Y80642D01*
X275881Y80133D01*
X276778Y79955D01*
X277675Y80133D01*
X278436Y80642D01*
X278944Y81403D01*
X279123Y82300D01*
X278944Y83197D01*
X278436Y83958D01*
X277675Y84466D01*
X276778Y84645D01*
D02*
G37*
G36*
X154478Y86645D02*
X153580Y86466D01*
X152820Y85958D01*
X152311Y85197D01*
X152133Y84300D01*
X152311Y83403D01*
X152447Y83200D01*
X152311Y82997D01*
X152133Y82100D01*
X152311Y81203D01*
X152820Y80442D01*
X153580Y79934D01*
X154478Y79755D01*
X155375Y79934D01*
X156136Y80442D01*
X156644Y81203D01*
X156823Y82100D01*
X156644Y82997D01*
X156509Y83200D01*
X156644Y83403D01*
X156823Y84300D01*
X156644Y85197D01*
X156136Y85958D01*
X155375Y86466D01*
X154478Y86645D01*
D02*
G37*
G36*
X374978Y85545D02*
X374080Y85366D01*
X373320Y84858D01*
X372811Y84097D01*
X372633Y83200D01*
X372811Y82303D01*
X373320Y81542D01*
X374080Y81033D01*
X374978Y80855D01*
X375875Y81033D01*
X376636Y81542D01*
X377145Y82303D01*
X377323Y83200D01*
X377145Y84097D01*
X376636Y84858D01*
X375875Y85366D01*
X374978Y85545D01*
D02*
G37*
G36*
X209978Y88345D02*
X209081Y88166D01*
X208320Y87658D01*
X207811Y86897D01*
X207633Y86000D01*
X207811Y85103D01*
X208320Y84342D01*
X208948Y83922D01*
X209111Y83103D01*
X209620Y82342D01*
X210381Y81833D01*
X211278Y81655D01*
X212175Y81833D01*
X212936Y82342D01*
X213444Y83103D01*
X213623Y84000D01*
X213444Y84897D01*
X212936Y85658D01*
X212307Y86078D01*
X212144Y86897D01*
X211636Y87658D01*
X210875Y88166D01*
X209978Y88345D01*
D02*
G37*
G36*
X245278Y83345D02*
X244380Y83166D01*
X243620Y82658D01*
X243111Y81897D01*
X243014Y81406D01*
X242270Y81258D01*
X241936Y81758D01*
X241175Y82266D01*
X240278Y82445D01*
X239381Y82266D01*
X238620Y81758D01*
X238111Y80997D01*
X237933Y80100D01*
X238111Y79203D01*
X238620Y78442D01*
X239381Y77934D01*
X240278Y77755D01*
X241175Y77934D01*
X241936Y78442D01*
X242444Y79203D01*
X242542Y79694D01*
X243285Y79842D01*
X243620Y79342D01*
X244380Y78834D01*
X245278Y78655D01*
X246175Y78834D01*
X246936Y79342D01*
X247445Y80103D01*
X247623Y81000D01*
X247445Y81897D01*
X246936Y82658D01*
X246175Y83166D01*
X245278Y83345D01*
D02*
G37*
G36*
X180603Y91970D02*
X179706Y91792D01*
X178945Y91283D01*
X178437Y90523D01*
X178258Y89625D01*
X178437Y88728D01*
X178945Y87967D01*
X179706Y87459D01*
X180603Y87280D01*
X181501Y87459D01*
X182261Y87967D01*
X182770Y88728D01*
X182948Y89625D01*
X182770Y90523D01*
X182261Y91283D01*
X181501Y91792D01*
X180603Y91970D01*
D02*
G37*
G36*
X407103Y110149D02*
X399703D01*
X399235Y110056D01*
X398838Y109790D01*
X395038Y105990D01*
X394773Y105593D01*
X394680Y105125D01*
Y103877D01*
X394695Y103800D01*
X394690Y103721D01*
X394741Y103568D01*
X394773Y103409D01*
X394817Y103343D01*
X394842Y103268D01*
X394948Y103147D01*
X395038Y103012D01*
X395327Y102710D01*
X394790Y101415D01*
X394607Y100025D01*
Y91775D01*
X394790Y90385D01*
X395327Y89090D01*
X395038Y88788D01*
X394948Y88653D01*
X394842Y88532D01*
X394817Y88457D01*
X394773Y88391D01*
X394741Y88232D01*
X394690Y88079D01*
X394695Y88000D01*
X394680Y87923D01*
Y87125D01*
X394773Y86657D01*
X395038Y86260D01*
X398980Y82318D01*
Y79113D01*
X398608Y78865D01*
X398280Y78744D01*
X397678Y78823D01*
X397484Y78798D01*
X396774Y79092D01*
X395678Y79236D01*
X394879Y79131D01*
X394178Y79223D01*
X393473Y79131D01*
X392816Y78859D01*
X392252Y78426D01*
X391820Y77862D01*
X391547Y77205D01*
X391455Y76500D01*
X391547Y75799D01*
X391442Y75000D01*
Y66400D01*
X391586Y65304D01*
X392009Y64282D01*
X392683Y63405D01*
X393560Y62731D01*
X394582Y62308D01*
X395678Y62164D01*
X396774Y62308D01*
X397796Y62731D01*
X398280Y63102D01*
X398980Y62757D01*
Y58590D01*
X399073Y58122D01*
X399338Y57725D01*
X402723Y54340D01*
X402768Y53885D01*
X403122Y52716D01*
X403698Y51639D01*
X404077Y51177D01*
Y42127D01*
X404171Y41659D01*
X404436Y41262D01*
X405638Y40060D01*
X406035Y39795D01*
X406503Y39702D01*
X419462D01*
X419930Y39795D01*
X420327Y40060D01*
X422268Y42002D01*
X422534Y42399D01*
X422627Y42867D01*
Y74225D01*
X422534Y74693D01*
X422268Y75090D01*
X415584Y81775D01*
X415604Y82074D01*
X416036Y82638D01*
X416308Y83295D01*
X416401Y84000D01*
X416308Y84705D01*
X416036Y85362D01*
X415604Y85926D01*
X415040Y86358D01*
X414383Y86630D01*
X413678Y86723D01*
X412973Y86630D01*
X412316Y86358D01*
X411752Y85926D01*
X411453Y85906D01*
X410627Y86732D01*
Y90465D01*
X411327Y90810D01*
X411416Y90741D01*
X412073Y90469D01*
X412778Y90377D01*
X413483Y90469D01*
X414042Y90701D01*
X414779Y90467D01*
X414790Y90385D01*
X415327Y89090D01*
X416180Y87977D01*
X417292Y87124D01*
X418588Y86587D01*
X419978Y86404D01*
X421368Y86587D01*
X422663Y87124D01*
X423776Y87977D01*
X424629Y89090D01*
X425166Y90385D01*
X425349Y91775D01*
Y100025D01*
X425166Y101415D01*
X424629Y102710D01*
X423776Y103823D01*
X422663Y104676D01*
X421368Y105213D01*
X419978Y105396D01*
X418588Y105213D01*
X417292Y104676D01*
X416180Y103823D01*
X415327Y102710D01*
X414790Y101415D01*
X414607Y100025D01*
Y95906D01*
X413907Y95555D01*
X413483Y95731D01*
X412778Y95823D01*
X412073Y95731D01*
X411416Y95459D01*
X411327Y95390D01*
X410627Y95735D01*
Y106625D01*
X410534Y107093D01*
X410268Y107490D01*
X407968Y109790D01*
X407571Y110056D01*
X407103Y110149D01*
D02*
G37*
G36*
X296203Y92170D02*
X295306Y91992D01*
X294545Y91483D01*
X294037Y90723D01*
X293858Y89825D01*
X294037Y88928D01*
X294545Y88167D01*
X295306Y87659D01*
X296203Y87480D01*
X297101Y87659D01*
X297861Y88167D01*
X298370Y88928D01*
X298548Y89825D01*
X298370Y90723D01*
X297861Y91483D01*
X297101Y91992D01*
X296203Y92170D01*
D02*
G37*
G36*
X356878Y92745D02*
X355980Y92567D01*
X355220Y92058D01*
X354711Y91297D01*
X354533Y90400D01*
X354711Y89503D01*
X354864Y89275D01*
X354611Y88897D01*
X354544Y88561D01*
X353767Y88239D01*
X353575Y88367D01*
X352678Y88545D01*
X351781Y88367D01*
X351020Y87858D01*
X350511Y87097D01*
X350333Y86200D01*
X350432Y85700D01*
X350220Y85558D01*
X349711Y84797D01*
X349533Y83900D01*
X349711Y83003D01*
X350220Y82242D01*
X350980Y81734D01*
X351878Y81555D01*
X352775Y81734D01*
X353536Y82242D01*
X354045Y83003D01*
X354223Y83900D01*
X354124Y84400D01*
X354336Y84542D01*
X354844Y85303D01*
X354911Y85639D01*
X355689Y85961D01*
X355880Y85834D01*
X356778Y85655D01*
X357675Y85834D01*
X358436Y86342D01*
X358945Y87103D01*
X359123Y88000D01*
X358945Y88897D01*
X358792Y89125D01*
X359045Y89503D01*
X359223Y90400D01*
X359045Y91297D01*
X358536Y92058D01*
X357775Y92567D01*
X356878Y92745D01*
D02*
G37*
G36*
X190178Y92645D02*
X189280Y92466D01*
X188520Y91958D01*
X188011Y91197D01*
X187833Y90300D01*
X188011Y89403D01*
X188520Y88642D01*
X189280Y88134D01*
X190178Y87955D01*
X191075Y88134D01*
X191836Y88642D01*
X192344Y89403D01*
X192523Y90300D01*
X192344Y91197D01*
X191836Y91958D01*
X191075Y92466D01*
X190178Y92645D01*
D02*
G37*
G36*
X225603Y88870D02*
X224706Y88692D01*
X223945Y88183D01*
X223437Y87423D01*
X223258Y86525D01*
X223437Y85628D01*
X223945Y84867D01*
X224706Y84359D01*
X225603Y84180D01*
X226501Y84359D01*
X227261Y84867D01*
X227770Y85628D01*
X227948Y86525D01*
X227770Y87423D01*
X227261Y88183D01*
X226501Y88692D01*
X225603Y88870D01*
D02*
G37*
G36*
X510506Y90650D02*
X502978D01*
Y82851D01*
X504127Y82964D01*
X505616Y83416D01*
X506988Y84150D01*
X508191Y85137D01*
X509178Y86340D01*
X509912Y87712D01*
X510364Y89201D01*
X510506Y90650D01*
D02*
G37*
G36*
X231878Y89245D02*
X230980Y89066D01*
X230220Y88558D01*
X229711Y87797D01*
X229533Y86900D01*
X229711Y86003D01*
X230220Y85242D01*
X230980Y84733D01*
X231878Y84555D01*
X232775Y84733D01*
X233536Y85242D01*
X234045Y86003D01*
X234223Y86900D01*
X234045Y87797D01*
X233536Y88558D01*
X232775Y89066D01*
X231878Y89245D01*
D02*
G37*
G36*
X367778Y89945D02*
X366880Y89767D01*
X366120Y89258D01*
X365611Y88497D01*
X365433Y87600D01*
X365611Y86703D01*
X366120Y85942D01*
X366880Y85434D01*
X367778Y85255D01*
X368675Y85434D01*
X369436Y85942D01*
X369945Y86703D01*
X370123Y87600D01*
X369945Y88497D01*
X369436Y89258D01*
X368675Y89767D01*
X367778Y89945D01*
D02*
G37*
G36*
X215478Y92145D02*
X214580Y91966D01*
X213820Y91458D01*
X213311Y90697D01*
X213133Y89800D01*
X213311Y88903D01*
X213514Y88600D01*
X213311Y88297D01*
X213133Y87400D01*
X213311Y86503D01*
X213820Y85742D01*
X214580Y85233D01*
X215478Y85055D01*
X216375Y85233D01*
X217136Y85742D01*
X217645Y86503D01*
X217823Y87400D01*
X217645Y88297D01*
X217442Y88600D01*
X217645Y88903D01*
X217823Y89800D01*
X217645Y90697D01*
X217136Y91458D01*
X216375Y91966D01*
X215478Y92145D01*
D02*
G37*
G36*
X221178Y101845D02*
X220281Y101666D01*
X219578Y101197D01*
X218875Y101666D01*
X217978Y101845D01*
X217080Y101666D01*
X216320Y101158D01*
X215811Y100397D01*
X215633Y99500D01*
X215811Y98603D01*
X216320Y97842D01*
X217080Y97334D01*
X217978Y97155D01*
X218875Y97334D01*
X219578Y97803D01*
X220281Y97334D01*
X221178Y97155D01*
X222075Y97334D01*
X222836Y97842D01*
X223344Y98603D01*
X223523Y99500D01*
X223344Y100397D01*
X222836Y101158D01*
X222075Y101666D01*
X221178Y101845D01*
D02*
G37*
G36*
X479778Y134323D02*
X479073Y134230D01*
X478416Y133958D01*
X477852Y133526D01*
X477420Y132962D01*
X477147Y132305D01*
X477055Y131600D01*
X477147Y130895D01*
X477420Y130238D01*
X477852Y129674D01*
X478416Y129242D01*
X479073Y128970D01*
X479778Y128877D01*
X480483Y128970D01*
X481140Y129242D01*
X481704Y129674D01*
X482136Y130238D01*
X482409Y130895D01*
X482501Y131600D01*
X482409Y132305D01*
X482136Y132962D01*
X481704Y133526D01*
X481140Y133958D01*
X480483Y134230D01*
X479778Y134323D01*
D02*
G37*
G36*
X484178Y128223D02*
X483473Y128130D01*
X482816Y127858D01*
X482252Y127426D01*
X481819Y126862D01*
X481671Y126503D01*
X481249Y126434D01*
X480901Y126466D01*
X480529Y126951D01*
X479965Y127384D01*
X479308Y127656D01*
X478603Y127749D01*
X477898Y127656D01*
X477242Y127384D01*
X476678Y126951D01*
X476469Y126680D01*
X475676Y126765D01*
X475636Y126862D01*
X475204Y127426D01*
X474640Y127858D01*
X473983Y128130D01*
X473278Y128223D01*
X472573Y128130D01*
X471916Y127858D01*
X471352Y127426D01*
X470920Y126862D01*
X470647Y126205D01*
X470555Y125500D01*
X470647Y124795D01*
X470920Y124138D01*
X471064Y123950D01*
X470719Y123250D01*
X468203D01*
X465528Y120575D01*
Y118085D01*
X464828Y117746D01*
X464383Y117930D01*
X463678Y118023D01*
X462973Y117930D01*
X462316Y117658D01*
X461752Y117226D01*
X461319Y116662D01*
X461048Y116005D01*
X460955Y115300D01*
X461048Y114595D01*
X461319Y113938D01*
X461752Y113374D01*
X462316Y112942D01*
X462973Y112670D01*
X463678Y112577D01*
X464383Y112670D01*
X464828Y112854D01*
X465528Y112515D01*
Y110225D01*
X468203Y107550D01*
X468608D01*
X468710Y107430D01*
X468918Y106850D01*
X468619Y106462D01*
X468348Y105805D01*
X468255Y105100D01*
X468348Y104395D01*
X468619Y103738D01*
X469052Y103174D01*
X469616Y102742D01*
X470273Y102470D01*
X470978Y102377D01*
X471683Y102470D01*
X472340Y102742D01*
X472904Y103174D01*
X473336Y103738D01*
X473608Y104395D01*
X473701Y105100D01*
X473608Y105805D01*
X473336Y106462D01*
X473038Y106850D01*
X473246Y107430D01*
X473348Y107550D01*
X473553D01*
X476228Y110225D01*
Y120575D01*
X474484Y122319D01*
X474640Y123141D01*
X474646Y123147D01*
X475204Y123574D01*
X475412Y123846D01*
X476205Y123760D01*
X476245Y123664D01*
X476678Y123100D01*
X477242Y122667D01*
X477898Y122395D01*
X478603Y122302D01*
X479308Y122395D01*
X479965Y122667D01*
X480244Y122881D01*
X480707Y122353D01*
X478928Y120575D01*
Y110225D01*
X481603Y107550D01*
X482046D01*
X482284Y106850D01*
X482252Y106826D01*
X481819Y106262D01*
X481547Y105605D01*
X481455Y104900D01*
X481547Y104195D01*
X481819Y103538D01*
X482252Y102974D01*
X482816Y102542D01*
X483473Y102269D01*
X484178Y102177D01*
X484883Y102269D01*
X485540Y102542D01*
X486104Y102974D01*
X486536Y103538D01*
X486808Y104195D01*
X486901Y104900D01*
X486808Y105605D01*
X486536Y106262D01*
X486104Y106826D01*
X486072Y106850D01*
X486309Y107550D01*
X486953D01*
X489628Y110225D01*
Y113815D01*
X489724Y113868D01*
X490328Y113997D01*
X490652Y113574D01*
X491216Y113142D01*
X491873Y112870D01*
X492578Y112777D01*
X493283Y112870D01*
X493940Y113142D01*
X494504Y113574D01*
X494936Y114138D01*
X495209Y114795D01*
X495301Y115500D01*
X495209Y116205D01*
X494936Y116862D01*
X494504Y117426D01*
X493940Y117858D01*
X493283Y118131D01*
X492578Y118223D01*
X491873Y118131D01*
X491216Y117858D01*
X490652Y117426D01*
X490328Y117003D01*
X489724Y117132D01*
X489628Y117185D01*
Y120575D01*
X486953Y123250D01*
X486737D01*
X486392Y123950D01*
X486536Y124138D01*
X486808Y124795D01*
X486901Y125500D01*
X486808Y126205D01*
X486536Y126862D01*
X486104Y127426D01*
X485540Y127858D01*
X484883Y128130D01*
X484178Y128223D01*
D02*
G37*
G36*
X314878Y138045D02*
X313981Y137867D01*
X313220Y137358D01*
X312711Y136597D01*
X312533Y135700D01*
X312711Y134803D01*
X313152Y134144D01*
X312737Y133523D01*
X312558Y132625D01*
X312737Y131728D01*
X313245Y130967D01*
X314006Y130459D01*
X314903Y130280D01*
X315801Y130459D01*
X316561Y130967D01*
X317070Y131728D01*
X317248Y132625D01*
X317070Y133523D01*
X316630Y134181D01*
X317044Y134803D01*
X317223Y135700D01*
X317044Y136597D01*
X316536Y137358D01*
X315775Y137867D01*
X314878Y138045D01*
D02*
G37*
G36*
X438303Y142870D02*
X437406Y142692D01*
X436645Y142183D01*
X436137Y141423D01*
X435958Y140525D01*
X436137Y139628D01*
X436645Y138867D01*
X437406Y138359D01*
X438303Y138180D01*
X439201Y138359D01*
X439961Y138867D01*
X440470Y139628D01*
X440648Y140525D01*
X440470Y141423D01*
X439961Y142183D01*
X439201Y142692D01*
X438303Y142870D01*
D02*
G37*
G36*
X296578Y133645D02*
X295680Y133467D01*
X294920Y132958D01*
X294898Y132926D01*
X294201Y133392D01*
X293303Y133570D01*
X292406Y133392D01*
X291645Y132883D01*
X291137Y132123D01*
X290958Y131225D01*
X291137Y130328D01*
X291645Y129567D01*
X292406Y129059D01*
X293303Y128880D01*
X294201Y129059D01*
X294961Y129567D01*
X294983Y129599D01*
X295680Y129133D01*
X296578Y128955D01*
X297475Y129133D01*
X298236Y129642D01*
X298745Y130403D01*
X298923Y131300D01*
X298745Y132197D01*
X298236Y132958D01*
X297475Y133467D01*
X296578Y133645D01*
D02*
G37*
G36*
X502678Y135223D02*
X501973Y135131D01*
X501316Y134858D01*
X500752Y134426D01*
X500319Y133862D01*
X500047Y133205D01*
X499955Y132500D01*
X500047Y131795D01*
X500093Y131685D01*
X499794Y131052D01*
X499617Y130998D01*
X498279Y130283D01*
X497107Y129321D01*
X496145Y128149D01*
X495430Y126811D01*
X495214Y126099D01*
X494392Y125802D01*
X494083Y125931D01*
X493378Y126023D01*
X492673Y125931D01*
X492016Y125658D01*
X491452Y125226D01*
X491019Y124662D01*
X490747Y124005D01*
X490655Y123300D01*
X490747Y122595D01*
X491019Y121938D01*
X491452Y121374D01*
X492016Y120942D01*
X492673Y120669D01*
X493378Y120577D01*
X494083Y120669D01*
X494527Y120853D01*
X495330Y120617D01*
X495430Y120289D01*
X496145Y118951D01*
X497107Y117779D01*
X498279Y116817D01*
X499617Y116102D01*
X500215Y115920D01*
X500422Y115126D01*
X500219Y114862D01*
X499948Y114205D01*
X499855Y113500D01*
X499948Y112795D01*
X500219Y112138D01*
X500652Y111574D01*
X501216Y111142D01*
X501873Y110870D01*
X502578Y110777D01*
X503283Y110870D01*
X503940Y111142D01*
X504504Y111574D01*
X504936Y112138D01*
X505208Y112795D01*
X505301Y113500D01*
X505208Y114205D01*
X504936Y114862D01*
X504734Y115126D01*
X504941Y115920D01*
X505539Y116102D01*
X506877Y116817D01*
X508049Y117779D01*
X509011Y118951D01*
X509726Y120289D01*
X509896Y120848D01*
X510710Y121120D01*
X511073Y120969D01*
X511778Y120877D01*
X512483Y120969D01*
X513140Y121242D01*
X513704Y121674D01*
X514136Y122238D01*
X514408Y122895D01*
X514501Y123600D01*
X514408Y124305D01*
X514136Y124962D01*
X513704Y125526D01*
X513140Y125958D01*
X512483Y126231D01*
X511778Y126323D01*
X511073Y126231D01*
X510683Y126069D01*
X509872Y126329D01*
X509726Y126811D01*
X509011Y128149D01*
X508049Y129321D01*
X506877Y130283D01*
X505539Y130998D01*
X505240Y131630D01*
X505308Y131795D01*
X505401Y132500D01*
X505308Y133205D01*
X505036Y133862D01*
X504604Y134426D01*
X504040Y134858D01*
X503383Y135131D01*
X502678Y135223D01*
D02*
G37*
G36*
X435003Y127948D02*
X434298Y127856D01*
X433641Y127584D01*
X433077Y127151D01*
X432645Y126587D01*
X432373Y125930D01*
X432280Y125225D01*
X432373Y124520D01*
X432645Y123864D01*
X433077Y123300D01*
X433641Y122867D01*
X434298Y122595D01*
X435003Y122502D01*
X435708Y122595D01*
X436365Y122867D01*
X436929Y123300D01*
X437362Y123864D01*
X437634Y124520D01*
X437726Y125225D01*
X437634Y125930D01*
X437362Y126587D01*
X436929Y127151D01*
X436365Y127584D01*
X435708Y127856D01*
X435003Y127948D01*
D02*
G37*
G36*
X288678Y130545D02*
X287780Y130367D01*
X287020Y129858D01*
X286511Y129097D01*
X286333Y128200D01*
X286511Y127303D01*
X287020Y126542D01*
X287780Y126033D01*
X288678Y125855D01*
X289575Y126033D01*
X290336Y126542D01*
X290844Y127303D01*
X291023Y128200D01*
X290844Y129097D01*
X290336Y129858D01*
X289575Y130367D01*
X288678Y130545D01*
D02*
G37*
G36*
X516278Y131523D02*
X515573Y131430D01*
X514916Y131158D01*
X514352Y130726D01*
X513919Y130162D01*
X513648Y129505D01*
X513555Y128800D01*
X513648Y128095D01*
X513919Y127438D01*
X514352Y126874D01*
X514916Y126442D01*
X515573Y126170D01*
X516278Y126077D01*
X516983Y126170D01*
X517640Y126442D01*
X518204Y126874D01*
X518636Y127438D01*
X518909Y128095D01*
X519001Y128800D01*
X518909Y129505D01*
X518636Y130162D01*
X518204Y130726D01*
X517640Y131158D01*
X516983Y131430D01*
X516278Y131523D01*
D02*
G37*
G36*
X306628Y135596D02*
X305731Y135417D01*
X304970Y134909D01*
X304462Y134148D01*
X304283Y133250D01*
X304462Y132353D01*
X304970Y131592D01*
X305700Y131104D01*
X305725Y130931D01*
X305711Y130524D01*
X305687Y130379D01*
X304945Y129883D01*
X304437Y129123D01*
X304258Y128225D01*
X304437Y127328D01*
X304945Y126567D01*
X305706Y126059D01*
X306603Y125880D01*
X307501Y126059D01*
X308261Y126567D01*
X308770Y127328D01*
X308948Y128225D01*
X308770Y129123D01*
X308261Y129883D01*
X307531Y130371D01*
X307506Y130545D01*
X307521Y130951D01*
X307545Y131097D01*
X308287Y131592D01*
X308795Y132353D01*
X308973Y133250D01*
X308795Y134148D01*
X308287Y134909D01*
X307526Y135417D01*
X306628Y135596D01*
D02*
G37*
G36*
X510506Y155650D02*
X502978D01*
Y147851D01*
X504127Y147964D01*
X505616Y148416D01*
X506988Y149150D01*
X508191Y150137D01*
X509178Y151340D01*
X509912Y152712D01*
X510364Y154201D01*
X510506Y155650D01*
D02*
G37*
G36*
X502178D02*
X494650D01*
X494792Y154201D01*
X495244Y152712D01*
X495978Y151340D01*
X496965Y150137D01*
X498168Y149150D01*
X499540Y148416D01*
X501029Y147964D01*
X502178Y147851D01*
Y155650D01*
D02*
G37*
G36*
X373517Y152263D02*
X366532D01*
X366631Y151514D01*
X367074Y150444D01*
X367779Y149525D01*
X368698Y148820D01*
X369769Y148376D01*
X370917Y148225D01*
X373517D01*
Y152263D01*
D02*
G37*
G36*
X337178Y155845D02*
X336280Y155667D01*
X335520Y155158D01*
X335011Y154397D01*
X334833Y153500D01*
X335011Y152603D01*
X335520Y151842D01*
X336280Y151333D01*
X337178Y151155D01*
X338075Y151333D01*
X338653Y151719D01*
X339381Y151233D01*
X340278Y151055D01*
X341175Y151233D01*
X341936Y151742D01*
X342444Y152503D01*
X342623Y153400D01*
X342444Y154297D01*
X341936Y155058D01*
X341175Y155567D01*
X340278Y155745D01*
X339381Y155567D01*
X338803Y155181D01*
X338075Y155667D01*
X337178Y155845D01*
D02*
G37*
G36*
X381303Y152263D02*
X374317D01*
Y148225D01*
X376917D01*
X378066Y148376D01*
X379136Y148820D01*
X380055Y149525D01*
X380761Y150444D01*
X381204Y151514D01*
X381303Y152263D01*
D02*
G37*
G36*
X319757Y146145D02*
X318859Y145967D01*
X318098Y145458D01*
X317590Y144697D01*
X317412Y143800D01*
X317590Y142903D01*
X318098Y142142D01*
X318859Y141633D01*
X319757Y141455D01*
X320654Y141633D01*
X321415Y142142D01*
X321923Y142903D01*
X322102Y143800D01*
X321923Y144697D01*
X321415Y145458D01*
X320654Y145967D01*
X319757Y146145D01*
D02*
G37*
G36*
X376917Y146899D02*
X370917D01*
X369821Y146755D01*
X368799Y146332D01*
X367922Y145659D01*
X367249Y144781D01*
X366825Y143759D01*
X366681Y142663D01*
X366825Y141567D01*
X367249Y140545D01*
X367922Y139667D01*
X368799Y138994D01*
X369821Y138571D01*
X370917Y138427D01*
X376917D01*
X378014Y138571D01*
X379035Y138994D01*
X379913Y139667D01*
X380586Y140545D01*
X381009Y141567D01*
X381154Y142663D01*
X381009Y143759D01*
X380586Y144781D01*
X379913Y145659D01*
X379035Y146332D01*
X378014Y146755D01*
X376917Y146899D01*
D02*
G37*
G36*
X325957Y146145D02*
X325059Y145967D01*
X324299Y145458D01*
X323790Y144697D01*
X323612Y143800D01*
X323790Y142903D01*
X324299Y142142D01*
X325059Y141633D01*
X325957Y141455D01*
X326854Y141633D01*
X327615Y142142D01*
X328123Y142903D01*
X328302Y143800D01*
X328123Y144697D01*
X327615Y145458D01*
X326854Y145967D01*
X325957Y146145D01*
D02*
G37*
G36*
X348403Y152470D02*
X347506Y152292D01*
X346745Y151783D01*
X346237Y151023D01*
X346058Y150125D01*
X346237Y149228D01*
X346745Y148467D01*
X347506Y147959D01*
X348403Y147780D01*
X349301Y147959D01*
X350061Y148467D01*
X350570Y149228D01*
X350748Y150125D01*
X350570Y151023D01*
X350061Y151783D01*
X349301Y152292D01*
X348403Y152470D01*
D02*
G37*
G36*
X281903Y147070D02*
X281006Y146892D01*
X280245Y146383D01*
X279737Y145623D01*
X279558Y144725D01*
X279737Y143828D01*
X280245Y143067D01*
X281006Y142559D01*
X281903Y142380D01*
X282801Y142559D01*
X283522Y143041D01*
X284280Y142533D01*
X285178Y142355D01*
X286075Y142533D01*
X286836Y143042D01*
X287345Y143803D01*
X287523Y144700D01*
X287345Y145597D01*
X286836Y146358D01*
X286075Y146867D01*
X285178Y147045D01*
X284280Y146867D01*
X283559Y146385D01*
X282801Y146892D01*
X281903Y147070D01*
D02*
G37*
G36*
X271778Y106645D02*
X270881Y106467D01*
X270278Y106064D01*
X269675Y106467D01*
X268778Y106645D01*
X267881Y106467D01*
X267120Y105958D01*
X266611Y105197D01*
X266433Y104300D01*
X266611Y103403D01*
X267120Y102642D01*
X267881Y102134D01*
X268778Y101955D01*
X269675Y102134D01*
X270278Y102536D01*
X270881Y102134D01*
X271778Y101955D01*
X272675Y102134D01*
X273436Y102642D01*
X273944Y103403D01*
X274123Y104300D01*
X273944Y105197D01*
X273436Y105958D01*
X272675Y106467D01*
X271778Y106645D01*
D02*
G37*
G36*
X303578Y107445D02*
X302680Y107267D01*
X301920Y106758D01*
X301575Y106243D01*
X301356Y106001D01*
X300707Y106045D01*
X300375Y106267D01*
X299478Y106445D01*
X298581Y106267D01*
X297820Y105758D01*
X297311Y104997D01*
X297133Y104100D01*
X297311Y103203D01*
X297820Y102442D01*
X298581Y101934D01*
X299478Y101755D01*
X300375Y101934D01*
X301136Y102442D01*
X301481Y102957D01*
X301700Y103199D01*
X302349Y103155D01*
X302680Y102933D01*
X303578Y102755D01*
X304475Y102933D01*
X305236Y103442D01*
X305745Y104203D01*
X305923Y105100D01*
X305745Y105997D01*
X305236Y106758D01*
X304475Y107267D01*
X303578Y107445D01*
D02*
G37*
G36*
X150078Y111445D02*
X149180Y111267D01*
X148420Y110758D01*
X147911Y109997D01*
X147733Y109100D01*
X147911Y108203D01*
X148420Y107442D01*
X149180Y106933D01*
X150078Y106755D01*
X150975Y106933D01*
X151736Y107442D01*
X152244Y108203D01*
X152423Y109100D01*
X152244Y109997D01*
X151736Y110758D01*
X150975Y111267D01*
X150078Y111445D01*
D02*
G37*
G36*
X347078Y109045D02*
X346181Y108867D01*
X345420Y108358D01*
X344948Y107651D01*
X344578Y107613D01*
X344208Y107651D01*
X343736Y108358D01*
X342975Y108867D01*
X342078Y109045D01*
X341180Y108867D01*
X340420Y108358D01*
X339911Y107597D01*
X339733Y106700D01*
X339911Y105803D01*
X340420Y105042D01*
X341180Y104533D01*
X342078Y104355D01*
X342975Y104533D01*
X343736Y105042D01*
X344208Y105749D01*
X344578Y105787D01*
X344948Y105749D01*
X345420Y105042D01*
X346181Y104533D01*
X347078Y104355D01*
X347975Y104533D01*
X348736Y105042D01*
X349244Y105803D01*
X349423Y106700D01*
X349244Y107597D01*
X348736Y108358D01*
X347975Y108867D01*
X347078Y109045D01*
D02*
G37*
G36*
X376917Y115797D02*
X370917D01*
X369821Y115653D01*
X368799Y115229D01*
X367922Y114556D01*
X367249Y113679D01*
X366825Y112657D01*
X366681Y111561D01*
X366825Y110464D01*
X367249Y109442D01*
X367922Y108565D01*
X368799Y107892D01*
X369821Y107469D01*
X370917Y107324D01*
X376917D01*
X378014Y107469D01*
X379035Y107892D01*
X379913Y108565D01*
X380586Y109442D01*
X381009Y110464D01*
X381154Y111561D01*
X381009Y112657D01*
X380586Y113679D01*
X379913Y114556D01*
X379035Y115229D01*
X378014Y115653D01*
X376917Y115797D01*
D02*
G37*
G36*
X500978Y107823D02*
X500273Y107730D01*
X499616Y107458D01*
X499052Y107026D01*
X498620Y106462D01*
X498348Y105805D01*
X498255Y105100D01*
X498348Y104395D01*
X498620Y103738D01*
X499052Y103174D01*
X499616Y102742D01*
X500273Y102470D01*
X500978Y102377D01*
X501683Y102470D01*
X502340Y102742D01*
X502904Y103174D01*
X503336Y103738D01*
X503609Y104395D01*
X503701Y105100D01*
X503609Y105805D01*
X503336Y106462D01*
X502904Y107026D01*
X502340Y107458D01*
X501683Y107730D01*
X500978Y107823D01*
D02*
G37*
G36*
X327078Y106145D02*
X326181Y105967D01*
X325420Y105458D01*
X324911Y104697D01*
X324733Y103800D01*
X324911Y102903D01*
X325420Y102142D01*
X326181Y101634D01*
X327078Y101455D01*
X327975Y101634D01*
X328736Y102142D01*
X329244Y102903D01*
X329423Y103800D01*
X329244Y104697D01*
X328736Y105458D01*
X327975Y105967D01*
X327078Y106145D01*
D02*
G37*
G36*
X516478Y109523D02*
X515773Y109431D01*
X515116Y109158D01*
X514552Y108726D01*
X514119Y108162D01*
X513847Y107505D01*
X513755Y106800D01*
X513847Y106095D01*
X514119Y105438D01*
X514552Y104874D01*
X515116Y104442D01*
X515773Y104169D01*
X516478Y104077D01*
X517183Y104169D01*
X517840Y104442D01*
X518404Y104874D01*
X518836Y105438D01*
X519108Y106095D01*
X519201Y106800D01*
X519108Y107505D01*
X518836Y108162D01*
X518404Y108726D01*
X517840Y109158D01*
X517183Y109431D01*
X516478Y109523D01*
D02*
G37*
G36*
X158578Y112145D02*
X157680Y111967D01*
X156920Y111458D01*
X156411Y110697D01*
X156233Y109800D01*
X156411Y108903D01*
X156920Y108142D01*
X157680Y107633D01*
X158578Y107455D01*
X158851Y107509D01*
X159011Y106703D01*
X159520Y105942D01*
X160281Y105433D01*
X161178Y105255D01*
X162075Y105433D01*
X162836Y105942D01*
X163345Y106703D01*
X163523Y107600D01*
X163345Y108497D01*
X162836Y109258D01*
X162075Y109767D01*
X161178Y109945D01*
X160905Y109891D01*
X160745Y110697D01*
X160236Y111458D01*
X159475Y111967D01*
X158578Y112145D01*
D02*
G37*
G36*
X229378Y109117D02*
X228481Y108938D01*
X227720Y108430D01*
X227211Y107669D01*
X227033Y106772D01*
X227211Y105874D01*
X227720Y105113D01*
X228481Y104605D01*
X229378Y104427D01*
X230275Y104605D01*
X231036Y105113D01*
X231544Y105874D01*
X231723Y106772D01*
X231544Y107669D01*
X231036Y108430D01*
X230275Y108938D01*
X229378Y109117D01*
D02*
G37*
G36*
X381303Y121161D02*
X374317D01*
Y117123D01*
X376917D01*
X378066Y117274D01*
X379136Y117717D01*
X380055Y118422D01*
X380761Y119342D01*
X381204Y120412D01*
X381303Y121161D01*
D02*
G37*
G36*
X373517D02*
X366532D01*
X366631Y120412D01*
X367074Y119342D01*
X367779Y118422D01*
X368698Y117717D01*
X369769Y117274D01*
X370917Y117123D01*
X373517D01*
Y121161D01*
D02*
G37*
G36*
X424828Y122795D02*
X423931Y122617D01*
X423170Y122109D01*
X422662Y121348D01*
X422483Y120450D01*
X422662Y119553D01*
X423170Y118792D01*
X423931Y118284D01*
X424828Y118105D01*
X425726Y118284D01*
X426487Y118792D01*
X426995Y119553D01*
X427173Y120450D01*
X426995Y121348D01*
X426487Y122109D01*
X425726Y122617D01*
X424828Y122795D01*
D02*
G37*
G36*
X376917Y125999D02*
X374317D01*
Y121961D01*
X381303D01*
X381204Y122709D01*
X380761Y123780D01*
X380055Y124699D01*
X379136Y125404D01*
X378066Y125847D01*
X376917Y125999D01*
D02*
G37*
G36*
X373517D02*
X370917D01*
X369769Y125847D01*
X368698Y125404D01*
X367779Y124699D01*
X367074Y123780D01*
X366631Y122709D01*
X366532Y121961D01*
X373517D01*
Y125999D01*
D02*
G37*
G36*
X179003Y113170D02*
X178106Y112992D01*
X177345Y112483D01*
X176837Y111723D01*
X176658Y110825D01*
X176837Y109928D01*
X177345Y109167D01*
X178106Y108659D01*
X179003Y108480D01*
X179901Y108659D01*
X180661Y109167D01*
X181170Y109928D01*
X181348Y110825D01*
X181170Y111723D01*
X180661Y112483D01*
X179901Y112992D01*
X179003Y113170D01*
D02*
G37*
G36*
X320078Y110945D02*
X319180Y110767D01*
X318420Y110258D01*
X317911Y109497D01*
X317733Y108600D01*
X317801Y108255D01*
X317206Y107660D01*
X316778Y107745D01*
X315880Y107567D01*
X315120Y107058D01*
X315041Y106940D01*
X314836Y106758D01*
X314075Y107267D01*
X313178Y107445D01*
X312281Y107267D01*
X311578Y106797D01*
X310875Y107267D01*
X309978Y107445D01*
X309081Y107267D01*
X308320Y106758D01*
X307811Y105997D01*
X307633Y105100D01*
X307811Y104203D01*
X308320Y103442D01*
X309081Y102933D01*
X309978Y102755D01*
X310875Y102933D01*
X311578Y103403D01*
X312281Y102933D01*
X313178Y102755D01*
X314075Y102933D01*
X314836Y103442D01*
X314915Y103560D01*
X315120Y103742D01*
X315880Y103233D01*
X316778Y103055D01*
X317675Y103233D01*
X318436Y103742D01*
X318945Y104503D01*
X319123Y105400D01*
X319054Y105745D01*
X319650Y106340D01*
X320078Y106255D01*
X320975Y106433D01*
X321736Y106942D01*
X322245Y107703D01*
X322423Y108600D01*
X322245Y109497D01*
X321736Y110258D01*
X320975Y110767D01*
X320078Y110945D01*
D02*
G37*
G36*
X342078Y117623D02*
X341373Y117531D01*
X340716Y117258D01*
X340152Y116826D01*
X339720Y116262D01*
X339447Y115605D01*
X339355Y114900D01*
X339447Y114195D01*
X339720Y113538D01*
X340152Y112974D01*
X340716Y112542D01*
X341373Y112269D01*
X342078Y112177D01*
X342783Y112269D01*
X343440Y112542D01*
X344004Y112974D01*
X344436Y113538D01*
X344708Y114195D01*
X344801Y114900D01*
X344708Y115605D01*
X344436Y116262D01*
X344004Y116826D01*
X343440Y117258D01*
X342783Y117531D01*
X342078Y117623D01*
D02*
G37*
G36*
X518478Y120623D02*
X517773Y120530D01*
X517116Y120258D01*
X516552Y119826D01*
X516119Y119262D01*
X515847Y118605D01*
X515755Y117900D01*
X515847Y117195D01*
X516119Y116538D01*
X516552Y115974D01*
X517116Y115542D01*
X517773Y115269D01*
X518478Y115177D01*
X519183Y115269D01*
X519840Y115542D01*
X520404Y115974D01*
X520836Y116538D01*
X521108Y117195D01*
X521201Y117900D01*
X521108Y118605D01*
X520836Y119262D01*
X520404Y119826D01*
X519840Y120258D01*
X519183Y120530D01*
X518478Y120623D01*
D02*
G37*
G36*
X284778Y116945D02*
X283880Y116767D01*
X283120Y116258D01*
X282611Y115497D01*
X282433Y114600D01*
X282611Y113703D01*
X283120Y112942D01*
X283880Y112433D01*
X284778Y112255D01*
X285675Y112433D01*
X286436Y112942D01*
X286945Y113703D01*
X287123Y114600D01*
X286945Y115497D01*
X286436Y116258D01*
X285675Y116767D01*
X284778Y116945D01*
D02*
G37*
G36*
X166988Y21698D02*
X166227Y21547D01*
X165582Y21116D01*
X165151Y20471D01*
X165000Y19710D01*
X165151Y18949D01*
X165582Y18304D01*
X166227Y17873D01*
X166988Y17722D01*
X167749Y17873D01*
X168394Y18304D01*
X168825Y18949D01*
X168976Y19710D01*
X168825Y20471D01*
X168394Y21116D01*
X167749Y21547D01*
X166988Y21698D01*
D02*
G37*
G36*
X146988D02*
X146227Y21547D01*
X145582Y21116D01*
X145151Y20471D01*
X145000Y19710D01*
X145151Y18949D01*
X145582Y18304D01*
X146227Y17873D01*
X146988Y17722D01*
X147749Y17873D01*
X148394Y18304D01*
X148825Y18949D01*
X148976Y19710D01*
X148825Y20471D01*
X148394Y21116D01*
X147749Y21547D01*
X146988Y21698D01*
D02*
G37*
G36*
X521004D02*
X520243Y21547D01*
X519598Y21116D01*
X519167Y20471D01*
X519016Y19710D01*
X519167Y18949D01*
X519598Y18304D01*
X520243Y17873D01*
X521004Y17722D01*
X521765Y17873D01*
X522410Y18304D01*
X522841Y18949D01*
X522992Y19710D01*
X522841Y20471D01*
X522410Y21116D01*
X521765Y21547D01*
X521004Y21698D01*
D02*
G37*
G36*
X441678Y26223D02*
X440973Y26131D01*
X440316Y25858D01*
X439752Y25426D01*
X439320Y24862D01*
X439047Y24205D01*
X438955Y23500D01*
X439047Y22795D01*
X439091Y22689D01*
X438698Y21989D01*
X437096Y20387D01*
X436504Y20426D01*
X435940Y20858D01*
X435283Y21131D01*
X434578Y21223D01*
X433873Y21131D01*
X433216Y20858D01*
X432652Y20426D01*
X432220Y19862D01*
X431948Y19205D01*
X431855Y18500D01*
X431948Y17795D01*
X432220Y17138D01*
X432652Y16574D01*
Y16126D01*
X432220Y15562D01*
X431948Y14905D01*
X431855Y14200D01*
X431948Y13495D01*
X432220Y12838D01*
X432395Y12610D01*
X432587Y12100D01*
X432395Y11590D01*
X432220Y11362D01*
X432119Y11119D01*
X431494Y10787D01*
X431272Y10828D01*
X430783Y11030D01*
X430078Y11123D01*
X429373Y11030D01*
X428716Y10758D01*
X428152Y10326D01*
X428119Y10282D01*
X427237D01*
X427204Y10326D01*
X426640Y10758D01*
X425983Y11030D01*
X425278Y11123D01*
X424573Y11030D01*
X423916Y10758D01*
X423352Y10326D01*
X422920Y9762D01*
X422647Y9105D01*
X422555Y8400D01*
X422647Y7695D01*
X422920Y7038D01*
X423352Y6474D01*
X423916Y6042D01*
X424573Y5770D01*
X425278Y5677D01*
X425983Y5770D01*
X426640Y6042D01*
X427204Y6474D01*
X427237Y6518D01*
X428119D01*
X428152Y6474D01*
X428716Y6042D01*
X429373Y5770D01*
X430078Y5677D01*
X430783Y5770D01*
X431440Y6042D01*
X432004Y6474D01*
X432436Y7038D01*
X432537Y7281D01*
X433162Y7613D01*
X433384Y7572D01*
X433873Y7369D01*
X434578Y7277D01*
X435283Y7369D01*
X435940Y7642D01*
X436504Y8074D01*
X436888Y8100D01*
X438698Y6289D01*
X444048D01*
X446723Y8964D01*
Y19314D01*
X444048Y21989D01*
X444233Y22613D01*
X444309Y22795D01*
X444401Y23500D01*
X444309Y24205D01*
X444036Y24862D01*
X443604Y25426D01*
X443040Y25858D01*
X442383Y26131D01*
X441678Y26223D01*
D02*
G37*
G36*
X541004Y21698D02*
X540243Y21547D01*
X539598Y21116D01*
X539167Y20471D01*
X539016Y19710D01*
X539167Y18949D01*
X539598Y18304D01*
X540243Y17873D01*
X541004Y17722D01*
X541765Y17873D01*
X542410Y18304D01*
X542841Y18949D01*
X542992Y19710D01*
X542841Y20471D01*
X542410Y21116D01*
X541765Y21547D01*
X541004Y21698D01*
D02*
G37*
G36*
X524004Y14698D02*
X523243Y14547D01*
X522598Y14116D01*
X522167Y13471D01*
X522016Y12710D01*
X522167Y11949D01*
X522598Y11304D01*
X523243Y10873D01*
X524004Y10722D01*
X524765Y10873D01*
X525410Y11304D01*
X525841Y11949D01*
X525992Y12710D01*
X525841Y13471D01*
X525410Y14116D01*
X524765Y14547D01*
X524004Y14698D01*
D02*
G37*
G36*
X163988D02*
X163227Y14547D01*
X162582Y14116D01*
X162151Y13471D01*
X162000Y12710D01*
X162151Y11949D01*
X162582Y11304D01*
X163227Y10873D01*
X163988Y10722D01*
X164749Y10873D01*
X165394Y11304D01*
X165825Y11949D01*
X165976Y12710D01*
X165825Y13471D01*
X165394Y14116D01*
X164749Y14547D01*
X163988Y14698D01*
D02*
G37*
G36*
X538004D02*
X537243Y14547D01*
X536598Y14116D01*
X536167Y13471D01*
X536016Y12710D01*
X536167Y11949D01*
X536598Y11304D01*
X537243Y10873D01*
X538004Y10722D01*
X538765Y10873D01*
X539410Y11304D01*
X539841Y11949D01*
X539992Y12710D01*
X539841Y13471D01*
X539410Y14116D01*
X538765Y14547D01*
X538004Y14698D01*
D02*
G37*
G36*
X531004Y26850D02*
X529611Y26713D01*
X528272Y26307D01*
X527037Y25647D01*
X525955Y24759D01*
X525067Y23677D01*
X524408Y22443D01*
X524001Y21103D01*
X523864Y19710D01*
X524001Y18317D01*
X524408Y16978D01*
X525067Y15743D01*
X525955Y14661D01*
X527037Y13774D01*
X528272Y13114D01*
X529611Y12708D01*
X531004Y12570D01*
X532397Y12708D01*
X533736Y13114D01*
X534971Y13774D01*
X536053Y14661D01*
X536941Y15743D01*
X537600Y16978D01*
X538007Y18317D01*
X538144Y19710D01*
X538007Y21103D01*
X537600Y22443D01*
X536941Y23677D01*
X536053Y24759D01*
X534971Y25647D01*
X533736Y26307D01*
X532397Y26713D01*
X531004Y26850D01*
D02*
G37*
G36*
X156988D02*
X155595Y26713D01*
X154256Y26307D01*
X153022Y25647D01*
X151939Y24759D01*
X151052Y23677D01*
X150392Y22443D01*
X149986Y21103D01*
X149848Y19710D01*
X149986Y18317D01*
X150392Y16978D01*
X151052Y15743D01*
X151939Y14661D01*
X153022Y13774D01*
X154256Y13114D01*
X155595Y12708D01*
X156988Y12570D01*
X158381Y12708D01*
X159721Y13114D01*
X160955Y13774D01*
X162037Y14661D01*
X162925Y15743D01*
X163585Y16978D01*
X163991Y18317D01*
X164128Y19710D01*
X163991Y21103D01*
X163585Y22443D01*
X162925Y23677D01*
X162037Y24759D01*
X160955Y25647D01*
X159721Y26307D01*
X158381Y26713D01*
X156988Y26850D01*
D02*
G37*
G36*
X538004Y28698D02*
X537243Y28547D01*
X536598Y28116D01*
X536167Y27471D01*
X536016Y26710D01*
X536167Y25949D01*
X536598Y25304D01*
X537243Y24873D01*
X538004Y24722D01*
X538765Y24873D01*
X539410Y25304D01*
X539841Y25949D01*
X539992Y26710D01*
X539841Y27471D01*
X539410Y28116D01*
X538765Y28547D01*
X538004Y28698D01*
D02*
G37*
G36*
X524004D02*
X523243Y28547D01*
X522598Y28116D01*
X522167Y27471D01*
X522016Y26710D01*
X522167Y25949D01*
X522598Y25304D01*
X523243Y24873D01*
X524004Y24722D01*
X524765Y24873D01*
X525410Y25304D01*
X525841Y25949D01*
X525992Y26710D01*
X525841Y27471D01*
X525410Y28116D01*
X524765Y28547D01*
X524004Y28698D01*
D02*
G37*
G36*
X497578Y30423D02*
X496873Y30331D01*
X496216Y30058D01*
X495652Y29626D01*
X495220Y29062D01*
X494947Y28405D01*
X494855Y27700D01*
X494947Y26995D01*
X495220Y26338D01*
X495584Y25864D01*
X495441Y25466D01*
X495214Y25240D01*
X494578Y25323D01*
X493873Y25231D01*
X493216Y24958D01*
X492652Y24526D01*
X492219Y23962D01*
X491948Y23305D01*
X491855Y22600D01*
X491948Y21895D01*
X492219Y21238D01*
X492230Y21225D01*
X492112Y20872D01*
X491879Y20532D01*
X491298Y20456D01*
X490641Y20184D01*
X490077Y19751D01*
X489787Y19373D01*
X489106Y19376D01*
X488983Y19420D01*
X486453Y21950D01*
X486396D01*
X486051Y22650D01*
X486062Y22664D01*
X486334Y23320D01*
X486426Y24025D01*
X486334Y24730D01*
X486062Y25387D01*
X485629Y25951D01*
X485065Y26384D01*
X484408Y26656D01*
X483703Y26748D01*
X482998Y26656D01*
X482341Y26384D01*
X481777Y25951D01*
X481345Y25387D01*
X481073Y24730D01*
X480980Y24025D01*
X481073Y23320D01*
X481345Y22664D01*
X481355Y22650D01*
X481103Y21950D01*
X478428Y19275D01*
Y8925D01*
X481103Y6250D01*
X486453D01*
X489128Y8925D01*
Y15987D01*
X489828Y16225D01*
X490077Y15900D01*
X490641Y15467D01*
X491298Y15195D01*
X492003Y15102D01*
X492708Y15195D01*
X493365Y15467D01*
X493929Y15900D01*
X494362Y16464D01*
X494634Y17120D01*
X494727Y17825D01*
X494634Y18530D01*
X494362Y19187D01*
X494351Y19200D01*
X494469Y19553D01*
X494702Y19893D01*
X495283Y19970D01*
X495940Y20242D01*
X496504Y20674D01*
X496936Y21238D01*
X497120Y21681D01*
X497834Y21734D01*
X497858Y21727D01*
X498020Y21338D01*
X498452Y20774D01*
X499016Y20342D01*
X499673Y20069D01*
X500378Y19977D01*
X501083Y20069D01*
X501740Y20342D01*
X502304Y20774D01*
X502736Y21338D01*
X503009Y21995D01*
X503101Y22700D01*
X503009Y23405D01*
X502736Y24062D01*
X502304Y24626D01*
X501740Y25058D01*
X501083Y25330D01*
X500378Y25423D01*
X500087Y25385D01*
X499708Y26041D01*
X499936Y26338D01*
X500209Y26995D01*
X500301Y27700D01*
X500209Y28405D01*
X499936Y29062D01*
X499504Y29626D01*
X498940Y30058D01*
X498283Y30331D01*
X497578Y30423D01*
D02*
G37*
G36*
X192403Y32870D02*
X191506Y32692D01*
X190745Y32183D01*
X190237Y31423D01*
X190058Y30525D01*
X190237Y29628D01*
X190506Y29225D01*
X190237Y28823D01*
X190058Y27925D01*
X190237Y27028D01*
X190745Y26267D01*
X191506Y25759D01*
X192403Y25580D01*
X193301Y25759D01*
X194061Y26267D01*
X194570Y27028D01*
X194748Y27925D01*
X194570Y28823D01*
X194301Y29225D01*
X194570Y29628D01*
X194748Y30525D01*
X194570Y31423D01*
X194061Y32183D01*
X193301Y32692D01*
X192403Y32870D01*
D02*
G37*
G36*
X182903Y32670D02*
X182006Y32492D01*
X181245Y31983D01*
X180737Y31223D01*
X180558Y30325D01*
X180737Y29428D01*
X181006Y29025D01*
X180737Y28623D01*
X180558Y27725D01*
X180737Y26828D01*
X181245Y26067D01*
X182006Y25559D01*
X182903Y25380D01*
X183801Y25559D01*
X184561Y26067D01*
X185070Y26828D01*
X185248Y27725D01*
X185070Y28623D01*
X184801Y29025D01*
X185070Y29428D01*
X185248Y30325D01*
X185070Y31223D01*
X184561Y31983D01*
X183801Y32492D01*
X182903Y32670D01*
D02*
G37*
G36*
X212303Y30170D02*
X211406Y29992D01*
X210645Y29483D01*
X210137Y28723D01*
X209958Y27825D01*
X210137Y26928D01*
X210356Y26600D01*
X210037Y26123D01*
X209858Y25225D01*
X210037Y24328D01*
X210545Y23567D01*
X211306Y23059D01*
X212203Y22880D01*
X213101Y23059D01*
X213861Y23567D01*
X214370Y24328D01*
X214548Y25225D01*
X214370Y26123D01*
X214151Y26450D01*
X214470Y26928D01*
X214648Y27825D01*
X214470Y28723D01*
X213961Y29483D01*
X213201Y29992D01*
X212303Y30170D01*
D02*
G37*
G36*
X331178Y25545D02*
X330280Y25367D01*
X329520Y24858D01*
X329011Y24097D01*
X328833Y23200D01*
X329011Y22303D01*
X329520Y21542D01*
X330280Y21033D01*
X331178Y20855D01*
X332075Y21033D01*
X332836Y21542D01*
X333345Y22303D01*
X333523Y23200D01*
X333345Y24097D01*
X332836Y24858D01*
X332075Y25367D01*
X331178Y25545D01*
D02*
G37*
G36*
X199803Y30745D02*
X198906Y30567D01*
X198145Y30058D01*
X197637Y29297D01*
X197458Y28400D01*
X197637Y27503D01*
X197839Y27200D01*
X197637Y26897D01*
X197458Y26000D01*
X197637Y25103D01*
X198145Y24342D01*
X198906Y23833D01*
X199803Y23655D01*
X200701Y23833D01*
X201461Y24342D01*
X201970Y25103D01*
X202148Y26000D01*
X201970Y26897D01*
X201767Y27200D01*
X201970Y27503D01*
X202148Y28400D01*
X201970Y29297D01*
X201461Y30058D01*
X200701Y30567D01*
X199803Y30745D01*
D02*
G37*
G36*
X163988Y28698D02*
X163227Y28547D01*
X162582Y28116D01*
X162151Y27471D01*
X162000Y26710D01*
X162151Y25949D01*
X162582Y25304D01*
X163227Y24873D01*
X163988Y24722D01*
X164749Y24873D01*
X165394Y25304D01*
X165825Y25949D01*
X165976Y26710D01*
X165825Y27471D01*
X165394Y28116D01*
X164749Y28547D01*
X163988Y28698D01*
D02*
G37*
G36*
X149988D02*
X149227Y28547D01*
X148582Y28116D01*
X148151Y27471D01*
X148000Y26710D01*
X148151Y25949D01*
X148582Y25304D01*
X149227Y24873D01*
X149988Y24722D01*
X150749Y24873D01*
X151394Y25304D01*
X151825Y25949D01*
X151976Y26710D01*
X151825Y27471D01*
X151394Y28116D01*
X150749Y28547D01*
X149988Y28698D01*
D02*
G37*
G36*
Y14698D02*
X149227Y14547D01*
X148582Y14116D01*
X148151Y13471D01*
X148000Y12710D01*
X148151Y11949D01*
X148582Y11304D01*
X149227Y10873D01*
X149988Y10722D01*
X150749Y10873D01*
X151394Y11304D01*
X151825Y11949D01*
X151976Y12710D01*
X151825Y13471D01*
X151394Y14116D01*
X150749Y14547D01*
X149988Y14698D01*
D02*
G37*
G36*
X287665Y19061D02*
X286569Y18917D01*
X285547Y18494D01*
X284670Y17821D01*
X283997Y16943D01*
X283574Y15922D01*
X283429Y14825D01*
Y8825D01*
X283574Y7729D01*
X283997Y6707D01*
X284670Y5830D01*
X285547Y5156D01*
X286569Y4733D01*
X287665Y4589D01*
X288762Y4733D01*
X289784Y5156D01*
X290661Y5830D01*
X291334Y6707D01*
X291757Y7729D01*
X291902Y8825D01*
Y14825D01*
X291757Y15922D01*
X291334Y16943D01*
X290661Y17821D01*
X289784Y18494D01*
X288762Y18917D01*
X287665Y19061D01*
D02*
G37*
G36*
X256484D02*
X255388Y18917D01*
X254366Y18494D01*
X253489Y17821D01*
X252816Y16943D01*
X252392Y15922D01*
X252248Y14825D01*
Y8825D01*
X252392Y7729D01*
X252816Y6707D01*
X253489Y5830D01*
X254366Y5156D01*
X255388Y4733D01*
X256484Y4589D01*
X257581Y4733D01*
X258602Y5156D01*
X259480Y5830D01*
X260153Y6707D01*
X260576Y7729D01*
X260720Y8825D01*
Y14825D01*
X260576Y15922D01*
X260153Y16943D01*
X259480Y17821D01*
X258602Y18494D01*
X257581Y18917D01*
X256484Y19061D01*
D02*
G37*
G36*
X297665D02*
X296569Y18917D01*
X295547Y18494D01*
X294670Y17821D01*
X293997Y16943D01*
X293573Y15922D01*
X293429Y14825D01*
Y8825D01*
X293573Y7729D01*
X293997Y6707D01*
X294670Y5830D01*
X295547Y5156D01*
X296569Y4733D01*
X297665Y4589D01*
X298762Y4733D01*
X299783Y5156D01*
X300661Y5830D01*
X301334Y6707D01*
X301757Y7729D01*
X301902Y8825D01*
Y14825D01*
X301757Y15922D01*
X301334Y16943D01*
X300661Y17821D01*
X299783Y18494D01*
X298762Y18917D01*
X297665Y19061D01*
D02*
G37*
G36*
X219503Y19025D02*
X211103D01*
Y4625D01*
X219503D01*
Y19025D01*
D02*
G37*
G36*
X307665Y19061D02*
X306569Y18917D01*
X305547Y18494D01*
X304670Y17821D01*
X303997Y16943D01*
X303573Y15922D01*
X303429Y14825D01*
Y8825D01*
X303573Y7729D01*
X303997Y6707D01*
X304670Y5830D01*
X305547Y5156D01*
X306569Y4733D01*
X307665Y4589D01*
X308762Y4733D01*
X309784Y5156D01*
X310661Y5830D01*
X311334Y6707D01*
X311757Y7729D01*
X311902Y8825D01*
Y14825D01*
X311757Y15922D01*
X311334Y16943D01*
X310661Y17821D01*
X309784Y18494D01*
X308762Y18917D01*
X307665Y19061D01*
D02*
G37*
G36*
X195303D02*
X194207Y18917D01*
X193185Y18494D01*
X192308Y17821D01*
X191635Y16943D01*
X191211Y15922D01*
X191067Y14825D01*
Y8825D01*
X191211Y7729D01*
X191635Y6707D01*
X192308Y5830D01*
X193185Y5156D01*
X194207Y4733D01*
X195303Y4589D01*
X196400Y4733D01*
X197421Y5156D01*
X198299Y5830D01*
X198972Y6707D01*
X199395Y7729D01*
X199539Y8825D01*
Y14825D01*
X199395Y15922D01*
X198972Y16943D01*
X198299Y17821D01*
X197421Y18494D01*
X196400Y18917D01*
X195303Y19061D01*
D02*
G37*
G36*
X185303D02*
X184207Y18917D01*
X183185Y18494D01*
X182308Y17821D01*
X181634Y16943D01*
X181211Y15922D01*
X181067Y14825D01*
Y8825D01*
X181211Y7729D01*
X181634Y6707D01*
X182308Y5830D01*
X183185Y5156D01*
X184207Y4733D01*
X185303Y4589D01*
X186400Y4733D01*
X187421Y5156D01*
X188299Y5830D01*
X188972Y6707D01*
X189395Y7729D01*
X189539Y8825D01*
Y14825D01*
X189395Y15922D01*
X188972Y16943D01*
X188299Y17821D01*
X187421Y18494D01*
X186400Y18917D01*
X185303Y19061D01*
D02*
G37*
G36*
X205303D02*
X204207Y18917D01*
X203185Y18494D01*
X202308Y17821D01*
X201635Y16943D01*
X201211Y15922D01*
X201067Y14825D01*
Y8825D01*
X201211Y7729D01*
X201635Y6707D01*
X202308Y5830D01*
X203185Y5156D01*
X204207Y4733D01*
X205303Y4589D01*
X206400Y4733D01*
X207421Y5156D01*
X208299Y5830D01*
X208972Y6707D01*
X209395Y7729D01*
X209539Y8825D01*
Y14825D01*
X209395Y15922D01*
X208972Y16943D01*
X208299Y17821D01*
X207421Y18494D01*
X206400Y18917D01*
X205303Y19061D01*
D02*
G37*
G36*
X246484D02*
X245388Y18917D01*
X244366Y18494D01*
X243489Y17821D01*
X242816Y16943D01*
X242392Y15922D01*
X242248Y14825D01*
Y8825D01*
X242392Y7729D01*
X242816Y6707D01*
X243489Y5830D01*
X244366Y5156D01*
X245388Y4733D01*
X246484Y4589D01*
X247581Y4733D01*
X248602Y5156D01*
X249480Y5830D01*
X250153Y6707D01*
X250576Y7729D01*
X250721Y8825D01*
Y14825D01*
X250576Y15922D01*
X250153Y16943D01*
X249480Y17821D01*
X248602Y18494D01*
X247581Y18917D01*
X246484Y19061D01*
D02*
G37*
G36*
X236484D02*
X235388Y18917D01*
X234366Y18494D01*
X233489Y17821D01*
X232816Y16943D01*
X232392Y15922D01*
X232248Y14825D01*
Y8825D01*
X232392Y7729D01*
X232816Y6707D01*
X233489Y5830D01*
X234366Y5156D01*
X235388Y4733D01*
X236484Y4589D01*
X237581Y4733D01*
X238602Y5156D01*
X239480Y5830D01*
X240153Y6707D01*
X240576Y7729D01*
X240721Y8825D01*
Y14825D01*
X240576Y15922D01*
X240153Y16943D01*
X239480Y17821D01*
X238602Y18494D01*
X237581Y18917D01*
X236484Y19061D01*
D02*
G37*
G36*
X470278Y26223D02*
X469573Y26131D01*
X468916Y25858D01*
X468352Y25426D01*
X467919Y24862D01*
X467648Y24205D01*
X467555Y23500D01*
X467648Y22795D01*
X467708Y22650D01*
X467703Y21950D01*
X465028Y19275D01*
Y17130D01*
X464678Y16823D01*
X463973Y16730D01*
X463316Y16458D01*
X462752Y16026D01*
X462320Y15462D01*
X462047Y14805D01*
X461955Y14100D01*
X462047Y13395D01*
X462320Y12738D01*
X462752Y12174D01*
X463316Y11742D01*
X463973Y11469D01*
X464678Y11377D01*
X465028Y11070D01*
Y8925D01*
X467703Y6250D01*
X473053D01*
X475728Y8925D01*
Y19275D01*
X473053Y21950D01*
X472848Y22650D01*
X472908Y22795D01*
X473001Y23500D01*
X472908Y24205D01*
X472636Y24862D01*
X472204Y25426D01*
X471640Y25858D01*
X470983Y26131D01*
X470278Y26223D01*
D02*
G37*
G36*
X373086Y19065D02*
X364686D01*
Y4665D01*
X373086D01*
Y19065D01*
D02*
G37*
G36*
X457448Y21989D02*
X452098D01*
X449423Y19314D01*
Y8964D01*
X452098Y6289D01*
X457448D01*
X460123Y8964D01*
Y19314D01*
X457448Y21989D01*
D02*
G37*
G36*
X531004Y11698D02*
X530243Y11547D01*
X529598Y11116D01*
X529167Y10471D01*
X529016Y9710D01*
X529167Y8949D01*
X529598Y8304D01*
X530243Y7873D01*
X531004Y7722D01*
X531765Y7873D01*
X532410Y8304D01*
X532841Y8949D01*
X532992Y9710D01*
X532841Y10471D01*
X532410Y11116D01*
X531765Y11547D01*
X531004Y11698D01*
D02*
G37*
G36*
X156988D02*
X156227Y11547D01*
X155582Y11116D01*
X155151Y10471D01*
X155000Y9710D01*
X155151Y8949D01*
X155582Y8304D01*
X156227Y7873D01*
X156988Y7722D01*
X157749Y7873D01*
X158394Y8304D01*
X158825Y8949D01*
X158976Y9710D01*
X158825Y10471D01*
X158394Y11116D01*
X157749Y11547D01*
X156988Y11698D01*
D02*
G37*
G36*
X321865Y19025D02*
X313465D01*
Y4625D01*
X321865D01*
Y19025D01*
D02*
G37*
G36*
X270684D02*
X262284D01*
Y4625D01*
X270684D01*
Y19025D01*
D02*
G37*
G36*
X338886Y19101D02*
X337789Y18957D01*
X336768Y18533D01*
X335890Y17860D01*
X335217Y16983D01*
X334794Y15961D01*
X334650Y14865D01*
Y8865D01*
X334794Y7768D01*
X335217Y6746D01*
X335890Y5869D01*
X336768Y5196D01*
X337789Y4773D01*
X338886Y4628D01*
X339982Y4773D01*
X341004Y5196D01*
X341881Y5869D01*
X342554Y6746D01*
X342978Y7768D01*
X343122Y8865D01*
Y14865D01*
X342978Y15961D01*
X342554Y16983D01*
X341881Y17860D01*
X341004Y18533D01*
X339982Y18957D01*
X338886Y19101D01*
D02*
G37*
G36*
X358886D02*
X357789Y18957D01*
X356768Y18533D01*
X355890Y17860D01*
X355217Y16983D01*
X354794Y15961D01*
X354650Y14865D01*
Y8865D01*
X354794Y7768D01*
X355217Y6746D01*
X355890Y5869D01*
X356768Y5196D01*
X357789Y4773D01*
X358886Y4628D01*
X359982Y4773D01*
X361004Y5196D01*
X361881Y5869D01*
X362555Y6746D01*
X362978Y7768D01*
X363122Y8865D01*
Y14865D01*
X362978Y15961D01*
X362555Y16983D01*
X361881Y17860D01*
X361004Y18533D01*
X359982Y18957D01*
X358886Y19101D01*
D02*
G37*
G36*
X348886D02*
X347789Y18957D01*
X346768Y18533D01*
X345890Y17860D01*
X345217Y16983D01*
X344794Y15961D01*
X344650Y14865D01*
Y8865D01*
X344794Y7768D01*
X345217Y6746D01*
X345890Y5869D01*
X346768Y5196D01*
X347789Y4773D01*
X348886Y4628D01*
X349982Y4773D01*
X351004Y5196D01*
X351881Y5869D01*
X352554Y6746D01*
X352978Y7768D01*
X353122Y8865D01*
Y14865D01*
X352978Y15961D01*
X352554Y16983D01*
X351881Y17860D01*
X351004Y18533D01*
X349982Y18957D01*
X348886Y19101D01*
D02*
G37*
G36*
X470478Y50523D02*
X469773Y50431D01*
X469116Y50158D01*
X468552Y49726D01*
X468119Y49162D01*
X467847Y48505D01*
X467755Y47800D01*
X467847Y47095D01*
X468119Y46438D01*
X468552Y45874D01*
X469116Y45442D01*
X469773Y45169D01*
X470478Y45077D01*
X471183Y45169D01*
X471840Y45442D01*
X472404Y45874D01*
X472836Y46438D01*
X473108Y47095D01*
X473201Y47800D01*
X473108Y48505D01*
X472836Y49162D01*
X472404Y49726D01*
X471840Y50158D01*
X471183Y50431D01*
X470478Y50523D01*
D02*
G37*
G36*
X488878Y48145D02*
X487981Y47967D01*
X487220Y47458D01*
X486711Y46697D01*
X486533Y45800D01*
X486711Y44903D01*
X487220Y44142D01*
X487981Y43633D01*
X488878Y43455D01*
X489775Y43633D01*
X490536Y44142D01*
X491045Y44903D01*
X491223Y45800D01*
X491045Y46697D01*
X490536Y47458D01*
X489775Y47967D01*
X488878Y48145D01*
D02*
G37*
G36*
X361178Y49145D02*
X360280Y48967D01*
X359520Y48458D01*
X359011Y47697D01*
X358833Y46800D01*
X358854Y46694D01*
X358194Y46421D01*
X358036Y46658D01*
X357275Y47167D01*
X356378Y47345D01*
X355481Y47167D01*
X354720Y46658D01*
X354211Y45897D01*
X354033Y45000D01*
X354211Y44103D01*
X354347Y43900D01*
X354211Y43697D01*
X354033Y42800D01*
X354211Y41903D01*
X354720Y41142D01*
X355481Y40633D01*
X356378Y40455D01*
X357275Y40633D01*
X358036Y41142D01*
X358366Y41635D01*
X358880Y42133D01*
X359778Y41955D01*
X360675Y42133D01*
X361436Y42642D01*
X361945Y43403D01*
X362123Y44300D01*
X362057Y44630D01*
X362075Y44633D01*
X362836Y45142D01*
X363345Y45903D01*
X363523Y46800D01*
X363345Y47697D01*
X362836Y48458D01*
X362075Y48967D01*
X361178Y49145D01*
D02*
G37*
G36*
X147078Y47645D02*
X146180Y47467D01*
X145978Y47331D01*
X145775Y47467D01*
X144878Y47645D01*
X143981Y47467D01*
X143220Y46958D01*
X142711Y46197D01*
X142533Y45300D01*
X142711Y44403D01*
X143220Y43642D01*
X143981Y43133D01*
X144878Y42955D01*
X145775Y43133D01*
X145978Y43269D01*
X146180Y43133D01*
X147078Y42955D01*
X147975Y43133D01*
X148736Y43642D01*
X149244Y44403D01*
X149423Y45300D01*
X149244Y46197D01*
X148736Y46958D01*
X147975Y47467D01*
X147078Y47645D01*
D02*
G37*
G36*
X245178D02*
X244281Y47467D01*
X243928Y47231D01*
X243575Y47467D01*
X242678Y47645D01*
X241780Y47467D01*
X241020Y46958D01*
X240511Y46197D01*
X240333Y45300D01*
X240511Y44403D01*
X241020Y43642D01*
X241780Y43133D01*
X242678Y42955D01*
X243575Y43133D01*
X243928Y43369D01*
X244281Y43133D01*
X245178Y42955D01*
X246075Y43133D01*
X246836Y43642D01*
X247344Y44403D01*
X247523Y45300D01*
X247344Y46197D01*
X246836Y46958D01*
X246075Y47467D01*
X245178Y47645D01*
D02*
G37*
G36*
X265578Y49145D02*
X264681Y48967D01*
X263920Y48458D01*
X263411Y47697D01*
X263233Y46800D01*
X263411Y45903D01*
X263647Y45550D01*
X263411Y45197D01*
X263233Y44300D01*
X263411Y43403D01*
X263920Y42642D01*
X264681Y42133D01*
X265578Y41955D01*
X266475Y42133D01*
X267236Y42642D01*
X267744Y43403D01*
X267923Y44300D01*
X267744Y45197D01*
X267509Y45550D01*
X267744Y45903D01*
X267923Y46800D01*
X267744Y47697D01*
X267236Y48458D01*
X266475Y48967D01*
X265578Y49145D01*
D02*
G37*
G36*
X216378D02*
X215480Y48967D01*
X214720Y48458D01*
X214211Y47697D01*
X214033Y46800D01*
X214211Y45903D01*
X214480Y45500D01*
X214211Y45097D01*
X214033Y44200D01*
X214211Y43303D01*
X214720Y42542D01*
X215480Y42033D01*
X216378Y41855D01*
X217275Y42033D01*
X218036Y42542D01*
X218545Y43303D01*
X218723Y44200D01*
X218545Y45097D01*
X218275Y45500D01*
X218545Y45903D01*
X218723Y46800D01*
X218545Y47697D01*
X218036Y48458D01*
X217275Y48967D01*
X216378Y49145D01*
D02*
G37*
G36*
X372078Y42445D02*
X371181Y42267D01*
X370778Y41998D01*
X370375Y42267D01*
X369478Y42445D01*
X368581Y42267D01*
X367820Y41758D01*
X367311Y40997D01*
X367133Y40100D01*
X367311Y39203D01*
X367820Y38442D01*
X368581Y37933D01*
X369478Y37755D01*
X370375Y37933D01*
X370778Y38202D01*
X371181Y37933D01*
X372078Y37755D01*
X372975Y37933D01*
X373736Y38442D01*
X374244Y39203D01*
X374423Y40100D01*
X374244Y40997D01*
X373736Y41758D01*
X372975Y42267D01*
X372078Y42445D01*
D02*
G37*
G36*
X196678Y47645D02*
X195781Y47467D01*
X195020Y46958D01*
X194511Y46197D01*
X194333Y45300D01*
X194511Y44403D01*
X195020Y43642D01*
X195781Y43133D01*
X196678Y42955D01*
X197575Y43133D01*
X198153Y43519D01*
X198881Y43033D01*
X199778Y42855D01*
X200675Y43033D01*
X201436Y43542D01*
X201944Y44303D01*
X202123Y45200D01*
X201944Y46097D01*
X201436Y46858D01*
X200675Y47367D01*
X199778Y47545D01*
X198881Y47367D01*
X198303Y46981D01*
X197575Y47467D01*
X196678Y47645D01*
D02*
G37*
G36*
X452278Y47823D02*
X451573Y47730D01*
X450916Y47458D01*
X450352Y47026D01*
X449920Y46462D01*
X449648Y45805D01*
X449555Y45100D01*
X449648Y44395D01*
X449920Y43738D01*
X450352Y43174D01*
X450916Y42742D01*
X451573Y42469D01*
X452278Y42377D01*
X452983Y42469D01*
X453640Y42742D01*
X454204Y43174D01*
X454636Y43738D01*
X454909Y44395D01*
X455001Y45100D01*
X454909Y45805D01*
X454636Y46462D01*
X454204Y47026D01*
X453640Y47458D01*
X452983Y47730D01*
X452278Y47823D01*
D02*
G37*
G36*
X476978Y77323D02*
X476273Y77231D01*
X475616Y76959D01*
X475052Y76526D01*
X474619Y75962D01*
X474347Y75305D01*
X474271Y74722D01*
X473937Y74522D01*
X473571Y74432D01*
X473053Y74950D01*
X467703D01*
X465028Y72275D01*
Y61925D01*
X467703Y59250D01*
X467989D01*
X468219Y58935D01*
X468373Y58550D01*
X468148Y58005D01*
X468055Y57300D01*
X468148Y56595D01*
X468420Y55938D01*
X468852Y55374D01*
X469416Y54941D01*
X470073Y54669D01*
X470778Y54577D01*
X471483Y54669D01*
X472140Y54941D01*
X472704Y55374D01*
X473136Y55938D01*
X473409Y56595D01*
X473501Y57300D01*
X473409Y58005D01*
X473164Y58596D01*
X473053Y59250D01*
X473296Y59493D01*
X474532Y60729D01*
X475059Y60266D01*
X474845Y59987D01*
X474573Y59330D01*
X474480Y58625D01*
X474573Y57920D01*
X474845Y57263D01*
X475278Y56700D01*
X475842Y56267D01*
X476498Y55995D01*
X477203Y55902D01*
X477908Y55995D01*
X478565Y56267D01*
X479129Y56700D01*
X479562Y57263D01*
X479834Y57920D01*
X479926Y58625D01*
X479834Y59330D01*
X479693Y59670D01*
X480286Y60067D01*
X481103Y59250D01*
X481341Y58550D01*
X481119Y58262D01*
X480848Y57605D01*
X480755Y56900D01*
X480848Y56195D01*
X481119Y55538D01*
X481552Y54974D01*
X482116Y54541D01*
X482773Y54269D01*
X483478Y54177D01*
X484183Y54269D01*
X484840Y54541D01*
X485404Y54974D01*
X485836Y55538D01*
X486108Y56195D01*
X486201Y56900D01*
X486108Y57605D01*
X485836Y58262D01*
X485615Y58550D01*
X485960Y59250D01*
X486453D01*
X489128Y61925D01*
Y72275D01*
X486453Y74950D01*
X481103D01*
X480355Y74202D01*
X479692Y74529D01*
X479701Y74600D01*
X479608Y75305D01*
X479336Y75962D01*
X478904Y76526D01*
X478340Y76959D01*
X477683Y77231D01*
X476978Y77323D01*
D02*
G37*
G36*
X317407Y74462D02*
X316510Y74283D01*
X315749Y73775D01*
X315241Y73014D01*
X315062Y72117D01*
X315241Y71219D01*
X315749Y70458D01*
X316510Y69950D01*
X317407Y69771D01*
X318304Y69950D01*
X319065Y70458D01*
X319574Y71219D01*
X319752Y72117D01*
X319574Y73014D01*
X319065Y73775D01*
X318304Y74283D01*
X317407Y74462D01*
D02*
G37*
G36*
X198078Y86445D02*
X197180Y86266D01*
X196420Y85758D01*
X195911Y84997D01*
X195733Y84100D01*
X195911Y83203D01*
X196420Y82442D01*
X197180Y81933D01*
X198078Y81755D01*
X198496Y81124D01*
X198411Y80997D01*
X198233Y80100D01*
X198411Y79203D01*
X198647Y78850D01*
X198411Y78497D01*
X198233Y77600D01*
X198411Y76703D01*
X198920Y75942D01*
X199680Y75433D01*
X200578Y75255D01*
X201475Y75433D01*
X202236Y75942D01*
X202745Y76703D01*
X202923Y77600D01*
X202745Y78497D01*
X202509Y78850D01*
X202745Y79203D01*
X202923Y80100D01*
X202745Y80997D01*
X202236Y81758D01*
X201475Y82266D01*
X200578Y82445D01*
X200160Y83076D01*
X200244Y83203D01*
X200423Y84100D01*
X200244Y84997D01*
X199736Y85758D01*
X198975Y86266D01*
X198078Y86445D01*
D02*
G37*
G36*
X490678Y91923D02*
X489973Y91830D01*
X489316Y91558D01*
X488752Y91126D01*
X488319Y90562D01*
X488048Y89905D01*
X487955Y89200D01*
X488048Y88495D01*
X488319Y87838D01*
X488394Y87741D01*
X487852Y87326D01*
X487420Y86762D01*
X487148Y86105D01*
X487055Y85400D01*
X487148Y84695D01*
X487420Y84038D01*
X487852Y83474D01*
X488416Y83042D01*
X488938Y82825D01*
X489019Y82401D01*
X488972Y82081D01*
X488916Y82059D01*
X488352Y81626D01*
X487920Y81062D01*
X487647Y80405D01*
X487555Y79700D01*
X487647Y78995D01*
X487920Y78338D01*
X488352Y77774D01*
X488916Y77342D01*
X489573Y77069D01*
X490278Y76977D01*
X490983Y77069D01*
X491640Y77342D01*
X492204Y77774D01*
X492636Y78338D01*
X492908Y78995D01*
X493001Y79700D01*
X492908Y80405D01*
X492636Y81062D01*
X492204Y81626D01*
X491640Y82059D01*
X491117Y82275D01*
X491037Y82699D01*
X491084Y83019D01*
X491140Y83042D01*
X491704Y83474D01*
X492136Y84038D01*
X492409Y84695D01*
X492501Y85400D01*
X492409Y86105D01*
X492136Y86762D01*
X492062Y86859D01*
X492604Y87274D01*
X493036Y87838D01*
X493308Y88495D01*
X493401Y89200D01*
X493308Y89905D01*
X493036Y90562D01*
X492604Y91126D01*
X492040Y91558D01*
X491383Y91830D01*
X490678Y91923D01*
D02*
G37*
G36*
X341478Y83245D02*
X340581Y83066D01*
X339820Y82558D01*
X339311Y81797D01*
X339133Y80900D01*
X339311Y80003D01*
X339547Y79650D01*
X339311Y79297D01*
X339133Y78400D01*
X339311Y77503D01*
X339820Y76742D01*
X340581Y76234D01*
X341478Y76055D01*
X342375Y76234D01*
X343136Y76742D01*
X343644Y77503D01*
X343823Y78400D01*
X343644Y79297D01*
X343409Y79650D01*
X343644Y80003D01*
X343823Y80900D01*
X343644Y81797D01*
X343136Y82558D01*
X342375Y83066D01*
X341478Y83245D01*
D02*
G37*
G36*
X502678Y70823D02*
X501973Y70731D01*
X501316Y70459D01*
X500752Y70026D01*
X500319Y69462D01*
X500047Y68805D01*
X499955Y68100D01*
X500047Y67395D01*
X500244Y66920D01*
X500022Y66121D01*
X499617Y65998D01*
X498279Y65283D01*
X497107Y64321D01*
X496145Y63149D01*
X495430Y61811D01*
X494989Y60360D01*
X494841Y58850D01*
Y58250D01*
X494920Y57445D01*
X494278Y56823D01*
X493573Y56731D01*
X492916Y56458D01*
X492352Y56026D01*
X491920Y55462D01*
X491647Y54805D01*
X491555Y54100D01*
X491647Y53395D01*
X491920Y52738D01*
X492352Y52174D01*
X492916Y51741D01*
X493573Y51469D01*
X494278Y51377D01*
X494983Y51469D01*
X495640Y51741D01*
X496204Y52174D01*
X496442Y52485D01*
X496628Y52568D01*
X497173Y52626D01*
X497334Y52593D01*
X498279Y51817D01*
X499617Y51102D01*
X500176Y50932D01*
X500422Y50126D01*
X500247Y49705D01*
X500155Y49000D01*
X500247Y48295D01*
X500520Y47638D01*
X500952Y47074D01*
X501516Y46642D01*
X502173Y46369D01*
X502878Y46277D01*
X503583Y46369D01*
X504240Y46642D01*
X504804Y47074D01*
X505236Y47638D01*
X505509Y48295D01*
X505601Y49000D01*
X505509Y49705D01*
X505267Y50288D01*
X505254Y50546D01*
X505411Y51033D01*
X505547Y51106D01*
X506877Y51817D01*
X508049Y52779D01*
X509011Y53951D01*
X509726Y55289D01*
X509906Y55881D01*
X510716Y56142D01*
X511373Y55870D01*
X512078Y55777D01*
X512783Y55870D01*
X513440Y56142D01*
X514004Y56574D01*
X514436Y57138D01*
X514709Y57795D01*
X514801Y58500D01*
X514709Y59205D01*
X514436Y59862D01*
X514004Y60426D01*
X513440Y60859D01*
X512783Y61130D01*
X512078Y61223D01*
X511373Y61130D01*
X510743Y60870D01*
X510711Y60860D01*
X509931Y61138D01*
X509726Y61811D01*
X509011Y63149D01*
X508049Y64321D01*
X506877Y65283D01*
X505539Y65998D01*
X505246Y66087D01*
X505214Y66186D01*
X505089Y66866D01*
X505308Y67395D01*
X505401Y68100D01*
X505308Y68805D01*
X505036Y69462D01*
X504604Y70026D01*
X504040Y70459D01*
X503383Y70731D01*
X502678Y70823D01*
D02*
G37*
G36*
X176478Y53545D02*
X175581Y53367D01*
X174820Y52858D01*
X174713Y52699D01*
X173978Y52845D01*
X173081Y52666D01*
X172320Y52158D01*
X171811Y51397D01*
X171670Y50687D01*
X171607Y50487D01*
X170986Y50164D01*
X170578Y50245D01*
X169681Y50067D01*
X168920Y49558D01*
X168411Y48797D01*
X168233Y47900D01*
X168411Y47003D01*
X168920Y46242D01*
X169681Y45733D01*
X170578Y45555D01*
X170953Y45630D01*
X171703Y45405D01*
X171875Y45158D01*
X172220Y44642D01*
X172980Y44133D01*
X173878Y43955D01*
X174775Y44133D01*
X175536Y44642D01*
X176044Y45403D01*
X176223Y46300D01*
X176044Y47197D01*
X175536Y47958D01*
X175692Y48628D01*
X176057Y48939D01*
X176478Y48855D01*
X177375Y49033D01*
X178136Y49542D01*
X178645Y50303D01*
X178823Y51200D01*
X178645Y52097D01*
X178136Y52858D01*
X177375Y53367D01*
X176478Y53545D01*
D02*
G37*
G36*
X441678Y80123D02*
X440973Y80031D01*
X440316Y79759D01*
X439752Y79326D01*
X439320Y78762D01*
X439047Y78105D01*
X438955Y77400D01*
X439047Y76695D01*
X439320Y76038D01*
X439587Y75689D01*
X439309Y75014D01*
X439286Y74989D01*
X438698D01*
X436023Y72314D01*
Y61964D01*
X438698Y59289D01*
X444048D01*
X444108Y59349D01*
X444771Y59022D01*
X444755Y58900D01*
X444847Y58195D01*
X445119Y57538D01*
X445552Y56974D01*
X446116Y56542D01*
X446773Y56270D01*
X447478Y56177D01*
X448183Y56270D01*
X448840Y56542D01*
X449404Y56974D01*
X449836Y57538D01*
X450108Y58195D01*
X450201Y58900D01*
X450108Y59605D01*
X449836Y60262D01*
X449404Y60826D01*
X448840Y61259D01*
X448183Y61531D01*
X447478Y61623D01*
X447271Y61596D01*
X446723Y62230D01*
Y72314D01*
X444062Y74975D01*
X444047Y74992D01*
X443769Y75689D01*
X444036Y76038D01*
X444309Y76695D01*
X444401Y77400D01*
X444309Y78105D01*
X444036Y78762D01*
X443604Y79326D01*
X443040Y79759D01*
X442383Y80031D01*
X441678Y80123D01*
D02*
G37*
G36*
X287878Y71445D02*
X286981Y71267D01*
X286220Y70758D01*
X285711Y69997D01*
X285533Y69100D01*
X285711Y68203D01*
X286220Y67442D01*
X286981Y66934D01*
X287878Y66755D01*
X288775Y66934D01*
X289536Y67442D01*
X290044Y68203D01*
X290223Y69100D01*
X290044Y69997D01*
X289536Y70758D01*
X288775Y71267D01*
X287878Y71445D01*
D02*
G37*
G36*
X516478Y66223D02*
X515773Y66131D01*
X515116Y65859D01*
X514552Y65426D01*
X514119Y64862D01*
X513847Y64205D01*
X513755Y63500D01*
X513847Y62795D01*
X514119Y62138D01*
X514552Y61574D01*
X515116Y61142D01*
X515773Y60869D01*
X516478Y60777D01*
X517183Y60869D01*
X517840Y61142D01*
X518404Y61574D01*
X518836Y62138D01*
X519108Y62795D01*
X519201Y63500D01*
X519108Y64205D01*
X518836Y64862D01*
X518404Y65426D01*
X517840Y65859D01*
X517183Y66131D01*
X516478Y66223D01*
D02*
G37*
G36*
X185203Y46270D02*
X184306Y46092D01*
X183545Y45583D01*
X183037Y44823D01*
X182858Y43925D01*
X183037Y43028D01*
X183545Y42267D01*
X184306Y41759D01*
X185203Y41580D01*
X186101Y41759D01*
X186861Y42267D01*
X187370Y43028D01*
X187548Y43925D01*
X187370Y44823D01*
X186861Y45583D01*
X186101Y46092D01*
X185203Y46270D01*
D02*
G37*
G36*
X287665Y46621D02*
X286569Y46476D01*
X285547Y46053D01*
X284670Y45380D01*
X283997Y44502D01*
X283574Y43481D01*
X283429Y42384D01*
Y36384D01*
X283574Y35288D01*
X283997Y34266D01*
X284670Y33389D01*
X285547Y32716D01*
X286569Y32292D01*
X287665Y32148D01*
X288762Y32292D01*
X289784Y32716D01*
X290661Y33389D01*
X291334Y34266D01*
X291757Y35288D01*
X291902Y36384D01*
Y42384D01*
X291757Y43481D01*
X291334Y44502D01*
X290661Y45380D01*
X289784Y46053D01*
X288762Y46476D01*
X287665Y46621D01*
D02*
G37*
G36*
X230103Y35070D02*
X229206Y34892D01*
X228445Y34383D01*
X227937Y33623D01*
X227758Y32725D01*
X227937Y31828D01*
X228206Y31425D01*
X227937Y31023D01*
X227758Y30125D01*
X227937Y29228D01*
X228445Y28467D01*
X229206Y27959D01*
X230103Y27780D01*
X231001Y27959D01*
X231761Y28467D01*
X232270Y29228D01*
X232448Y30125D01*
X232270Y31023D01*
X232001Y31425D01*
X232270Y31828D01*
X232448Y32725D01*
X232270Y33623D01*
X231761Y34383D01*
X231001Y34892D01*
X230103Y35070D01*
D02*
G37*
G36*
X297665Y46621D02*
X296569Y46476D01*
X295547Y46053D01*
X294670Y45380D01*
X293997Y44502D01*
X293573Y43481D01*
X293429Y42384D01*
Y36384D01*
X293573Y35288D01*
X293997Y34266D01*
X294670Y33389D01*
X295547Y32716D01*
X296569Y32292D01*
X297665Y32148D01*
X298762Y32292D01*
X299783Y32716D01*
X300661Y33389D01*
X301334Y34266D01*
X301757Y35288D01*
X301902Y36384D01*
Y42384D01*
X301757Y43481D01*
X301334Y44502D01*
X300661Y45380D01*
X299783Y46053D01*
X298762Y46476D01*
X297665Y46621D01*
D02*
G37*
G36*
X321865Y46584D02*
X313465D01*
Y32184D01*
X321865D01*
Y46584D01*
D02*
G37*
G36*
X307665Y46621D02*
X306569Y46476D01*
X305547Y46053D01*
X304670Y45380D01*
X303997Y44502D01*
X303573Y43481D01*
X303429Y42384D01*
Y36384D01*
X303573Y35288D01*
X303997Y34266D01*
X304670Y33389D01*
X305547Y32716D01*
X306569Y32292D01*
X307665Y32148D01*
X308762Y32292D01*
X309784Y32716D01*
X310661Y33389D01*
X311334Y34266D01*
X311757Y35288D01*
X311902Y36384D01*
Y42384D01*
X311757Y43481D01*
X311334Y44502D01*
X310661Y45380D01*
X309784Y46053D01*
X308762Y46476D01*
X307665Y46621D01*
D02*
G37*
G36*
X399778Y42223D02*
X399073Y42131D01*
X398416Y41858D01*
X397852Y41426D01*
X397420Y40862D01*
X397147Y40205D01*
X397055Y39500D01*
X397147Y38795D01*
X397420Y38138D01*
X397852Y37574D01*
X398269Y37255D01*
X398333Y36952D01*
Y36748D01*
X398269Y36445D01*
X397852Y36126D01*
X397420Y35562D01*
X397147Y34905D01*
X397055Y34200D01*
X397147Y33495D01*
X397420Y32838D01*
X397852Y32274D01*
X398184Y32020D01*
X398236Y31871D01*
Y31329D01*
X398184Y31180D01*
X397852Y30926D01*
X397420Y30362D01*
X397147Y29705D01*
X397055Y29000D01*
X397147Y28295D01*
X397420Y27638D01*
X397852Y27074D01*
X398416Y26642D01*
X399073Y26370D01*
X399778Y26277D01*
X400483Y26370D01*
X401140Y26642D01*
X401704Y27074D01*
X402136Y27638D01*
X402409Y28295D01*
X402501Y29000D01*
X402409Y29705D01*
X402136Y30362D01*
X401704Y30926D01*
X401372Y31180D01*
X401320Y31329D01*
Y31871D01*
X401372Y32020D01*
X401704Y32274D01*
X402136Y32838D01*
X402409Y33495D01*
X402501Y34200D01*
X402409Y34905D01*
X402136Y35562D01*
X401704Y36126D01*
X401287Y36445D01*
X401223Y36748D01*
Y36952D01*
X401287Y37255D01*
X401704Y37574D01*
X402136Y38138D01*
X402409Y38795D01*
X402501Y39500D01*
X402409Y40205D01*
X402136Y40862D01*
X401704Y41426D01*
X401140Y41858D01*
X400483Y42131D01*
X399778Y42223D01*
D02*
G37*
G36*
X390578Y42196D02*
X389873Y42103D01*
X389216Y41831D01*
X388652Y41398D01*
X388219Y40834D01*
X387947Y40177D01*
X387855Y39472D01*
X387947Y38768D01*
X388219Y38111D01*
X388652Y37547D01*
X389045Y37245D01*
X389106Y37001D01*
Y36672D01*
X389045Y36427D01*
X388652Y36126D01*
X388219Y35562D01*
X387947Y34905D01*
X387855Y34200D01*
X387947Y33495D01*
X388219Y32838D01*
X388652Y32274D01*
X388984Y32020D01*
X389036Y31871D01*
Y31329D01*
X388984Y31180D01*
X388652Y30926D01*
X388219Y30362D01*
X387947Y29705D01*
X387855Y29000D01*
X387947Y28295D01*
X388219Y27638D01*
X388652Y27074D01*
X389216Y26642D01*
X389873Y26370D01*
X390578Y26277D01*
X391283Y26370D01*
X391940Y26642D01*
X392504Y27074D01*
X392936Y27638D01*
X393209Y28295D01*
X393301Y29000D01*
X393209Y29705D01*
X392936Y30362D01*
X392504Y30926D01*
X392172Y31180D01*
X392120Y31329D01*
Y31871D01*
X392172Y32020D01*
X392504Y32274D01*
X392936Y32838D01*
X393209Y33495D01*
X393301Y34200D01*
X393209Y34905D01*
X392936Y35562D01*
X392504Y36126D01*
X392111Y36427D01*
X392050Y36672D01*
Y37001D01*
X392111Y37245D01*
X392504Y37547D01*
X392936Y38111D01*
X393209Y38768D01*
X393301Y39472D01*
X393209Y40177D01*
X392936Y40834D01*
X392504Y41398D01*
X391940Y41831D01*
X391283Y42103D01*
X390578Y42196D01*
D02*
G37*
G36*
X253778Y33745D02*
X252881Y33567D01*
X252120Y33058D01*
X251611Y32297D01*
X251433Y31400D01*
X251611Y30503D01*
X251885Y30094D01*
X251637Y29723D01*
X251458Y28825D01*
X251637Y27928D01*
X252145Y27167D01*
X252906Y26659D01*
X253803Y26480D01*
X254701Y26659D01*
X255461Y27167D01*
X255970Y27928D01*
X256148Y28825D01*
X255970Y29723D01*
X255697Y30132D01*
X255944Y30503D01*
X256123Y31400D01*
X255944Y32297D01*
X255436Y33058D01*
X254675Y33567D01*
X253778Y33745D01*
D02*
G37*
G36*
X531004Y31698D02*
X530243Y31547D01*
X529598Y31116D01*
X529167Y30471D01*
X529016Y29710D01*
X529167Y28949D01*
X529598Y28304D01*
X530243Y27873D01*
X531004Y27722D01*
X531765Y27873D01*
X532410Y28304D01*
X532841Y28949D01*
X532992Y29710D01*
X532841Y30471D01*
X532410Y31116D01*
X531765Y31547D01*
X531004Y31698D01*
D02*
G37*
G36*
X156988D02*
X156227Y31547D01*
X155582Y31116D01*
X155151Y30471D01*
X155000Y29710D01*
X155151Y28949D01*
X155582Y28304D01*
X156227Y27873D01*
X156988Y27722D01*
X157749Y27873D01*
X158394Y28304D01*
X158825Y28949D01*
X158976Y29710D01*
X158825Y30471D01*
X158394Y31116D01*
X157749Y31547D01*
X156988Y31698D01*
D02*
G37*
G36*
X540945Y47396D02*
X539587Y47217D01*
X538322Y46693D01*
X537236Y45860D01*
X536403Y44774D01*
X535879Y43509D01*
X535700Y42151D01*
X535879Y40794D01*
X536403Y39529D01*
X537236Y38443D01*
X538322Y37609D01*
X539587Y37085D01*
X540945Y36906D01*
X542302Y37085D01*
X543567Y37609D01*
X544654Y38443D01*
X545487Y39529D01*
X546011Y40794D01*
X546190Y42151D01*
X546011Y43509D01*
X545487Y44774D01*
X544654Y45860D01*
X543567Y46693D01*
X542302Y47217D01*
X540945Y47396D01*
D02*
G37*
G36*
X355278Y37245D02*
X354380Y37067D01*
X354028Y36831D01*
X353675Y37067D01*
X352778Y37245D01*
X351881Y37067D01*
X351120Y36558D01*
X350611Y35797D01*
X350433Y34900D01*
X350611Y34003D01*
X351120Y33242D01*
X351881Y32733D01*
X352778Y32555D01*
X353675Y32733D01*
X354028Y32969D01*
X354380Y32733D01*
X355278Y32555D01*
X356175Y32733D01*
X356936Y33242D01*
X357445Y34003D01*
X357623Y34900D01*
X357445Y35797D01*
X356936Y36558D01*
X356175Y37067D01*
X355278Y37245D01*
D02*
G37*
G36*
X497578Y42523D02*
X496873Y42430D01*
X496216Y42158D01*
X495652Y41726D01*
X495220Y41162D01*
X494947Y40505D01*
X494855Y39800D01*
X494947Y39095D01*
X495220Y38438D01*
X495652Y37874D01*
X496216Y37442D01*
X496873Y37170D01*
X497578Y37077D01*
X498283Y37170D01*
X498940Y37442D01*
X499504Y37874D01*
X499936Y38438D01*
X500209Y39095D01*
X500301Y39800D01*
X500209Y40505D01*
X499936Y41162D01*
X499504Y41726D01*
X498940Y42158D01*
X498283Y42430D01*
X497578Y42523D01*
D02*
G37*
G36*
X179803Y46270D02*
X178906Y46092D01*
X178145Y45583D01*
X177637Y44823D01*
X177458Y43925D01*
X177637Y43028D01*
X178145Y42267D01*
X178906Y41759D01*
X179803Y41580D01*
X180701Y41759D01*
X181461Y42267D01*
X181970Y43028D01*
X182148Y43925D01*
X181970Y44823D01*
X181461Y45583D01*
X180701Y46092D01*
X179803Y46270D01*
D02*
G37*
G36*
X228703Y44270D02*
X227806Y44092D01*
X227045Y43583D01*
X226537Y42823D01*
X226358Y41925D01*
X226537Y41028D01*
X227045Y40267D01*
X227806Y39759D01*
X228703Y39580D01*
X229601Y39759D01*
X230361Y40267D01*
X230870Y41028D01*
X231048Y41925D01*
X230870Y42823D01*
X230361Y43583D01*
X229601Y44092D01*
X228703Y44270D01*
D02*
G37*
G36*
X271503Y33270D02*
X270606Y33092D01*
X270153Y32789D01*
X269701Y33092D01*
X268803Y33270D01*
X267906Y33092D01*
X267145Y32583D01*
X266637Y31823D01*
X266458Y30925D01*
X266637Y30028D01*
X267145Y29267D01*
X267906Y28759D01*
X268803Y28580D01*
X269701Y28759D01*
X270153Y29061D01*
X270606Y28759D01*
X271503Y28580D01*
X272401Y28759D01*
X273161Y29267D01*
X273670Y30028D01*
X273848Y30925D01*
X273670Y31823D01*
X273161Y32583D01*
X272401Y33092D01*
X271503Y33270D01*
D02*
G37*
G36*
X512603Y37949D02*
X511898Y37856D01*
X511241Y37584D01*
X510677Y37151D01*
X510245Y36587D01*
X509973Y35930D01*
X509880Y35225D01*
X509973Y34520D01*
X510245Y33863D01*
X510677Y33299D01*
X511241Y32867D01*
X511898Y32595D01*
X512603Y32502D01*
X513308Y32595D01*
X513965Y32867D01*
X514529Y33299D01*
X514962Y33863D01*
X515234Y34520D01*
X515326Y35225D01*
X515234Y35930D01*
X514962Y36587D01*
X514529Y37151D01*
X513965Y37584D01*
X513308Y37856D01*
X512603Y37949D01*
D02*
G37*
G36*
X174403Y33670D02*
X173506Y33492D01*
X173064Y33197D01*
X172622Y33492D01*
X171725Y33670D01*
X170827Y33492D01*
X170067Y32983D01*
X169558Y32223D01*
X169380Y31325D01*
X169558Y30428D01*
X170067Y29667D01*
X170827Y29159D01*
X171725Y28980D01*
X172622Y29159D01*
X173064Y29454D01*
X173506Y29159D01*
X174403Y28980D01*
X175301Y29159D01*
X176061Y29667D01*
X176570Y30428D01*
X176748Y31325D01*
X176570Y32223D01*
X176061Y32983D01*
X175301Y33492D01*
X174403Y33670D01*
D02*
G37*
G36*
X335778Y35645D02*
X334880Y35467D01*
X334478Y35198D01*
X334075Y35467D01*
X333178Y35645D01*
X332280Y35467D01*
X331520Y34958D01*
X331011Y34197D01*
X330833Y33300D01*
X331011Y32403D01*
X331520Y31642D01*
X332280Y31133D01*
X333178Y30955D01*
X334075Y31133D01*
X334478Y31402D01*
X334880Y31133D01*
X335778Y30955D01*
X336675Y31133D01*
X337436Y31642D01*
X337945Y32403D01*
X338123Y33300D01*
X337945Y34197D01*
X337436Y34958D01*
X336675Y35467D01*
X335778Y35645D01*
D02*
G37*
G36*
X473978Y40323D02*
X473273Y40231D01*
X472616Y39958D01*
X472052Y39526D01*
X471620Y38962D01*
X471348Y38305D01*
X471255Y37600D01*
X471348Y36895D01*
X471620Y36238D01*
X472052Y35674D01*
X472616Y35242D01*
X473273Y34969D01*
X473978Y34877D01*
X474683Y34969D01*
X475340Y35242D01*
X475904Y35674D01*
X476336Y36238D01*
X476609Y36895D01*
X476701Y37600D01*
X476609Y38305D01*
X476336Y38962D01*
X475904Y39526D01*
X475340Y39958D01*
X474683Y40231D01*
X473978Y40323D01*
D02*
G37*
G36*
X326403Y156970D02*
X325506Y156792D01*
X324745Y156283D01*
X324237Y155523D01*
X324058Y154625D01*
X324237Y153728D01*
X324745Y152967D01*
X325506Y152459D01*
X326403Y152280D01*
X327301Y152459D01*
X328061Y152967D01*
X328570Y153728D01*
X328748Y154625D01*
X328570Y155523D01*
X328061Y156283D01*
X327301Y156792D01*
X326403Y156970D01*
D02*
G37*
G36*
X524004Y254856D02*
X523243Y254705D01*
X522598Y254274D01*
X522167Y253628D01*
X522016Y252868D01*
X522167Y252107D01*
X522598Y251462D01*
X523243Y251031D01*
X524004Y250880D01*
X524765Y251031D01*
X525410Y251462D01*
X525841Y252107D01*
X525992Y252868D01*
X525841Y253628D01*
X525410Y254274D01*
X524765Y254705D01*
X524004Y254856D01*
D02*
G37*
G36*
X163988D02*
X163227Y254705D01*
X162582Y254274D01*
X162151Y253628D01*
X162000Y252868D01*
X162151Y252107D01*
X162582Y251462D01*
X163227Y251031D01*
X163988Y250880D01*
X164749Y251031D01*
X165394Y251462D01*
X165825Y252107D01*
X165976Y252868D01*
X165825Y253628D01*
X165394Y254274D01*
X164749Y254705D01*
X163988Y254856D01*
D02*
G37*
G36*
X538004D02*
X537243Y254705D01*
X536598Y254274D01*
X536167Y253628D01*
X536016Y252868D01*
X536167Y252107D01*
X536598Y251462D01*
X537243Y251031D01*
X538004Y250880D01*
X538765Y251031D01*
X539410Y251462D01*
X539841Y252107D01*
X539992Y252868D01*
X539841Y253628D01*
X539410Y254274D01*
X538765Y254705D01*
X538004Y254856D01*
D02*
G37*
G36*
X336278Y260189D02*
X335194Y260046D01*
X334184Y259627D01*
X333316Y258962D01*
X332650Y258094D01*
X332232Y257084D01*
X332089Y256000D01*
X332232Y254916D01*
X332650Y253906D01*
X333316Y253038D01*
X334184Y252373D01*
X335194Y251954D01*
X336278Y251811D01*
X337362Y251954D01*
X338372Y252373D01*
X339240Y253038D01*
X339905Y253906D01*
X340324Y254916D01*
X340466Y256000D01*
X340324Y257084D01*
X339905Y258094D01*
X339240Y258962D01*
X338372Y259627D01*
X337362Y260046D01*
X336278Y260189D01*
D02*
G37*
G36*
X326278D02*
X325194Y260046D01*
X324184Y259627D01*
X323316Y258962D01*
X322651Y258094D01*
X322232Y257084D01*
X322089Y256000D01*
X322232Y254916D01*
X322651Y253906D01*
X323316Y253038D01*
X324184Y252373D01*
X325194Y251954D01*
X326278Y251811D01*
X327362Y251954D01*
X328372Y252373D01*
X329240Y253038D01*
X329905Y253906D01*
X330324Y254916D01*
X330467Y256000D01*
X330324Y257084D01*
X329905Y258094D01*
X329240Y258962D01*
X328372Y259627D01*
X327362Y260046D01*
X326278Y260189D01*
D02*
G37*
G36*
X403099Y253561D02*
X400547D01*
X399410Y253412D01*
X398351Y252973D01*
X397442Y252275D01*
X396744Y251366D01*
X396306Y250307D01*
X396209Y249571D01*
X403099D01*
Y253561D01*
D02*
G37*
G36*
X482878Y254123D02*
X482173Y254030D01*
X481516Y253758D01*
X480952Y253326D01*
X480519Y252762D01*
X480247Y252105D01*
X480155Y251400D01*
X480247Y250695D01*
X480519Y250038D01*
X480952Y249474D01*
X481516Y249042D01*
X482173Y248769D01*
X482878Y248677D01*
X483583Y248769D01*
X484240Y249042D01*
X484804Y249474D01*
X485236Y250038D01*
X485508Y250695D01*
X485601Y251400D01*
X485508Y252105D01*
X485236Y252762D01*
X484804Y253326D01*
X484240Y253758D01*
X483583Y254030D01*
X482878Y254123D01*
D02*
G37*
G36*
X406452Y253561D02*
X403899D01*
Y249571D01*
X410790D01*
X410693Y250307D01*
X410254Y251366D01*
X409556Y252275D01*
X408647Y252973D01*
X407588Y253412D01*
X406452Y253561D01*
D02*
G37*
G36*
X149988Y254856D02*
X149227Y254705D01*
X148582Y254274D01*
X148151Y253628D01*
X148000Y252868D01*
X148151Y252107D01*
X148582Y251462D01*
X149227Y251031D01*
X149988Y250880D01*
X150749Y251031D01*
X151394Y251462D01*
X151825Y252107D01*
X151976Y252868D01*
X151825Y253628D01*
X151394Y254274D01*
X150749Y254705D01*
X149988Y254856D01*
D02*
G37*
G36*
X503378Y258436D02*
X497378D01*
X496281Y258292D01*
X495260Y257869D01*
X494382Y257195D01*
X493709Y256318D01*
X493286Y255296D01*
X493142Y254200D01*
X493286Y253104D01*
X493709Y252082D01*
X494382Y251204D01*
X495260Y250531D01*
X496281Y250108D01*
X497378Y249964D01*
X503378D01*
X504474Y250108D01*
X505496Y250531D01*
X506373Y251204D01*
X507047Y252082D01*
X507470Y253104D01*
X507614Y254200D01*
X507470Y255296D01*
X507047Y256318D01*
X506373Y257195D01*
X505496Y257869D01*
X504474Y258292D01*
X503378Y258436D01*
D02*
G37*
G36*
X233103Y259425D02*
X229103D01*
Y252425D01*
X233103D01*
Y259425D01*
D02*
G37*
G36*
X228303D02*
X224303D01*
Y252425D01*
X228303D01*
Y259425D01*
D02*
G37*
G36*
X260099Y259468D02*
X256061D01*
Y256868D01*
X256212Y255719D01*
X256655Y254649D01*
X257360Y253730D01*
X258279Y253024D01*
X259350Y252581D01*
X260099Y252482D01*
Y259468D01*
D02*
G37*
G36*
X186603Y267061D02*
X185507Y266917D01*
X184485Y266494D01*
X183608Y265821D01*
X182934Y264943D01*
X182511Y263922D01*
X182367Y262825D01*
Y256825D01*
X182511Y255729D01*
X182934Y254707D01*
X183608Y253830D01*
X184485Y253156D01*
X185507Y252733D01*
X186603Y252589D01*
X187700Y252733D01*
X188721Y253156D01*
X189599Y253830D01*
X190272Y254707D01*
X190695Y255729D01*
X190839Y256825D01*
Y262825D01*
X190695Y263922D01*
X190272Y264943D01*
X189599Y265821D01*
X188721Y266494D01*
X187700Y266917D01*
X186603Y267061D01*
D02*
G37*
G36*
X264936Y259468D02*
X260898D01*
Y252482D01*
X261647Y252581D01*
X262717Y253024D01*
X263636Y253730D01*
X264342Y254649D01*
X264785Y255719D01*
X264936Y256868D01*
Y259468D01*
D02*
G37*
G36*
X356278Y260189D02*
X355194Y260046D01*
X354184Y259627D01*
X353316Y258962D01*
X352650Y258094D01*
X352232Y257084D01*
X352089Y256000D01*
X352232Y254916D01*
X352650Y253906D01*
X353316Y253038D01*
X354184Y252373D01*
X355194Y251954D01*
X356278Y251811D01*
X357362Y251954D01*
X358372Y252373D01*
X359240Y253038D01*
X359905Y253906D01*
X360324Y254916D01*
X360467Y256000D01*
X360324Y257084D01*
X359905Y258094D01*
X359240Y258962D01*
X358372Y259627D01*
X357362Y260046D01*
X356278Y260189D01*
D02*
G37*
G36*
X346278D02*
X345194Y260046D01*
X344184Y259627D01*
X343316Y258962D01*
X342651Y258094D01*
X342232Y257084D01*
X342089Y256000D01*
X342232Y254916D01*
X342651Y253906D01*
X343316Y253038D01*
X344184Y252373D01*
X345194Y251954D01*
X346278Y251811D01*
X347362Y251954D01*
X348372Y252373D01*
X349240Y253038D01*
X349905Y253906D01*
X350324Y254916D01*
X350466Y256000D01*
X350324Y257084D01*
X349905Y258094D01*
X349240Y258962D01*
X348372Y259627D01*
X347362Y260046D01*
X346278Y260189D01*
D02*
G37*
G36*
X320431Y260153D02*
X312125D01*
Y251847D01*
X320431D01*
Y260153D01*
D02*
G37*
G36*
X201003Y259425D02*
X197003D01*
Y252425D01*
X201003D01*
Y259425D01*
D02*
G37*
G36*
X196203D02*
X192203D01*
Y252425D01*
X196203D01*
Y259425D01*
D02*
G37*
G36*
X531004Y251856D02*
X530243Y251705D01*
X529598Y251274D01*
X529167Y250628D01*
X529016Y249868D01*
X529167Y249107D01*
X529598Y248462D01*
X530243Y248031D01*
X531004Y247880D01*
X531765Y248031D01*
X532410Y248462D01*
X532841Y249107D01*
X532992Y249868D01*
X532841Y250628D01*
X532410Y251274D01*
X531765Y251705D01*
X531004Y251856D01*
D02*
G37*
G36*
X390946Y233508D02*
Y229571D01*
X394884D01*
X394787Y230307D01*
X394349Y231366D01*
X393651Y232275D01*
X392742Y232973D01*
X391683Y233412D01*
X390946Y233508D01*
D02*
G37*
G36*
X390146D02*
X389410Y233412D01*
X388351Y232973D01*
X387442Y232275D01*
X386744Y231366D01*
X386306Y230307D01*
X386209Y229571D01*
X390146D01*
Y233508D01*
D02*
G37*
G36*
X166678Y234345D02*
X165780Y234167D01*
X165020Y233658D01*
X164511Y232897D01*
X164333Y232000D01*
X164511Y231103D01*
X165020Y230342D01*
X165780Y229833D01*
X166678Y229655D01*
X167575Y229833D01*
X168336Y230342D01*
X168844Y231103D01*
X169023Y232000D01*
X168844Y232897D01*
X168336Y233658D01*
X167575Y234167D01*
X166678Y234345D01*
D02*
G37*
G36*
X406452Y243359D02*
X400547D01*
X399462Y243217D01*
X398452Y242798D01*
X397585Y242133D01*
X396919Y241265D01*
X396501Y240255D01*
X396358Y239171D01*
X396501Y238087D01*
X396919Y237077D01*
X397585Y236209D01*
X398452Y235543D01*
X399462Y235125D01*
X400547Y234982D01*
X406452D01*
X407536Y235125D01*
X408546Y235543D01*
X409414Y236209D01*
X410079Y237077D01*
X410498Y238087D01*
X410641Y239171D01*
X410498Y240255D01*
X410079Y241265D01*
X409414Y242133D01*
X408546Y242798D01*
X407536Y243217D01*
X406452Y243359D01*
D02*
G37*
G36*
X390546D02*
X389462Y243217D01*
X388452Y242798D01*
X387585Y242133D01*
X386919Y241265D01*
X386501Y240255D01*
X386358Y239171D01*
X386501Y238087D01*
X386919Y237077D01*
X387585Y236209D01*
X388452Y235543D01*
X389462Y235125D01*
X390546Y234982D01*
X391631Y235125D01*
X392641Y235543D01*
X393508Y236209D01*
X394174Y237077D01*
X394592Y238087D01*
X394735Y239171D01*
X394592Y240255D01*
X394174Y241265D01*
X393508Y242133D01*
X392641Y242798D01*
X391631Y243217D01*
X390546Y243359D01*
D02*
G37*
G36*
X186203Y235325D02*
X182203D01*
Y228325D01*
X186203D01*
Y235325D01*
D02*
G37*
G36*
X406452Y233360D02*
X400547D01*
X399462Y233217D01*
X398452Y232798D01*
X397585Y232133D01*
X396919Y231265D01*
X396501Y230255D01*
X396358Y229171D01*
X396501Y228087D01*
X396919Y227077D01*
X397585Y226209D01*
X398452Y225543D01*
X399462Y225125D01*
X400547Y224982D01*
X406452D01*
X407536Y225125D01*
X408546Y225543D01*
X409414Y226209D01*
X410079Y227077D01*
X410498Y228087D01*
X410641Y229171D01*
X410498Y230255D01*
X410079Y231265D01*
X409414Y232133D01*
X408546Y232798D01*
X407536Y233217D01*
X406452Y233360D01*
D02*
G37*
G36*
X191003Y235325D02*
X187003D01*
Y228325D01*
X191003D01*
Y235325D01*
D02*
G37*
G36*
X316678Y232838D02*
Y228900D01*
X320616D01*
X320519Y229636D01*
X320080Y230695D01*
X319382Y231604D01*
X318473Y232302D01*
X317414Y232741D01*
X316678Y232838D01*
D02*
G37*
G36*
X315878D02*
X315142Y232741D01*
X314083Y232302D01*
X313174Y231604D01*
X312476Y230695D01*
X312037Y229636D01*
X311940Y228900D01*
X315878D01*
Y232838D01*
D02*
G37*
G36*
X403099Y248771D02*
X396209D01*
X396306Y248035D01*
X396744Y246976D01*
X397442Y246066D01*
X398351Y245369D01*
X399410Y244930D01*
X400547Y244781D01*
X403099D01*
Y248771D01*
D02*
G37*
G36*
X210503Y248370D02*
X209606Y248192D01*
X208845Y247683D01*
X208337Y246923D01*
X208158Y246025D01*
X208337Y245128D01*
X208845Y244367D01*
X209606Y243859D01*
X210503Y243680D01*
X211401Y243859D01*
X212161Y244367D01*
X212670Y245128D01*
X212848Y246025D01*
X212670Y246923D01*
X212161Y247683D01*
X211401Y248192D01*
X210503Y248370D01*
D02*
G37*
G36*
X410790Y248771D02*
X403899D01*
Y244781D01*
X406452D01*
X407588Y244930D01*
X408647Y245369D01*
X409556Y246066D01*
X410254Y246976D01*
X410693Y248035D01*
X410790Y248771D01*
D02*
G37*
G36*
X156988Y251856D02*
X156227Y251705D01*
X155582Y251274D01*
X155151Y250628D01*
X155000Y249868D01*
X155151Y249107D01*
X155582Y248462D01*
X156227Y248031D01*
X156988Y247880D01*
X157749Y248031D01*
X158394Y248462D01*
X158825Y249107D01*
X158976Y249868D01*
X158825Y250628D01*
X158394Y251274D01*
X157749Y251705D01*
X156988Y251856D01*
D02*
G37*
G36*
X390546Y253360D02*
X389462Y253217D01*
X388452Y252798D01*
X387585Y252133D01*
X386919Y251265D01*
X386501Y250255D01*
X386358Y249171D01*
X386501Y248087D01*
X386919Y247077D01*
X387585Y246209D01*
X388452Y245543D01*
X389462Y245125D01*
X390546Y244982D01*
X391631Y245125D01*
X392641Y245543D01*
X393508Y246209D01*
X394174Y247077D01*
X394592Y248087D01*
X394735Y249171D01*
X394592Y250255D01*
X394174Y251265D01*
X393508Y252133D01*
X392641Y252798D01*
X391631Y253217D01*
X390546Y253360D01*
D02*
G37*
G36*
X191003Y243125D02*
X187003D01*
Y236125D01*
X191003D01*
Y243125D01*
D02*
G37*
G36*
X186203D02*
X182203D01*
Y236125D01*
X186203D01*
Y243125D01*
D02*
G37*
G36*
X359403Y239370D02*
X358506Y239192D01*
X358269Y239034D01*
X357703Y238707D01*
X357137Y239034D01*
X356901Y239192D01*
X356003Y239370D01*
X355106Y239192D01*
X354345Y238683D01*
X353837Y237923D01*
X353658Y237025D01*
X353837Y236128D01*
X354345Y235367D01*
X355106Y234859D01*
X356003Y234680D01*
X356901Y234859D01*
X357137Y235017D01*
X357703Y235343D01*
X358269Y235017D01*
X358506Y234859D01*
X359403Y234680D01*
X360301Y234859D01*
X361022Y235340D01*
X361781Y234833D01*
X362678Y234655D01*
X363575Y234833D01*
X364336Y235342D01*
X364844Y236103D01*
X365023Y237000D01*
X364844Y237897D01*
X364336Y238658D01*
X363575Y239167D01*
X362678Y239345D01*
X361781Y239167D01*
X361059Y238685D01*
X360301Y239192D01*
X359403Y239370D01*
D02*
G37*
G36*
X220478Y247045D02*
X219581Y246867D01*
X218820Y246358D01*
X218311Y245597D01*
X218133Y244700D01*
X218311Y243803D01*
X218820Y243042D01*
X219581Y242533D01*
X220478Y242355D01*
X221375Y242533D01*
X222136Y243042D01*
X222644Y243803D01*
X222823Y244700D01*
X222644Y245597D01*
X222136Y246358D01*
X221375Y246867D01*
X220478Y247045D01*
D02*
G37*
G36*
X201878Y243945D02*
X200980Y243767D01*
X200220Y243258D01*
X199720Y242510D01*
X199639Y242402D01*
X198954Y242216D01*
X198721Y242394D01*
X197700Y242817D01*
X196603Y242961D01*
X195507Y242817D01*
X194485Y242394D01*
X193608Y241721D01*
X192935Y240843D01*
X192511Y239822D01*
X192367Y238725D01*
Y232725D01*
X192511Y231629D01*
X192935Y230607D01*
X193608Y229730D01*
X194485Y229057D01*
X195507Y228633D01*
X196603Y228489D01*
X197700Y228633D01*
X198721Y229057D01*
X199599Y229730D01*
X200272Y230607D01*
X200695Y231629D01*
X200839Y232725D01*
Y238725D01*
X200836Y238752D01*
X201465Y239337D01*
X201878Y239255D01*
X202775Y239433D01*
X203536Y239942D01*
X204045Y240703D01*
X204223Y241600D01*
X204045Y242497D01*
X203536Y243258D01*
X202775Y243767D01*
X201878Y243945D01*
D02*
G37*
G36*
X218703Y267061D02*
X217607Y266917D01*
X216585Y266494D01*
X215708Y265821D01*
X215035Y264943D01*
X214611Y263922D01*
X214467Y262825D01*
Y256825D01*
X214611Y255729D01*
X215035Y254707D01*
X215708Y253830D01*
X216585Y253156D01*
X217607Y252733D01*
X218703Y252589D01*
X219800Y252733D01*
X220821Y253156D01*
X221699Y253830D01*
X222372Y254707D01*
X222795Y255729D01*
X222939Y256825D01*
Y262825D01*
X222795Y263922D01*
X222372Y264943D01*
X221699Y265821D01*
X220821Y266494D01*
X219800Y266917D01*
X218703Y267061D01*
D02*
G37*
G36*
X499978Y268600D02*
X492978D01*
Y264600D01*
X499978D01*
Y268600D01*
D02*
G37*
G36*
X478178Y266945D02*
X477281Y266767D01*
X476520Y266258D01*
X476011Y265497D01*
X475833Y264600D01*
X476011Y263703D01*
X476428Y263080D01*
X476048Y262479D01*
X475683Y262631D01*
X474978Y262723D01*
X474273Y262631D01*
X473616Y262358D01*
X473052Y261926D01*
X472619Y261362D01*
X472347Y260705D01*
X472255Y260000D01*
X472347Y259295D01*
X472619Y258638D01*
X473052Y258074D01*
X473616Y257642D01*
X474273Y257369D01*
X474978Y257277D01*
X475683Y257369D01*
X476340Y257642D01*
X476904Y258074D01*
X477336Y258638D01*
X477608Y259295D01*
X477701Y260000D01*
X477608Y260705D01*
X477336Y261362D01*
X476973Y261835D01*
X477144Y262167D01*
X477191Y262230D01*
X477367Y262416D01*
X478178Y262255D01*
X479075Y262433D01*
X479836Y262942D01*
X480344Y263703D01*
X480523Y264600D01*
X480344Y265497D01*
X479836Y266258D01*
X479075Y266767D01*
X478178Y266945D01*
D02*
G37*
G36*
X507778Y268600D02*
X500778D01*
Y264600D01*
X507778D01*
Y268600D01*
D02*
G37*
G36*
X163988Y268856D02*
X163227Y268705D01*
X162582Y268274D01*
X162151Y267629D01*
X162000Y266868D01*
X162151Y266107D01*
X162582Y265462D01*
X163227Y265031D01*
X163988Y264879D01*
X164749Y265031D01*
X165394Y265462D01*
X165825Y266107D01*
X165976Y266868D01*
X165825Y267629D01*
X165394Y268274D01*
X164749Y268705D01*
X163988Y268856D01*
D02*
G37*
G36*
X149988D02*
X149227Y268705D01*
X148582Y268274D01*
X148151Y267629D01*
X148000Y266868D01*
X148151Y266107D01*
X148582Y265462D01*
X149227Y265031D01*
X149988Y264879D01*
X150749Y265031D01*
X151394Y265462D01*
X151825Y266107D01*
X151976Y266868D01*
X151825Y267629D01*
X151394Y268274D01*
X150749Y268705D01*
X149988Y268856D01*
D02*
G37*
G36*
X326278Y270189D02*
X325194Y270046D01*
X324184Y269627D01*
X323316Y268962D01*
X322651Y268094D01*
X322232Y267084D01*
X322089Y266000D01*
X322232Y264916D01*
X322651Y263906D01*
X323316Y263038D01*
X324184Y262373D01*
X325194Y261954D01*
X326278Y261811D01*
X327362Y261954D01*
X328372Y262373D01*
X329240Y263038D01*
X329905Y263906D01*
X330324Y264916D01*
X330467Y266000D01*
X330324Y267084D01*
X329905Y268094D01*
X329240Y268962D01*
X328372Y269627D01*
X327362Y270046D01*
X326278Y270189D01*
D02*
G37*
G36*
X320616Y265600D02*
X316678D01*
Y261662D01*
X317414Y261759D01*
X318473Y262198D01*
X319382Y262896D01*
X320080Y263805D01*
X320519Y264864D01*
X320616Y265600D01*
D02*
G37*
G36*
X336278Y270189D02*
X335194Y270046D01*
X334184Y269627D01*
X333316Y268962D01*
X332650Y268094D01*
X332232Y267084D01*
X332089Y266000D01*
X332232Y264916D01*
X332650Y263906D01*
X333316Y263038D01*
X334184Y262373D01*
X335194Y261954D01*
X336278Y261811D01*
X337362Y261954D01*
X338372Y262373D01*
X339240Y263038D01*
X339905Y263906D01*
X340324Y264916D01*
X340466Y266000D01*
X340324Y267084D01*
X339905Y268094D01*
X339240Y268962D01*
X338372Y269627D01*
X337362Y270046D01*
X336278Y270189D01*
D02*
G37*
G36*
X356278D02*
X355194Y270046D01*
X354184Y269627D01*
X353316Y268962D01*
X352650Y268094D01*
X352232Y267084D01*
X352089Y266000D01*
X352232Y264916D01*
X352650Y263906D01*
X353316Y263038D01*
X354184Y262373D01*
X355194Y261954D01*
X356278Y261811D01*
X357362Y261954D01*
X358372Y262373D01*
X359240Y263038D01*
X359905Y263906D01*
X360324Y264916D01*
X360467Y266000D01*
X360324Y267084D01*
X359905Y268094D01*
X359240Y268962D01*
X358372Y269627D01*
X357362Y270046D01*
X356278Y270189D01*
D02*
G37*
G36*
X346278D02*
X345194Y270046D01*
X344184Y269627D01*
X343316Y268962D01*
X342651Y268094D01*
X342232Y267084D01*
X342089Y266000D01*
X342232Y264916D01*
X342651Y263906D01*
X343316Y263038D01*
X344184Y262373D01*
X345194Y261954D01*
X346278Y261811D01*
X347362Y261954D01*
X348372Y262373D01*
X349240Y263038D01*
X349905Y263906D01*
X350324Y264916D01*
X350466Y266000D01*
X350324Y267084D01*
X349905Y268094D01*
X349240Y268962D01*
X348372Y269627D01*
X347362Y270046D01*
X346278Y270189D01*
D02*
G37*
G36*
X282103Y273970D02*
X281206Y273792D01*
X280445Y273283D01*
X279937Y272523D01*
X279758Y271625D01*
X279937Y270728D01*
X280445Y269967D01*
X281206Y269459D01*
X282103Y269280D01*
X283001Y269459D01*
X283761Y269967D01*
X284270Y270728D01*
X284448Y271625D01*
X284270Y272523D01*
X283761Y273283D01*
X283001Y273792D01*
X282103Y273970D01*
D02*
G37*
G36*
X531004Y271856D02*
X530243Y271705D01*
X529598Y271274D01*
X529167Y270628D01*
X529016Y269868D01*
X529167Y269107D01*
X529598Y268462D01*
X530243Y268031D01*
X531004Y267880D01*
X531765Y268031D01*
X532410Y268462D01*
X532841Y269107D01*
X532992Y269868D01*
X532841Y270628D01*
X532410Y271274D01*
X531765Y271705D01*
X531004Y271856D01*
D02*
G37*
G36*
X487878Y274345D02*
X486980Y274167D01*
X486220Y273658D01*
X485711Y272897D01*
X485533Y272000D01*
X485711Y271103D01*
X486220Y270342D01*
X486980Y269833D01*
X487878Y269655D01*
X488775Y269833D01*
X489536Y270342D01*
X490044Y271103D01*
X490223Y272000D01*
X490044Y272897D01*
X489536Y273658D01*
X488775Y274167D01*
X487878Y274345D01*
D02*
G37*
G36*
X425178Y277645D02*
X424281Y277467D01*
X423520Y276958D01*
X423011Y276197D01*
X422833Y275300D01*
X423011Y274403D01*
X423520Y273642D01*
X424281Y273133D01*
X425178Y272955D01*
X426075Y273133D01*
X426836Y273642D01*
X427345Y274403D01*
X427523Y275300D01*
X427345Y276197D01*
X426836Y276958D01*
X426075Y277467D01*
X425178Y277645D01*
D02*
G37*
G36*
X252803Y276270D02*
X251906Y276092D01*
X251145Y275583D01*
X250637Y274823D01*
X250458Y273925D01*
X250637Y273028D01*
X251145Y272267D01*
X251906Y271759D01*
X252803Y271580D01*
X253701Y271759D01*
X254461Y272267D01*
X254970Y273028D01*
X255148Y273925D01*
X254970Y274823D01*
X254461Y275583D01*
X253701Y276092D01*
X252803Y276270D01*
D02*
G37*
G36*
X538004Y268856D02*
X537243Y268705D01*
X536598Y268274D01*
X536167Y267629D01*
X536016Y266868D01*
X536167Y266107D01*
X536598Y265462D01*
X537243Y265031D01*
X538004Y264879D01*
X538765Y265031D01*
X539410Y265462D01*
X539841Y266107D01*
X539992Y266868D01*
X539841Y267629D01*
X539410Y268274D01*
X538765Y268705D01*
X538004Y268856D01*
D02*
G37*
G36*
X524004D02*
X523243Y268705D01*
X522598Y268274D01*
X522167Y267629D01*
X522016Y266868D01*
X522167Y266107D01*
X522598Y265462D01*
X523243Y265031D01*
X524004Y264879D01*
X524765Y265031D01*
X525410Y265462D01*
X525841Y266107D01*
X525992Y266868D01*
X525841Y267629D01*
X525410Y268274D01*
X524765Y268705D01*
X524004Y268856D01*
D02*
G37*
G36*
X315878Y270338D02*
X315142Y270241D01*
X314083Y269802D01*
X313174Y269104D01*
X312476Y268195D01*
X312037Y267136D01*
X311940Y266400D01*
X315878D01*
Y270338D01*
D02*
G37*
G36*
X156988Y271856D02*
X156227Y271705D01*
X155582Y271274D01*
X155151Y270628D01*
X155000Y269868D01*
X155151Y269107D01*
X155582Y268462D01*
X156227Y268031D01*
X156988Y267880D01*
X157749Y268031D01*
X158394Y268462D01*
X158825Y269107D01*
X158976Y269868D01*
X158825Y270628D01*
X158394Y271274D01*
X157749Y271705D01*
X156988Y271856D01*
D02*
G37*
G36*
X316678Y270338D02*
Y266400D01*
X320616D01*
X320519Y267136D01*
X320080Y268195D01*
X319382Y269104D01*
X318473Y269802D01*
X317414Y270241D01*
X316678Y270338D01*
D02*
G37*
G36*
X315878Y265600D02*
X311940D01*
X312037Y264864D01*
X312476Y263805D01*
X313174Y262896D01*
X314083Y262198D01*
X315142Y261759D01*
X315878Y261662D01*
Y265600D01*
D02*
G37*
G36*
X406452Y263359D02*
X400547D01*
X399462Y263217D01*
X398452Y262798D01*
X397585Y262133D01*
X396919Y261265D01*
X396501Y260255D01*
X396358Y259171D01*
X396501Y258087D01*
X396919Y257077D01*
X397585Y256209D01*
X398452Y255543D01*
X399462Y255125D01*
X400547Y254982D01*
X406452D01*
X407536Y255125D01*
X408546Y255543D01*
X409414Y256209D01*
X410079Y257077D01*
X410498Y258087D01*
X410641Y259171D01*
X410498Y260255D01*
X410079Y261265D01*
X409414Y262133D01*
X408546Y262798D01*
X407536Y263217D01*
X406452Y263359D01*
D02*
G37*
G36*
X238978Y258545D02*
X238081Y258367D01*
X237320Y257858D01*
X236811Y257097D01*
X236633Y256200D01*
X236811Y255303D01*
X237320Y254542D01*
X238081Y254033D01*
X238978Y253855D01*
X239875Y254033D01*
X240636Y254542D01*
X241144Y255303D01*
X241323Y256200D01*
X241144Y257097D01*
X240636Y257858D01*
X239875Y258367D01*
X238978Y258545D01*
D02*
G37*
G36*
X394699Y263324D02*
X386394D01*
Y255018D01*
X394699D01*
Y263324D01*
D02*
G37*
G36*
X166988Y261856D02*
X166227Y261705D01*
X165582Y261274D01*
X165151Y260629D01*
X165000Y259868D01*
X165151Y259107D01*
X165582Y258462D01*
X166227Y258031D01*
X166988Y257879D01*
X167749Y258031D01*
X168394Y258462D01*
X168825Y259107D01*
X168976Y259868D01*
X168825Y260629D01*
X168394Y261274D01*
X167749Y261705D01*
X166988Y261856D01*
D02*
G37*
G36*
X146988D02*
X146227Y261705D01*
X145582Y261274D01*
X145151Y260629D01*
X145000Y259868D01*
X145151Y259107D01*
X145582Y258462D01*
X146227Y258031D01*
X146988Y257879D01*
X147749Y258031D01*
X148394Y258462D01*
X148825Y259107D01*
X148976Y259868D01*
X148825Y260629D01*
X148394Y261274D01*
X147749Y261705D01*
X146988Y261856D01*
D02*
G37*
G36*
X270498Y267104D02*
X269402Y266960D01*
X268380Y266536D01*
X267503Y265863D01*
X266830Y264986D01*
X266406Y263964D01*
X266262Y262868D01*
Y256868D01*
X266406Y255771D01*
X266830Y254750D01*
X267503Y253872D01*
X268380Y253199D01*
X269402Y252776D01*
X270498Y252631D01*
X271595Y252776D01*
X272617Y253199D01*
X273494Y253872D01*
X274167Y254750D01*
X274590Y255771D01*
X274735Y256868D01*
Y262868D01*
X274590Y263964D01*
X274167Y264986D01*
X273494Y265863D01*
X272617Y266536D01*
X271595Y266960D01*
X270498Y267104D01*
D02*
G37*
G36*
X250498D02*
X249402Y266960D01*
X248380Y266536D01*
X247503Y265863D01*
X246830Y264986D01*
X246407Y263964D01*
X246262Y262868D01*
Y256868D01*
X246407Y255771D01*
X246830Y254750D01*
X247503Y253872D01*
X248380Y253199D01*
X249402Y252776D01*
X250498Y252631D01*
X251595Y252776D01*
X252617Y253199D01*
X253494Y253872D01*
X254167Y254750D01*
X254590Y255771D01*
X254735Y256868D01*
Y262868D01*
X254590Y263964D01*
X254167Y264986D01*
X253494Y265863D01*
X252617Y266536D01*
X251595Y266960D01*
X250498Y267104D01*
D02*
G37*
G36*
X284698Y267068D02*
X276298D01*
Y252668D01*
X284698D01*
Y267068D01*
D02*
G37*
G36*
X531004Y267008D02*
X529611Y266870D01*
X528272Y266464D01*
X527037Y265804D01*
X525955Y264916D01*
X525067Y263834D01*
X524408Y262600D01*
X524001Y261261D01*
X523864Y259868D01*
X524001Y258475D01*
X524408Y257135D01*
X525067Y255901D01*
X525955Y254819D01*
X527037Y253931D01*
X528272Y253271D01*
X529611Y252865D01*
X531004Y252728D01*
X532397Y252865D01*
X533736Y253271D01*
X534971Y253931D01*
X536053Y254819D01*
X536941Y255901D01*
X537600Y257135D01*
X538007Y258475D01*
X538144Y259868D01*
X538007Y261261D01*
X537600Y262600D01*
X536941Y263834D01*
X536053Y264916D01*
X534971Y265804D01*
X533736Y266464D01*
X532397Y266870D01*
X531004Y267008D01*
D02*
G37*
G36*
X156988D02*
X155595Y266870D01*
X154256Y266464D01*
X153022Y265804D01*
X151939Y264916D01*
X151052Y263834D01*
X150392Y262600D01*
X149986Y261261D01*
X149848Y259868D01*
X149986Y258475D01*
X150392Y257135D01*
X151052Y255901D01*
X151939Y254819D01*
X153022Y253931D01*
X154256Y253271D01*
X155595Y252865D01*
X156988Y252728D01*
X158381Y252865D01*
X159721Y253271D01*
X160955Y253931D01*
X162037Y254819D01*
X162925Y255901D01*
X163585Y257135D01*
X163991Y258475D01*
X164128Y259868D01*
X163991Y261261D01*
X163585Y262600D01*
X162925Y263834D01*
X162037Y264916D01*
X160955Y265804D01*
X159721Y266464D01*
X158381Y266870D01*
X156988Y267008D01*
D02*
G37*
G36*
X201003Y267225D02*
X197003D01*
Y260225D01*
X201003D01*
Y267225D01*
D02*
G37*
G36*
X228303D02*
X224303D01*
Y260225D01*
X228303D01*
Y267225D01*
D02*
G37*
G36*
X233103D02*
X229103D01*
Y260225D01*
X233103D01*
Y267225D01*
D02*
G37*
G36*
X260898Y267253D02*
Y260268D01*
X264936D01*
Y262868D01*
X264785Y264016D01*
X264342Y265087D01*
X263636Y266006D01*
X262717Y266711D01*
X261647Y267155D01*
X260898Y267253D01*
D02*
G37*
G36*
X260099D02*
X259350Y267155D01*
X258279Y266711D01*
X257360Y266006D01*
X256655Y265087D01*
X256212Y264016D01*
X256061Y262868D01*
Y260268D01*
X260099D01*
Y267253D01*
D02*
G37*
G36*
X541004Y261856D02*
X540243Y261705D01*
X539598Y261274D01*
X539167Y260629D01*
X539016Y259868D01*
X539167Y259107D01*
X539598Y258462D01*
X540243Y258031D01*
X541004Y257879D01*
X541765Y258031D01*
X542410Y258462D01*
X542841Y259107D01*
X542992Y259868D01*
X542841Y260629D01*
X542410Y261274D01*
X541765Y261705D01*
X541004Y261856D01*
D02*
G37*
G36*
X521004D02*
X520243Y261705D01*
X519598Y261274D01*
X519167Y260629D01*
X519016Y259868D01*
X519167Y259107D01*
X519598Y258462D01*
X520243Y258031D01*
X521004Y257879D01*
X521765Y258031D01*
X522410Y258462D01*
X522841Y259107D01*
X522992Y259868D01*
X522841Y260629D01*
X522410Y261274D01*
X521765Y261705D01*
X521004Y261856D01*
D02*
G37*
G36*
X499978Y263800D02*
X492978D01*
Y259800D01*
X499978D01*
Y263800D01*
D02*
G37*
G36*
X196203Y267225D02*
X192203D01*
Y260225D01*
X196203D01*
Y267225D01*
D02*
G37*
G36*
X507778Y263800D02*
X500778D01*
Y259800D01*
X507778D01*
Y263800D01*
D02*
G37*
G36*
X390146Y228771D02*
X386209D01*
X386306Y228035D01*
X386744Y226976D01*
X387442Y226066D01*
X388351Y225369D01*
X389410Y224930D01*
X390146Y224833D01*
Y228771D01*
D02*
G37*
G36*
X373517Y188203D02*
X370917D01*
X369769Y188052D01*
X368698Y187609D01*
X367779Y186903D01*
X367074Y185984D01*
X366631Y184914D01*
X366532Y184165D01*
X373517D01*
Y188203D01*
D02*
G37*
G36*
X341503Y189049D02*
X340798Y188956D01*
X340142Y188684D01*
X339578Y188251D01*
X339145Y187687D01*
X338873Y187030D01*
X338780Y186325D01*
X338873Y185620D01*
X339145Y184964D01*
X339578Y184399D01*
X340142Y183967D01*
X340798Y183695D01*
X341503Y183602D01*
X342208Y183695D01*
X342865Y183967D01*
X343429Y184399D01*
X343862Y184964D01*
X344134Y185620D01*
X344227Y186325D01*
X344134Y187030D01*
X343862Y187687D01*
X343429Y188251D01*
X342865Y188684D01*
X342208Y188956D01*
X341503Y189049D01*
D02*
G37*
G36*
X376917Y188203D02*
X374317D01*
Y184165D01*
X381303D01*
X381204Y184914D01*
X380761Y185984D01*
X380055Y186903D01*
X379136Y187609D01*
X378066Y188052D01*
X376917Y188203D01*
D02*
G37*
G36*
X437478Y191923D02*
X436773Y191831D01*
X436116Y191558D01*
X435552Y191126D01*
X435119Y190562D01*
X434847Y189905D01*
X434755Y189200D01*
X434847Y188495D01*
X435119Y187838D01*
X435552Y187274D01*
X436116Y186842D01*
X436773Y186569D01*
X437478Y186477D01*
X438183Y186569D01*
X438840Y186842D01*
X439404Y187274D01*
X439836Y187838D01*
X440108Y188495D01*
X440201Y189200D01*
X440108Y189905D01*
X439836Y190562D01*
X439404Y191126D01*
X438840Y191558D01*
X438183Y191831D01*
X437478Y191923D01*
D02*
G37*
G36*
X502678Y200923D02*
X501973Y200831D01*
X501316Y200558D01*
X500752Y200126D01*
X500319Y199562D01*
X500047Y198905D01*
X499955Y198200D01*
X500047Y197495D01*
X500281Y196931D01*
X500270Y196613D01*
X500121Y196151D01*
X499617Y195998D01*
X498279Y195283D01*
X497107Y194321D01*
X496145Y193149D01*
X495430Y191811D01*
X494989Y190359D01*
X494841Y188850D01*
Y188250D01*
X494989Y186741D01*
X495430Y185289D01*
X496145Y183951D01*
X497107Y182779D01*
X498279Y181817D01*
X499617Y181102D01*
X499945Y181002D01*
X500207Y180191D01*
X500047Y179805D01*
X499955Y179100D01*
X500047Y178395D01*
X500319Y177738D01*
X500752Y177174D01*
X501316Y176742D01*
X501973Y176470D01*
X502678Y176377D01*
X503383Y176470D01*
X504040Y176742D01*
X504604Y177174D01*
X505036Y177738D01*
X505308Y178395D01*
X505401Y179100D01*
X505308Y179805D01*
X505126Y180245D01*
X505364Y181049D01*
X505539Y181102D01*
X506877Y181817D01*
X508049Y182779D01*
X509011Y183951D01*
X509726Y185289D01*
X509901Y185863D01*
X510705Y186104D01*
X510916Y185942D01*
X511573Y185670D01*
X512278Y185577D01*
X512983Y185670D01*
X513640Y185942D01*
X514204Y186374D01*
X514636Y186938D01*
X514909Y187595D01*
X515001Y188300D01*
X514909Y189005D01*
X514636Y189662D01*
X514204Y190226D01*
X513640Y190658D01*
X512983Y190930D01*
X512278Y191023D01*
X511573Y190930D01*
X510916Y190658D01*
X510828Y190591D01*
X510017Y190851D01*
X509726Y191811D01*
X509011Y193149D01*
X508049Y194321D01*
X506877Y195283D01*
X505539Y195998D01*
X505197Y196102D01*
X505010Y196684D01*
X505053Y196877D01*
X505308Y197495D01*
X505401Y198200D01*
X505308Y198905D01*
X505036Y199562D01*
X504604Y200126D01*
X504040Y200558D01*
X503383Y200831D01*
X502678Y200923D01*
D02*
G37*
G36*
X373517Y183365D02*
X366532D01*
X366631Y182617D01*
X367074Y181546D01*
X367779Y180627D01*
X368698Y179922D01*
X369769Y179479D01*
X370917Y179327D01*
X373517D01*
Y183365D01*
D02*
G37*
G36*
X437378Y184723D02*
X436673Y184631D01*
X436016Y184358D01*
X435452Y183926D01*
X435019Y183362D01*
X434748Y182705D01*
X434655Y182000D01*
X434748Y181295D01*
X435019Y180638D01*
X435452Y180074D01*
X436016Y179642D01*
X436673Y179369D01*
X437378Y179277D01*
X438083Y179369D01*
X438740Y179642D01*
X439304Y180074D01*
X439736Y180638D01*
X440008Y181295D01*
X440101Y182000D01*
X440008Y182705D01*
X439736Y183362D01*
X439304Y183926D01*
X438740Y184358D01*
X438083Y184631D01*
X437378Y184723D01*
D02*
G37*
G36*
X381303Y183365D02*
X374317D01*
Y179327D01*
X376917D01*
X378066Y179479D01*
X379136Y179922D01*
X380055Y180627D01*
X380761Y181546D01*
X381204Y182617D01*
X381303Y183365D01*
D02*
G37*
G36*
X518978Y188023D02*
X518273Y187931D01*
X517616Y187658D01*
X517052Y187226D01*
X516619Y186662D01*
X516348Y186005D01*
X516255Y185300D01*
X516348Y184595D01*
X516619Y183938D01*
X517052Y183374D01*
X517616Y182942D01*
X518273Y182669D01*
X518978Y182577D01*
X519683Y182669D01*
X520340Y182942D01*
X520904Y183374D01*
X521336Y183938D01*
X521608Y184595D01*
X521701Y185300D01*
X521608Y186005D01*
X521336Y186662D01*
X520904Y187226D01*
X520340Y187658D01*
X519683Y187931D01*
X518978Y188023D01*
D02*
G37*
G36*
X401278Y187936D02*
X395278D01*
X394181Y187792D01*
X393160Y187369D01*
X392283Y186696D01*
X391609Y185818D01*
X391186Y184796D01*
X391042Y183700D01*
X391186Y182604D01*
X391609Y181582D01*
X392283Y180704D01*
X393160Y180031D01*
X394181Y179608D01*
X395278Y179464D01*
X401278D01*
X402374Y179608D01*
X403396Y180031D01*
X404273Y180704D01*
X404947Y181582D01*
X405370Y182604D01*
X405514Y183700D01*
X405370Y184796D01*
X404947Y185818D01*
X404273Y186696D01*
X403396Y187369D01*
X402374Y187792D01*
X401278Y187936D01*
D02*
G37*
G36*
X337078Y193270D02*
X336180Y193092D01*
X335420Y192583D01*
X334911Y191823D01*
X334733Y190925D01*
X334911Y190028D01*
X335420Y189267D01*
X336180Y188759D01*
X337078Y188580D01*
X337975Y188759D01*
X338736Y189267D01*
X339245Y190028D01*
X339423Y190925D01*
X339245Y191823D01*
X338736Y192583D01*
X337975Y193092D01*
X337078Y193270D01*
D02*
G37*
G36*
X438878Y204323D02*
X438173Y204230D01*
X437516Y203958D01*
X436952Y203526D01*
X436519Y202962D01*
X436247Y202305D01*
X436155Y201600D01*
X436247Y200895D01*
X436519Y200238D01*
X436952Y199674D01*
X436983Y199651D01*
X436906Y199149D01*
X436807Y198903D01*
X436216Y198658D01*
X435652Y198226D01*
X435219Y197662D01*
X434947Y197005D01*
X434855Y196300D01*
X434947Y195595D01*
X435219Y194938D01*
X435652Y194374D01*
X436216Y193942D01*
X436873Y193669D01*
X437578Y193577D01*
X438283Y193669D01*
X438940Y193942D01*
X439504Y194374D01*
X439936Y194938D01*
X440208Y195595D01*
X440301Y196300D01*
X440208Y197005D01*
X439936Y197662D01*
X439504Y198226D01*
X439473Y198249D01*
X439549Y198751D01*
X439649Y198997D01*
X440240Y199242D01*
X440804Y199674D01*
X441236Y200238D01*
X441508Y200895D01*
X441601Y201600D01*
X441508Y202305D01*
X441236Y202962D01*
X440804Y203526D01*
X440240Y203958D01*
X439583Y204230D01*
X438878Y204323D01*
D02*
G37*
G36*
X329378Y200645D02*
X328481Y200467D01*
X327720Y199958D01*
X327211Y199197D01*
X327033Y198300D01*
X327211Y197403D01*
X327485Y196994D01*
X327509Y196168D01*
X327001Y195408D01*
X326823Y194510D01*
X327001Y193613D01*
X327509Y192852D01*
X328270Y192344D01*
X329168Y192165D01*
X330065Y192344D01*
X330826Y192852D01*
X331334Y193613D01*
X331513Y194510D01*
X331334Y195408D01*
X331061Y195817D01*
X331036Y196642D01*
X331544Y197403D01*
X331723Y198300D01*
X331544Y199197D01*
X331036Y199958D01*
X330275Y200467D01*
X329378Y200645D01*
D02*
G37*
G36*
X518878Y198345D02*
X517980Y198167D01*
X517220Y197658D01*
X516711Y196897D01*
X516533Y196000D01*
X516711Y195103D01*
X517220Y194342D01*
X517980Y193833D01*
X518878Y193655D01*
X519775Y193833D01*
X520536Y194342D01*
X521044Y195103D01*
X521223Y196000D01*
X521044Y196897D01*
X520536Y197658D01*
X519775Y198167D01*
X518878Y198345D01*
D02*
G37*
G36*
X459491Y197222D02*
X458594Y197044D01*
X457943Y196608D01*
X457498Y196535D01*
X457485D01*
X457040Y196608D01*
X456389Y197044D01*
X455491Y197222D01*
X454594Y197044D01*
X453833Y196535D01*
X453150D01*
X452389Y197044D01*
X451491Y197222D01*
X450594Y197044D01*
X449833Y196535D01*
X449150D01*
X448389Y197044D01*
X447491Y197222D01*
X446594Y197044D01*
X445833Y196535D01*
X445150D01*
X444389Y197044D01*
X443491Y197222D01*
X442594Y197044D01*
X441833Y196535D01*
X441325Y195775D01*
X441146Y194877D01*
X441325Y193980D01*
X441833Y193219D01*
Y192535D01*
X441325Y191775D01*
X441146Y190877D01*
X441325Y189980D01*
X441833Y189219D01*
Y188535D01*
X441325Y187775D01*
X441146Y186877D01*
X441325Y185980D01*
X441833Y185219D01*
Y184535D01*
X441325Y183775D01*
X441146Y182877D01*
X441325Y181980D01*
X441833Y181219D01*
X442594Y180711D01*
X443491Y180532D01*
X444389Y180711D01*
X445150Y181219D01*
X445833D01*
X446594Y180711D01*
X447491Y180532D01*
X448389Y180711D01*
X449150Y181219D01*
X449833D01*
X450594Y180711D01*
X451491Y180532D01*
X452389Y180711D01*
X453150Y181219D01*
X453833D01*
X454594Y180711D01*
X455491Y180532D01*
X456389Y180711D01*
X457150Y181219D01*
X457833D01*
X458594Y180711D01*
X459491Y180532D01*
X460389Y180711D01*
X461150Y181219D01*
X461658Y181980D01*
X461836Y182877D01*
X461658Y183775D01*
X461150Y184535D01*
Y185219D01*
X461658Y185980D01*
X461836Y186877D01*
X461658Y187775D01*
X461150Y188535D01*
Y189219D01*
X461658Y189980D01*
X461836Y190877D01*
X461658Y191775D01*
X461150Y192535D01*
Y193219D01*
X461658Y193980D01*
X461836Y194877D01*
X461658Y195775D01*
X461150Y196535D01*
X460389Y197044D01*
X459491Y197222D01*
D02*
G37*
G36*
X345278Y199345D02*
X344380Y199167D01*
X343620Y198658D01*
X343111Y197897D01*
X342933Y197000D01*
X343111Y196103D01*
X343620Y195342D01*
X344380Y194833D01*
X345278Y194655D01*
X346175Y194833D01*
X346936Y195342D01*
X347445Y196103D01*
X347623Y197000D01*
X347445Y197897D01*
X346936Y198658D01*
X346175Y199167D01*
X345278Y199345D01*
D02*
G37*
G36*
X478878Y194323D02*
X478173Y194230D01*
X477516Y193958D01*
X476952Y193526D01*
X476519Y192962D01*
X476248Y192305D01*
X476155Y191600D01*
X476248Y190895D01*
X476519Y190238D01*
X476952Y189674D01*
X477516Y189242D01*
X478173Y188970D01*
X478878Y188877D01*
X479583Y188970D01*
X480240Y189242D01*
X480804Y189674D01*
X481236Y190238D01*
X481508Y190895D01*
X481601Y191600D01*
X481508Y192305D01*
X481236Y192962D01*
X480804Y193526D01*
X480240Y193958D01*
X479583Y194230D01*
X478878Y194323D01*
D02*
G37*
G36*
X468878D02*
X468173Y194230D01*
X467516Y193958D01*
X466952Y193526D01*
X466519Y192962D01*
X466248Y192305D01*
X466155Y191600D01*
X466248Y190895D01*
X466519Y190238D01*
X466952Y189674D01*
X467516Y189242D01*
X468173Y188970D01*
X468878Y188877D01*
X469583Y188970D01*
X470240Y189242D01*
X470804Y189674D01*
X471236Y190238D01*
X471509Y190895D01*
X471601Y191600D01*
X471509Y192305D01*
X471236Y192962D01*
X470804Y193526D01*
X470240Y193958D01*
X469583Y194230D01*
X468878Y194323D01*
D02*
G37*
G36*
X366178Y193645D02*
X365281Y193467D01*
X364520Y192958D01*
X364011Y192197D01*
X363833Y191300D01*
X364011Y190403D01*
X364520Y189642D01*
X365281Y189133D01*
X366178Y188955D01*
X367075Y189133D01*
X367836Y189642D01*
X368344Y190403D01*
X368523Y191300D01*
X368344Y192197D01*
X367836Y192958D01*
X367075Y193467D01*
X366178Y193645D01*
D02*
G37*
G36*
X323278Y200545D02*
X322380Y200367D01*
X321620Y199858D01*
X321111Y199097D01*
X320933Y198200D01*
X321111Y197303D01*
X321620Y196542D01*
X321410Y195840D01*
X321122Y195408D01*
X320943Y194510D01*
X321122Y193613D01*
X321630Y192852D01*
X322391Y192344D01*
X323288Y192165D01*
X324186Y192344D01*
X324946Y192852D01*
X325455Y193613D01*
X325633Y194510D01*
X325455Y195408D01*
X324946Y196168D01*
X325156Y196870D01*
X325445Y197303D01*
X325623Y198200D01*
X325445Y199097D01*
X324936Y199858D01*
X324175Y200367D01*
X323278Y200545D01*
D02*
G37*
G36*
X317803Y200570D02*
X316906Y200392D01*
X316145Y199883D01*
X315637Y199123D01*
X315458Y198225D01*
X315637Y197328D01*
X316145Y196567D01*
X315962Y195847D01*
X315601Y195308D01*
X315423Y194410D01*
X315601Y193513D01*
X316109Y192752D01*
X316870Y192244D01*
X317768Y192065D01*
X318665Y192244D01*
X319426Y192752D01*
X319934Y193513D01*
X320113Y194410D01*
X319934Y195308D01*
X319426Y196068D01*
X319609Y196788D01*
X319970Y197328D01*
X320148Y198225D01*
X319970Y199123D01*
X319461Y199883D01*
X318701Y200392D01*
X317803Y200570D01*
D02*
G37*
G36*
X502178Y164249D02*
X501029Y164136D01*
X499540Y163684D01*
X498168Y162950D01*
X496965Y161963D01*
X495978Y160760D01*
X495244Y159388D01*
X494792Y157899D01*
X494650Y156450D01*
X502178D01*
Y164249D01*
D02*
G37*
G36*
X477503Y159949D02*
X476798Y159856D01*
X476142Y159584D01*
X475577Y159151D01*
X475145Y158587D01*
X474873Y157930D01*
X474780Y157225D01*
X474873Y156520D01*
X475145Y155864D01*
X475577Y155299D01*
X476142Y154867D01*
X476798Y154595D01*
X477503Y154502D01*
X478208Y154595D01*
X478865Y154867D01*
X479429Y155299D01*
X479862Y155864D01*
X480134Y156520D01*
X480227Y157225D01*
X480134Y157930D01*
X479862Y158587D01*
X479429Y159151D01*
X478865Y159584D01*
X478208Y159856D01*
X477503Y159949D01*
D02*
G37*
G36*
X502978Y164249D02*
Y156450D01*
X510506D01*
X510364Y157899D01*
X509912Y159388D01*
X509178Y160760D01*
X508191Y161963D01*
X506988Y162950D01*
X505616Y163684D01*
X504127Y164136D01*
X502978Y164249D01*
D02*
G37*
G36*
X281361Y159445D02*
X280463Y159267D01*
X279811Y158830D01*
X279158Y159267D01*
X278261Y159445D01*
X277363Y159267D01*
X276603Y158758D01*
X276094Y157997D01*
X275916Y157100D01*
X276094Y156203D01*
X276603Y155442D01*
X277363Y154933D01*
X278261Y154755D01*
X279158Y154933D01*
X279811Y155369D01*
X280463Y154933D01*
X281361Y154755D01*
X282258Y154933D01*
X283019Y155442D01*
X283527Y156203D01*
X283706Y157100D01*
X283527Y157997D01*
X283019Y158758D01*
X282258Y159267D01*
X281361Y159445D01*
D02*
G37*
G36*
X335303Y167470D02*
X334406Y167292D01*
X333645Y166783D01*
X333137Y166023D01*
X332958Y165125D01*
X333137Y164228D01*
X333645Y163467D01*
X334406Y162959D01*
X334589Y162922D01*
Y162208D01*
X334506Y162192D01*
X333745Y161683D01*
X333237Y160923D01*
X333058Y160025D01*
X333237Y159128D01*
X333745Y158367D01*
X334506Y157859D01*
X335403Y157680D01*
X336301Y157859D01*
X337061Y158367D01*
X337570Y159128D01*
X337574Y159148D01*
X338317Y159296D01*
X338420Y159142D01*
X339180Y158633D01*
X340078Y158455D01*
X340975Y158633D01*
X341736Y159142D01*
X342245Y159903D01*
X342423Y160800D01*
X342245Y161697D01*
X341736Y162458D01*
X340975Y162967D01*
X340078Y163145D01*
X339180Y162967D01*
X338420Y162458D01*
X337911Y161697D01*
X337907Y161677D01*
X337164Y161529D01*
X337061Y161683D01*
X336301Y162192D01*
X336117Y162228D01*
Y162942D01*
X336201Y162959D01*
X336961Y163467D01*
X337470Y164228D01*
X337648Y165125D01*
X337470Y166023D01*
X336961Y166783D01*
X336201Y167292D01*
X335303Y167470D01*
D02*
G37*
G36*
X376917Y157101D02*
X374317D01*
Y153063D01*
X381303D01*
X381204Y153812D01*
X380761Y154882D01*
X380055Y155801D01*
X379136Y156506D01*
X378066Y156950D01*
X376917Y157101D01*
D02*
G37*
G36*
X373517D02*
X370917D01*
X369769Y156950D01*
X368698Y156506D01*
X367779Y155801D01*
X367074Y154882D01*
X366631Y153812D01*
X366532Y153063D01*
X373517D01*
Y157101D01*
D02*
G37*
G36*
X281361Y153945D02*
X280463Y153767D01*
X279811Y153331D01*
X279158Y153767D01*
X278261Y153945D01*
X277363Y153767D01*
X276711Y153331D01*
X276058Y153767D01*
X275161Y153945D01*
X274263Y153767D01*
X273502Y153258D01*
X272994Y152497D01*
X272816Y151600D01*
X272994Y150703D01*
X273502Y149942D01*
X274263Y149433D01*
X275161Y149255D01*
X276058Y149433D01*
X276711Y149870D01*
X277363Y149433D01*
X278261Y149255D01*
X279158Y149433D01*
X279811Y149870D01*
X280463Y149433D01*
X281361Y149255D01*
X282258Y149433D01*
X283019Y149942D01*
X283527Y150703D01*
X283706Y151600D01*
X283527Y152497D01*
X283019Y153258D01*
X282258Y153767D01*
X281361Y153945D01*
D02*
G37*
G36*
X484378Y159223D02*
X483673Y159131D01*
X483016Y158858D01*
X482452Y158426D01*
X482020Y157862D01*
X481747Y157205D01*
X481655Y156500D01*
X481747Y155795D01*
X482020Y155138D01*
X482452Y154574D01*
X483016Y154142D01*
X483673Y153869D01*
X484378Y153777D01*
X485083Y153869D01*
X485740Y154142D01*
X486304Y154574D01*
X486736Y155138D01*
X487008Y155795D01*
X487101Y156500D01*
X487008Y157205D01*
X486736Y157862D01*
X486304Y158426D01*
X485740Y158858D01*
X485083Y159131D01*
X484378Y159223D01*
D02*
G37*
G36*
X470878Y159123D02*
X470173Y159030D01*
X469516Y158758D01*
X468952Y158326D01*
X468519Y157762D01*
X468248Y157105D01*
X468155Y156400D01*
X468248Y155695D01*
X468519Y155038D01*
X468952Y154474D01*
X469516Y154042D01*
X470173Y153770D01*
X470878Y153677D01*
X471583Y153770D01*
X472240Y154042D01*
X472804Y154474D01*
X473236Y155038D01*
X473509Y155695D01*
X473601Y156400D01*
X473509Y157105D01*
X473236Y157762D01*
X472804Y158326D01*
X472240Y158758D01*
X471583Y159030D01*
X470878Y159123D01*
D02*
G37*
G36*
X401278Y167936D02*
X395278D01*
X394181Y167792D01*
X393160Y167369D01*
X392283Y166695D01*
X391609Y165818D01*
X391186Y164796D01*
X391042Y163700D01*
X391186Y162604D01*
X391609Y161582D01*
X392283Y160705D01*
X393160Y160031D01*
X394181Y159608D01*
X395278Y159464D01*
X401278D01*
X402374Y159608D01*
X403396Y160031D01*
X404273Y160705D01*
X404947Y161582D01*
X405370Y162604D01*
X405514Y163700D01*
X405370Y164796D01*
X404947Y165818D01*
X404273Y166695D01*
X403396Y167369D01*
X402374Y167792D01*
X401278Y167936D01*
D02*
G37*
G36*
X477678Y178223D02*
X476973Y178130D01*
X476316Y177858D01*
X475752Y177426D01*
X475319Y176862D01*
X475047Y176205D01*
X474994Y175799D01*
X474279Y175524D01*
X473553Y176250D01*
X468203D01*
X465528Y173575D01*
Y171185D01*
X464828Y170788D01*
X464483Y170931D01*
X463778Y171023D01*
X463073Y170931D01*
X462416Y170658D01*
X461852Y170226D01*
X461419Y169662D01*
X461147Y169005D01*
X461055Y168300D01*
X461147Y167595D01*
X461419Y166938D01*
X461852Y166374D01*
X462416Y165942D01*
X463073Y165670D01*
X463778Y165577D01*
X464483Y165670D01*
X464828Y165813D01*
X465528Y165415D01*
Y163225D01*
X466635Y162118D01*
X466238Y161525D01*
X465983Y161630D01*
X465278Y161723D01*
X464573Y161630D01*
X463916Y161358D01*
X463352Y160926D01*
X462920Y160362D01*
X462647Y159705D01*
X462555Y159000D01*
X462647Y158295D01*
X462920Y157638D01*
X463352Y157074D01*
X463916Y156642D01*
X464573Y156369D01*
X465278Y156277D01*
X465983Y156369D01*
X466640Y156642D01*
X467204Y157074D01*
X467636Y157638D01*
X467908Y158295D01*
X468001Y159000D01*
X467908Y159705D01*
X467775Y160027D01*
X468316Y160550D01*
X473553D01*
X476228Y163225D01*
Y172421D01*
X476928Y172888D01*
X476973Y172870D01*
X477678Y172777D01*
X478228Y172849D01*
X478928Y172438D01*
Y163225D01*
X481603Y160550D01*
X486953D01*
X489628Y163225D01*
Y165611D01*
X489943Y165841D01*
X490328Y165995D01*
X490873Y165770D01*
X491578Y165677D01*
X492283Y165770D01*
X492940Y166042D01*
X493504Y166474D01*
X493936Y167038D01*
X494208Y167695D01*
X494301Y168400D01*
X494208Y169105D01*
X493936Y169762D01*
X493504Y170326D01*
X492940Y170758D01*
X492283Y171030D01*
X491578Y171123D01*
X490873Y171030D01*
X490328Y170805D01*
X489943Y170959D01*
X489628Y171189D01*
Y173575D01*
X486953Y176250D01*
X481603D01*
X481078Y175725D01*
X480339Y175976D01*
X480308Y176205D01*
X480036Y176862D01*
X479604Y177426D01*
X479040Y177858D01*
X478383Y178130D01*
X477678Y178223D01*
D02*
G37*
G36*
X429178Y175660D02*
X428212Y175532D01*
X427327Y175166D01*
X426803Y175270D01*
X425906Y175092D01*
X425145Y174583D01*
X424637Y173823D01*
X424458Y172925D01*
X424637Y172028D01*
X425145Y171267D01*
X425446Y171066D01*
Y158246D01*
X420341Y153141D01*
X419644Y153209D01*
X419461Y153483D01*
X418701Y153992D01*
X417803Y154170D01*
X416906Y153992D01*
X416878Y153973D01*
X416701Y154092D01*
X415803Y154270D01*
X414906Y154092D01*
X414617Y153899D01*
X414114Y154262D01*
X414038Y154354D01*
X414126Y155025D01*
X414034Y155730D01*
X413762Y156387D01*
X413329Y156951D01*
X412765Y157384D01*
X412108Y157656D01*
X411403Y157748D01*
X410698Y157656D01*
X410042Y157384D01*
X409478Y156951D01*
X409045Y156387D01*
X408773Y155730D01*
X408680Y155025D01*
X408773Y154320D01*
X409045Y153664D01*
X409478Y153100D01*
X410042Y152667D01*
X410698Y152395D01*
X411403Y152302D01*
X412108Y152395D01*
X412765Y152667D01*
X412816Y152706D01*
X413424Y152371D01*
X413465Y151758D01*
X412998Y151232D01*
X411078D01*
X410112Y151105D01*
X409212Y150732D01*
X408439Y150139D01*
X405939Y147639D01*
X405346Y146866D01*
X404973Y145966D01*
X404910Y145485D01*
X404178Y145289D01*
X404173Y145296D01*
X403296Y145969D01*
X402274Y146392D01*
X401178Y146536D01*
X395178D01*
X394081Y146392D01*
X393060Y145969D01*
X392182Y145296D01*
X391509Y144418D01*
X391086Y143396D01*
X390942Y142300D01*
X391086Y141204D01*
X391509Y140182D01*
X392182Y139304D01*
X393060Y138631D01*
X394081Y138208D01*
X395178Y138064D01*
X401178D01*
X402274Y138208D01*
X403296Y138631D01*
X404146Y139284D01*
X404395Y139245D01*
X404846Y139092D01*
Y135508D01*
X404395Y135355D01*
X404146Y135317D01*
X403296Y135969D01*
X402274Y136392D01*
X401178Y136536D01*
X395178D01*
X394081Y136392D01*
X393060Y135969D01*
X392182Y135295D01*
X391509Y134418D01*
X391086Y133396D01*
X390942Y132300D01*
X391086Y131204D01*
X391509Y130182D01*
X392182Y129305D01*
X393060Y128631D01*
X394081Y128208D01*
X395178Y128064D01*
X401178D01*
X402274Y128208D01*
X403296Y128631D01*
X403969Y129148D01*
X404676Y128907D01*
X404737Y128437D01*
X402570Y126269D01*
X402274Y126392D01*
X401178Y126536D01*
X395178D01*
X394081Y126392D01*
X393060Y125969D01*
X392182Y125295D01*
X391509Y124418D01*
X391086Y123396D01*
X390942Y122300D01*
X391086Y121204D01*
X391509Y120182D01*
X392182Y119305D01*
X393060Y118631D01*
X394081Y118208D01*
X395178Y118064D01*
X401178D01*
X402274Y118208D01*
X402661Y118368D01*
X403678D01*
X404644Y118495D01*
X405544Y118868D01*
X406317Y119461D01*
X411217Y124361D01*
X412092Y124352D01*
X412152Y124274D01*
X412716Y123842D01*
X413373Y123570D01*
X414078Y123477D01*
X414783Y123570D01*
X415440Y123842D01*
X416004Y124274D01*
X416436Y124838D01*
X416709Y125495D01*
X416801Y126200D01*
X416709Y126905D01*
X416436Y127562D01*
X416004Y128126D01*
X415440Y128558D01*
X414783Y128831D01*
X414078Y128923D01*
X413373Y128831D01*
X413010Y128680D01*
X412310Y129067D01*
Y139679D01*
X413010Y140178D01*
X413503Y140080D01*
X414401Y140259D01*
X415161Y140767D01*
X415670Y141528D01*
X415848Y142425D01*
X415720Y143068D01*
X416150Y143768D01*
X419978D01*
X420944Y143895D01*
X421707Y144211D01*
X422173Y144026D01*
X422431Y143836D01*
X422473Y143520D01*
X422745Y142864D01*
X423177Y142299D01*
X423741Y141867D01*
X424398Y141595D01*
X425103Y141502D01*
X425808Y141595D01*
X426465Y141867D01*
X427029Y142299D01*
X427462Y142864D01*
X427734Y143520D01*
X427826Y144225D01*
X427734Y144930D01*
X427462Y145587D01*
X427029Y146151D01*
X426465Y146584D01*
X425808Y146856D01*
X425625Y146880D01*
X425375Y147619D01*
X431817Y154061D01*
X432410Y154834D01*
X432783Y155734D01*
X432910Y156700D01*
Y171032D01*
X433261Y171267D01*
X433770Y172028D01*
X433948Y172925D01*
X433770Y173823D01*
X433261Y174583D01*
X432501Y175092D01*
X431603Y175270D01*
X431044Y175159D01*
X431044Y175160D01*
X430144Y175532D01*
X429178Y175660D01*
D02*
G37*
G36*
X494378Y182323D02*
X493673Y182230D01*
X493016Y181958D01*
X492452Y181526D01*
X492020Y180962D01*
X491748Y180305D01*
X491655Y179600D01*
X491748Y178895D01*
X492020Y178238D01*
X492452Y177674D01*
X493016Y177242D01*
X493673Y176970D01*
X494378Y176877D01*
X495083Y176970D01*
X495740Y177242D01*
X496304Y177674D01*
X496736Y178238D01*
X497009Y178895D01*
X497101Y179600D01*
X497009Y180305D01*
X496736Y180962D01*
X496304Y181526D01*
X495740Y181958D01*
X495083Y182230D01*
X494378Y182323D01*
D02*
G37*
G36*
X468878Y184323D02*
X468173Y184230D01*
X467516Y183958D01*
X466952Y183526D01*
X466519Y182962D01*
X466248Y182305D01*
X466155Y181600D01*
X466248Y180895D01*
X466519Y180238D01*
X466952Y179674D01*
X467516Y179242D01*
X468173Y178970D01*
X468878Y178877D01*
X469583Y178970D01*
X470240Y179242D01*
X470804Y179674D01*
X471236Y180238D01*
X471509Y180895D01*
X471601Y181600D01*
X471509Y182305D01*
X471236Y182962D01*
X470804Y183526D01*
X470240Y183958D01*
X469583Y184230D01*
X468878Y184323D01*
D02*
G37*
G36*
X510578Y182423D02*
X509873Y182331D01*
X509216Y182058D01*
X508652Y181626D01*
X508219Y181062D01*
X507947Y180405D01*
X507855Y179700D01*
X507947Y178995D01*
X508219Y178338D01*
X508652Y177774D01*
X509216Y177342D01*
X509873Y177069D01*
X510578Y176977D01*
X511283Y177069D01*
X511940Y177342D01*
X512504Y177774D01*
X512936Y178338D01*
X513208Y178995D01*
X513301Y179700D01*
X513208Y180405D01*
X512936Y181062D01*
X512504Y181626D01*
X511940Y182058D01*
X511283Y182331D01*
X510578Y182423D01*
D02*
G37*
G36*
X401278Y177936D02*
X395278D01*
X394181Y177792D01*
X393160Y177369D01*
X392283Y176696D01*
X391609Y175818D01*
X391186Y174796D01*
X391042Y173700D01*
X391186Y172604D01*
X391609Y171582D01*
X392283Y170704D01*
X393160Y170031D01*
X394181Y169608D01*
X395278Y169464D01*
X401278D01*
X402374Y169608D01*
X403396Y170031D01*
X404273Y170704D01*
X404947Y171582D01*
X405370Y172604D01*
X405514Y173700D01*
X405370Y174796D01*
X404947Y175818D01*
X404273Y176696D01*
X403396Y177369D01*
X402374Y177792D01*
X401278Y177936D01*
D02*
G37*
G36*
X509278Y169523D02*
X508573Y169430D01*
X507916Y169158D01*
X507352Y168726D01*
X506919Y168162D01*
X506647Y167505D01*
X506555Y166800D01*
X506647Y166095D01*
X506919Y165438D01*
X507352Y164874D01*
X507916Y164442D01*
X508573Y164170D01*
X509278Y164077D01*
X509983Y164170D01*
X510640Y164442D01*
X511204Y164874D01*
X511636Y165438D01*
X511908Y166095D01*
X512001Y166800D01*
X511908Y167505D01*
X511636Y168162D01*
X511204Y168726D01*
X510640Y169158D01*
X509983Y169430D01*
X509278Y169523D01*
D02*
G37*
G36*
X376917Y178002D02*
X370917D01*
X369821Y177857D01*
X368799Y177434D01*
X367922Y176761D01*
X367249Y175883D01*
X366825Y174862D01*
X366681Y173765D01*
X366825Y172669D01*
X367249Y171647D01*
X367922Y170770D01*
X368799Y170097D01*
X369821Y169673D01*
X370917Y169529D01*
X376917D01*
X378014Y169673D01*
X379035Y170097D01*
X379913Y170770D01*
X380586Y171647D01*
X381009Y172669D01*
X381154Y173765D01*
X381009Y174862D01*
X380586Y175883D01*
X379913Y176761D01*
X379035Y177434D01*
X378014Y177857D01*
X376917Y178002D01*
D02*
G37*
G36*
X518878Y180223D02*
X518173Y180131D01*
X517516Y179858D01*
X516952Y179426D01*
X516519Y178862D01*
X516248Y178205D01*
X516155Y177500D01*
X516248Y176795D01*
X516519Y176138D01*
X516952Y175574D01*
X517516Y175142D01*
X518173Y174870D01*
X518878Y174777D01*
X519583Y174870D01*
X520240Y175142D01*
X520804Y175574D01*
X521236Y176138D01*
X521509Y176795D01*
X521601Y177500D01*
X521509Y178205D01*
X521236Y178862D01*
X520804Y179426D01*
X520240Y179858D01*
X519583Y180131D01*
X518878Y180223D01*
D02*
G37*
G36*
X313378Y179445D02*
X312480Y179267D01*
X311720Y178758D01*
X311211Y177997D01*
X311033Y177100D01*
X311211Y176203D01*
X311720Y175442D01*
X312480Y174933D01*
X313378Y174755D01*
X314275Y174933D01*
X315036Y175442D01*
X315545Y176203D01*
X315723Y177100D01*
X315545Y177997D01*
X315036Y178758D01*
X314275Y179267D01*
X313378Y179445D01*
D02*
G37*
G36*
X381978Y220845D02*
X381081Y220667D01*
X380320Y220158D01*
X379811Y219397D01*
X379633Y218500D01*
X379811Y217603D01*
X380320Y216842D01*
X381081Y216333D01*
X381978Y216155D01*
X382875Y216333D01*
X383636Y216842D01*
X384144Y217603D01*
X384323Y218500D01*
X384144Y219397D01*
X383636Y220158D01*
X382875Y220667D01*
X381978Y220845D01*
D02*
G37*
G36*
X198403Y219920D02*
X197506Y219741D01*
X196745Y219233D01*
X196237Y218472D01*
X196058Y217575D01*
X196237Y216677D01*
X196745Y215917D01*
X197506Y215408D01*
X198403Y215230D01*
X199301Y215408D01*
X200061Y215917D01*
X200570Y216677D01*
X200748Y217575D01*
X200570Y218472D01*
X200061Y219233D01*
X199301Y219741D01*
X198403Y219920D01*
D02*
G37*
G36*
X502578Y233523D02*
X501873Y233431D01*
X501216Y233158D01*
X500652Y232726D01*
X500219Y232162D01*
X499948Y231505D01*
X499855Y230800D01*
X499948Y230095D01*
X500219Y229438D01*
X500236Y229417D01*
X499975Y228607D01*
X499617Y228498D01*
X498279Y227783D01*
X497107Y226821D01*
X496145Y225649D01*
X495430Y224311D01*
X495307Y223906D01*
X494468Y223554D01*
X494283Y223630D01*
X493578Y223723D01*
X492873Y223630D01*
X492216Y223358D01*
X491652Y222926D01*
X491220Y222362D01*
X490947Y221705D01*
X490855Y221000D01*
X490947Y220295D01*
X491220Y219638D01*
X491652Y219074D01*
X492216Y218642D01*
X492873Y218370D01*
X493578Y218277D01*
X494283Y218370D01*
X494495Y218458D01*
X495330Y218117D01*
X495430Y217789D01*
X496145Y216451D01*
X497107Y215279D01*
X498279Y214317D01*
X499617Y213602D01*
X500037Y213474D01*
X500298Y212664D01*
X500219Y212562D01*
X499948Y211905D01*
X499855Y211200D01*
X499948Y210495D01*
X500219Y209838D01*
X500652Y209274D01*
X501216Y208842D01*
X501873Y208570D01*
X502578Y208477D01*
X503283Y208570D01*
X503940Y208842D01*
X504504Y209274D01*
X504936Y209838D01*
X505208Y210495D01*
X505301Y211200D01*
X505208Y211905D01*
X504936Y212562D01*
X504858Y212664D01*
X505119Y213474D01*
X505539Y213602D01*
X506877Y214317D01*
X508049Y215279D01*
X509011Y216451D01*
X509726Y217789D01*
X510167Y219240D01*
X510315Y220750D01*
Y221350D01*
X510167Y222860D01*
X509726Y224311D01*
X509011Y225649D01*
X508049Y226821D01*
X506877Y227783D01*
X505539Y228498D01*
X505181Y228607D01*
X504920Y229417D01*
X504936Y229438D01*
X505208Y230095D01*
X505301Y230800D01*
X505208Y231505D01*
X504936Y232162D01*
X504504Y232726D01*
X503940Y233158D01*
X503283Y233431D01*
X502578Y233523D01*
D02*
G37*
G36*
X320431Y222653D02*
X312125D01*
Y217253D01*
X311425Y216941D01*
X310901Y217292D01*
X310003Y217470D01*
X309106Y217292D01*
X308345Y216783D01*
X307837Y216023D01*
X307658Y215125D01*
X307837Y214228D01*
X308345Y213467D01*
X309106Y212959D01*
X310003Y212780D01*
X310901Y212959D01*
X311661Y213467D01*
X312170Y214228D01*
X312193Y214347D01*
X320431D01*
Y222653D01*
D02*
G37*
G36*
X406452Y223359D02*
X400547D01*
X399462Y223217D01*
X398452Y222798D01*
X397585Y222133D01*
X396919Y221265D01*
X396501Y220255D01*
X396358Y219171D01*
X396501Y218087D01*
X396919Y217077D01*
X397585Y216209D01*
X398452Y215543D01*
X399462Y215125D01*
X400547Y214982D01*
X406452D01*
X407536Y215125D01*
X408546Y215543D01*
X409414Y216209D01*
X410079Y217077D01*
X410498Y218087D01*
X410641Y219171D01*
X410498Y220255D01*
X410079Y221265D01*
X409414Y222133D01*
X408546Y222798D01*
X407536Y223217D01*
X406452Y223359D01*
D02*
G37*
G36*
X346278Y222689D02*
X345194Y222546D01*
X344184Y222127D01*
X343316Y221462D01*
X342651Y220594D01*
X342232Y219584D01*
X342089Y218500D01*
X342232Y217416D01*
X342651Y216406D01*
X343316Y215538D01*
X344184Y214873D01*
X345194Y214454D01*
X346278Y214311D01*
X347362Y214454D01*
X348372Y214873D01*
X349240Y215538D01*
X349905Y216406D01*
X350324Y217416D01*
X350466Y218500D01*
X350324Y219584D01*
X349905Y220594D01*
X349240Y221462D01*
X348372Y222127D01*
X347362Y222546D01*
X346278Y222689D01*
D02*
G37*
G36*
X336278D02*
X335194Y222546D01*
X334184Y222127D01*
X333316Y221462D01*
X332650Y220594D01*
X332232Y219584D01*
X332089Y218500D01*
X332232Y217416D01*
X332650Y216406D01*
X333316Y215538D01*
X334184Y214873D01*
X335194Y214454D01*
X336278Y214311D01*
X337362Y214454D01*
X338372Y214873D01*
X339240Y215538D01*
X339905Y216406D01*
X340324Y217416D01*
X340466Y218500D01*
X340324Y219584D01*
X339905Y220594D01*
X339240Y221462D01*
X338372Y222127D01*
X337362Y222546D01*
X336278Y222689D01*
D02*
G37*
G36*
X390546Y223359D02*
X389462Y223217D01*
X388452Y222798D01*
X387585Y222133D01*
X386919Y221265D01*
X386501Y220255D01*
X386358Y219171D01*
X386501Y218087D01*
X386919Y217077D01*
X387585Y216209D01*
X388452Y215543D01*
X389462Y215125D01*
X390546Y214982D01*
X391631Y215125D01*
X392641Y215543D01*
X393508Y216209D01*
X394174Y217077D01*
X394592Y218087D01*
X394735Y219171D01*
X394592Y220255D01*
X394174Y221265D01*
X393508Y222133D01*
X392641Y222798D01*
X391631Y223217D01*
X390546Y223359D01*
D02*
G37*
G36*
X356278Y222689D02*
X355194Y222546D01*
X354184Y222127D01*
X353316Y221462D01*
X352650Y220594D01*
X352232Y219584D01*
X352089Y218500D01*
X352232Y217416D01*
X352650Y216406D01*
X353316Y215538D01*
X354184Y214873D01*
X355194Y214454D01*
X356278Y214311D01*
X357362Y214454D01*
X358372Y214873D01*
X359240Y215538D01*
X359905Y216406D01*
X360324Y217416D01*
X360467Y218500D01*
X360324Y219584D01*
X359905Y220594D01*
X359240Y221462D01*
X358372Y222127D01*
X357362Y222546D01*
X356278Y222689D01*
D02*
G37*
G36*
X214103Y228570D02*
X213206Y228392D01*
X212445Y227883D01*
X211937Y227123D01*
X211758Y226225D01*
X211937Y225328D01*
X212445Y224567D01*
X213206Y224059D01*
X214103Y223880D01*
X215001Y224059D01*
X215761Y224567D01*
X216270Y225328D01*
X216448Y226225D01*
X216270Y227123D01*
X215761Y227883D01*
X215001Y228392D01*
X214103Y228570D01*
D02*
G37*
G36*
X346278Y232689D02*
X345194Y232546D01*
X344184Y232127D01*
X343316Y231462D01*
X342651Y230594D01*
X342232Y229584D01*
X342089Y228500D01*
X342232Y227416D01*
X342651Y226406D01*
X343316Y225538D01*
X344184Y224873D01*
X345194Y224454D01*
X346278Y224311D01*
X347362Y224454D01*
X348372Y224873D01*
X349240Y225538D01*
X349905Y226406D01*
X350324Y227416D01*
X350466Y228500D01*
X350324Y229584D01*
X349905Y230594D01*
X349240Y231462D01*
X348372Y232127D01*
X347362Y232546D01*
X346278Y232689D01*
D02*
G37*
G36*
X336278D02*
X335194Y232546D01*
X334184Y232127D01*
X333316Y231462D01*
X332650Y230594D01*
X332232Y229584D01*
X332089Y228500D01*
X332232Y227416D01*
X332650Y226406D01*
X333316Y225538D01*
X334184Y224873D01*
X335194Y224454D01*
X336278Y224311D01*
X337362Y224454D01*
X338372Y224873D01*
X339240Y225538D01*
X339905Y226406D01*
X340324Y227416D01*
X340466Y228500D01*
X340324Y229584D01*
X339905Y230594D01*
X339240Y231462D01*
X338372Y232127D01*
X337362Y232546D01*
X336278Y232689D01*
D02*
G37*
G36*
X394884Y228771D02*
X390946D01*
Y224833D01*
X391683Y224930D01*
X392742Y225369D01*
X393651Y226066D01*
X394349Y226976D01*
X394787Y228035D01*
X394884Y228771D01*
D02*
G37*
G36*
X356278Y232689D02*
X355194Y232546D01*
X354184Y232127D01*
X353316Y231462D01*
X352650Y230594D01*
X352232Y229584D01*
X352089Y228500D01*
X352232Y227416D01*
X352650Y226406D01*
X353316Y225538D01*
X354184Y224873D01*
X355194Y224454D01*
X356278Y224311D01*
X357362Y224454D01*
X358372Y224873D01*
X359240Y225538D01*
X359905Y226406D01*
X360324Y227416D01*
X360467Y228500D01*
X360324Y229584D01*
X359905Y230594D01*
X359240Y231462D01*
X358372Y232127D01*
X357362Y232546D01*
X356278Y232689D01*
D02*
G37*
G36*
X326278D02*
X325194Y232546D01*
X324184Y232127D01*
X323316Y231462D01*
X322651Y230594D01*
X322232Y229584D01*
X322089Y228500D01*
X322232Y227416D01*
X322651Y226406D01*
X323316Y225538D01*
X324184Y224873D01*
X325194Y224454D01*
X326278Y224311D01*
X327362Y224454D01*
X328372Y224873D01*
X329240Y225538D01*
X329905Y226406D01*
X330324Y227416D01*
X330467Y228500D01*
X330324Y229584D01*
X329905Y230594D01*
X329240Y231462D01*
X328372Y232127D01*
X327362Y232546D01*
X326278Y232689D01*
D02*
G37*
G36*
X476778Y224823D02*
X476073Y224730D01*
X475416Y224458D01*
X474878Y224045D01*
X474340Y224458D01*
X473683Y224730D01*
X472978Y224823D01*
X472273Y224730D01*
X471616Y224458D01*
X471052Y224026D01*
X470619Y223462D01*
X470347Y222805D01*
X470255Y222100D01*
X470347Y221395D01*
X470619Y220738D01*
X471052Y220174D01*
X471616Y219742D01*
X472273Y219469D01*
X472978Y219377D01*
X473683Y219469D01*
X474340Y219742D01*
X474878Y220155D01*
X475416Y219742D01*
X476073Y219469D01*
X476778Y219377D01*
X477483Y219469D01*
X478140Y219742D01*
X478704Y220174D01*
X479136Y220738D01*
X479409Y221395D01*
X479501Y222100D01*
X479409Y222805D01*
X479136Y223462D01*
X478704Y224026D01*
X478140Y224458D01*
X477483Y224730D01*
X476778Y224823D01*
D02*
G37*
G36*
X442678Y230423D02*
X441973Y230330D01*
X441316Y230058D01*
X440752Y229626D01*
X440319Y229062D01*
X440048Y228405D01*
X439955Y227700D01*
X440048Y226995D01*
X440126Y226805D01*
X439803Y226065D01*
X439733Y226029D01*
X439142Y225784D01*
X438578Y225351D01*
X438145Y224787D01*
X437873Y224130D01*
X437856Y224005D01*
X437150D01*
X437134Y224130D01*
X436862Y224787D01*
X436429Y225351D01*
X435865Y225784D01*
X435208Y226056D01*
X434503Y226149D01*
X433798Y226056D01*
X433142Y225784D01*
X432578Y225351D01*
X432145Y224787D01*
X431918Y224239D01*
X431553Y224181D01*
X431189Y224239D01*
X430962Y224787D01*
X430529Y225351D01*
X429965Y225784D01*
X429308Y226056D01*
X428603Y226149D01*
X427898Y226056D01*
X427242Y225784D01*
X426678Y225351D01*
X426245Y224787D01*
X426132Y224515D01*
X425374D01*
X425262Y224787D01*
X424829Y225351D01*
X424265Y225784D01*
X423608Y226056D01*
X422903Y226149D01*
X422198Y226056D01*
X421542Y225784D01*
X421411Y225684D01*
X420908Y225387D01*
X420345Y225677D01*
X420240Y225758D01*
X419583Y226030D01*
X418878Y226123D01*
X418173Y226030D01*
X417516Y225758D01*
X416952Y225326D01*
X416519Y224762D01*
X416248Y224105D01*
X416155Y223400D01*
X416248Y222695D01*
X416519Y222038D01*
X416952Y221474D01*
X417516Y221042D01*
X418173Y220770D01*
X418878Y220677D01*
X419583Y220770D01*
X420240Y221042D01*
X420370Y221142D01*
X420873Y221438D01*
X421436Y221148D01*
X421542Y221067D01*
X422198Y220795D01*
X422903Y220702D01*
X423608Y220795D01*
X424265Y221067D01*
X424829Y221499D01*
X425262Y222063D01*
X425374Y222336D01*
X426132D01*
X426245Y222063D01*
X426678Y221499D01*
X427242Y221067D01*
X427898Y220795D01*
X428603Y220702D01*
X429308Y220795D01*
X429965Y221067D01*
X430529Y221499D01*
X430962Y222063D01*
X431189Y222612D01*
X431553Y222670D01*
X431918Y222612D01*
X432145Y222063D01*
X432578Y221499D01*
X433142Y221067D01*
X433798Y220795D01*
X434503Y220702D01*
X435208Y220795D01*
X435865Y221067D01*
X436429Y221499D01*
X436862Y222063D01*
X437134Y222720D01*
X437150Y222846D01*
X437856D01*
X437873Y222720D01*
X438145Y222063D01*
X438578Y221499D01*
X439142Y221067D01*
X439798Y220795D01*
X440503Y220702D01*
X441208Y220795D01*
X441865Y221067D01*
X442429Y221499D01*
X442862Y222063D01*
X443134Y222720D01*
X443226Y223425D01*
X443134Y224130D01*
X443055Y224320D01*
X443379Y225060D01*
X443448Y225097D01*
X444040Y225342D01*
X444604Y225774D01*
X445036Y226338D01*
X445308Y226995D01*
X445401Y227700D01*
X445308Y228405D01*
X445036Y229062D01*
X444604Y229626D01*
X444040Y230058D01*
X443383Y230330D01*
X442678Y230423D01*
D02*
G37*
G36*
X320616Y228100D02*
X316678D01*
Y224162D01*
X317414Y224259D01*
X318473Y224698D01*
X319382Y225396D01*
X320080Y226305D01*
X320519Y227364D01*
X320616Y228100D01*
D02*
G37*
G36*
X315878D02*
X311940D01*
X312037Y227364D01*
X312476Y226305D01*
X313174Y225396D01*
X314083Y224698D01*
X315142Y224259D01*
X315878Y224162D01*
Y228100D01*
D02*
G37*
G36*
X326278Y222689D02*
X325194Y222546D01*
X324184Y222127D01*
X323316Y221462D01*
X322651Y220594D01*
X322232Y219584D01*
X322089Y218500D01*
X322232Y217416D01*
X322651Y216406D01*
X323316Y215538D01*
X324184Y214873D01*
X325194Y214454D01*
X326278Y214311D01*
X327362Y214454D01*
X328372Y214873D01*
X329240Y215538D01*
X329905Y216406D01*
X330324Y217416D01*
X330467Y218500D01*
X330324Y219584D01*
X329905Y220594D01*
X329240Y221462D01*
X328372Y222127D01*
X327362Y222546D01*
X326278Y222689D01*
D02*
G37*
G36*
X265903Y206270D02*
X265006Y206092D01*
X264245Y205583D01*
X263737Y204823D01*
X263558Y203925D01*
X263737Y203028D01*
X264245Y202267D01*
X265006Y201759D01*
X265903Y201580D01*
X266801Y201759D01*
X267561Y202267D01*
X268070Y203028D01*
X268248Y203925D01*
X268070Y204823D01*
X267561Y205583D01*
X266801Y206092D01*
X265903Y206270D01*
D02*
G37*
G36*
X367903Y203770D02*
X367006Y203592D01*
X366245Y203083D01*
X365737Y202323D01*
X365558Y201425D01*
X365737Y200528D01*
X366245Y199767D01*
X367006Y199259D01*
X367903Y199080D01*
X368801Y199259D01*
X369561Y199767D01*
X370070Y200528D01*
X370248Y201425D01*
X370070Y202323D01*
X369561Y203083D01*
X368801Y203592D01*
X367903Y203770D01*
D02*
G37*
G36*
X256403Y206470D02*
X255506Y206292D01*
X254745Y205783D01*
X254237Y205023D01*
X254058Y204125D01*
X254237Y203228D01*
X254745Y202467D01*
X255506Y201959D01*
X256403Y201780D01*
X257301Y201959D01*
X258061Y202467D01*
X258570Y203228D01*
X258748Y204125D01*
X258570Y205023D01*
X258061Y205783D01*
X257301Y206292D01*
X256403Y206470D01*
D02*
G37*
G36*
X425303Y209570D02*
X424406Y209392D01*
X423645Y208883D01*
X423137Y208123D01*
X422958Y207225D01*
X423060Y206716D01*
X422633Y205917D01*
X422506Y205892D01*
X421745Y205383D01*
X421277Y204683D01*
X420923Y204629D01*
X420526Y204638D01*
X420161Y205183D01*
X419401Y205692D01*
X418503Y205870D01*
X417606Y205692D01*
X416845Y205183D01*
X416337Y204423D01*
X416158Y203525D01*
X416337Y202628D01*
X416845Y201867D01*
X417606Y201359D01*
X418503Y201180D01*
X419401Y201359D01*
X420161Y201867D01*
X420629Y202567D01*
X420984Y202621D01*
X421380Y202613D01*
X421745Y202067D01*
X422506Y201559D01*
X423403Y201380D01*
X424301Y201559D01*
X425061Y202067D01*
X425570Y202828D01*
X425748Y203725D01*
X425647Y204235D01*
X426073Y205033D01*
X426201Y205059D01*
X426961Y205567D01*
X427470Y206328D01*
X427648Y207225D01*
X427470Y208123D01*
X426961Y208883D01*
X426201Y209392D01*
X425303Y209570D01*
D02*
G37*
G36*
X373878Y207745D02*
X372980Y207567D01*
X372220Y207058D01*
X371711Y206297D01*
X371533Y205400D01*
X371711Y204503D01*
X372220Y203742D01*
X372980Y203233D01*
X373878Y203055D01*
X374775Y203233D01*
X375536Y203742D01*
X376045Y204503D01*
X376223Y205400D01*
X376045Y206297D01*
X375536Y207058D01*
X374775Y207567D01*
X373878Y207745D01*
D02*
G37*
G36*
X400803Y203370D02*
X399906Y203192D01*
X399145Y202683D01*
X398637Y201923D01*
X398458Y201025D01*
X398637Y200128D01*
X399145Y199367D01*
X399906Y198859D01*
X400803Y198680D01*
X401701Y198859D01*
X402461Y199367D01*
X402970Y200128D01*
X403148Y201025D01*
X402970Y201923D01*
X402461Y202683D01*
X401701Y203192D01*
X400803Y203370D01*
D02*
G37*
G36*
X468878Y202423D02*
X468173Y202330D01*
X467516Y202058D01*
X466952Y201626D01*
X466519Y201062D01*
X466248Y200405D01*
X466155Y199700D01*
X466248Y198995D01*
X466519Y198338D01*
X466952Y197774D01*
X467516Y197342D01*
X468173Y197070D01*
X468878Y196977D01*
X469583Y197070D01*
X470240Y197342D01*
X470804Y197774D01*
X471236Y198338D01*
X471509Y198995D01*
X471601Y199700D01*
X471509Y200405D01*
X471236Y201062D01*
X470804Y201626D01*
X470240Y202058D01*
X469583Y202330D01*
X468878Y202423D01*
D02*
G37*
G36*
X477778Y204223D02*
X477073Y204131D01*
X476416Y203858D01*
X475852Y203426D01*
X475420Y202862D01*
X475147Y202205D01*
X475055Y201500D01*
X475147Y200795D01*
X475420Y200138D01*
X475852Y199574D01*
X476416Y199142D01*
X477073Y198870D01*
X477778Y198777D01*
X478483Y198870D01*
X479140Y199142D01*
X479704Y199574D01*
X480136Y200138D01*
X480408Y200795D01*
X480501Y201500D01*
X480408Y202205D01*
X480136Y202862D01*
X479704Y203426D01*
X479140Y203858D01*
X478483Y204131D01*
X477778Y204223D01*
D02*
G37*
G36*
X458878Y204323D02*
X458173Y204230D01*
X457516Y203958D01*
X456952Y203526D01*
X456520Y202962D01*
X456248Y202305D01*
X456155Y201600D01*
X456248Y200895D01*
X456520Y200238D01*
X456952Y199674D01*
X457516Y199242D01*
X458173Y198969D01*
X458878Y198877D01*
X459583Y198969D01*
X460240Y199242D01*
X460804Y199674D01*
X461236Y200238D01*
X461509Y200895D01*
X461601Y201600D01*
X461509Y202305D01*
X461236Y202962D01*
X460804Y203526D01*
X460240Y203958D01*
X459583Y204230D01*
X458878Y204323D01*
D02*
G37*
G36*
X448878D02*
X448173Y204230D01*
X447516Y203958D01*
X446952Y203526D01*
X446520Y202962D01*
X446247Y202305D01*
X446155Y201600D01*
X446247Y200895D01*
X446520Y200238D01*
X446952Y199674D01*
X447516Y199242D01*
X448173Y198969D01*
X448878Y198877D01*
X449583Y198969D01*
X450240Y199242D01*
X450804Y199674D01*
X451236Y200238D01*
X451509Y200895D01*
X451601Y201600D01*
X451509Y202305D01*
X451236Y202962D01*
X450804Y203526D01*
X450240Y203958D01*
X449583Y204230D01*
X448878Y204323D01*
D02*
G37*
G36*
X478478Y214323D02*
X477773Y214230D01*
X477116Y213958D01*
X476552Y213526D01*
X476120Y212962D01*
X475847Y212305D01*
X475755Y211600D01*
X475847Y210895D01*
X476120Y210238D01*
X476552Y209674D01*
X477116Y209242D01*
X477773Y208969D01*
X478478Y208877D01*
X479183Y208969D01*
X479840Y209242D01*
X480404Y209674D01*
X480836Y210238D01*
X481109Y210895D01*
X481201Y211600D01*
X481109Y212305D01*
X480836Y212962D01*
X480404Y213526D01*
X479840Y213958D01*
X479183Y214230D01*
X478478Y214323D01*
D02*
G37*
G36*
X487603Y211848D02*
X486898Y211756D01*
X486241Y211484D01*
X485677Y211051D01*
X485245Y210487D01*
X484973Y209830D01*
X484880Y209125D01*
X484973Y208420D01*
X485245Y207764D01*
X485677Y207200D01*
X486241Y206767D01*
X486898Y206495D01*
X487603Y206402D01*
X488308Y206495D01*
X488965Y206767D01*
X489529Y207200D01*
X489962Y207764D01*
X490234Y208420D01*
X490326Y209125D01*
X490234Y209830D01*
X489962Y210487D01*
X489529Y211051D01*
X488965Y211484D01*
X488308Y211756D01*
X487603Y211848D01*
D02*
G37*
G36*
X298103Y210970D02*
X297206Y210792D01*
X296445Y210283D01*
X295937Y209523D01*
X295758Y208625D01*
X295937Y207728D01*
X296445Y206967D01*
X297206Y206459D01*
X298103Y206280D01*
X299001Y206459D01*
X299761Y206967D01*
X300270Y207728D01*
X300448Y208625D01*
X300270Y209523D01*
X299761Y210283D01*
X299001Y210792D01*
X298103Y210970D01*
D02*
G37*
G36*
X450878Y212023D02*
X450173Y211930D01*
X449516Y211658D01*
X448952Y211226D01*
X448520Y210662D01*
X448247Y210005D01*
X448155Y209300D01*
X448247Y208595D01*
X448520Y207938D01*
X448952Y207374D01*
X449516Y206942D01*
X450173Y206669D01*
X450878Y206577D01*
X451583Y206669D01*
X452240Y206942D01*
X452804Y207374D01*
X453236Y207938D01*
X453509Y208595D01*
X453601Y209300D01*
X453509Y210005D01*
X453236Y210662D01*
X452804Y211226D01*
X452240Y211658D01*
X451583Y211930D01*
X450878Y212023D01*
D02*
G37*
G36*
X458778Y210623D02*
X458073Y210530D01*
X457416Y210258D01*
X456852Y209826D01*
X456420Y209262D01*
X456147Y208605D01*
X456055Y207900D01*
X456147Y207195D01*
X456420Y206538D01*
X456852Y205974D01*
X457416Y205542D01*
X458073Y205270D01*
X458778Y205177D01*
X459483Y205270D01*
X460140Y205542D01*
X460704Y205974D01*
X461136Y206538D01*
X461409Y207195D01*
X461501Y207900D01*
X461409Y208605D01*
X461136Y209262D01*
X460704Y209826D01*
X460140Y210258D01*
X459483Y210530D01*
X458778Y210623D01*
D02*
G37*
G36*
X465678Y210223D02*
X464973Y210131D01*
X464316Y209858D01*
X463752Y209426D01*
X463319Y208862D01*
X463048Y208205D01*
X462955Y207500D01*
X463048Y206795D01*
X463319Y206138D01*
X463752Y205574D01*
X464316Y205142D01*
X464973Y204870D01*
X465678Y204777D01*
X466383Y204870D01*
X467040Y205142D01*
X467604Y205574D01*
X468036Y206138D01*
X468308Y206795D01*
X468401Y207500D01*
X468308Y208205D01*
X468036Y208862D01*
X467604Y209426D01*
X467040Y209858D01*
X466383Y210131D01*
X465678Y210223D01*
D02*
G37*
G36*
X261203Y214570D02*
X260306Y214392D01*
X259545Y213883D01*
X259037Y213123D01*
X258858Y212225D01*
X259037Y211328D01*
X259545Y210567D01*
X260306Y210059D01*
X261203Y209880D01*
X262101Y210059D01*
X262861Y210567D01*
X263370Y211328D01*
X263548Y212225D01*
X263370Y213123D01*
X262861Y213883D01*
X262101Y214392D01*
X261203Y214570D01*
D02*
G37*
G36*
X367778Y213545D02*
X366880Y213367D01*
X366120Y212858D01*
X365611Y212097D01*
X365433Y211200D01*
X365611Y210303D01*
X366114Y209550D01*
X365611Y208797D01*
X365433Y207900D01*
X365611Y207003D01*
X366120Y206242D01*
X366880Y205733D01*
X367778Y205555D01*
X368675Y205733D01*
X369436Y206242D01*
X369945Y207003D01*
X370123Y207900D01*
X369945Y208797D01*
X369442Y209550D01*
X369945Y210303D01*
X370123Y211200D01*
X369945Y212097D01*
X369436Y212858D01*
X368675Y213367D01*
X367778Y213545D01*
D02*
G37*
%LPD*%
G36*
X409403Y106625D02*
Y86225D01*
X411033Y84595D01*
X410955Y84000D01*
X411048Y83295D01*
X411319Y82638D01*
X411752Y82074D01*
X412316Y81642D01*
X412973Y81370D01*
X413678Y81277D01*
X414273Y81355D01*
X421403Y74225D01*
Y42867D01*
X419462Y40925D01*
X406503D01*
X405301Y42127D01*
Y53110D01*
X404760Y54033D01*
X400203Y58590D01*
Y64765D01*
X400336Y64938D01*
X400608Y65595D01*
X400701Y66300D01*
X400608Y67005D01*
X400336Y67662D01*
X400203Y67835D01*
Y69965D01*
X400336Y70138D01*
X400608Y70795D01*
X400701Y71500D01*
X400608Y72205D01*
X400336Y72862D01*
X400203Y73035D01*
Y75141D01*
X400309Y75395D01*
X400401Y76100D01*
X400309Y76805D01*
X400203Y77059D01*
Y82825D01*
X395903Y87125D01*
Y87923D01*
X396403Y88058D01*
X397393Y87298D01*
X398640Y86782D01*
X398778Y86764D01*
Y95900D01*
Y105036D01*
X398640Y105018D01*
X397393Y104502D01*
X396403Y103742D01*
X395903Y103877D01*
Y105125D01*
X399703Y108925D01*
X407103D01*
X409403Y106625D01*
D02*
G37*
%LPC*%
G36*
X401178Y105036D02*
Y97100D01*
X405147D01*
Y100025D01*
X404971Y101363D01*
X404455Y102610D01*
X403633Y103680D01*
X402563Y104502D01*
X401316Y105018D01*
X401178Y105036D01*
D02*
G37*
G36*
X415778Y72645D02*
X414881Y72466D01*
X414120Y71958D01*
X413611Y71197D01*
X413433Y70300D01*
X413611Y69403D01*
X414120Y68642D01*
X414881Y68133D01*
X415778Y67955D01*
X416675Y68133D01*
X417436Y68642D01*
X417944Y69403D01*
X418123Y70300D01*
X417944Y71197D01*
X417436Y71958D01*
X416675Y72466D01*
X415778Y72645D01*
D02*
G37*
G36*
X405147Y94700D02*
X401178D01*
Y86764D01*
X401316Y86782D01*
X402563Y87298D01*
X403633Y88120D01*
X404455Y89190D01*
X404971Y90437D01*
X405147Y91775D01*
Y94700D01*
D02*
G37*
%LPD*%
G54D55*
X53248Y59941D02*
X117421D01*
X52933Y59626D02*
X53248Y59941D01*
X117421D02*
X119180Y61700D01*
X143578D01*
X151686D01*
X158169Y55216D01*
X169291D01*
X174311Y60236D01*
X190256D01*
X195079D01*
X202658Y52658D01*
X214961D01*
X220768Y58465D01*
X235433D01*
X241240D01*
X247638Y52067D01*
X259842D01*
X267618Y59842D01*
X299410D01*
X302264Y62697D01*
X316437D01*
X323917Y55216D01*
X326181D01*
X329626Y58661D01*
X415803Y151825D02*
Y151925D01*
X354478Y156939D02*
X355778Y158239D01*
Y164800D01*
Y170900D01*
X362678Y177800D01*
X354781Y149500D02*
X362978D01*
X354478Y149803D02*
X354781Y149500D01*
X354478Y149803D02*
Y156939D01*
X354784Y136800D02*
X358078D01*
X354478Y137106D02*
X354784Y136800D01*
X354478Y137106D02*
Y149803D01*
X354525Y128000D02*
X359178D01*
X354478Y127953D02*
X354525Y128000D01*
X354478Y127953D02*
Y137106D01*
X116043Y121063D02*
X354478D01*
X114862Y119882D02*
X116043Y121063D01*
X354478Y114000D02*
Y121063D01*
Y127953D01*
X21161Y62598D02*
X24035Y59724D01*
X27343D01*
X21161Y62598D02*
Y74410D01*
X66634Y119882D01*
X114862D01*
G54D58*
X405703Y69375D02*
Y80325D01*
Y69375D02*
X408878Y66200D01*
X399978Y95900D02*
Y96100D01*
G54D59*
X394178Y66400D02*
X395678D01*
X201673Y117224D02*
X204331Y114567D01*
X201476Y117224D02*
X201673D01*
X122047D02*
X135433D01*
X122047D02*
X201476D01*
X88287Y99803D02*
X104626D01*
X122047Y117224D01*
X57874Y69390D02*
X88287Y99803D01*
X25050Y69390D02*
X32742D01*
X33100Y69748D01*
X37176D01*
X37534Y69390D01*
X42742D01*
X43100Y69748D01*
X47176D01*
X47534Y69390D01*
X57874D01*
G54D61*
X399978Y86050D02*
X405703Y80325D01*
X399978Y86050D02*
Y95900D01*
G54D76*
X429178Y156700D02*
Y171928D01*
X419978Y147500D02*
X429178Y156700D01*
X411078Y147500D02*
X419978D01*
X408578Y145000D02*
X411078Y147500D01*
X408578Y127000D02*
Y145000D01*
X403678Y122100D02*
X408578Y127000D01*
X398178Y122100D02*
X403678D01*
G54D89*
X502578Y156050D02*
D03*
Y91050D02*
D03*
G54D91*
X403499Y249171D02*
D03*
G54D92*
X390546Y229171D02*
D03*
X316278Y228500D02*
D03*
Y266000D02*
D03*
G54D93*
X260498Y259868D02*
D03*
G54D94*
X228703Y259825D02*
D03*
X196603D02*
D03*
X186603Y235725D02*
D03*
G54D96*
X398178Y122300D02*
D03*
X373917Y183765D02*
D03*
Y121561D02*
D03*
Y152663D02*
D03*
G54D97*
X399978Y95900D02*
D03*
G54D100*
X500378Y264200D02*
D03*
G54D101*
X50295Y69390D02*
D03*
X29921D02*
D03*
X428278Y134000D02*
D03*
X386678Y85200D02*
D03*
X351378Y159800D02*
D03*
X444011Y167054D02*
D03*
X488403Y227925D02*
D03*
X240378Y244900D02*
D03*
X473678Y263700D02*
D03*
X466378Y255600D02*
D03*
Y263000D02*
D03*
Y259300D02*
D03*
X284778Y274300D02*
D03*
X429378Y184300D02*
D03*
X421678Y185400D02*
D03*
X359178Y132600D02*
D03*
X362978Y149500D02*
D03*
X358078Y136800D02*
D03*
X359178Y128000D02*
D03*
X355778Y164800D02*
D03*
X447778Y146100D02*
D03*
X442778D02*
D03*
X362678Y177800D02*
D03*
X354478Y114000D02*
D03*
X462378Y231500D02*
D03*
X458578Y225400D02*
D03*
Y229900D02*
D03*
X439680Y177291D02*
D03*
X387478Y109700D02*
D03*
X538878Y205700D02*
D03*
X540303Y176825D02*
D03*
X453978Y51100D02*
D03*
X400378Y53300D02*
D03*
X394178Y66400D02*
D03*
X397978Y66300D02*
D03*
X493278Y92300D02*
D03*
X502678Y99800D02*
D03*
X512278Y91200D02*
D03*
X511678Y156000D02*
D03*
X502578Y146800D02*
D03*
X493478Y156100D02*
D03*
X459678Y115646D02*
D03*
X393878Y56100D02*
D03*
X384678D02*
D03*
Y51000D02*
D03*
X393878D02*
D03*
X384678Y45800D02*
D03*
X393878D02*
D03*
X399778Y19000D02*
D03*
X390578D02*
D03*
Y13800D02*
D03*
X399778Y13900D02*
D03*
X390578Y8700D02*
D03*
X399778D02*
D03*
X464178Y41700D02*
D03*
X431578Y53200D02*
D03*
X452878Y146100D02*
D03*
X348003Y168525D02*
D03*
X478978Y260200D02*
D03*
X431578Y43200D02*
D03*
Y48200D02*
D03*
X451491Y169416D02*
D03*
X453854Y167054D02*
D03*
X456216Y169416D02*
D03*
X449129Y167054D02*
D03*
X439680Y173354D02*
D03*
Y169416D02*
D03*
X446373D02*
D03*
X417503Y28074D02*
D03*
X461428Y215400D02*
D03*
X478578Y215500D02*
D03*
X474578Y246400D02*
D03*
X456078Y248100D02*
D03*
X417778Y8700D02*
D03*
X417503Y23874D02*
D03*
X407378Y26500D02*
D03*
X383378Y59700D02*
D03*
X422778Y34400D02*
D03*
X407287Y13515D02*
D03*
X417978Y12200D02*
D03*
X394178Y71500D02*
D03*
Y76500D02*
D03*
X441578Y111700D02*
D03*
X414278Y130800D02*
D03*
X452978Y84800D02*
D03*
X443778D02*
D03*
X452978Y90000D02*
D03*
X443778D02*
D03*
Y95100D02*
D03*
X452978D02*
D03*
X328503Y184925D02*
D03*
X397978Y71500D02*
D03*
X397678Y76100D02*
D03*
X385178Y95700D02*
D03*
X446478Y215400D02*
D03*
X362678Y182300D02*
D03*
X502978Y11800D02*
D03*
X456103Y149525D02*
D03*
X439603Y150325D02*
D03*
X455903Y146125D02*
D03*
X462378Y228200D02*
D03*
Y224900D02*
D03*
X24705Y69390D02*
D03*
X55610D02*
D03*
X201476Y117224D02*
D03*
X204331Y114567D02*
D03*
G54D102*
X52933Y59626D02*
D03*
X190256Y60236D02*
D03*
X235433Y58465D02*
D03*
X329626Y58661D02*
D03*
X215503Y213525D02*
D03*
X467346Y239258D02*
D03*
X463410D02*
D03*
Y243195D02*
D03*
X467346D02*
D03*
X471283D02*
D03*
Y239258D02*
D03*
Y235320D02*
D03*
X467346D02*
D03*
X463410D02*
D03*
X415803Y151925D02*
D03*
X417803Y151825D02*
D03*
X431603Y172925D02*
D03*
X426803D02*
D03*
X243603Y274425D02*
D03*
X335003Y50325D02*
D03*
X325201Y58277D02*
D03*
X318878Y55900D02*
D03*
X299178Y65000D02*
D03*
X428878Y275400D02*
D03*
X487378Y268300D02*
D03*
X351856Y195378D02*
D03*
X282003Y35525D02*
D03*
X410959Y50768D02*
D03*
X406959D02*
D03*
X414959D02*
D03*
X418959D02*
D03*
Y46768D02*
D03*
Y42768D02*
D03*
X414959D02*
D03*
Y46768D02*
D03*
X410959D02*
D03*
Y42768D02*
D03*
X406959D02*
D03*
Y46768D02*
D03*
Y54768D02*
D03*
Y58768D02*
D03*
X410959D02*
D03*
Y54768D02*
D03*
X414959D02*
D03*
Y58768D02*
D03*
X418959D02*
D03*
Y54768D02*
D03*
X339678Y76000D02*
D03*
X361678Y50400D02*
D03*
X215078Y98600D02*
D03*
X198916Y73500D02*
D03*
X198116Y75700D02*
D03*
X175478Y54100D02*
D03*
X154003Y51935D02*
D03*
X153378Y79300D02*
D03*
X154003Y54235D02*
D03*
X220378Y89800D02*
D03*
X428878Y156200D02*
D03*
X375378Y31400D02*
D03*
X361178Y37100D02*
D03*
X378578Y91300D02*
D03*
X281478Y85300D02*
D03*
X280078Y69600D02*
D03*
X372978Y45100D02*
D03*
X337478Y50400D02*
D03*
X324778Y75000D02*
D03*
X324678Y63800D02*
D03*
X327578Y111900D02*
D03*
X361978Y87900D02*
D03*
X346978Y101200D02*
D03*
X340978Y96000D02*
D03*
X329778Y40100D02*
D03*
Y37600D02*
D03*
X356378Y45000D02*
D03*
X153478Y101400D02*
D03*
X199378Y99900D02*
D03*
X212578Y98600D02*
D03*
X202378Y105600D02*
D03*
Y103000D02*
D03*
X175703Y92525D02*
D03*
Y90225D02*
D03*
X268578Y86500D02*
D03*
X361978Y90400D02*
D03*
X172878Y54100D02*
D03*
X154178Y77100D02*
D03*
X154478Y84300D02*
D03*
X306876Y89833D02*
D03*
X318588Y79597D02*
D03*
X306876Y78908D02*
D03*
X299395Y79597D02*
D03*
X300403Y89825D02*
D03*
X166278Y87200D02*
D03*
X164078D02*
D03*
X154478Y82100D02*
D03*
X144878Y45300D02*
D03*
X147078D02*
D03*
X198778Y50400D02*
D03*
X143578Y61700D02*
D03*
X176387Y66209D02*
D03*
X220378Y87400D02*
D03*
X243678Y50600D02*
D03*
X221478Y62700D02*
D03*
X223478Y69150D02*
D03*
X178578Y72900D02*
D03*
X268178Y69350D02*
D03*
X362678Y62609D02*
D03*
X364578Y69250D02*
D03*
X340125Y73653D02*
D03*
X340078Y50400D02*
D03*
X359016D02*
D03*
X317478Y67400D02*
D03*
X318503Y89547D02*
D03*
X252978Y88600D02*
D03*
X249778Y103900D02*
D03*
X247778Y102000D02*
D03*
X356378Y42800D02*
D03*
X347678Y26700D02*
D03*
X354378Y98100D02*
D03*
X273978Y41400D02*
D03*
X272178Y38100D02*
D03*
X230378Y36000D02*
D03*
X262978Y26500D02*
D03*
X221603Y49125D02*
D03*
X259178Y36500D02*
D03*
X151178Y37800D02*
D03*
X153978D02*
D03*
X190603Y44025D02*
D03*
X192103Y41525D02*
D03*
X199978Y36100D02*
D03*
X175078Y34500D02*
D03*
X169378Y36300D02*
D03*
X144878Y52900D02*
D03*
X153478Y98600D02*
D03*
X217578Y50600D02*
D03*
X219778D02*
D03*
X186003Y50825D02*
D03*
X243078Y76000D02*
D03*
X243878Y73700D02*
D03*
X243678Y48400D02*
D03*
X264978Y50400D02*
D03*
X262616D02*
D03*
X290678Y104600D02*
D03*
X293378D02*
D03*
X234578Y48800D02*
D03*
X233078Y36000D02*
D03*
X266478Y62800D02*
D03*
X269378Y84400D02*
D03*
X219303Y230725D02*
D03*
X166503Y3125D02*
D03*
X139803Y2525D02*
D03*
X147103Y37425D02*
D03*
X173503Y15425D02*
D03*
X173603Y22025D02*
D03*
X222003Y9325D02*
D03*
X231403Y9625D02*
D03*
X157903Y45125D02*
D03*
X144903Y56425D02*
D03*
X159403Y37025D02*
D03*
X221103Y16925D02*
D03*
X179003Y17825D02*
D03*
X179203Y8325D02*
D03*
X267003Y53425D02*
D03*
X270903Y49225D02*
D03*
X275303Y38625D02*
D03*
X272903Y8425D02*
D03*
X272803Y18325D02*
D03*
X282003Y18425D02*
D03*
X200403Y8025D02*
D03*
X302703Y8225D02*
D03*
X275103Y51425D02*
D03*
X293203Y28225D02*
D03*
X323803Y28725D02*
D03*
X323903Y19625D02*
D03*
X323603Y8625D02*
D03*
X333203Y16425D02*
D03*
X333303Y8725D02*
D03*
X354003Y8425D02*
D03*
X339603Y42025D02*
D03*
Y36825D02*
D03*
X374803Y20525D02*
D03*
X375103Y8425D02*
D03*
X383503Y14125D02*
D03*
X383303Y26325D02*
D03*
X466003Y53925D02*
D03*
X462703Y34025D02*
D03*
X545403Y27725D02*
D03*
X520903Y42325D02*
D03*
X520503Y71825D02*
D03*
X542803Y60825D02*
D03*
X542103Y84025D02*
D03*
X476403Y80625D02*
D03*
X522803Y106325D02*
D03*
X523003Y125825D02*
D03*
X542603Y117125D02*
D03*
X542903Y136025D02*
D03*
X543003Y156525D02*
D03*
X527803Y151325D02*
D03*
X513903Y137425D02*
D03*
X518103Y164425D02*
D03*
X527903Y172025D02*
D03*
X518503Y149525D02*
D03*
X522203Y197325D02*
D03*
X512503Y220525D02*
D03*
X510003Y271925D02*
D03*
X528903Y212025D02*
D03*
X519303Y245625D02*
D03*
X528903Y224925D02*
D03*
X542903Y225025D02*
D03*
X542703Y242225D02*
D03*
X507203Y235525D02*
D03*
X497203Y238725D02*
D03*
X543703Y273625D02*
D03*
X481903Y257025D02*
D03*
X457203Y254725D02*
D03*
X459703Y266225D02*
D03*
X442503Y266525D02*
D03*
X430003Y265525D02*
D03*
X441803Y233025D02*
D03*
X381103Y193825D02*
D03*
X410203Y192025D02*
D03*
X359303Y191225D02*
D03*
X379703Y165925D02*
D03*
X383503Y166025D02*
D03*
X379903Y133125D02*
D03*
X383403D02*
D03*
X365003Y139925D02*
D03*
X360403Y117225D02*
D03*
X380003Y232725D02*
D03*
X375303Y250125D02*
D03*
X380003Y257925D02*
D03*
X370203Y256625D02*
D03*
X367303Y236625D02*
D03*
X367578Y243900D02*
D03*
X361503Y257425D02*
D03*
X355903Y249325D02*
D03*
X349403Y243425D02*
D03*
X341303Y247925D02*
D03*
X330003Y248925D02*
D03*
X330803Y253625D02*
D03*
X341203Y269925D02*
D03*
X310403Y269825D02*
D03*
X307203Y260225D02*
D03*
X301903Y253925D02*
D03*
X302703Y246525D02*
D03*
X313003Y245125D02*
D03*
X324503Y239225D02*
D03*
X265703Y274725D02*
D03*
X243103Y265925D02*
D03*
X226603Y272325D02*
D03*
X213803Y263125D02*
D03*
X209403Y274725D02*
D03*
X182503Y274625D02*
D03*
X140503Y256725D02*
D03*
X165603Y245225D02*
D03*
X182003Y248325D02*
D03*
X171403Y226525D02*
D03*
X369703Y100725D02*
D03*
X384003Y116225D02*
D03*
X187778Y217900D02*
D03*
X240503Y49725D02*
D03*
X430203Y215825D02*
D03*
X287203Y267425D02*
D03*
X251403Y7925D02*
D03*
X213903Y31025D02*
D03*
X226203Y31325D02*
D03*
X331778Y196400D02*
D03*
X504978Y27000D02*
D03*
X507978Y30200D02*
D03*
X477103Y23825D02*
D03*
X361503Y264625D02*
D03*
X159309Y72102D02*
D03*
X167971Y59109D02*
D03*
X163640D02*
D03*
X159309D02*
D03*
X167971Y63440D02*
D03*
X163640D02*
D03*
X159309D02*
D03*
X167971Y67771D02*
D03*
X163640D02*
D03*
X159309D02*
D03*
X167971Y72102D02*
D03*
X163640D02*
D03*
X208378Y68502D02*
D03*
X212709D02*
D03*
X204047Y64171D02*
D03*
X208378D02*
D03*
X212709D02*
D03*
X204047Y59840D02*
D03*
X208378D02*
D03*
X212709D02*
D03*
X204047Y55510D02*
D03*
X208378D02*
D03*
X212709D02*
D03*
X204047Y68502D02*
D03*
X249047D02*
D03*
X257709Y55510D02*
D03*
X253378D02*
D03*
X249047D02*
D03*
X257709Y59840D02*
D03*
X253378D02*
D03*
X249047D02*
D03*
X257709Y64171D02*
D03*
X253378D02*
D03*
X249047D02*
D03*
X257709Y68502D02*
D03*
X253378D02*
D03*
X349778D02*
D03*
X354109D02*
D03*
X345447Y64171D02*
D03*
X349778D02*
D03*
X354109D02*
D03*
X345447Y59840D02*
D03*
X349778D02*
D03*
X354109D02*
D03*
X345447Y55510D02*
D03*
X349778D02*
D03*
X354109D02*
D03*
X345447Y68502D02*
D03*
X183003Y33425D02*
D03*
X165703Y99625D02*
D03*
X198778Y48200D02*
D03*
X538903Y34125D02*
D03*
X27343Y59724D02*
D03*
G54D103*
X434703Y43225D02*
D03*
Y48225D02*
D03*
Y53125D02*
D03*
X441678Y161200D02*
D03*
G54D104*
X423605Y174670D02*
D03*
X466328Y98850D02*
D03*
X474378Y88900D02*
D03*
X478878D02*
D03*
G54D117*
X395678Y66400D02*
Y75000D01*
G54D118*
X408878Y55100D02*
Y66200D01*
M02*
