G04 Layer_Color=8388736*
%FSLAX25Y25*%
%MOIN*%
G70*
G01*
G75*
%ADD39C,0.06000*%
%ADD101C,0.03000*%
%ADD106C,0.08400*%
%ADD182C,0.06305*%
%ADD183R,0.08668X0.06305*%
G04:AMPARAMS|DCode=184|XSize=26mil|YSize=28mil|CornerRadius=6.4mil|HoleSize=0mil|Usage=FLASHONLY|Rotation=180.000|XOffset=0mil|YOffset=0mil|HoleType=Round|Shape=RoundedRectangle|*
%AMROUNDEDRECTD184*
21,1,0.02600,0.01520,0,0,180.0*
21,1,0.01320,0.02800,0,0,180.0*
1,1,0.01280,-0.00660,0.00760*
1,1,0.01280,0.00660,0.00760*
1,1,0.01280,0.00660,-0.00760*
1,1,0.01280,-0.00660,-0.00760*
%
%ADD184ROUNDEDRECTD184*%
G04:AMPARAMS|DCode=185|XSize=27.62mil|YSize=28mil|CornerRadius=6.72mil|HoleSize=0mil|Usage=FLASHONLY|Rotation=90.000|XOffset=0mil|YOffset=0mil|HoleType=Round|Shape=RoundedRectangle|*
%AMROUNDEDRECTD185*
21,1,0.02762,0.01455,0,0,90.0*
21,1,0.01417,0.02800,0,0,90.0*
1,1,0.01345,0.00728,0.00709*
1,1,0.01345,0.00728,-0.00709*
1,1,0.01345,-0.00728,-0.00709*
1,1,0.01345,-0.00728,0.00709*
%
%ADD185ROUNDEDRECTD185*%
G04:AMPARAMS|DCode=186|XSize=109mil|YSize=109mil|CornerRadius=28.25mil|HoleSize=0mil|Usage=FLASHONLY|Rotation=180.000|XOffset=0mil|YOffset=0mil|HoleType=Round|Shape=RoundedRectangle|*
%AMROUNDEDRECTD186*
21,1,0.10900,0.05250,0,0,180.0*
21,1,0.05250,0.10900,0,0,180.0*
1,1,0.05650,-0.02625,0.02625*
1,1,0.05650,0.02625,0.02625*
1,1,0.05650,0.02625,-0.02625*
1,1,0.05650,-0.02625,-0.02625*
%
%ADD186ROUNDEDRECTD186*%
%ADD187R,0.04816X0.01965*%
%ADD188R,0.03550X0.01565*%
%ADD189R,0.03038X0.03865*%
%ADD190R,0.02565X0.02368*%
%ADD191R,0.02368X0.02565*%
%ADD192R,0.03865X0.03038*%
G04:AMPARAMS|DCode=193|XSize=26mil|YSize=28mil|CornerRadius=6.4mil|HoleSize=0mil|Usage=FLASHONLY|Rotation=270.000|XOffset=0mil|YOffset=0mil|HoleType=Round|Shape=RoundedRectangle|*
%AMROUNDEDRECTD193*
21,1,0.02600,0.01520,0,0,270.0*
21,1,0.01320,0.02800,0,0,270.0*
1,1,0.01280,-0.00760,-0.00660*
1,1,0.01280,-0.00760,0.00660*
1,1,0.01280,0.00760,0.00660*
1,1,0.01280,0.00760,-0.00660*
%
%ADD193ROUNDEDRECTD193*%
%ADD194R,0.03200X0.06000*%
%ADD195R,0.20100X0.17400*%
%ADD196R,0.17400X0.20100*%
%ADD197R,0.06000X0.03200*%
G04:AMPARAMS|DCode=198|XSize=33.13mil|YSize=43.37mil|CornerRadius=7.83mil|HoleSize=0mil|Usage=FLASHONLY|Rotation=180.000|XOffset=0mil|YOffset=0mil|HoleType=Round|Shape=RoundedRectangle|*
%AMROUNDEDRECTD198*
21,1,0.03313,0.02772,0,0,180.0*
21,1,0.01748,0.04337,0,0,180.0*
1,1,0.01565,-0.00874,0.01386*
1,1,0.01565,0.00874,0.01386*
1,1,0.01565,0.00874,-0.01386*
1,1,0.01565,-0.00874,-0.01386*
%
%ADD198ROUNDEDRECTD198*%
G04:AMPARAMS|DCode=199|XSize=33.13mil|YSize=43.37mil|CornerRadius=7.83mil|HoleSize=0mil|Usage=FLASHONLY|Rotation=270.000|XOffset=0mil|YOffset=0mil|HoleType=Round|Shape=RoundedRectangle|*
%AMROUNDEDRECTD199*
21,1,0.03313,0.02772,0,0,270.0*
21,1,0.01748,0.04337,0,0,270.0*
1,1,0.01565,-0.01386,-0.00874*
1,1,0.01565,-0.01386,0.00874*
1,1,0.01565,0.01386,0.00874*
1,1,0.01565,0.01386,-0.00874*
%
%ADD199ROUNDEDRECTD199*%
%ADD200R,0.05912X0.13786*%
%ADD201R,0.13786X0.05912*%
G04:AMPARAMS|DCode=202|XSize=56mil|YSize=64mil|CornerRadius=15mil|HoleSize=0mil|Usage=FLASHONLY|Rotation=0.000|XOffset=0mil|YOffset=0mil|HoleType=Round|Shape=RoundedRectangle|*
%AMROUNDEDRECTD202*
21,1,0.05600,0.03400,0,0,0.0*
21,1,0.02600,0.06400,0,0,0.0*
1,1,0.03000,0.01300,-0.01700*
1,1,0.03000,-0.01300,-0.01700*
1,1,0.03000,-0.01300,0.01700*
1,1,0.03000,0.01300,0.01700*
%
%ADD202ROUNDEDRECTD202*%
G04:AMPARAMS|DCode=203|XSize=56mil|YSize=64mil|CornerRadius=15mil|HoleSize=0mil|Usage=FLASHONLY|Rotation=270.000|XOffset=0mil|YOffset=0mil|HoleType=Round|Shape=RoundedRectangle|*
%AMROUNDEDRECTD203*
21,1,0.05600,0.03400,0,0,270.0*
21,1,0.02600,0.06400,0,0,270.0*
1,1,0.03000,-0.01700,-0.01300*
1,1,0.03000,-0.01700,0.01300*
1,1,0.03000,0.01700,0.01300*
1,1,0.03000,0.01700,-0.01300*
%
%ADD203ROUNDEDRECTD203*%
%ADD204R,0.04731X0.07093*%
G04:AMPARAMS|DCode=205|XSize=67mil|YSize=75mil|CornerRadius=17.75mil|HoleSize=0mil|Usage=FLASHONLY|Rotation=180.000|XOffset=0mil|YOffset=0mil|HoleType=Round|Shape=RoundedRectangle|*
%AMROUNDEDRECTD205*
21,1,0.06700,0.03950,0,0,180.0*
21,1,0.03150,0.07500,0,0,180.0*
1,1,0.03550,-0.01575,0.01975*
1,1,0.03550,0.01575,0.01975*
1,1,0.03550,0.01575,-0.01975*
1,1,0.03550,-0.01575,-0.01975*
%
%ADD205ROUNDEDRECTD205*%
G04:AMPARAMS|DCode=206|XSize=67mil|YSize=75mil|CornerRadius=17.75mil|HoleSize=0mil|Usage=FLASHONLY|Rotation=90.000|XOffset=0mil|YOffset=0mil|HoleType=Round|Shape=RoundedRectangle|*
%AMROUNDEDRECTD206*
21,1,0.06700,0.03950,0,0,90.0*
21,1,0.03150,0.07500,0,0,90.0*
1,1,0.03550,0.01975,0.01575*
1,1,0.03550,0.01975,-0.01575*
1,1,0.03550,-0.01975,-0.01575*
1,1,0.03550,-0.01975,0.01575*
%
%ADD206ROUNDEDRECTD206*%
%ADD207R,0.02400X0.03000*%
%ADD208R,0.03943X0.13392*%
G04:AMPARAMS|DCode=209|XSize=80mil|YSize=80mil|CornerRadius=40mil|HoleSize=0mil|Usage=FLASHONLY|Rotation=0.000|XOffset=0mil|YOffset=0mil|HoleType=Round|Shape=RoundedRectangle|*
%AMROUNDEDRECTD209*
21,1,0.08000,0.00000,0,0,0.0*
21,1,0.00000,0.08000,0,0,0.0*
1,1,0.08000,0.00000,0.00000*
1,1,0.08000,0.00000,0.00000*
1,1,0.08000,0.00000,0.00000*
1,1,0.08000,0.00000,0.00000*
%
%ADD209ROUNDEDRECTD209*%
%ADD210R,0.02800X0.06400*%
%ADD211R,0.05200X0.05200*%
%ADD212R,0.05833X0.07487*%
%ADD213R,0.02762X0.03550*%
%ADD214R,0.08300X0.08300*%
%ADD215R,0.08300X0.08300*%
%ADD216R,0.13000X0.06700*%
%ADD217R,0.20479X0.08215*%
%ADD218R,0.05200X0.05200*%
G04:AMPARAMS|DCode=219|XSize=54mil|YSize=54mil|CornerRadius=27mil|HoleSize=0mil|Usage=FLASHONLY|Rotation=270.000|XOffset=0mil|YOffset=0mil|HoleType=Round|Shape=RoundedRectangle|*
%AMROUNDEDRECTD219*
21,1,0.05400,0.00000,0,0,270.0*
21,1,0.00000,0.05400,0,0,270.0*
1,1,0.05400,0.00000,0.00000*
1,1,0.05400,0.00000,0.00000*
1,1,0.05400,0.00000,0.00000*
1,1,0.05400,0.00000,0.00000*
%
%ADD219ROUNDEDRECTD219*%
%ADD220R,0.07487X0.05833*%
%ADD221R,0.14573X0.16542*%
%ADD222O,0.01384X0.03747*%
%ADD223O,0.03747X0.01384*%
%ADD224C,0.05439*%
%ADD225O,0.13400X0.14000*%
%ADD226R,0.06305X0.06305*%
%ADD227C,0.06305*%
%ADD228O,0.06400X0.12400*%
%ADD229R,0.06400X0.12400*%
%ADD230R,0.06305X0.06305*%
%ADD231O,0.12400X0.06400*%
%ADD232O,0.08650X0.16900*%
G04:AMPARAMS|DCode=233|XSize=137mil|YSize=87mil|CornerRadius=0mil|HoleSize=0mil|Usage=FLASHONLY|Rotation=270.000|XOffset=0mil|YOffset=0mil|HoleType=Round|Shape=Octagon|*
%AMOCTAGOND233*
4,1,8,-0.02175,-0.06850,0.02175,-0.06850,0.04350,-0.04675,0.04350,0.04675,0.02175,0.06850,-0.02175,0.06850,-0.04350,0.04675,-0.04350,-0.04675,-0.02175,-0.06850,0.0*
%
%ADD233OCTAGOND233*%

%ADD234R,0.12400X0.06400*%
%ADD235C,0.02600*%
G54D39*
X540453Y15773D02*
D03*
Y23647D02*
D03*
X534941Y29159D02*
D03*
X527067D02*
D03*
X521555Y23647D02*
D03*
Y15773D02*
D03*
X527067Y10261D02*
D03*
X534941D02*
D03*
X540453Y255931D02*
D03*
Y263805D02*
D03*
X534941Y269317D02*
D03*
X527067D02*
D03*
X521555Y263805D02*
D03*
Y255931D02*
D03*
X527067Y250419D02*
D03*
X534941D02*
D03*
X166437Y255931D02*
D03*
Y263805D02*
D03*
X160925Y269317D02*
D03*
X153051D02*
D03*
X147539Y263805D02*
D03*
Y255931D02*
D03*
X153051Y250419D02*
D03*
X160925D02*
D03*
X166437Y15773D02*
D03*
Y23647D02*
D03*
X160925Y29159D02*
D03*
X153051D02*
D03*
X147539Y23647D02*
D03*
Y15773D02*
D03*
X153051Y10261D02*
D03*
X160925D02*
D03*
G54D101*
X455491Y182877D02*
D03*
X459491D02*
D03*
Y186877D02*
D03*
X455491D02*
D03*
Y190877D02*
D03*
X459491D02*
D03*
Y194877D02*
D03*
X455491D02*
D03*
X447491D02*
D03*
X443491D02*
D03*
Y190877D02*
D03*
X447491D02*
D03*
Y186877D02*
D03*
X443491D02*
D03*
Y182877D02*
D03*
X447491D02*
D03*
X451491D02*
D03*
Y186877D02*
D03*
Y194877D02*
D03*
Y190877D02*
D03*
X410959Y50768D02*
D03*
X406959D02*
D03*
X414959D02*
D03*
X418959D02*
D03*
Y46768D02*
D03*
Y42768D02*
D03*
X414959D02*
D03*
Y46768D02*
D03*
X410959D02*
D03*
Y42768D02*
D03*
X406959D02*
D03*
Y46768D02*
D03*
Y54768D02*
D03*
Y58768D02*
D03*
X410959D02*
D03*
Y54768D02*
D03*
X414959D02*
D03*
Y58768D02*
D03*
X418959D02*
D03*
Y54768D02*
D03*
X159309Y72102D02*
D03*
X167971Y59109D02*
D03*
X163640D02*
D03*
X159309D02*
D03*
X167971Y63440D02*
D03*
X163640D02*
D03*
X159309D02*
D03*
X167971Y67771D02*
D03*
X163640D02*
D03*
X159309D02*
D03*
X167971Y72102D02*
D03*
X163640D02*
D03*
X208378Y68502D02*
D03*
X212709D02*
D03*
X204047Y64171D02*
D03*
X208378D02*
D03*
X212709D02*
D03*
X204047Y59840D02*
D03*
X208378D02*
D03*
X212709D02*
D03*
X204047Y55510D02*
D03*
X208378D02*
D03*
X212709D02*
D03*
X204047Y68502D02*
D03*
X249047D02*
D03*
X257709Y55510D02*
D03*
X253378D02*
D03*
X249047D02*
D03*
X257709Y59840D02*
D03*
X253378D02*
D03*
X249047D02*
D03*
X257709Y64171D02*
D03*
X253378D02*
D03*
X249047D02*
D03*
X257709Y68502D02*
D03*
X253378D02*
D03*
X349778D02*
D03*
X354109D02*
D03*
X345447Y64171D02*
D03*
X349778D02*
D03*
X354109D02*
D03*
X345447Y59840D02*
D03*
X349778D02*
D03*
X354109D02*
D03*
X345447Y55510D02*
D03*
X349778D02*
D03*
X354109D02*
D03*
X345447Y68502D02*
D03*
G54D106*
X540945Y42151D02*
D03*
G54D182*
X400547Y219171D02*
D03*
Y229171D02*
D03*
Y239171D02*
D03*
Y249171D02*
D03*
Y259171D02*
D03*
G54D183*
X27343Y274828D02*
D03*
X52933D02*
D03*
X27343Y264828D02*
D03*
X52933D02*
D03*
X27343Y254828D02*
D03*
X52933D02*
D03*
X27343Y244828D02*
D03*
X52933D02*
D03*
X27343Y234828D02*
D03*
X52933D02*
D03*
X27343Y224828D02*
D03*
X52933D02*
D03*
X27343Y214828D02*
D03*
X52933D02*
D03*
X82480Y64828D02*
D03*
X108071D02*
D03*
X82480Y54828D02*
D03*
X108071D02*
D03*
X82480Y44828D02*
D03*
X108071D02*
D03*
X82480Y34828D02*
D03*
X108071D02*
D03*
X82480Y24828D02*
D03*
X108071D02*
D03*
X82480Y14828D02*
D03*
X108071D02*
D03*
X82480Y4828D02*
D03*
X108071D02*
D03*
X82500Y134828D02*
D03*
X108091D02*
D03*
X82500Y124828D02*
D03*
X108091D02*
D03*
X82500Y114828D02*
D03*
X108091D02*
D03*
X82500Y104828D02*
D03*
X108091D02*
D03*
X82500Y94828D02*
D03*
X108091D02*
D03*
X82500Y84828D02*
D03*
X108091D02*
D03*
X82500Y74828D02*
D03*
X108091D02*
D03*
X82500Y204828D02*
D03*
X108091D02*
D03*
X82500Y194828D02*
D03*
X108091D02*
D03*
X82500Y184828D02*
D03*
X108091D02*
D03*
X82500Y174828D02*
D03*
X108091D02*
D03*
X82500Y164828D02*
D03*
X108091D02*
D03*
X82500Y154828D02*
D03*
X108091D02*
D03*
X82500Y144828D02*
D03*
X108091D02*
D03*
X82500Y274828D02*
D03*
X108091D02*
D03*
X82500Y264828D02*
D03*
X108091D02*
D03*
X82500Y254828D02*
D03*
X108091D02*
D03*
X82500Y244828D02*
D03*
X108091D02*
D03*
X82500Y234828D02*
D03*
X108091D02*
D03*
X82500Y224828D02*
D03*
X108091D02*
D03*
X82500Y214828D02*
D03*
X108091D02*
D03*
X27343Y64828D02*
D03*
X52933D02*
D03*
X27343Y54828D02*
D03*
X52933D02*
D03*
X27343Y44828D02*
D03*
X52933D02*
D03*
X27343Y34828D02*
D03*
X52933D02*
D03*
X27343Y24828D02*
D03*
X52933D02*
D03*
X27343Y14828D02*
D03*
X52933D02*
D03*
X27343Y4828D02*
D03*
X52933D02*
D03*
G54D184*
X480003Y98525D02*
D03*
X483793D02*
D03*
X433688Y160400D02*
D03*
X437478D02*
D03*
X259968Y201200D02*
D03*
X256178D02*
D03*
X344788Y153300D02*
D03*
X348578D02*
D03*
X433688Y156500D02*
D03*
X437478D02*
D03*
X430948Y130700D02*
D03*
X427178D02*
D03*
X369248Y60600D02*
D03*
X365478D02*
D03*
X357378Y79800D02*
D03*
X361148D02*
D03*
X365408Y73900D02*
D03*
X369178D02*
D03*
X269878Y61000D02*
D03*
X273648D02*
D03*
X261078Y79700D02*
D03*
X264848D02*
D03*
X273378Y73900D02*
D03*
X269608D02*
D03*
X227748Y60800D02*
D03*
X223978D02*
D03*
X215978Y79700D02*
D03*
X219748D02*
D03*
X223946Y73800D02*
D03*
X227716D02*
D03*
X474778Y249200D02*
D03*
X478548D02*
D03*
X344308Y162100D02*
D03*
X348078D02*
D03*
X299070Y76644D02*
D03*
X302840D02*
D03*
X304235Y92983D02*
D03*
X300465D02*
D03*
X306846Y76644D02*
D03*
X310616D02*
D03*
X311716Y92983D02*
D03*
X307946D02*
D03*
X318421Y76546D02*
D03*
X314651D02*
D03*
X315751Y92884D02*
D03*
X319521D02*
D03*
X345502Y168529D02*
D03*
X341732D02*
D03*
X182648Y64600D02*
D03*
X178878D02*
D03*
X170378Y82300D02*
D03*
X174148D02*
D03*
X179208Y77400D02*
D03*
X182978D02*
D03*
X385178Y98800D02*
D03*
X381408D02*
D03*
X293548Y274200D02*
D03*
X289778D02*
D03*
X425178Y272400D02*
D03*
X428948D02*
D03*
X205103Y217525D02*
D03*
X201313D02*
D03*
X213503Y241425D02*
D03*
X217293D02*
D03*
X213503Y245525D02*
D03*
X217293D02*
D03*
X217303Y237225D02*
D03*
X213513D02*
D03*
X481178Y264600D02*
D03*
X484968D02*
D03*
X484978Y272000D02*
D03*
X481188D02*
D03*
X427178Y126400D02*
D03*
X430968D02*
D03*
X349588Y123600D02*
D03*
X353378D02*
D03*
X344278Y158300D02*
D03*
X348068D02*
D03*
X417978Y135200D02*
D03*
X421768D02*
D03*
X421778Y139200D02*
D03*
X417988D02*
D03*
X209103Y213525D02*
D03*
X212873D02*
D03*
X197303Y213425D02*
D03*
X193533D02*
D03*
X482388Y238700D02*
D03*
X486178D02*
D03*
X427303Y200325D02*
D03*
X431093D02*
D03*
X355778Y173400D02*
D03*
X359568D02*
D03*
X414613Y154925D02*
D03*
X418403D02*
D03*
X326103Y188025D02*
D03*
X329893D02*
D03*
X445888Y162300D02*
D03*
X449678D02*
D03*
X336778Y198500D02*
D03*
X332988D02*
D03*
X426588Y69700D02*
D03*
X430378D02*
D03*
X409078Y70300D02*
D03*
X412868D02*
D03*
X351288Y136900D02*
D03*
X355078D02*
D03*
X163878Y232000D02*
D03*
X160088D02*
D03*
X359568Y169200D02*
D03*
X355778D02*
D03*
X421793Y200325D02*
D03*
X418003D02*
D03*
X431103Y196025D02*
D03*
X427313D02*
D03*
X418013D02*
D03*
X421803D02*
D03*
X354678Y203000D02*
D03*
X350888D02*
D03*
X205103Y213425D02*
D03*
X201313D02*
D03*
X212893Y217625D02*
D03*
X209103D02*
D03*
X163903Y240100D02*
D03*
X160113D02*
D03*
X209911Y109941D02*
D03*
X213701D02*
D03*
X169103Y110325D02*
D03*
X165313D02*
D03*
X346078Y145350D02*
D03*
X342288D02*
D03*
X280778Y204200D02*
D03*
X276988D02*
D03*
X290748Y116400D02*
D03*
X286958D02*
D03*
X333978Y122400D02*
D03*
X337768D02*
D03*
X288303Y200725D02*
D03*
X292093D02*
D03*
X288703Y208025D02*
D03*
X292493D02*
D03*
X267778Y201100D02*
D03*
X263988D02*
D03*
X262978Y209200D02*
D03*
X259188D02*
D03*
X364478Y203200D02*
D03*
X360688D02*
D03*
X373878Y203100D02*
D03*
X370088D02*
D03*
G54D185*
X489603Y98425D02*
D03*
Y94635D02*
D03*
G54D186*
X467346Y239258D02*
D03*
G54D187*
X476795Y235320D02*
D03*
Y237289D02*
D03*
Y239258D02*
D03*
Y241226D02*
D03*
Y243195D02*
D03*
X457898Y235320D02*
D03*
Y237289D02*
D03*
Y239258D02*
D03*
Y241226D02*
D03*
Y243195D02*
D03*
G54D188*
X355102Y189672D02*
D03*
Y191641D02*
D03*
Y193609D02*
D03*
Y195578D02*
D03*
X342504Y189672D02*
D03*
Y191641D02*
D03*
Y193609D02*
D03*
Y195578D02*
D03*
G54D189*
X418421Y148725D02*
D03*
X413185D02*
D03*
X352660Y30300D02*
D03*
X357896D02*
D03*
X309160Y53800D02*
D03*
X314396D02*
D03*
X298260D02*
D03*
X303496D02*
D03*
X284560D02*
D03*
X289796D02*
D03*
X250421Y31425D02*
D03*
X245185D02*
D03*
X335596Y45600D02*
D03*
X330360D02*
D03*
X203685Y26625D02*
D03*
X208921D02*
D03*
X215285Y26525D02*
D03*
X220521D02*
D03*
X233385Y31425D02*
D03*
X238621D02*
D03*
X268685Y27025D02*
D03*
X273921D02*
D03*
G54D190*
X413833Y162825D02*
D03*
X417573D02*
D03*
X246608Y273850D02*
D03*
X250348D02*
D03*
X190808Y217950D02*
D03*
X194548D02*
D03*
X358248Y159600D02*
D03*
X354508D02*
D03*
X434933Y163925D02*
D03*
X438673D02*
D03*
X449348Y157500D02*
D03*
X445608D02*
D03*
X213533Y233425D02*
D03*
X217273D02*
D03*
X334058Y186600D02*
D03*
X337798D02*
D03*
X481108Y268300D02*
D03*
X484848D02*
D03*
G54D191*
X413303Y138495D02*
D03*
Y134755D02*
D03*
G54D192*
X370678Y37118D02*
D03*
Y31882D02*
D03*
X336578Y31018D02*
D03*
Y25782D02*
D03*
X186603Y31643D02*
D03*
Y26407D02*
D03*
X342178Y118082D02*
D03*
Y123318D02*
D03*
X178303Y31643D02*
D03*
Y26407D02*
D03*
X196103Y31625D02*
D03*
Y26389D02*
D03*
X220603Y39943D02*
D03*
Y34707D02*
D03*
G54D193*
X460303Y161615D02*
D03*
Y157825D02*
D03*
X456203Y161615D02*
D03*
Y157825D02*
D03*
X422078Y215450D02*
D03*
Y219220D02*
D03*
X367078Y69270D02*
D03*
Y65500D02*
D03*
X335578Y56684D02*
D03*
Y52914D02*
D03*
X270768Y69291D02*
D03*
Y65521D02*
D03*
X239178Y53030D02*
D03*
Y56800D02*
D03*
X225687Y69152D02*
D03*
Y65382D02*
D03*
X194078Y55700D02*
D03*
Y51930D02*
D03*
X180978Y69100D02*
D03*
Y72870D02*
D03*
X149478Y55330D02*
D03*
Y59100D02*
D03*
X209403Y237725D02*
D03*
Y241515D02*
D03*
X418078Y219240D02*
D03*
Y215450D02*
D03*
X417403Y268635D02*
D03*
Y272425D02*
D03*
X421403Y268635D02*
D03*
Y272425D02*
D03*
X351178Y141410D02*
D03*
Y145200D02*
D03*
X422128Y207000D02*
D03*
Y210790D02*
D03*
X236803Y244625D02*
D03*
Y240855D02*
D03*
X371878Y69300D02*
D03*
Y65510D02*
D03*
X275378D02*
D03*
Y69300D02*
D03*
X231678Y61200D02*
D03*
Y57410D02*
D03*
X478978Y257190D02*
D03*
Y253400D02*
D03*
X474978Y253410D02*
D03*
Y257200D02*
D03*
X482778Y242910D02*
D03*
Y246700D02*
D03*
X351578Y173190D02*
D03*
Y169400D02*
D03*
X349578Y115800D02*
D03*
Y119590D02*
D03*
X355278Y141410D02*
D03*
Y145200D02*
D03*
X425578Y137700D02*
D03*
Y141490D02*
D03*
X488603Y184535D02*
D03*
Y188325D02*
D03*
X186778Y63200D02*
D03*
Y59410D02*
D03*
X418028Y207000D02*
D03*
Y210790D02*
D03*
X232703Y244625D02*
D03*
Y240835D02*
D03*
X299703Y97325D02*
D03*
Y101115D02*
D03*
X248003Y240825D02*
D03*
Y244615D02*
D03*
X326678Y198300D02*
D03*
Y194510D02*
D03*
X320978Y198300D02*
D03*
Y194510D02*
D03*
X315178Y198200D02*
D03*
Y194410D02*
D03*
X259603Y244225D02*
D03*
Y240435D02*
D03*
G54D194*
X443991Y174338D02*
D03*
X448991D02*
D03*
X453991D02*
D03*
X458991D02*
D03*
G54D195*
X451491Y188777D02*
D03*
G54D196*
X413059Y50768D02*
D03*
G54D197*
X427498Y58268D02*
D03*
Y53268D02*
D03*
Y48268D02*
D03*
Y43268D02*
D03*
G54D198*
X352101Y38900D02*
D03*
X357455D02*
D03*
X330555Y54300D02*
D03*
X325201D02*
D03*
X347855Y30700D02*
D03*
X342501D02*
D03*
X361455Y84500D02*
D03*
X356101D02*
D03*
X364501Y44100D02*
D03*
X369855D02*
D03*
X233301Y45500D02*
D03*
X238655D02*
D03*
X264401Y38200D02*
D03*
X269755D02*
D03*
X246001Y85100D02*
D03*
X251355D02*
D03*
X318855Y59700D02*
D03*
X313501D02*
D03*
X271401Y78700D02*
D03*
X276755D02*
D03*
X259801Y84400D02*
D03*
X265155D02*
D03*
X273855Y44800D02*
D03*
X268501D02*
D03*
X214901Y84400D02*
D03*
X220255D02*
D03*
X224655Y44700D02*
D03*
X219301D02*
D03*
X209655Y32000D02*
D03*
X204301D02*
D03*
X193580Y46925D02*
D03*
X188226D02*
D03*
X257501Y30200D02*
D03*
X262855D02*
D03*
X469351Y98950D02*
D03*
X474706D02*
D03*
X468601Y93200D02*
D03*
X473955D02*
D03*
X479301D02*
D03*
X484655D02*
D03*
X453355Y220700D02*
D03*
X448001D02*
D03*
X459655Y119700D02*
D03*
X454301D02*
D03*
X431155Y34400D02*
D03*
X425801D02*
D03*
X170301Y86900D02*
D03*
X175655D02*
D03*
X183255Y47900D02*
D03*
X177901D02*
D03*
X149555Y49500D02*
D03*
X144201D02*
D03*
X337055Y110500D02*
D03*
X331701D02*
D03*
X499955Y11800D02*
D03*
X494601D02*
D03*
G54D199*
X352778Y94977D02*
D03*
Y89623D02*
D03*
X365078Y38700D02*
D03*
Y33346D02*
D03*
X376278Y40077D02*
D03*
Y34723D02*
D03*
X367878Y84277D02*
D03*
Y78923D02*
D03*
X255503Y35548D02*
D03*
Y40902D02*
D03*
X295478Y59723D02*
D03*
Y65077D02*
D03*
X215203Y33948D02*
D03*
Y39302D02*
D03*
X211178Y94877D02*
D03*
Y89523D02*
D03*
X226003Y33948D02*
D03*
Y39302D02*
D03*
X226478Y83877D02*
D03*
Y78523D02*
D03*
X441578Y120677D02*
D03*
Y115323D02*
D03*
X447178Y233823D02*
D03*
Y239177D02*
D03*
X170178Y44177D02*
D03*
Y38823D02*
D03*
X175878Y37423D02*
D03*
Y42777D02*
D03*
X165178Y96777D02*
D03*
Y91423D02*
D03*
X181628Y36046D02*
D03*
Y41400D02*
D03*
X187428Y41377D02*
D03*
Y36023D02*
D03*
X181578Y81923D02*
D03*
Y87277D02*
D03*
X504978Y35477D02*
D03*
Y30123D02*
D03*
Y23677D02*
D03*
Y18323D02*
D03*
G54D200*
X395178Y34236D02*
D03*
Y13764D02*
D03*
X389278Y71436D02*
D03*
Y50964D02*
D03*
X448378Y110436D02*
D03*
Y89964D02*
D03*
G54D201*
X267305Y100500D02*
D03*
X287778D02*
D03*
X219103Y103325D02*
D03*
X239576D02*
D03*
X173942Y103700D02*
D03*
X194414D02*
D03*
G54D202*
X446938Y227600D02*
D03*
X454478D02*
D03*
G54D203*
X484378Y225200D02*
D03*
Y232740D02*
D03*
G54D204*
X476594Y227500D02*
D03*
X466161D02*
D03*
G54D205*
X334178Y38800D02*
D03*
X345376D02*
D03*
X247805Y91925D02*
D03*
X259003D02*
D03*
X207602Y39625D02*
D03*
X196403D02*
D03*
X237503Y38725D02*
D03*
X248702D02*
D03*
X152278Y42700D02*
D03*
X163476D02*
D03*
G54D206*
X345903Y96225D02*
D03*
Y85027D02*
D03*
X204378Y85202D02*
D03*
Y96400D02*
D03*
X158378Y89402D02*
D03*
Y100600D02*
D03*
G54D207*
X313175Y67350D02*
D03*
X310025D02*
D03*
X306850D02*
D03*
X303650D02*
D03*
Y72707D02*
D03*
X306850D02*
D03*
X310025D02*
D03*
X313175D02*
D03*
Y86683D02*
D03*
X310025D02*
D03*
X306850D02*
D03*
X303650D02*
D03*
Y81326D02*
D03*
X306850D02*
D03*
X310025D02*
D03*
X313175D02*
D03*
Y96877D02*
D03*
X310025D02*
D03*
X306850D02*
D03*
X303650D02*
D03*
Y102235D02*
D03*
X306850D02*
D03*
X310025D02*
D03*
X313175D02*
D03*
G54D208*
X446764Y258100D02*
D03*
X469992D02*
D03*
G54D209*
X143701Y6816D02*
D03*
X543996Y6423D02*
D03*
X143701Y272860D02*
D03*
G54D210*
X416678Y168715D02*
D03*
X421678D02*
D03*
X431678D02*
D03*
X416678Y190442D02*
D03*
X421678D02*
D03*
X431678D02*
D03*
X426678Y168715D02*
D03*
Y190442D02*
D03*
G54D211*
X153512Y240100D02*
D03*
X145178D02*
D03*
X153512Y232100D02*
D03*
X145178D02*
D03*
X409744Y64600D02*
D03*
X418078D02*
D03*
G54D212*
X484588Y85400D02*
D03*
X468368D02*
D03*
G54D213*
X360124Y154200D02*
D03*
X353432D02*
D03*
X353232Y182300D02*
D03*
X359924D02*
D03*
X353232Y177700D02*
D03*
X359924D02*
D03*
X360124Y149600D02*
D03*
X353432D02*
D03*
X349485Y128000D02*
D03*
X356178D02*
D03*
X349431Y132600D02*
D03*
X356124D02*
D03*
X426757Y210725D02*
D03*
X433450D02*
D03*
X417232Y126200D02*
D03*
X423924D02*
D03*
X417232Y130800D02*
D03*
X423924D02*
D03*
X426757Y215625D02*
D03*
X433450D02*
D03*
X209457Y223325D02*
D03*
X216150D02*
D03*
X210657Y229225D02*
D03*
X217350D02*
D03*
G54D214*
X438778Y258100D02*
D03*
X423004D02*
D03*
X412950Y26368D02*
D03*
X428724D02*
D03*
X418378Y117900D02*
D03*
X434152D02*
D03*
X428633Y14383D02*
D03*
X412859D02*
D03*
G54D215*
X486603Y216825D02*
D03*
Y201051D02*
D03*
G54D216*
X447811Y151119D02*
D03*
Y127408D02*
D03*
G54D217*
X428078Y229226D02*
D03*
Y244974D02*
D03*
G54D218*
X430578Y138766D02*
D03*
Y147100D02*
D03*
X423703Y153291D02*
D03*
Y161625D02*
D03*
X483603Y185091D02*
D03*
Y193425D02*
D03*
G54D219*
X323278Y82400D02*
D03*
X323978Y68700D02*
D03*
X295950Y83140D02*
D03*
G54D220*
X497578Y17790D02*
D03*
Y34010D02*
D03*
G54D221*
X163640Y65605D02*
D03*
X208378Y62006D02*
D03*
X253378D02*
D03*
X349778D02*
D03*
G54D222*
X156750Y77121D02*
D03*
X158719D02*
D03*
X160687D02*
D03*
X162656D02*
D03*
X164624D02*
D03*
X166593D02*
D03*
X168561D02*
D03*
X170530D02*
D03*
Y54090D02*
D03*
X168561D02*
D03*
X166593D02*
D03*
X164624D02*
D03*
X162656D02*
D03*
X160687D02*
D03*
X158719D02*
D03*
X156750D02*
D03*
X201488Y50490D02*
D03*
X203457D02*
D03*
X205425D02*
D03*
X207394D02*
D03*
X209362D02*
D03*
X211331D02*
D03*
X213299D02*
D03*
X215268D02*
D03*
Y73521D02*
D03*
X213299D02*
D03*
X211331D02*
D03*
X209362D02*
D03*
X207394D02*
D03*
X205425D02*
D03*
X203457D02*
D03*
X201488D02*
D03*
X246488D02*
D03*
X248457D02*
D03*
X250425D02*
D03*
X252394D02*
D03*
X254362D02*
D03*
X256331D02*
D03*
X258299D02*
D03*
X260268D02*
D03*
Y50490D02*
D03*
X258299D02*
D03*
X256331D02*
D03*
X254362D02*
D03*
X252394D02*
D03*
X250425D02*
D03*
X248457D02*
D03*
X246488D02*
D03*
X342888D02*
D03*
X344857D02*
D03*
X346825D02*
D03*
X348794D02*
D03*
X350762D02*
D03*
X352731D02*
D03*
X354699D02*
D03*
X356668D02*
D03*
Y73521D02*
D03*
X354699D02*
D03*
X352731D02*
D03*
X350762D02*
D03*
X348794D02*
D03*
X346825D02*
D03*
X344857D02*
D03*
X342888D02*
D03*
G54D223*
X173207Y74464D02*
D03*
Y72495D02*
D03*
Y70527D02*
D03*
Y68558D02*
D03*
Y66590D02*
D03*
Y64621D02*
D03*
Y62653D02*
D03*
Y60684D02*
D03*
Y58716D02*
D03*
Y56747D02*
D03*
X154073D02*
D03*
Y58716D02*
D03*
Y60684D02*
D03*
Y62653D02*
D03*
Y64621D02*
D03*
Y66590D02*
D03*
Y68558D02*
D03*
Y70527D02*
D03*
Y72495D02*
D03*
Y74464D02*
D03*
X198811Y70864D02*
D03*
Y68895D02*
D03*
Y66927D02*
D03*
Y64958D02*
D03*
Y62990D02*
D03*
Y61021D02*
D03*
Y59053D02*
D03*
Y57084D02*
D03*
Y55116D02*
D03*
Y53147D02*
D03*
X217945D02*
D03*
Y55116D02*
D03*
Y57084D02*
D03*
Y59053D02*
D03*
Y61021D02*
D03*
Y62990D02*
D03*
Y64958D02*
D03*
Y66927D02*
D03*
Y68895D02*
D03*
Y70864D02*
D03*
X262945D02*
D03*
Y68895D02*
D03*
Y66927D02*
D03*
Y64958D02*
D03*
Y62990D02*
D03*
Y61021D02*
D03*
Y59053D02*
D03*
Y57084D02*
D03*
Y55116D02*
D03*
Y53147D02*
D03*
X243811D02*
D03*
Y55116D02*
D03*
Y57084D02*
D03*
Y59053D02*
D03*
Y61021D02*
D03*
Y62990D02*
D03*
Y64958D02*
D03*
Y66927D02*
D03*
Y68895D02*
D03*
Y70864D02*
D03*
X340211D02*
D03*
Y68895D02*
D03*
Y66927D02*
D03*
Y64958D02*
D03*
Y62990D02*
D03*
Y61021D02*
D03*
Y59053D02*
D03*
Y57084D02*
D03*
Y55116D02*
D03*
Y53147D02*
D03*
X359345D02*
D03*
Y55116D02*
D03*
Y57084D02*
D03*
Y59053D02*
D03*
Y61021D02*
D03*
Y62990D02*
D03*
Y64958D02*
D03*
Y66927D02*
D03*
Y68895D02*
D03*
Y70864D02*
D03*
G54D224*
X45138Y214828D02*
D03*
X35138D02*
D03*
X45138Y224828D02*
D03*
X35138D02*
D03*
X45138Y234828D02*
D03*
X35138D02*
D03*
X45138Y244828D02*
D03*
X35138D02*
D03*
X45138Y254828D02*
D03*
X35138D02*
D03*
X45138Y264828D02*
D03*
X35138D02*
D03*
X45138Y274828D02*
D03*
X35138D02*
D03*
X100276Y4828D02*
D03*
X90276D02*
D03*
X100276Y14828D02*
D03*
X90276D02*
D03*
X100276Y24828D02*
D03*
X90276D02*
D03*
X100276Y34828D02*
D03*
X90276D02*
D03*
X100276Y44828D02*
D03*
X90276D02*
D03*
X100276Y54828D02*
D03*
X90276D02*
D03*
X100276Y64828D02*
D03*
X90276D02*
D03*
X100295Y74828D02*
D03*
X90295D02*
D03*
X100295Y84828D02*
D03*
X90295D02*
D03*
X100295Y94828D02*
D03*
X90295D02*
D03*
X100295Y104828D02*
D03*
X90295D02*
D03*
X100295Y114828D02*
D03*
X90295D02*
D03*
X100295Y124828D02*
D03*
X90295D02*
D03*
X100295Y134828D02*
D03*
X90295D02*
D03*
X100295Y144828D02*
D03*
X90295D02*
D03*
X100295Y154828D02*
D03*
X90295D02*
D03*
X100295Y164828D02*
D03*
X90295D02*
D03*
X100295Y174828D02*
D03*
X90295D02*
D03*
X100295Y184828D02*
D03*
X90295D02*
D03*
X100295Y194828D02*
D03*
X90295D02*
D03*
X100295Y204828D02*
D03*
X90295D02*
D03*
X100295Y214828D02*
D03*
X90295D02*
D03*
X100295Y224828D02*
D03*
X90295D02*
D03*
X100295Y234828D02*
D03*
X90295D02*
D03*
X100295Y244828D02*
D03*
X90295D02*
D03*
X100295Y254828D02*
D03*
X90295D02*
D03*
X100295Y264828D02*
D03*
X90295D02*
D03*
X100295Y274828D02*
D03*
X90295D02*
D03*
X45138Y4828D02*
D03*
X35138D02*
D03*
X45138Y14828D02*
D03*
X35138D02*
D03*
X45138Y24828D02*
D03*
X35138D02*
D03*
X45138Y34828D02*
D03*
X35138D02*
D03*
X45138Y44828D02*
D03*
X35138D02*
D03*
X45138Y54828D02*
D03*
X35138D02*
D03*
X45138Y64828D02*
D03*
X35138D02*
D03*
G54D225*
X502578Y221050D02*
D03*
Y188550D02*
D03*
Y156050D02*
D03*
Y123550D02*
D03*
Y91050D02*
D03*
Y58550D02*
D03*
G54D226*
X390546Y259171D02*
D03*
G54D227*
Y249171D02*
D03*
Y239171D02*
D03*
Y229171D02*
D03*
Y219171D02*
D03*
X356278Y228500D02*
D03*
Y218500D02*
D03*
X346278Y228500D02*
D03*
Y218500D02*
D03*
X336278Y228500D02*
D03*
Y218500D02*
D03*
X326278Y228500D02*
D03*
Y218500D02*
D03*
X316278Y228500D02*
D03*
X356278Y266000D02*
D03*
Y256000D02*
D03*
X346278Y266000D02*
D03*
Y256000D02*
D03*
X336278Y266000D02*
D03*
Y256000D02*
D03*
X326278Y266000D02*
D03*
Y256000D02*
D03*
X316278Y266000D02*
D03*
G54D228*
X185303Y11825D02*
D03*
X195303D02*
D03*
X205303D02*
D03*
X256484D02*
D03*
X246484D02*
D03*
X236484D02*
D03*
X287665Y39384D02*
D03*
X297665D02*
D03*
X307665D02*
D03*
Y11825D02*
D03*
X297665D02*
D03*
X287665D02*
D03*
X338886Y11865D02*
D03*
X348886D02*
D03*
X358886D02*
D03*
X270498Y259868D02*
D03*
X260498D02*
D03*
X250498D02*
D03*
X218703Y259825D02*
D03*
X186603D02*
D03*
X196603Y235725D02*
D03*
G54D229*
X215303Y11825D02*
D03*
X266484D02*
D03*
X317665Y39384D02*
D03*
Y11825D02*
D03*
X368886Y11865D02*
D03*
X280498Y259868D02*
D03*
X228703Y259825D02*
D03*
X196603D02*
D03*
X186603Y235725D02*
D03*
G54D230*
X316278Y218500D02*
D03*
Y256000D02*
D03*
G54D231*
X398178Y142300D02*
D03*
Y132300D02*
D03*
Y122300D02*
D03*
X398278Y183700D02*
D03*
Y173700D02*
D03*
Y163700D02*
D03*
X373917Y173765D02*
D03*
Y183765D02*
D03*
Y111561D02*
D03*
Y121561D02*
D03*
X500378Y254200D02*
D03*
X373917Y142663D02*
D03*
Y152663D02*
D03*
G54D232*
X419978Y95900D02*
D03*
X399978D02*
D03*
G54D233*
X454773Y67139D02*
D03*
X441373D02*
D03*
Y14139D02*
D03*
X454773D02*
D03*
X470878Y168400D02*
D03*
X484278D02*
D03*
Y115400D02*
D03*
X470878D02*
D03*
X483778Y67100D02*
D03*
X470378D02*
D03*
Y14100D02*
D03*
X483778D02*
D03*
G54D234*
X500378Y264200D02*
D03*
G54D235*
X467346Y239258D02*
D03*
X463410D02*
D03*
Y243195D02*
D03*
X467346D02*
D03*
X471283D02*
D03*
Y239258D02*
D03*
Y235320D02*
D03*
X467346D02*
D03*
X463410D02*
D03*
M02*
