G04 Layer_Color=16711935*
%FSLAX25Y25*%
%MOIN*%
G70*
G01*
G75*
%ADD101C,0.03000*%
%ADD106C,0.08400*%
%ADD182C,0.06305*%
G04:AMPARAMS|DCode=219|XSize=54mil|YSize=54mil|CornerRadius=27mil|HoleSize=0mil|Usage=FLASHONLY|Rotation=270.000|XOffset=0mil|YOffset=0mil|HoleType=Round|Shape=RoundedRectangle|*
%AMROUNDEDRECTD219*
21,1,0.05400,0.00000,0,0,270.0*
21,1,0.00000,0.05400,0,0,270.0*
1,1,0.05400,0.00000,0.00000*
1,1,0.05400,0.00000,0.00000*
1,1,0.05400,0.00000,0.00000*
1,1,0.05400,0.00000,0.00000*
%
%ADD219ROUNDEDRECTD219*%
%ADD224C,0.05439*%
%ADD225O,0.13400X0.14000*%
%ADD226R,0.06305X0.06305*%
%ADD227C,0.06305*%
%ADD228O,0.06400X0.12400*%
%ADD229R,0.06400X0.12400*%
%ADD230R,0.06305X0.06305*%
%ADD231O,0.12400X0.06400*%
%ADD232O,0.08650X0.16900*%
G04:AMPARAMS|DCode=233|XSize=137mil|YSize=87mil|CornerRadius=0mil|HoleSize=0mil|Usage=FLASHONLY|Rotation=270.000|XOffset=0mil|YOffset=0mil|HoleType=Round|Shape=Octagon|*
%AMOCTAGOND233*
4,1,8,-0.02175,-0.06850,0.02175,-0.06850,0.04350,-0.04675,0.04350,0.04675,0.02175,0.06850,-0.02175,0.06850,-0.04350,0.04675,-0.04350,-0.04675,-0.02175,-0.06850,0.0*
%
%ADD233OCTAGOND233*%

%ADD234R,0.12400X0.06400*%
%ADD235C,0.02600*%
%ADD236R,0.07045X0.03543*%
%ADD237R,0.06305X0.06305*%
G04:AMPARAMS|DCode=238|XSize=54mil|YSize=54mil|CornerRadius=27mil|HoleSize=0mil|Usage=FLASHONLY|Rotation=0.000|XOffset=0mil|YOffset=0mil|HoleType=Round|Shape=RoundedRectangle|*
%AMROUNDEDRECTD238*
21,1,0.05400,0.00000,0,0,0.0*
21,1,0.00000,0.05400,0,0,0.0*
1,1,0.05400,0.00000,0.00000*
1,1,0.05400,0.00000,0.00000*
1,1,0.05400,0.00000,0.00000*
1,1,0.05400,0.00000,0.00000*
%
%ADD238ROUNDEDRECTD238*%
G04:AMPARAMS|DCode=239|XSize=50mil|YSize=67mil|CornerRadius=13.5mil|HoleSize=0mil|Usage=FLASHONLY|Rotation=90.000|XOffset=0mil|YOffset=0mil|HoleType=Round|Shape=RoundedRectangle|*
%AMROUNDEDRECTD239*
21,1,0.05000,0.04000,0,0,90.0*
21,1,0.02300,0.06700,0,0,90.0*
1,1,0.02700,0.02000,0.01150*
1,1,0.02700,0.02000,-0.01150*
1,1,0.02700,-0.02000,-0.01150*
1,1,0.02700,-0.02000,0.01150*
%
%ADD239ROUNDEDRECTD239*%
G36*
X452578Y60200D02*
X443478D01*
Y74100D01*
X452578D01*
Y60200D01*
D02*
G37*
G36*
X482083Y108461D02*
X472983D01*
Y122361D01*
X482083D01*
Y108461D01*
D02*
G37*
G36*
X481583Y60161D02*
X472483D01*
Y74061D01*
X481583D01*
Y60161D01*
D02*
G37*
G36*
Y7161D02*
X472483D01*
Y21061D01*
X481583D01*
Y7161D01*
D02*
G37*
G36*
X452578Y7200D02*
X443478D01*
Y21100D01*
X452578D01*
Y7200D01*
D02*
G37*
G36*
X482083Y161461D02*
X472983D01*
Y175361D01*
X482083D01*
Y161461D01*
D02*
G37*
G36*
X409446Y249171D02*
X401546Y246171D01*
X402746Y247371D01*
Y250971D01*
X401546Y252171D01*
X409446Y249171D01*
D02*
G37*
G36*
Y259171D02*
X401546Y256171D01*
X402746Y257371D01*
Y260971D01*
X401546Y262171D01*
X409446Y259171D01*
D02*
G37*
G36*
Y239171D02*
X401546Y236171D01*
X402746Y237371D01*
Y240971D01*
X401546Y242171D01*
X409446Y239171D01*
D02*
G37*
G36*
Y219171D02*
X401546Y216171D01*
X402746Y217371D01*
Y220971D01*
X401546Y222171D01*
X409446Y219171D01*
D02*
G37*
G36*
Y229171D02*
X401546Y226171D01*
X402746Y227371D01*
Y230971D01*
X401546Y232171D01*
X409446Y229171D01*
D02*
G37*
G54D101*
X455491Y182877D02*
D03*
X459491D02*
D03*
Y186877D02*
D03*
X455491D02*
D03*
Y190877D02*
D03*
X459491D02*
D03*
Y194877D02*
D03*
X455491D02*
D03*
X447491D02*
D03*
X443491D02*
D03*
Y190877D02*
D03*
X447491D02*
D03*
Y186877D02*
D03*
X443491D02*
D03*
Y182877D02*
D03*
X447491D02*
D03*
X451491D02*
D03*
Y186877D02*
D03*
Y194877D02*
D03*
Y190877D02*
D03*
X410959Y50768D02*
D03*
X406959D02*
D03*
X414959D02*
D03*
X418959D02*
D03*
Y46768D02*
D03*
Y42768D02*
D03*
X414959D02*
D03*
Y46768D02*
D03*
X410959D02*
D03*
Y42768D02*
D03*
X406959D02*
D03*
Y46768D02*
D03*
Y54768D02*
D03*
Y58768D02*
D03*
X410959D02*
D03*
Y54768D02*
D03*
X414959D02*
D03*
Y58768D02*
D03*
X418959D02*
D03*
Y54768D02*
D03*
X159309Y72102D02*
D03*
X167971Y59109D02*
D03*
X163640D02*
D03*
X159309D02*
D03*
X167971Y63440D02*
D03*
X163640D02*
D03*
X159309D02*
D03*
X167971Y67771D02*
D03*
X163640D02*
D03*
X159309D02*
D03*
X167971Y72102D02*
D03*
X163640D02*
D03*
X208378Y68502D02*
D03*
X212709D02*
D03*
X204047Y64171D02*
D03*
X208378D02*
D03*
X212709D02*
D03*
X204047Y59840D02*
D03*
X208378D02*
D03*
X212709D02*
D03*
X204047Y55510D02*
D03*
X208378D02*
D03*
X212709D02*
D03*
X204047Y68502D02*
D03*
X249047D02*
D03*
X257709Y55510D02*
D03*
X253378D02*
D03*
X249047D02*
D03*
X257709Y59840D02*
D03*
X253378D02*
D03*
X249047D02*
D03*
X257709Y64171D02*
D03*
X253378D02*
D03*
X249047D02*
D03*
X257709Y68502D02*
D03*
X253378D02*
D03*
X349778D02*
D03*
X354109D02*
D03*
X345447Y64171D02*
D03*
X349778D02*
D03*
X354109D02*
D03*
X345447Y59840D02*
D03*
X349778D02*
D03*
X354109D02*
D03*
X345447Y55510D02*
D03*
X349778D02*
D03*
X354109D02*
D03*
X345447Y68502D02*
D03*
G54D106*
X540945Y42151D02*
D03*
G54D182*
X400547Y219171D02*
D03*
Y229171D02*
D03*
Y239171D02*
D03*
Y249171D02*
D03*
Y259171D02*
D03*
G54D219*
X188878Y21600D02*
D03*
X198878D02*
D03*
X208878D02*
D03*
X218878D02*
D03*
X238878D02*
D03*
X268878D02*
D03*
X348878D02*
D03*
X358878D02*
D03*
X438878Y121600D02*
D03*
X428878Y151600D02*
D03*
X418878Y171600D02*
D03*
X328878Y31600D02*
D03*
X348878D02*
D03*
X338878D02*
D03*
X358878D02*
D03*
X288878D02*
D03*
X308878D02*
D03*
X298878D02*
D03*
X318878D02*
D03*
X208878D02*
D03*
X248878D02*
D03*
X238878D02*
D03*
X258878D02*
D03*
X148878Y41600D02*
D03*
X418578Y18400D02*
D03*
X358878Y121600D02*
D03*
X378878Y221600D02*
D03*
X188878Y31600D02*
D03*
X178878D02*
D03*
X198878D02*
D03*
X288878Y81600D02*
D03*
X308878Y71600D02*
D03*
X328878Y81600D02*
D03*
X218878Y241600D02*
D03*
X328878Y91600D02*
D03*
G54D224*
X45138Y214828D02*
D03*
X35138D02*
D03*
X45138Y224828D02*
D03*
X35138D02*
D03*
X45138Y234828D02*
D03*
X35138D02*
D03*
X45138Y244828D02*
D03*
X35138D02*
D03*
X45138Y254828D02*
D03*
X35138D02*
D03*
X45138Y264828D02*
D03*
X35138D02*
D03*
X45138Y274828D02*
D03*
X35138D02*
D03*
X100276Y4828D02*
D03*
X90276D02*
D03*
X100276Y14828D02*
D03*
X90276D02*
D03*
X100276Y24828D02*
D03*
X90276D02*
D03*
X100276Y34828D02*
D03*
X90276D02*
D03*
X100276Y44828D02*
D03*
X90276D02*
D03*
X100276Y54828D02*
D03*
X90276D02*
D03*
X100276Y64828D02*
D03*
X90276D02*
D03*
X100295Y74828D02*
D03*
X90295D02*
D03*
X100295Y84828D02*
D03*
X90295D02*
D03*
X100295Y94828D02*
D03*
X90295D02*
D03*
X100295Y104828D02*
D03*
X90295D02*
D03*
X100295Y114828D02*
D03*
X90295D02*
D03*
X100295Y124828D02*
D03*
X90295D02*
D03*
X100295Y134828D02*
D03*
X90295D02*
D03*
X100295Y144828D02*
D03*
X90295D02*
D03*
X100295Y154828D02*
D03*
X90295D02*
D03*
X100295Y164828D02*
D03*
X90295D02*
D03*
X100295Y174828D02*
D03*
X90295D02*
D03*
X100295Y184828D02*
D03*
X90295D02*
D03*
X100295Y194828D02*
D03*
X90295D02*
D03*
X100295Y204828D02*
D03*
X90295D02*
D03*
X100295Y214828D02*
D03*
X90295D02*
D03*
X100295Y224828D02*
D03*
X90295D02*
D03*
X100295Y234828D02*
D03*
X90295D02*
D03*
X100295Y244828D02*
D03*
X90295D02*
D03*
X100295Y254828D02*
D03*
X90295D02*
D03*
X100295Y264828D02*
D03*
X90295D02*
D03*
X100295Y274828D02*
D03*
X90295D02*
D03*
X45138Y4828D02*
D03*
X35138D02*
D03*
X45138Y14828D02*
D03*
X35138D02*
D03*
X45138Y24828D02*
D03*
X35138D02*
D03*
X45138Y34828D02*
D03*
X35138D02*
D03*
X45138Y44828D02*
D03*
X35138D02*
D03*
X45138Y54828D02*
D03*
X35138D02*
D03*
X45138Y64828D02*
D03*
X35138D02*
D03*
G54D225*
X502578Y221050D02*
D03*
Y188550D02*
D03*
Y156050D02*
D03*
Y123550D02*
D03*
Y91050D02*
D03*
Y58550D02*
D03*
G54D226*
X390546Y259171D02*
D03*
G54D227*
Y249171D02*
D03*
Y239171D02*
D03*
Y229171D02*
D03*
Y219171D02*
D03*
X356278Y228500D02*
D03*
Y218500D02*
D03*
X346278Y228500D02*
D03*
Y218500D02*
D03*
X336278Y228500D02*
D03*
Y218500D02*
D03*
X326278Y228500D02*
D03*
Y218500D02*
D03*
X316278Y228500D02*
D03*
X356278Y266000D02*
D03*
Y256000D02*
D03*
X346278Y266000D02*
D03*
Y256000D02*
D03*
X336278Y266000D02*
D03*
Y256000D02*
D03*
X326278Y266000D02*
D03*
Y256000D02*
D03*
X316278Y266000D02*
D03*
G54D228*
X185303Y11825D02*
D03*
X195303D02*
D03*
X205303D02*
D03*
X256484D02*
D03*
X246484D02*
D03*
X236484D02*
D03*
X287665Y39384D02*
D03*
X297665D02*
D03*
X307665D02*
D03*
Y11825D02*
D03*
X297665D02*
D03*
X287665D02*
D03*
X338886Y11865D02*
D03*
X348886D02*
D03*
X358886D02*
D03*
X270498Y259868D02*
D03*
X260498D02*
D03*
X250498D02*
D03*
X218703Y259825D02*
D03*
X186603D02*
D03*
X196603Y235725D02*
D03*
G54D229*
X215303Y11825D02*
D03*
X266484D02*
D03*
X317665Y39384D02*
D03*
Y11825D02*
D03*
X368886Y11865D02*
D03*
X280498Y259868D02*
D03*
X228703Y259825D02*
D03*
X196603D02*
D03*
X186603Y235725D02*
D03*
G54D230*
X316278Y218500D02*
D03*
Y256000D02*
D03*
G54D231*
X398178Y142300D02*
D03*
Y132300D02*
D03*
Y122300D02*
D03*
X398278Y183700D02*
D03*
Y173700D02*
D03*
Y163700D02*
D03*
X373917Y173765D02*
D03*
Y183765D02*
D03*
Y111561D02*
D03*
Y121561D02*
D03*
X500378Y254200D02*
D03*
X373917Y142663D02*
D03*
Y152663D02*
D03*
G54D232*
X419978Y95900D02*
D03*
X399978D02*
D03*
G54D233*
X454773Y67139D02*
D03*
X441373D02*
D03*
Y14139D02*
D03*
X454773D02*
D03*
X470878Y168400D02*
D03*
X484278D02*
D03*
Y115400D02*
D03*
X470878D02*
D03*
X483778Y67100D02*
D03*
X470378D02*
D03*
Y14100D02*
D03*
X483778D02*
D03*
G54D234*
X500378Y264200D02*
D03*
G54D235*
X467346Y239258D02*
D03*
X463410D02*
D03*
Y243195D02*
D03*
X467346D02*
D03*
X471283D02*
D03*
Y239258D02*
D03*
Y235320D02*
D03*
X467346D02*
D03*
X463410D02*
D03*
G54D236*
X530781Y41827D02*
D03*
X531026Y237424D02*
D03*
X173626Y7924D02*
D03*
X171826Y244024D02*
D03*
G54D237*
X413346Y219171D02*
D03*
Y229171D02*
D03*
Y239171D02*
D03*
Y249171D02*
D03*
Y259171D02*
D03*
G54D238*
X488878Y41600D02*
D03*
X468878D02*
D03*
X448878D02*
D03*
X288878Y271600D02*
D03*
X238978Y251600D02*
D03*
X208878Y241600D02*
D03*
X318878Y211600D02*
D03*
X358878Y171600D02*
D03*
Y141600D02*
D03*
X438878Y131600D02*
D03*
X518878Y171600D02*
D03*
X398878Y81600D02*
D03*
X518878Y191600D02*
D03*
G54D239*
X530703Y38925D02*
D03*
Y44925D02*
D03*
X531103Y240325D02*
D03*
Y234325D02*
D03*
X173703Y10825D02*
D03*
Y4825D02*
D03*
X171903Y246925D02*
D03*
Y240925D02*
D03*
M02*
