M48
;Layer_Color=9474304
;FILE_FORMAT=4:4
METRIC,TZ
;TYPE=PLATED
T1F00S00C0.2540
T2F00S00C0.3810
T3F00S00C0.9000
T4F00S00C1.0160
T5F00S00C1.3970
T6F00S00C1.5240
T7F00S00C1.6002
;TYPE=NON_PLATED
T8F00S00C1.2800
T9F00S00C3.0000
%
T01
X1368814Y86678
X1385324Y70422
X1378720Y154496
X1376942Y213424
X1378212Y297498
X1378974Y345504
X1379228Y397574
X1340620Y384366
X1316998Y379794
X1305314Y349060
X1328428Y319596
X1327920Y270066
X1322078Y182436
X1323094Y107506
X1290264Y76708
X1282644Y68580
X1211842Y60516
X1175266Y86424
X1183648Y136970
X1241750Y116332
X1210064Y204788
X1215906Y258128
X1235464Y249746
X1079064Y305944
X1050298Y361760
X1056140Y385890
X1061220Y385636
X1089350Y396748
X1113290Y356934
X973844Y338138
X964954
X975368Y295212
X974034Y258572
X939046Y255842
X934156Y222504
X952444Y211328
X961588Y231902
X947364Y114554
X945078Y101854
X938474
X953460Y79756
X952000Y52134
X952762Y21400
X974098Y35878
X973590Y66866
X1033676Y108630
X1043836
X1053996
X1064156
Y118790
Y128950
X1053996
X1043836
X1033676
Y118790
X1043836
X1053996
Y139110
X1043836
X1033676
Y149270
X1043836
X1053996
X1064156
Y139110
X1056076Y178562
X926028Y175895
X921202Y159027
X899436Y162994
Y173994
X888436
Y162994
X877436
Y173994
Y151994
X888436
X899436
Y140994
X888436
X877436
X863798Y128016
X857194
X850908Y127826
X862592Y106744
Y93536
X852876Y84582
X846272
X837636Y95504
Y101854
X822460Y72962
X822714Y49848
X841192Y58928
X846336Y41720
X846590Y22162
X821952Y21908
X768866Y20892
X744736Y71692
X716288Y90234
X699270Y98108
X691332Y96774
X695904Y105156
X688094Y125032
X698762Y130620
X678188Y135700
X673044Y128016
X667044
X674568Y118872
Y112522
X658312Y92710
X644596Y79756
X644660Y73216
X667964Y67310
X682760Y78550
X689618
X692920Y46546
X716288Y46800
X693174Y21400
X638564Y20130
X587764Y24448
X563888Y23686
X561602Y42990
X538996Y64072
X539250Y70676
X543314Y78804
X574556Y79566
X584462Y76518
Y83122
X585160Y91440
X592018
X580906Y106490
X588462Y126238
X595828Y123952
X598622Y133350
X598000Y148500
X587446Y138176
X610878Y126302
X618942Y128524
Y122936
X616402Y115062
X622752
X632580Y140994
X643580
X654580
Y151994
X643580
X632580
Y162994
Y173994
X643580
Y162994
X654580
Y173994
X681172Y176149
X676854Y159512
X711398Y176784
X731210Y175514
X759912Y165100
X775660Y151638
X781502
X809950Y141986
X826010Y148024
X837250Y149000
X824682Y162052
X806394Y171196
X806214Y183176
X809214Y202176
X804214Y215176
X808997Y227449
X819602Y235966
X838652Y251460
X855924Y251714
X866084Y243840
X881324Y257048
X881578Y271018
X868878
X830778Y263652
X832048Y284226
X812998Y275844
X804616Y267716
X795472Y266954
X787344
X771088
X760674Y264414
X745180Y265684
X738322
X723336Y291084
X733242Y325628
X744990Y333312
X753308Y333502
X778836Y338456
X778772Y325692
X799854Y336868
X799790Y344678
X812182Y365252
X827930
X829064Y392748
X856432Y389890
X864306Y389636
X884944Y381318
X927108Y355410
X915424Y297752
X910026Y283972
X900120Y249174
X906470Y229616
X906216Y223520
X919424Y223266
Y229616
X895802Y218948
X893770Y213106
X867354Y205486
Y199136
X862782Y193040
X863918Y187078
X824936Y190500
X779464Y200426
X760464Y202176
X760214Y215176
X763024Y228156
X752356
X779464Y228176
X714954Y216662
X703016Y209042
X694634Y224028
X688862
X682188Y219710
X684220Y214376
X650946Y213360
X647644Y218440
X642564Y225044
X623006Y205740
X610306Y203454
X617418Y193040
X619450Y187198
X567634Y175641
X562554Y159258
X540280Y162994
Y173994
Y151994
Y140994
X552648Y128524
X558236
X562872Y124778
X549600Y118872
Y112268
X547314Y221996
Y228092
X559760
Y221996
X573032Y219774
X588970Y220726
X591510Y249936
X601162
X610814Y249682
X629356Y259080
X634436Y263906
X656788Y259842
X682696Y264922
X690316
X712414Y238252
X744164Y142748
X750514
X911900Y128016
X918662
X917392Y118872
X913836Y112522
X905200Y114300
Y108712
X902406Y88646
X896056
X917392Y94234
X883102Y67818
X899168Y21400
X859226Y319024
X724352Y367538
X716034Y367602
X714656Y385064
X706782
X698908
X706782Y399034
X714656
X582620Y271200
X561792Y252730
X553664
X546298Y250444
X539948
X570682Y241300
X536646Y213360
X533344Y218440
X503118Y213614
X509468Y203454
Y197104
X503214Y192278
X505246Y186690
X518280Y173994
X529280
Y162994
X518280
Y151994
X529280
Y140994
X518280
X504896Y128016
Y122428
X507436Y114808
X499562Y115062
X484132Y111824
X487942Y105474
X470416Y111570
X456700
X441650Y117602
X441904Y128270
X448254Y130048
X445714Y137414
X439110
X433268Y121666
X430220Y92202
X436181Y79566
X442984
X444698Y87630
X464828Y84900
X464574Y77026
Y70422
X488704Y70930
Y77534
X507500Y72136
Y66040
X507944Y91694
X483560Y129794
Y137414
Y145034
X483250Y153000
X472448Y129096
X448023Y168171
X453588Y185166
X426646Y183138
Y172138
Y161138
Y150138
X415646
X404646
Y161138
X415646
Y172138
X404646
Y183138
X415646
X391612Y195834
X389580Y201422
X392374Y208534
Y214122
X416758Y221488
X422346
X432252Y230632
X434284Y236474
X446286Y235014
Y229172
X446222Y242824
X458732Y227648
X470352Y215646
X483052Y229362
X483624Y244158
X490990Y241618
X497340Y237300
X506420Y253746
X514040Y261620
Y268224
X530614Y284290
X534678Y256096
X454668Y281496
X422346Y267208
Y260604
X420886Y253048
X409392Y273304
X402788Y278892
X381198Y277114
X389834Y257556
Y250444
X391168Y137758
Y131916
X367990Y134366
X368054Y143320
X364688Y156718
X367990Y115062
X373578
X373642Y95060
X383992Y96012
X391104
X404884Y94044
X401074Y114618
X440952Y55944
X440698Y39180
X454668Y45276
X455176Y21146
X422918Y7938
X355100Y6414
X509024Y20384
X134500Y25000
Y50000
X134450Y75800
Y101200
Y151450
X69450Y151700
Y101300
Y75950
Y50950
Y24800
X356878Y652082
X420632Y622872
X423362Y589280
X435364Y575374
X476956Y553466
X503944Y552640
X512770Y613664
X534678Y624904
X531884Y697802
X463558Y697548
X462288Y630746
X560014Y621538
X557030Y586042
X543822Y574612
X547378Y542354
X663456Y539052
X651264Y518478
X675394Y517970
X757182Y529908
X787408Y546418
X807220Y503492
X807130Y493802
X821152Y494056
X821126Y503428
X836620Y503682
X836086Y494056
X842716Y498856
X856178Y484950
X877006Y500380
X893714Y496260
X912630Y485712
X930092Y485902
X932950Y601028
X921202Y601980
X912884Y602044
X904248
X903994Y633286
X887484Y618300
X866910Y629730
X838208Y632270
X840240Y644208
X824238Y607632
X795028Y622618
X768866Y626174
X766834Y644970
X780296Y660972
X788424Y685356
X729496Y679260
X716542Y689928
X674886Y697802
X642120Y695770
X618752Y697040
X617482Y675450
X607004Y650748
X575572Y691706
X543060Y668338
X866656Y685610
X918218Y672148
Y653860
X863798Y408432
X851924Y406464
X851670Y419418
X795980Y449834
X964446Y421450
X974098Y421704
X968002Y492316
X949650Y521716
X934156Y528066
Y536448
X934474Y511620
X970224Y554990
X965208Y591122
X953270Y635318
X940316Y651828
X965208Y655130
X933648Y619506
X1018040Y510604
X1041916Y487744
X1062998Y516954
X1075444Y517462
X1080270Y526352
X1092716Y548196
X1122180Y591884
X1177060Y597714
Y607714
X1187060
Y617714
X1177060
X1197060
Y607714
Y597714
X1187060
X1161296Y647002
X1167646Y676212
X1123958Y676974
X1092208Y674434
X1089350Y699516
X1079952Y699262
X1214572Y672084
X1224034Y652844
X1237940Y681482
X1239210Y690880
X1295408Y690690
X1319030Y623888
X1288296Y598234
X1262896Y606362
X1301758Y560134
X1317950Y497840
X1326396Y501206
X1315982Y417640
X1167108Y464508
X1156948
Y474668
X1167108
Y484828
X1156948
Y494988
X1167108
X1146788
X1136628
X1126468
Y484828
X1136628
Y474668
X1126468
Y464508
X1136628
X1146788
Y474668
Y484828
X1096272Y439230
X1084080
X1340874Y436944
X1343414Y538544
Y571310
X1378974Y571564
X1378466Y615252
X1381006Y695008
T02
X1330970Y32284
X1348750Y24664
X1366530Y32284
X1374150Y50064
X1366530Y67844
X1348750Y75464
X1330970Y67844
X1323350Y50064
X1270960Y57658
X1256228Y57404
X1249688Y45276
X1228606Y61024
X1194506Y59690
X1180282Y35814
X1179012Y105918
X1195014Y121412
X1195776Y145542
X1212096Y148908
X1228034Y144526
X1255466Y137414
X1277310Y124460
X1263848Y101092
X1263848Y70358
X1277564Y29972
X1302012Y89472
X1300678Y148590
X1311854Y161290
X1276802Y172974
X1269436Y202692
X1245306Y202438
X1244036Y216916
X1246322Y226568
X1252926Y234442
X1276802Y253492
X1272484Y266954
X1276548Y288290
X1251148Y293370
X1253180Y313182
X1229812Y318770
X1215652Y317564
X1202126Y318770
X1218636Y334264
X1276802Y336550
X1276548Y372872
X1299662Y396240
X1253434Y396494
X1230320Y397510
X1212858Y399352
X1196030Y397256
X1158502Y379794
X1157994Y371158
X1150310Y371094
X1137356
X1124656
X1116592Y381826
X1079762Y366332
X1087826Y340360
X1104908Y318072
X1121608Y283718
X1127196Y241554
Y228600
Y215392
X1150564
Y228600
Y241554
X1178504Y232156
X1175710Y216916
X1178250Y201676
X1168344Y192024
X1155898Y196342
X1121862Y196596
X1136594Y149606
X1154882Y145796
X1153104Y129794
X1148786Y114554
X1104146Y109792
X1096208Y109728
Y122428
X1104146Y122492
Y134938
X1096208Y135128
X1073856Y87376
X1060458Y71307
Y60641
X1061664Y30988
X1061156Y22098
X1080206Y21336
X1092398
X1103828Y25400
Y36068
Y46990
X1121862Y59690
X1034740Y67310
X1015436Y73660
Y86868
Y100330
X992068Y100260
Y86868
Y73660
Y48260
Y35052
Y22098
X1015436
Y35306
Y48260
X1034510Y34328
X1000450Y116332
Y129540
Y142494
X977082
X973780Y151638
X977082Y129540
Y116332
X1016960Y135382
X1010864Y168402
X1001212Y168656
Y181610
X1010864
X1010102Y193294
X1001212Y194310
X982162Y216408
X978352Y243078
X961080Y250952
X984194Y278638
X1048456Y236474
X1050742Y213360
X1051758Y320548
X1052266Y332232
X1044964Y393764
X1167582Y293740
X1177742Y292862
X1196284Y266954
X1184474Y251080
X1204920Y225806
X1216350
X1211524Y189484
X1229812Y266446
X1311854Y271272
X1316934Y299466
X1299916Y313944
X1311346Y327152
X1301186Y231648
X1203904Y95504
X893008Y260858
X900374Y289560
X868878Y291846
X869704Y321120
X912312Y325120
Y336804
X909518Y347472
X921964Y379730
X519000Y291000
X511750Y297750
X416530Y67844
X398750Y75464
X380970Y67844
X373350Y50064
X380970Y32284
X398750Y24664
X416530Y32284
X424150Y50064
X150650Y16750
X150350Y7750
X141250Y176250
X127750
X76000
X62750
X54100Y16750
X53850Y7750
X62950Y686764
X77000Y686700
X127200Y686764
X142250Y686700
X202050Y686964
X217050Y683764
X267050Y686964
X282050Y683764
X380970Y677844
X398750Y685464
X416530Y677844
X424150Y660064
X416530Y642284
X398750Y634664
X380970Y642284
X373350Y660064
X610560Y622046
X723336Y696722
X834398Y469710
X867418Y473266
X883928Y428054
X903676Y418592
X892500Y405892
X921202Y451612
Y463042
X1071062Y470916
X1090620Y468122
X1110940Y462280
X1116788Y450318
Y440318
Y430318
X1127788Y424318
X1133788Y430318
X1146788
X1140788Y424318
X1152788
X1158788Y430318
X1177996Y427482
X1181806Y403860
X1121862Y409448
X1075958Y443662
X1111194Y480568
X1111448Y498602
X1114750Y512064
X1140150
X1145230Y531622
X1165296Y528066
X1165550Y512064
X1190950Y507238
Y486664
X1216350
X1213556Y511810
X1215334Y537464
X1215588Y547370
X1211016Y564134
X1201364
X1174440Y571246
Y579628
Y588010
X1164788Y583946
Y572516
X1172027Y547116
X1182822Y527050
X1238512Y531178
X1276548Y536448
X1276802Y503428
Y454914
X1296868Y456438
X1301186Y478282
X1318204Y470662
X1317950Y450850
X1293566Y423672
X1248608Y427736
X1255720Y456184
X1213302Y445770
X1190950Y461264
X1134054Y547116
X1118878Y567500
X1103638
X1088652
X1074174
X1063950Y567436
X1124402Y578358
X1158438Y630174
X1184600Y649224
Y658622
Y668020
X1203142Y669798
X1206444Y660400
X1216604Y660908
X1226510Y638556
X1205428Y625856
X1240544Y578930
X1253688Y561340
X1276548Y586232
X1323350Y660064
X1330970Y677844
X1348750Y685464
X1366530Y677844
X1374150Y660064
X1366530Y642284
X1348750Y634664
X1330970Y642284
X1368750Y522478
X1372370Y449136
T03
X803346Y554990
X828746
X854146
X879546
X904946
Y580390
X879546
X854146
X828746
X803346
Y650240
X828746
X854146
X879546
X904946
Y675640
X879546
X854146
X828746
X803346
X991988Y658294
X1017388
Y632894
X991988
Y607494
X1017388
Y582094
X991988
Y556694
X1017388
T04
X1374000Y107064
X936970Y30136
X949750Y283364
Y308764
Y362364
Y387764
X1011372Y361442
Y336042
Y310642
X911570Y30136
X886170
X860770
X806870Y30036
X781470
X756070
X730670
X676870
X651470
X626070
X600670
X546870
X730670Y100036
X756070
X781470
X806870
X521470Y30036
X496070
X470670
X473972Y598742
X499372
Y659956
X473972
X555506
X580906
X636266Y660064
X661666
X687066
X712466
X949750Y466764
Y441364
X1011626Y441198
Y466598
Y415798
X1270960Y645668
Y671068
T05
X1015944Y243586
X1066744
T06
X1276548Y148717
Y231267
Y313817
Y396367
Y478917
Y561467
T07
X1121088Y35914
X1155124
X1194760Y35814
X1228796
Y170434
X1194760
X1155124Y170534
X1121088
X1196030Y293116
X1230066
Y427736
X1196030
T08
X229300Y12264
X254700
Y37664
X229300
Y63064
X254700
Y88464
X229300
Y113864
X254700
Y139264
X229300
Y164664
X254700
X254750Y190064
X229350
Y215464
X254750
Y240864
X229350
Y266264
X254750
Y291664
X229350
Y317064
X254750
Y342464
X229350
Y367864
X254750
Y393264
X229350
X114650Y164664
Y139264
Y113864
Y88464
Y63064
Y37664
Y12264
X89250
Y37664
Y63064
Y88464
Y113864
Y139264
Y164664
Y545664
X114650
Y571064
X89250
Y596464
X114650
Y621864
X89250
Y647264
X114650
Y672664
X89250
Y698064
X114650
X229350
Y672664
Y647264
Y621864
Y596464
Y571064
Y545664
Y520264
Y494864
Y469464
Y444064
Y418664
X254750
Y444064
Y469464
Y494864
Y520264
Y545664
Y571064
Y596464
Y621864
Y647264
Y672664
Y698064
T09
X1348750Y50064
X398750
Y660064
X1348750
M30
